<?xml version="1.0" encoding="UTF-8"?>
<svg width="1920px" height="354px" viewBox="0 0 1920 354" version="1.1" xmlns="http://www.w3.org/2000/svg" xmlns:xlink="http://www.w3.org/1999/xlink">
    <!-- Generator: Sketch 59 (86127) - https://sketch.com -->
    <title>bg 2</title>
    <desc>Created with Sketch.</desc>
    <defs>
        <linearGradient x1="50%" y1="0%" x2="50%" y2="100%" id="linearGradient-1">
            <stop stop-color="#E8E4E4" stop-opacity="0.709517045" offset="0%"></stop>
            <stop stop-color="#F0F0F0" stop-opacity="0" offset="100%"></stop>
        </linearGradient>
        <linearGradient x1="50%" y1="0%" x2="50%" y2="100%" id="linearGradient-2">
            <stop stop-color="#E0E0E0" stop-opacity="0.709517045" offset="0%"></stop>
            <stop stop-color="#F0F0F0" stop-opacity="0" offset="100%"></stop>
        </linearGradient>
        <linearGradient x1="50%" y1="0%" x2="50%" y2="100%" id="linearGradient-3">
            <stop stop-color="#DEDCDC" offset="0%"></stop>
            <stop stop-color="#ECECEC" stop-opacity="0" offset="100%"></stop>
        </linearGradient>
        <linearGradient x1="50%" y1="0%" x2="50%" y2="100%" id="linearGradient-4">
            <stop stop-color="#D2D2D2" offset="0%"></stop>
            <stop stop-color="#E1E1E1" stop-opacity="0.293269231" offset="100%"></stop>
        </linearGradient>
    </defs>
    <g id="页面5" stroke="none" stroke-width="1" fill="none" fill-rule="evenodd">
        <g id="我的世界-左侧收起备份" transform="translate(0.000000, -726.000000)">
            <g id="bg-2" transform="translate(-150.000000, 726.000000)">
                <path d="M361.271391,0 C361.183816,0 361.100851,0.0038218806 361.017886,0.0114656418 C353.106216,0.777752702 324.713625,8.44826706 318.613366,10.6018968 C302.045644,16.4570179 292.239598,25.8282691 278.052521,25.7308111 C264.360931,25.6352641 252.489971,34.3797269 241.444054,43.1222788 C230.275994,51.9622886 219.949111,60.8042094 209.433251,60.5080136 C201.427093,60.2825227 90,58.3390964 90,58.3390964 L94.0653029,371 L2126,371 L2126,97.6203852 C2104.05336,95.1266081 2013.09336,79.7722028 2021.61113,78.9466766 C1987.96638,82.2124736 1929.99894,72.3940623 1916.06536,72.3940623 C1893.95509,72.3940623 1878.07645,59.6710218 1844.16435,60.9532627 C1831.6965,61.423354 1772.3417,102.1818 1702.2014,95.2737505 C1680.90234,93.1717162 1619.28904,104.84374 1599.01092,107.983414 C1593.89472,108.774544 1588.33143,109.684151 1582.43167,110.689306 C1551.30353,102.888848 1521.25394,95.7877934 1511.83737,94.9355141 C1485.56039,92.5640372 1458.75106,70.259542 1444.81518,70.259542 C1422.70491,70.259542 1397.88674,60.8405172 1363.97465,62.1265801 C1351.5068,62.5966714 1326.1701,97.2936144 1256.02749,90.3836543 C1234.72844,88.2854418 1162.00008,121.560645 1141.71966,124.704142 C1126.34111,127.083263 1112.90763,122.617395 1098.33799,118.151528 C1081.91546,113.118111 1064.04564,108.082783 1040.31755,112.854401 C1018.20958,106.041899 956.358903,63.4451289 952.839789,63.5540525 C939.42936,63.9629937 927.606795,60.7392374 914.645762,57.5173921 C902.189434,54.4197578 888.682212,51.3221236 871.71349,51.4482457 C853.875937,51.5839224 850.140191,50.3991395 829.311275,42.3712793 C821.639284,39.4169656 796.855686,38.8819023 786.90906,37.832796 C784.261082,37.5537988 781.189059,40.7890207 776.87947,44.0242426 C772.512265,47.3015052 766.872925,50.5806788 759.111054,50.2023126 C722.525633,48.4213162 713.16207,43.882833 685.509253,54.4751751 C683.674797,55.1764902 656.005848,54.4751751 643.102429,55.9867289 C619.777638,51.8399884 605.562906,52.7075553 592.099471,53.5789441 C581.235618,54.2802592 570.860338,54.9815743 556.581077,53.0457918 C538.782702,50.6303632 513.941489,34.824976 495.023081,34.824976 C476.217598,34.824976 446.896256,29.4514119 432.013191,21.0662059 C405.277603,6.01564006 417.768499,7.7909036 388.675312,9.090343 C382.499001,9.36742935 376.60846,6.96155551 371.738854,4.55759261 C367.136581,2.28166272 363.446927,0.0076437612 361.294437,0 L361.271391,0 Z M2126,97.4409718 C2128.51227,97.7909718 2129.96075,97.8989718 2130,97.6929718 L2130,97.6929718 L2130,97.6769718 C2129.96467,97.4709718 2128.72228,96.9989718 2126,96.2029718 L2126,96.2029718 L2126,97.4409718 Z" id="Fill-1" fill="url(#linearGradient-1)"></path>
                <path d="M388.269923,68.0603775 C371.002385,73.6139385 360.782136,82.5073898 345.995801,82.4162843 C331.725882,82.3271172 319.353496,90.6235364 307.841003,98.9199556 C296.198806,107.30748 285.438121,115.695005 274.478074,115.413935 C266.133739,115.204586 150,113.357276 150,113.357276 L150,371 L2272,371 L2272,150.63301 C2249.12634,148.266204 2154.32422,133.695133 2163.20178,132.910075 C2128.13588,136.01154 2067.71991,126.693576 2053.19779,126.693576 C2030.15359,126.693576 2013.60423,114.619184 1978.2597,115.838448 C1965.26522,116.286222 1903.40328,154.959554 1830.30028,148.403832 C1808.10156,146.411141 1743.88573,157.485309 1722.75107,160.464654 C1717.41876,161.218698 1711.62048,162.079355 1705.47152,163.031117 C1673.02853,155.630246 1641.70965,148.892313 1631.89533,148.083993 C1604.50843,145.831554 1576.56667,124.667932 1562.04215,124.667932 C1538.99795,124.667932 1513.13147,115.731835 1477.78694,116.94916 C1464.79245,117.396934 1438.38554,150.320925 1365.28013,143.763265 C1343.08141,141.77445 1267.28103,173.349304 1246.14397,176.330587 C1230.11583,178.586903 1216.11493,174.349526 1200.92987,170.112149 C1183.81366,165.335893 1165.18902,160.559637 1140.45866,165.085837 C1117.41686,158.621221 1052.95363,118.201377 1049.28587,118.304113 C1035.30899,118.693734 1022.98464,115.636853 1009.47614,112.578033 C996.493658,109.639395 982.418297,106.700756 964.735224,106.820938 C946.144218,106.946935 942.250675,105.824592 920.539551,98.2066187 C912.543497,95.4017311 886.713048,94.8958046 876.34628,93.899459 C873.586452,93.6358344 870.384668,96.7043465 865.893042,99.774797 C861.34377,102.885954 855.466226,105.995173 847.374095,105.636566 C809.243317,103.948206 799.48424,99.6429847 770.663377,109.689793 C768.751433,110.356608 739.913757,109.689793 726.465301,111.124221 C702.155279,107.189237 687.340121,108.015002 673.310397,108.838829 C661.987658,109.505644 651.171727,110.172459 636.289315,108.332902 C617.739142,106.041695 591.848644,91.0441726 572.131129,91.0441726 C552.531308,91.0441726 521.971442,85.9480777 506.459721,77.9908812 C478.59483,63.7086343 491.613338,65.3931175 461.291263,66.6259499 C454.854067,66.887636 448.714711,64.6061207 443.639415,62.3246054 C438.833135,60.1632719 434.982828,58 432.741819,58 C432.645741,58 432.554468,58.0038768 432.465596,58.0116305 C424.21974,58.736598 394.627855,66.015349 388.269923,68.0603775 Z M2272,150.412454 C2275.14033,150.740454 2276.95093,150.840454 2277,150.648454 L2277,150.648454 L2277,150.632454 C2276.95584,150.440454 2275.40285,149.998454 2272,149.254454 L2272,149.254454 L2272,150.412454 Z" id="Fill-1" fill="url(#linearGradient-2)"></path>
                <path d="M606.201428,139.354334 C573.051601,138.085212 557.728112,164.211572 536.112577,164.211572 C522.4922,164.211572 496.283223,186.255805 470.596893,188.599663 C463.369938,189.263196 443.700815,193.734097 420.859761,199.356367 C397.095063,186.906254 359.743779,156.927667 342.624816,158.636029 C274.061105,165.463873 217.684996,127.414487 205.497393,126.947211 C172.347566,125.679957 157.021825,151.804448 135.408542,151.804448 C121.788165,151.804448 95.5791876,173.848681 69.8928582,176.196278 C55.671736,177.497175 32.3741166,242.596911 0,371.495486 L2093.86162,374 L2093.86162,215.140965 C2093.86162,215.140965 1993.05371,181.218565 1985.22525,181.461549 C1973.77206,181.811071 1961.47182,175.736478 1948.43041,169.661884 C1935.63005,163.701306 1922.1133,157.738859 1907.98379,157.849136 C1894.11335,157.953806 1883.01835,148.344733 1866.82078,142.034632 C1860.8599,139.709465 1854.2029,137.81793 1846.46681,136.995523 C1844.40325,136.774969 1841.63232,140.473929 1837.88818,144.172889 C1834.11025,147.905493 1829.34334,151.638097 1823.31938,151.34091 C1794.87788,149.937211 1793.78303,151.34091 1767.65065,167.566616 C1753.09986,176.607481 1724.4376,182.401709 1706.05482,182.401709 C1687.56165,182.401709 1663.27881,199.444215 1645.88276,202.04601 C1611.64483,207.16736 1554.47574,218.116581 1511.54204,226.60606 C1492.00358,223.421103 1472.16775,218.073592 1459.64673,211.232665 C1422.27292,190.827637 1420.71173,189.068809 1380.03533,190.827637 C1371.4184,191.201459 1364.60145,186.510003 1359.19926,181.816679 C1353.84663,177.168213 1349.88397,172.519747 1346.93281,172.794505 C1335.8716,173.831859 1326.35356,176.207492 1317.82224,179.128905 C1294.66129,187.065128 1278.79488,199.145158 1258.95905,199.012451 C1239.87565,198.887221 1219.75372,206.374859 1200.75142,213.864366 C1181.41796,221.482841 1163.24244,229.101316 1148.49792,228.699458 C1145.99056,228.63217 1136.79016,230.72183 1124.04387,234.005849 C1097.45867,228.727495 1072.28598,224.733216 1060.17272,225.563099 C1047.45121,226.434102 1031.45413,220.965098 1016.76368,215.279279 C1002.06196,209.584114 966.087133,186.945505 959.896462,184.220349 C949.047018,179.448522 941.876382,182.160594 934.13579,184.876405 C926.172172,187.668849 917.604806,190.461293 903.815469,185.102567 C894.223082,181.371831 888.453683,180.919508 876.462074,183.814753 C868.293451,185.782921 859.784658,176.925229 851.088882,168.069406 C842.26695,159.084615 833.251279,150.099823 824.197309,152.413776 C748.503513,146.432638 740.150162,114.648495 725.074481,112.041092 C720.927091,111.323356 716.590468,111 712.136699,111 C691.280354,111 667.747694,118.089518 647.979448,125.180906 C627.925097,132.373225 611.750054,139.567413 606.201428,139.354334 Z" id="Fill-1" fill="url(#linearGradient-3)"></path>
                <path d="M1557.80165,208.043802 C1532.69873,221.526191 1507.42168,240.767177 1478.1677,247.56506 C1449.62148,254.197602 1370.41443,263.000837 1343.92127,271.716678 C1243.80448,304.645548 1150.15581,312.584285 1100.45832,304.645548 C1072.84454,300.233301 859.273102,313.432249 820.590785,330.991479 C765.194719,356.142229 642.134791,333.74559 586.233184,313.432249 C571.086612,307.926389 488.905295,278.299617 474.744529,278.299617 C428.479096,278.299617 411.568747,284.887281 381.455352,284.887281 C371.968031,284.887281 345.401848,282.844137 326.845683,293.669258 C308.295134,304.492017 226.863704,321.675686 210.804349,320.015189 C170.473407,315.853316 94.5748424,366.055612 94.5748424,366.055612 L88,629 L1077.34386,629 L1078.7678,618.985051 L1117.38552,620.409346 L2106.72656,620.409346 L2100.1433,362.196077 C2100.1433,362.196077 2123.7324,203.881929 2083.40427,208.043802 C2067.34492,209.709024 2031.42341,236.428153 2012.86725,225.614842 C1994.32232,214.784997 1947.26487,205.849489 1937.78317,205.849489 C1907.66135,205.849489 1874.07657,179.50592 1830.83876,172.920618 C1810.96538,169.892513 1775.52976,155 1734.35344,155 C1714.39862,155 1693.10691,158.493422 1671.56805,168.527268 C1642.03322,182.286013 1575.84385,198.364259 1557.80165,208.043802 Z" id="Fill-1" fill="url(#linearGradient-4)"></path>
            </g>
        </g>
    </g>
</svg>