<?xml version="1.0" encoding="UTF-8"?>
<svg width="21px" height="17px" viewBox="0 0 21 17" version="1.1" xmlns="http://www.w3.org/2000/svg" xmlns:xlink="http://www.w3.org/1999/xlink">
    <!-- Generator: Sketch 63.1 (92452) - https://sketch.com -->
    <title>企业 (1)@1x</title>
    <desc>Created with Sketch.</desc>
    <g id="新版定稿（20202-8-22）" stroke="none" stroke-width="1" fill="none" fill-rule="evenodd">
        <g id="首页-个人主页" transform="translate(-1384.000000, -549.000000)" fill="#3385F2" fill-rule="nonzero">
            <g id="个人资料" transform="translate(1357.000000, 94.000000)">
                <g id="编组-19" transform="translate(0.000000, 177.000000)">
                    <g id="企业-(1)" transform="translate(27.000000, 278.000000)">
                        <path d="M11.52,15.36 L11.52,1.28 L2.56,1.28 L2.56,15.36 L11.52,15.36 Z M1.28,15.36 L1.28,1.28 C1.28,0.57307552 1.85307552,0 2.56,0 L11.52,0 C12.2269245,0 12.8,0.57307552 12.8,1.28 L12.8,3.84 L17.92,3.84 C18.6269245,3.84 19.2,4.41307552 19.2,5.12 L19.2,15.36 L20.48,15.36 L20.48,16.64 L0,16.64 L0,15.36 L1.28,15.36 Z M12.8,15.36 L17.92,15.36 L17.92,5.12 L12.8,5.12 L12.8,15.36 Z M14.08,7.68 L16.64,7.68 L16.64,8.96 L14.08,8.96 L14.08,7.68 Z M14.08,11.52 L16.64,11.52 L16.64,12.8 L14.08,12.8 L14.08,11.52 Z M3.84,3.84 L10.24,3.84 L10.24,5.12 L3.84,5.12 L3.84,3.84 Z M3.84,7.68 L10.24,7.68 L10.24,8.96 L3.84,8.96 L3.84,7.68 Z M3.84,11.52 L10.24,11.52 L10.24,12.8 L3.84,12.8 L3.84,11.52 Z" id="形状"></path>
                    </g>
                </g>
            </g>
        </g>
    </g>
</svg>