<?xml version="1.0" encoding="UTF-8"?>
<svg width="20px" height="14px" viewBox="0 0 20 14" version="1.1" xmlns="http://www.w3.org/2000/svg" xmlns:xlink="http://www.w3.org/1999/xlink">
    <!-- Generator: Sketch 63.1 (92452) - https://sketch.com -->
    <title>人员@1x</title>
    <desc>Created with Sketch.</desc>
    <g id="企业端" stroke="none" stroke-width="1" fill="none" fill-rule="evenodd">
        <g id="项目群统一管理" transform="translate(-25.000000, -105.000000)" fill="#FFFFFF" fill-rule="nonzero">
            <g id="菜单">
                <g id="企业账户中心" transform="translate(0.000000, 102.000000)">
                    <g id="人员" transform="translate(25.000000, 3.000000)">
                        <path d="M13.91205,13.26885 L13.91205,13.92165 L0.0112500094,13.92165 L0.0112500094,13.26885 C0.0112500094,10.88805 5.34885,11.38725 5.34885,9.06405 L5.34885,8.39205001 C5.09925001,8.10405001 4.50405,7.39365 4.27365001,6.41444999 C4.04325001,6.29924998 3.83205001,6.06884999 3.71685,5.74245 C3.54404999,5.28165 3.52485,4.64805 3.87045,4.22565 L3.87045,4.20645 C3.81285001,3.63045 3.64005001,2.09445 4.56165,1.07685 C5.09925001,0.500849992 5.90564999,0.0400499962 6.94244999,0.00165 C7.97924999,0.0208499981 8.78565,0.481649994 9.32325001,1.07685 C10.24485,2.09445 10.09125,3.63045 10.01445,4.20645 L10.01445,4.22565 C10.36005,4.64805 10.34085,5.28165 10.16805,5.74245 C10.05285,6.06885001 9.84165,6.29925 9.61125,6.41444999 C9.38085,7.39365 8.78565,8.10404999 8.53605,8.39205001 L8.53605,9.08325 C8.53605,11.38725 13.91205,10.86885 13.91205,13.26885 Z" id="路径"></path>
                        <path d="M19.21125,11.98245 L19.21125,12.48165 L15.14085,12.48165 C15.14085,12.48165 14.60325,11.57925 13.56645,11.08005 C12.41445,10.52325 10.76325,10.35045 11.39685,10.10085 C12.10725,9.81285001 12.68325,9.44805001 12.68325,8.79525001 L12.68325,8.29604999 C12.49125,8.08484999 12.04965,7.52804999 11.87685,6.79845 C11.70405,6.72165 11.55045,6.52965 11.45445,6.28005001 C11.32005,5.93445 11.32005,5.43525001 11.56965,5.12804999 L11.56965,5.10885 C11.53125,4.66725 11.39685,3.49604999 12.10725,2.72805 C12.51045,2.28645 13.12485,1.94085 13.91205,1.92165 C14.69925,1.94085 15.31365,2.28645 15.71685,2.72805 C16.42725,3.49605001 16.29285,4.66725 16.25445,5.10885 L16.25445,5.12804999 C16.50405,5.43524999 16.50405,5.93445 16.36965,6.28005001 C16.27365,6.52965 16.12005,6.70245001 15.94725,6.79845 C15.77445,7.54725001 15.33285,8.08484999 15.12165,8.29604999 L15.12165,8.81445001 C15.12165,10.54245 19.21125,10.13925 19.21125,11.98245 L19.21125,11.98245 Z" id="路径"></path>
                    </g>
                </g>
            </g>
        </g>
    </g>
</svg>