<?xml version="1.0" standalone="no"?><!DOCTYPE svg PUBLIC "-//W3C//DTD SVG 1.1//EN" "http://www.w3.org/Graphics/SVG/1.1/DTD/svg11.dtd"><svg t="1614144607350" class="icon" viewBox="0 0 1024 1024" version="1.1" xmlns="http://www.w3.org/2000/svg" p-id="1431" xmlns:xlink="http://www.w3.org/1999/xlink" width="64" height="64"><defs><style type="text/css"></style></defs><path d="M569.7 404c28.4 0 54.7-8.6 76.6-23.4l152.9 106.8c13.1 9.1 31.2 5.9 40.3-7.2l2.9-4.2c9.1-13.1 5.9-31.2-7.2-40.3l-44.8-31.3 2.7-3.9c6.7-9.5 4.3-22.8-5.2-29.4l-33.8-23.6c-9.5-6.7-22.8-4.3-29.4 5.2l-2.7 3.9-32.6-22.8c11.1-19.8 17.4-42.6 17.4-66.9 0-75.7-61.3-137-137-137s-137 61.3-137 137S494 404 569.7 404z m0-214c42.5 0 77 34.5 77 77s-34.5 77-77 77-77-34.5-77-77 34.5-77 77-77z" p-id="1432" fill="#ffffff"></path><path d="M944.3 597.4l-0.1-0.2c-22.1-30.9-51.9-47.6-88.6-49.7-29.4-1.7-62.8 6-99.1 22.7-3.6 1.7-10 5.4-18 10.1-9.7 5.7-21.8 12.8-32.2 18-16.2 8.1-19.5 7-19.8 6.8-2.6-1.8-6.7-17.1-9.4-27.2-4.8-17.7-9.7-36.1-17.1-43.6-17.5-18-45.9-31.3-71-43.1-9.8-4.6-19.1-9-27.2-13.4-59.4-32-108.5-56.8-154.5-78.1-6.3-2.9-12.9-6.2-20-9.7-27.7-13.8-59.1-29.5-88.3-30.1-5.1-0.1-9.8 0.1-14 0.5V329c0-30.8-25.2-55.9-55.9-55.9H133c-30.8 0-55.9 25.2-55.9 55.9v443.9c0 30.8 25.2 55.9 55.9 55.9h96.1c26.4 0 48.6-18.5 54.4-43.1 25.9 13.2 54.1 23.8 81.5 34.1 14.9 5.6 30.3 11.4 44.9 17.4 11.4 4.8 22.9 10 35.1 15.5 42.2 19.2 88.8 40.4 136 40.4 12.5 0 25-1.5 37.5-4.9 57.2-15.6 114.7-52.5 165.5-85 8-5.1 15.5-9.9 23-14.7 3.9-2.5 8.4-5.2 13-8.1 30.2-18.7 71.6-44.2 101.1-75.3 35.6-37.7 43.5-74 23.2-107.7zM225 768.7h-88V333h88v435.7z m668-115.4c-11.9 32-69.6 63.5-107.8 84.4-10 5.5-18.7 10.2-25.6 14.4-8.5 5.1-17 10.4-26 16-38.6 24.1-82.3 51.3-124.9 62.6-38 10.1-70.4-4.1-104.7-19.2-6.4-2.8-13-5.7-19.7-8.5-55.8-22.9-126.7-52.4-199.3-84.3V427.6c3.1-2.7 6.6-5.2 10-5.6 5.1-0.7 14.5 3.8 21.3 7.1 2.9 1.4 5.7 2.8 8 3.6 46 17.7 91.1 41.1 134.7 63.8 7.2 3.8 14.4 7.5 21.6 11.2 10.6 5.5 21.9 10.8 33.8 16.4 32.9 15.5 66.9 31.4 91.2 53.2 17.5 15.7 24.5 35.2 17.9 49.7-6 13.2-21.9 19.3-43.5 16.5-8.3-1-29.4-11.9-53.8-24.5-51.9-26.7-116.5-60-140.7-44.4-6.9 4.5-10.1 12.4-9.5 23.5 0.9 16.4 28.1 35.1 83.3 57.4 29.6 11.9 67.2 24.7 108.7 37 53.1 15.7 102.4-9 150.1-32.9 6.7-3.3 13.6-6.8 20.3-10 8.6-4.2 17.6-9.3 27-14.8 20.4-11.8 41.5-24 61.3-27 21.7-3.3 51.3 1.3 63.4 16.3 6.2 7.8 7.2 17.6 2.9 29.2z" p-id="1433" fill="#ffffff"></path></svg>