<?xml version="1.0" encoding="UTF-8"?>
<svg width="16px" height="14px" viewBox="0 0 16 14" version="1.1" xmlns="http://www.w3.org/2000/svg" xmlns:xlink="http://www.w3.org/1999/xlink">
    <!-- Generator: Sketch 63.1 (92452) - https://sketch.com -->
    <title>部门@1x</title>
    <desc>Created with Sketch.</desc>
    <g id="企业端" stroke="none" stroke-width="1" fill="none" fill-rule="evenodd">
        <g id="项目群管理" transform="translate(-280.000000, -152.000000)" fill="#555555" fill-rule="nonzero">
            <g id="部门-2" transform="translate(280.000000, 152.000000)">
                <g id="部门">
                    <path d="M10.9842333,10.3778547 L4.97676667,10.3778547 L4.97676667,9.619412 C4.97676667,8.602836 6.98551334,8.090324 7.97674533,8.090324 C8.96797732,8.090324 10.9757853,8.602836 10.9757853,9.619412 L10.9757853,10.3778547 L10.985172,10.3778547 L10.9842333,10.3778547 Z M7.98425467,4.27652133 C8.81309734,4.27652133 9.48893733,4.96268666 9.48893733,5.803732 C9.48893733,6.645716 8.81309733,7.33188133 7.98425467,7.33188133 C7.14766426,7.32362432 6.47529916,6.64034693 6.48051067,5.803732 C6.48051067,4.96268667 7.15635067,4.27652133 7.98425467,4.27652133 L7.98425467,4.27652133 Z" id="形状"></path>
                    <path d="M8.281812,1.520596 C8.21353119,1.52082565 8.14798234,1.4937952 8.09971067,1.44550267 L7.02212133,0.351956 C6.79636757,0.123517858 6.48718974,-0.00293316293 6.16605733,0.00170329555 L1.97584933,0.00170329555 C0.886996,0.00170329555 0.01122,0.899198671 0.01122,1.99837733 L0.00183332875,11.145684 C0.00183332875,12.2448627 0.886057329,13.1431667 1.97584933,13.1431667 L13.9851507,13.1431667 C15.074004,13.1431667 15.9591667,12.2448627 15.9591667,11.1466227 L15.9591667,3.51807867 C15.9591667,2.41983867 15.07682,1.520596 13.9935987,1.520596 L8.281812,1.520596 Z M15.0205,3.51807867 L15.0205,11.1466227 C15.0205,11.7295347 14.553044,12.2045 13.9851507,12.2045 L1.97584933,12.2045 C1.39868399,12.1962617 0.936314496,11.7238316 0.940471807,11.1466227 L0.949886671,1.999316 C0.949886671,1.41264933 1.40983333,0.9405 1.97584933,0.9405 L6.17450533,0.9405 C6.24185208,0.938381183 6.30707829,0.964199893 6.35472933,1.01183867 L7.434196,2.10820133 C7.66416933,2.33535866 7.96735867,2.46020133 8.28368933,2.45926267 L13.9935987,2.45926267 C14.5539827,2.45926267 15.0205,2.934228 15.0205,3.51807867 Z" id="形状"></path>
                </g>
            </g>
        </g>
    </g>
</svg>