<?xml version="1.0" encoding="UTF-8"?>
<svg width="44px" height="44px" viewBox="0 0 44 44" version="1.1" xmlns="http://www.w3.org/2000/svg" xmlns:xlink="http://www.w3.org/1999/xlink">
    <!-- Generator: Sketch 63.1 (92452) - https://sketch.com -->
    <title>1@1x</title>
    <desc>Created with Sketch.</desc>
    <g id="新版定稿（20202-8-22）" stroke="none" stroke-width="1" fill="none" fill-rule="evenodd">
        <g id="画板" transform="translate(-554.000000, -1977.000000)">
            <g id="1" transform="translate(554.000000, 1977.000000)">
                <circle id="椭圆形" fill="#DEDFE3" cx="22" cy="22" r="22"></circle>
                <g id="默认头像" transform="translate(10.000000, 8.000000)" fill="#ACB0B3" fill-rule="nonzero">
                    <path d="M15.114,17.728 C15.018,16.736 15.05,16 15.05,15.072 C15.498,14.816 17.098,13.28 17.226,12 C17.578,11.968 18.154,11.616 18.314,10.208 C18.41,9.472 18.058,9.024 17.834,8.896 C18.41,7.136 18.666,1.632 14.634,1.088 C14.218,0.384 13.162,0 11.786,0 C6.282,0.096 4.65,4.224 5.866,8.928 C5.642,9.056 5.29,9.472 5.386,10.24 C5.546,11.648 6.122,12 6.474,12.032 C6.602,13.344 8.202,14.88 8.65,15.104 C8.65,16.032 8.682,16.736 8.586,17.76 C7.498,20.704 0.362,19.168 0.01,25.6 L23.69,25.6 C23.498,19.072 16.202,20.704 15.114,17.728 Z" id="路径"></path>
                </g>
            </g>
        </g>
    </g>
</svg>