<?xml version="1.0" encoding="UTF-8"?>
<svg width="34px" height="32px" viewBox="0 0 34 32" version="1.1" xmlns="http://www.w3.org/2000/svg" xmlns:xlink="http://www.w3.org/1999/xlink">
    <!-- Generator: Sketch 63.1 (92452) - https://sketch.com -->
    <title>全屏@1x</title>
    <desc>Created with Sketch.</desc>
    <g id="新版定稿（20202-8-22）" stroke="none" stroke-width="1" fill="none" fill-rule="evenodd">
        <g id="画板" transform="translate(-267.000000, -1270.000000)" fill="#555555" fill-rule="nonzero">
            <g id="全屏" transform="translate(267.000000, 1270.000000)">
                <path d="M10.1999971,32 C11.0994556,31.9990116 11.8424768,31.3040666 11.8951892,30.4144929 C11.9479016,29.5249193 11.2920604,28.7486161 10.398897,28.6433684 L10.1999971,28.6315789 L3.39999904,28.6315789 L3.39999904,21.8947368 C3.39988535,21.0408845 2.75483713,20.3222165 1.89889946,20.2223158 L1.69999952,20.2105263 C0.838142549,20.2105263 0.112737247,20.8496962 0.0118999916,21.6976842 L0,21.8947368 L0,28.6332632 C0,30.4101053 1.3803996,31.8618947 3.1449991,31.9915789 L3.39829903,32 L10.1999971,32 L10.1999971,32 Z M10.1999971,0 C11.0994556,0.000988377689 11.8424768,0.695933402 11.8951892,1.58550706 C11.9479016,2.47508073 11.2920604,3.25138391 10.398897,3.35663159 L10.1999971,3.36842106 L3.39999904,3.36842106 L3.39999904,10.1052632 C3.39988535,10.9591155 2.75483713,11.6777835 1.89889946,11.7776842 L1.69999952,11.7894737 C0.838142549,11.7894737 0.112737247,11.1503038 0.0118999916,10.3023158 L0,10.1052632 L0,3.36673684 C0,1.58989475 1.3803996,0.13810525 3.1449991,0.0084210625 L3.39659902,0 L10.1999971,0 Z M23.7999932,0 C22.9005347,0.000988377689 22.1575135,0.695933402 22.1048011,1.58550706 C22.0520887,2.47508073 22.7079299,3.25138391 23.6010933,3.35663159 L23.7999932,3.36842106 L30.5999913,3.36842106 L30.5999913,10.1052632 C30.600105,10.9591155 31.2451532,11.6777835 32.1010908,11.7776842 L32.2999908,11.7894737 C33.1618478,11.7894737 33.8872531,11.1503038 33.9880903,10.3023158 L33.9999952,10.1052632 L33.9999952,3.36673684 C34.0029746,1.60336243 32.6301315,0.137403073 30.8549912,0.0084210625 L30.6033913,0 L23.7999932,0 Z M23.7999932,32 C22.9005347,31.9990116 22.1575135,31.3040666 22.1048011,30.4144929 C22.0520887,29.5249193 22.7079299,28.7486161 23.6010933,28.6433684 L23.7999932,28.6315789 L30.5999913,28.6315789 L30.5999913,21.8947368 C30.600105,21.0408845 31.2451532,20.3222165 32.1010908,20.2223158 L32.2999908,20.2105263 C33.1618478,20.2105263 33.8872531,20.8496962 33.9880903,21.6976842 L33.9999952,21.8947368 L33.9999952,28.6332632 C34.0029746,30.3966376 32.6301315,31.8625969 30.8549912,31.9915789 L30.6016913,32 L23.7999932,32 L23.7999932,32 Z" id="形状"></path>
            </g>
        </g>
    </g>
</svg>