<?xml version="1.0" encoding="UTF-8"?>
<svg width="16px" height="16px" viewBox="0 0 16 16" version="1.1" xmlns="http://www.w3.org/2000/svg" xmlns:xlink="http://www.w3.org/1999/xlink">
    <!-- Generator: Sketch 63.1 (92452) - https://sketch.com -->
    <title>自定义时间@1x</title>
    <desc>Created with Sketch.</desc>
    <g id="新版定稿（20202-8-22）" stroke="none" stroke-width="1" fill="none" fill-rule="evenodd">
        <g id="画板" transform="translate(-9.000000, -1217.000000)" fill="#555555" fill-rule="nonzero">
            <path d="M17,1233 C14.729,1232.948 12.841,1232.1695 11.336,1230.664 C9.83100001,1229.159 9.052,1227.271 9,1225 C9.052,1222.729 9.8305,1220.841 11.336,1219.336 C12.841,1217.831 14.729,1217.052 17,1217 C19.271,1217.052 21.159,1217.8305 22.664,1219.336 C24.169,1220.841 24.948,1222.729 25,1225 C24.948,1227.271 24.1695,1229.159 22.664,1230.664 C21.159,1232.169 19.271,1232.948 17,1233 Z M21.957,1229.957 C23.277,1228.637 23.954,1226.995 24.0005,1225.023 C23.954,1223.005 23.277,1221.363 21.957,1220.043 C20.637,1218.723 18.995,1218.046 17.023,1217.9995 C15.005,1218.046 13.363,1218.723 12.043,1220.043 C10.723,1221.363 10.046,1223.005 9.99949999,1224.977 C10.046,1226.995 10.723,1228.637 12.043,1229.957 C13.358,1231.272 14.9925,1231.949 17,1231.9995 C19.0075,1231.949 20.642,1231.272 21.957,1229.957 Z M17,1225 L20.5,1225 C20.7761424,1225 21,1225.22386 21,1225.5 C21,1225.77614 20.7761424,1226 20.5,1226 L16.5,1226 C16.3673918,1226 16.2402148,1225.94732 16.1464466,1225.85355 C16.0526784,1225.75979 16,1225.63261 16,1225.5 L16,1220.5 C16,1220.22386 16.2238576,1220 16.5,1220 C16.7761424,1220 17,1220.22386 17,1220.5 L17,1225 Z" id="自定义时间"></path>
        </g>
    </g>
</svg>