<?xml version="1.0" encoding="UTF-8"?>
<svg width="52px" height="52px" viewBox="0 0 52 52" version="1.1" xmlns="http://www.w3.org/2000/svg" xmlns:xlink="http://www.w3.org/1999/xlink">
    <!-- Generator: Sketch 63.1 (92452) - https://sketch.com -->
    <title>批量归档@1x</title>
    <desc>Created with Sketch.</desc>
    <g id="新版定稿（20202-8-22）" stroke="none" stroke-width="1" fill="none" fill-rule="evenodd">
        <g id="画板" transform="translate(-13.000000, -1644.000000)" fill-rule="nonzero">
            <g id="批量归档" transform="translate(13.000000, 1644.000000)">
                <rect id="矩形" fill="#86B93F" x="0" y="0" width="51.8" height="51.8" rx="25.9"></rect>
                <g id="归档-(14)" transform="translate(11.000000, 12.000000)" fill="#FFFFFF">
                    <path d="M22.190625,7.04659375 L5.8608125,7.04659375 C5.5389375,7.04659375 5.2783125,7.31596875 5.2783125,7.646625 C5.2783125,7.97734375 5.5389375,8.2450625 5.8608125,8.2450625 L22.190625,8.2450625 C22.5125625,8.2450625 22.773125,7.9755625 22.773125,7.646625 C22.773125,7.3176875 22.5125625,7.04659375 22.190625,7.04659375 Z M22.773125,4.01125 L5.27828125,4.01125 C4.954625,4.01125 4.69390625,4.278875 4.69390625,4.6095 C4.69390625,4.9401875 4.95465625,5.20603125 5.27828125,5.20603125 L22.773125,5.20603125 C23.0968125,5.20603125 23.3575,4.9401875 23.3575,4.60775 C23.3575,4.27884375 23.0968437,4.01125 22.773125,4.01125 L22.773125,4.01125 Z M27.71375,10.2534375 L25.41325,1.65459375 C25.4084087,1.63429769 25.4019506,1.61442171 25.3939375,1.59515625 C25.0317188,0.6486875 24.503375,0.01884375 23.098625,0.01884375 L4.9143125,0.06953125 C3.74915625,0.06953125 3.065125,0.54015625 2.62434375,1.63709375 C2.6155625,1.661625 2.60678125,1.68621875 2.60153125,1.70884375 L0.3201875,10.4895937 C0.1435625,10.6628437 0.02978125,10.8815312 0.02978125,11.1350625 L0.02978125,24.894875 C0.02978125,25.5527188 0.7978125,26.1894375 1.43815625,26.1894375 L27.0997188,26.1894375 C27.7400313,26.1894375 28.021625,25.5527188 28.021625,24.894875 L28.021625,11.1350625 C28.021625,10.7519375 27.921875,10.4440313 27.71375,10.2534375 L27.71375,10.2534375 Z M21.02375,19.96825 L7.02771875,19.96825 L7.02771875,16.4692813 L21.02375,16.4692813 L21.02375,19.96825 L21.02375,19.96825 Z M19.2741562,11.2207812 C19.2741562,11.2207812 18.0372812,11.236625 17.4267187,11.236625 L10.916875,11.236625 C10.3063125,11.236625 8.777375,11.2207812 8.777375,11.2207812 L1.77934375,11.2207812 L3.71778125,2.05703125 C3.95571875,1.47440625 4.181375,1.26796875 4.91609375,1.26796875 L23.1020937,1.2155625 C23.9103437,1.2155625 24.0730937,1.4219375 24.2987812,2.0028125 L26.272125,11.22075 L19.2741562,11.22075 L19.2741562,11.2207812 Z" id="形状"></path>
                </g>
            </g>
        </g>
    </g>
</svg>