<?xml version="1.0" encoding="UTF-8"?>
<svg width="84px" height="82px" viewBox="0 0 84 82" version="1.1" xmlns="http://www.w3.org/2000/svg" xmlns:xlink="http://www.w3.org/1999/xlink">
    <!-- Generator: Sketch 63.1 (92452) - https://sketch.com -->
    <title>星星备份@1x</title>
    <desc>Created with Sketch.</desc>
    <g id="新版定稿（20202-8-22）" stroke="none" stroke-width="1" fill="none" fill-rule="evenodd">
        <g id="画板" transform="translate(-868.000000, -1028.000000)" fill-rule="nonzero">
            <g id="星星备份" transform="translate(912.721140, 1064.499402) rotate(39.000000) translate(-912.721140, -1064.499402) translate(871.721140, 1024.999402)">
                <path d="M50.0138449,5.6361607 L54.9118041,15.7586097 C56.2179265,18.6973852 59.156702,20.6565689 62.4220081,21.1463648 L73.3607837,22.7790179 C81.524049,23.921875 84.6260898,33.8810587 78.9118041,39.7586097 L70.9118041,47.4320791 C68.6260898,49.7177934 67.4832327,52.9830995 67.9730286,56.0851403 L69.768947,67.0239158 C71.0750694,75.1871811 62.7485388,81.2279974 55.4016,77.4728954 L45.6056816,72.4116709 C42.6669061,70.9422832 39.4016,70.9422832 36.4628245,72.4116709 L26.5036408,77.6361607 C19.156702,81.3912627 10.8301714,75.3504464 12.1362939,67.1871811 L13.9322123,56.2484056 C14.5852735,52.9830995 13.4424163,49.7177934 10.9934367,47.5953444 L2.99343672,39.7586097 C-2.8841143,33.8810587 0.381191875,24.0851403 8.54445711,22.7790179 L19.4832327,21.1463648 C22.7485388,20.6565688 25.524049,18.6973852 26.9934367,15.7586097 L31.8913959,5.6361607 C35.9730286,-1.71077805 46.2587429,-1.71077805 50.0138449,5.6361607" id="路径" fill="#FED44A"></path>
                <path d="M32.2179266,5.6361607 L27.3199673,15.7586097 C26.0138449,18.6973852 23.0750694,20.6565689 19.8097633,21.1463648 L8.87098773,22.7790179 C3.80976328,23.5953445 0.544457109,27.6769771 0.381191875,31.921875 C1.85057961,23.921875 18.3403755,30.1259566 25.8505796,30.7790179 C33.524049,31.5953445 35.646498,24.7382016 35.646498,24.7382016 C35.646498,24.7382016 37.279151,16.5749363 39.2383347,6.28922195 C40.7077224,-2.03730867 46.2587428,1.55452805 48.2179266,3.02391578 C43.646498,-1.71077812 35.4832327,-0.73118625 32.2179266,5.6361607" id="路径" fill="#FFDE73"></path>
                <path d="M46.0954776,62.289222 C40.0546612,58.2075893 34.6669062,62.289222 34.6669061,62.289222 C34.666906,62.289222 28.7893551,67.5137117 21.9322123,74.044324 C14.9118041,80.5749362 12.2995592,71.2688137 12.2995592,71.2688137 C13.768947,77.1463648 20.6260898,80.7382015 26.5036408,77.4728954 L36.4628245,72.4116709 C39.4016,70.9422832 42.6669061,70.9422832 45.6056816,72.4116709 L55.5648653,77.6361607 C60.1362939,80.0851403 65.1975184,78.6157526 67.9730286,75.0239158 C68.1362939,74.3708545 68.2995592,73.8810587 68.6260898,73.3912627 C63.0750694,78.7790178 52.2995592,66.3708546 46.0954776,62.289222" id="路径" fill="#FEC54A"></path>
                <path d="M33.5395935,14.5770835 L33.4489309,23.8518353 C33.2666238,25.1579577 32.6285494,25.9742843 31.8081679,25.6477537 C31.0789399,25.3212231 30.6231724,24.1783659 30.8054794,22.7089782 L31.5193042,14.4242055 C31.7016112,13.1180831 32.2269815,12.6888678 32.8166116,12.7745246 C33.2169544,12.7954354 33.4579484,13.3962884 33.5395935,14.5770835 Z" id="路径" fill="#FFFFFF" transform="translate(32.152437, 19.241896) rotate(12.000000) translate(-32.152437, -19.241896) "></path>
                <path d="M22.3692582,23.5306737 L21.1213683,31.8467725 C20.8934845,33.1528949 21.0806992,34.1428697 20.0552223,33.8163391 C19.1436873,33.4898084 19.7833414,28.279889 19.9849038,26.9102802 C20.1993047,25.4534343 21.1891703,20.4390158 22.1007053,20.7655464 C23.0122403,21.0920771 22.5971419,22.061286 22.3692582,23.5306737 Z" id="路径" fill="#FFFFFF" opacity="0.833031064" transform="translate(21.121249, 27.314724) rotate(91.000000) translate(-21.121249, -27.314724) "></path>
                <path d="M11.182142,24.6625701 C12.2884126,27.2275292 12.1402019,28.3427349 10.7375099,28.0081872 C8.63347187,27.5063658 9.04385003,26.4624891 9.10917638,25.9408855 C9.17866369,25.3860584 9.80873935,23.807171 10.1041677,23.9315274 C10.3995961,24.0558837 11.2559991,24.1029666 11.182142,24.6625701 Z" id="路径" fill="#FFFFFF" opacity="0.899669829" transform="translate(10.473962, 25.995333) scale(-1, 1) rotate(91.000000) translate(-10.473962, -25.995333) "></path>
                <circle id="椭圆形" fill="#FFFFFF" cx="35" cy="9" r="1"></circle>
            </g>
        </g>
    </g>
</svg>