<?xml version="1.0" encoding="UTF-8"?>
<svg width="15px" height="22px" viewBox="0 0 15 22" version="1.1" xmlns="http://www.w3.org/2000/svg" xmlns:xlink="http://www.w3.org/1999/xlink">
    <!-- Generator: Sketch 63.1 (92452) - https://sketch.com -->
    <title>客户端@1x</title>
    <desc>Created with Sketch.</desc>
    <g id="新版定稿（20202-8-22）" stroke="none" stroke-width="1" fill="none" fill-rule="evenodd">
        <g id="画板" transform="translate(-428.000000, -1952.000000)" fill="#17B881" fill-rule="nonzero">
            <g id="客户端" transform="translate(428.000000, 1952.000000)">
                <path d="M12.5345391,21.68425 L2.09048437,21.68425 C0.553453125,21.68425 0.0016875,20.6765547 0.0016875,19.1480078 C0.0016875,19.1480078 0.01359375,3.18742969 0.0016875,2.09983594 C0.0411328125,0.61584375 0.560929687,0.0195234375 2.09048438,0.0110390625 L12.5345391,0.0110390625 C14.0712188,0.0110390625 14.6233594,0.5713125 14.6233594,2.09983594 L14.6233594,19.1480078 C14.6233594,20.6765547 14.0712188,21.68425 12.5345391,21.68425 Z M12.5345391,1.40360156 L2.09048438,1.40360156 C1.58392969,1.40360156 1.39422656,1.58446875 1.39422656,2.09985938 L1.39422656,18.2028906 L13.2308203,18.2028906 L13.2308203,2.09985938 C13.2308203,1.58446875 13.0404375,1.40360156 12.5345391,1.40360156 Z M9.05320312,4.18867969 L5.57184375,4.18867969 C5.08021875,4.18867969 4.29489844,3.28673437 5.57184375,2.79614063 L9.05320312,2.79614063 C9.97010156,2.79614063 9.95175,4.18867969 9.05320312,4.18867969 Z" id="形状"></path>
            </g>
        </g>
    </g>
</svg>