<?xml version="1.0" encoding="UTF-8"?>
<svg width="21px" height="21px" viewBox="0 0 21 21" version="1.1" xmlns="http://www.w3.org/2000/svg" xmlns:xlink="http://www.w3.org/1999/xlink">
    <!-- Generator: Sketch 63.1 (92452) - https://sketch.com -->
    <title>搜索 (1)@1x</title>
    <desc>Created with Sketch.</desc>
    <g id="新版定稿（20202-8-22）" stroke="none" stroke-width="1" fill="none" fill-rule="evenodd">
        <g id="画板" transform="translate(-599.000000, -1160.000000)" fill="#555555">
            <path d="M619.73846,1180.42424 C619.388664,1180.77375 618.82164,1180.77375 618.471188,1180.42424 L614.28685,1176.24195 C612.666208,1177.63886 610.559759,1178.48929 608.252083,1178.48929 C603.141941,1178.48929 599,1174.35081 599,1169.24465 C599,1164.13927 603.141941,1160 608.252083,1160 C613.362849,1160 617.504167,1164.13927 617.504167,1169.24465 C617.504167,1171.39841 616.760506,1173.37674 615.524252,1174.94769 L619.739083,1179.15913 C620.087076,1179.50864 620.087076,1180.07472 619.73846,1180.42424 Z M608.252083,1161.78928 C604.131652,1161.78928 600.790721,1165.12753 600.790721,1169.24465 C600.790721,1173.36242 604.131652,1176.70014 608.252083,1176.70014 C612.372514,1176.70014 615.713577,1173.36242 615.713577,1169.24465 C615.713577,1165.12753 612.372646,1161.78928 608.252083,1161.78928 Z" id="搜索-(1)"></path>
        </g>
    </g>
</svg>