<?xml version="1.0" encoding="UTF-8"?>
<svg width="19px" height="18px" viewBox="0 0 19 18" version="1.1" xmlns="http://www.w3.org/2000/svg" xmlns:xlink="http://www.w3.org/1999/xlink">
    <!-- Generator: Sketch 63.1 (92452) - https://sketch.com -->
    <title>修改时间 (1)@1x</title>
    <desc>Created with Sketch.</desc>
    <g id="新版定稿（20202-8-22）" stroke="none" stroke-width="1" fill="none" fill-rule="evenodd">
        <g id="首页-个人主页" transform="translate(-1385.000000, -327.000000)" fill="#4C9590" fill-rule="nonzero">
            <g id="个人资料" transform="translate(1357.000000, 94.000000)">
                <g id="编组-19" transform="translate(0.000000, 177.000000)">
                    <g id="修改时间-(1)" transform="translate(28.000000, 56.000000)">
                        <path d="M2.12956902,3.2338944 C3.84241792,1.15825459 6.53262157,-0.0867328 9.23075507,0.020320256 C10.9554988,-0.003469312 12.6465405,0.581357568 14.0877919,1.50716826 C14.341349,1.14437734 14.6069992,0.787533824 14.9202285,0.470339584 C15.3109722,1.35451853 15.5129852,2.31204864 15.7488985,3.24578918 C15.8440567,3.5808256 15.4279375,3.73545779 15.1622874,3.7295104 C14.2860383,3.76519475 13.4117716,3.90991462 12.5335401,3.86035302 C12.7533954,3.46187776 13.0152788,3.08917453 13.2630868,2.70854144 C11.6037645,1.66378291 9.54596685,1.15627213 7.61108198,1.5983616 C5.38873984,2.00476672 3.40429338,3.48764979 2.35755238,5.48399104 C1.52689997,7.04220774 1.24935501,8.89977651 1.63791795,10.6265027 C2.10577946,12.9321083 3.72148762,14.9641339 5.85858381,15.9496167 C6.60002534,16.3260867 7.44653747,16.3996361 8.19987379,16.7465673 C8.37829555,17.2320727 8.27718989,17.9519054 7.63487155,17.9697476 C4.01885722,17.4917755 0.91828352,14.5123303 0.220456192,10.9417144 C-0.384195328,8.25944064 0.347333888,5.32737638 2.12956902,3.2338944 Z" id="路径"></path>
                        <path d="M8.04127667,3.8068265 C7.96594304,3.34491238 8.57455949,2.94841958 8.94528026,3.26957875 C9.27238682,3.47773747 9.17921101,3.88612506 9.19903565,4.20926669 C9.18912333,5.77739571 9.19705318,7.34354227 9.19507072,8.9116713 C10.7790595,9.74807286 12.3967501,10.5214321 13.9571475,11.3994654 C14.4864654,11.683156 14.1712536,12.4345098 13.6516498,12.5235225 C11.7643441,11.5840328 9.90281037,10.5969639 8.03334682,9.6273408 C8.04325914,7.68650854 8.02145203,5.74567629 8.04127667,3.8068265 Z M15.9909573,5.9597824 C16.147572,5.56923699 16.446924,5.0954281 16.9447207,5.23023565 C17.6760517,5.50579814 18.0309128,6.88361062 17.1189793,7.16710298 C16.391415,7.32371763 16.185437,6.46927565 15.9909573,5.9597824 Z M17.0238211,8.08894874 C17.6007181,7.72814029 18.2174626,8.39028326 18.1183394,8.97511014 C18.1996205,9.49074903 17.7753732,10.1249393 17.2002604,9.95266314 C16.4528714,9.73241139 16.3755553,8.47751168 17.0238211,8.08894874 Z M16.4389942,11.0547149 C16.7484568,10.7137311 17.190348,10.8128543 17.5650337,10.9674865 C17.783303,11.4452603 17.7218466,11.9944028 17.4183314,12.4206326 C17.1885638,12.8389325 16.5323682,12.8409149 16.2528408,12.4761416 C15.9731151,12.0261222 16.1911862,11.4650849 16.4389942,11.0547149 L16.4389942,11.0547149 Z M15.404148,13.3682504 C15.6697981,13.3087764 16.0125662,13.2790395 16.203081,13.5189176 C16.9344119,14.2524293 15.5587802,15.7769441 14.8312159,14.900695 C14.3316349,14.3636455 14.9977428,13.7231114 15.404148,13.3682504 Z M12.6068913,16.6710354 C12.1291174,15.7908214 13.3681574,15.0771343 14.1234762,15.3606267 C14.9838656,16.2469863 13.3146309,17.5611617 12.6068913,16.6710354 Z M10.307233,16.5659648 C10.5371988,16.4747715 10.7748963,16.4192625 11.0209201,16.3974554 C11.5879048,16.3358007 12.0676611,17.1208565 11.643612,17.5609635 C11.1995401,18.0228776 10.1942326,18.1796905 9.85939441,17.5056527 C9.74242903,17.1071775 9.9285824,16.7245619 10.307233,16.5659648 L10.307233,16.5659648 Z" id="形状"></path>
                    </g>
                </g>
            </g>
        </g>
    </g>
</svg>