<?xml version="1.0" encoding="UTF-8"?>
<svg width="18px" height="16px" viewBox="0 0 18 16" version="1.1" xmlns="http://www.w3.org/2000/svg" xmlns:xlink="http://www.w3.org/1999/xlink">
    <!-- Generator: Sketch 63.1 (92452) - https://sketch.com -->
    <title>动态@1x</title>
    <desc>Created with Sketch.</desc>
    <g id="新版定稿（20202-8-22）" stroke="none" stroke-width="1" fill="none" fill-rule="evenodd">
        <g id="画板" transform="translate(-340.000000, -1848.000000)" fill="#FFFFFF" fill-rule="nonzero">
            <g id="动态" transform="translate(340.000000, 1848.000000)">
                <path d="M13.1623333,8.212 L13.1623333,15.38 L16.0636667,15.38 L16.0636667,6.164 L15.7223333,5.82266667 L13.1623333,8.212 L13.1623333,8.212 Z M8.725,10.9426667 L8.725,15.38 L11.6263333,15.38 L11.6263333,9.40666668 L9.237,11.4546667 L8.725,10.9426667 Z M4.28766668,9.40666668 L4.28766668,15.38 L7.189,15.38 L7.189,9.748 L5.653,8.38266667 L4.28766668,9.40666667 L4.28766668,9.40666668 Z M0.021,15.38 L2.92233332,15.38 L2.92233332,10.772 L0.021,13.332 L0.021,15.38 L0.021,15.38 Z" id="形状"></path>
                <polygon id="路径" points="12.4796667 0.02 14.5276667 2.23866668 9.237 6.84666668 5.653 3.77466668 0.021 8.55333333 0.021 10.6013333 5.653 5.82266667 9.237 8.89466667 15.7223333 3.26266667 17.429 5.14 17.429 0.02"></polygon>
            </g>
        </g>
    </g>
</svg>