<?xml version="1.0" encoding="UTF-8"?>
<svg width="19px" height="18px" viewBox="0 0 19 18" version="1.1" xmlns="http://www.w3.org/2000/svg" xmlns:xlink="http://www.w3.org/1999/xlink">
    <!-- Generator: Sketch 63.1 (92452) - https://sketch.com -->
    <title>2@1x</title>
    <desc>Created with Sketch.</desc>
    <g id="新版定稿（20202-8-22）" stroke="none" stroke-width="1" fill="none" fill-rule="evenodd">
        <g id="画板" transform="translate(-301.000000, -1165.000000)">
            <g id="2" transform="translate(301.500000, 1165.000000)">
                <path d="M9,0 L9.01470588,0 C13.9852686,-9.13077564e-16 18.0147059,4.02943725 18.0147059,9 C18.0147059,13.9705627 13.9852686,18 9.01470588,18 L9,18 C4.02943725,18 6.08718376e-16,13.9705627 0,9 C-6.08718376e-16,4.02943725 4.02943725,9.13077564e-16 9,0 Z" id="Rectangle-4-Copy-2" fill="#0067E9"></path>
                <path d="M11.740668,13 L11.740668,11.7022 L7.30546797,11.7022 C7.50706797,11.2486 8.06146797,10.7194 8.98126797,10.1146 C9.86326797,9.5224 10.493268,9.0436 10.846068,8.6656 C11.425668,8.023 11.728068,7.3174 11.728068,6.5362 C11.728068,5.7298 11.450868,5.0872 10.896468,4.5832 C10.329468,4.0792 9.61126797,3.8272 8.74186797,3.8272 C7.77166797,3.8272 6.99046797,4.1548 6.39826797,4.81 C5.81866797,5.4274 5.52886797,6.2338 5.51626797,7.2418 L6.99046797,7.2418 C7.01566797,6.5362 7.16686797,5.9944 7.44406797,5.6416 C7.72126797,5.2636 8.13706797,5.0746 8.69146797,5.0746 C9.20806797,5.0746 9.59866797,5.188 9.86326797,5.4274 C10.115268,5.6668 10.253868,6.0322 10.253868,6.5236 C10.253868,7.0276 10.052268,7.5064 9.66166797,7.9474 C9.40966797,8.212 9.00646797,8.5522 8.42686797,8.9554 C7.38106797,9.6736 6.68806797,10.228 6.36046797,10.606 C5.75566797,11.2864 5.46586797,12.0802 5.46586797,13 L11.740668,13 Z" fill="#FFFFFF" fill-rule="nonzero"></path>
            </g>
        </g>
    </g>
</svg>