<?xml version="1.0" encoding="UTF-8"?>
<svg width="19px" height="18px" viewBox="0 0 19 18" version="1.1" xmlns="http://www.w3.org/2000/svg" xmlns:xlink="http://www.w3.org/1999/xlink">
    <!-- Generator: Sketch 63.1 (92452) - https://sketch.com -->
    <title>4@1x</title>
    <desc>Created with Sketch.</desc>
    <g id="新版定稿（20202-8-22）" stroke="none" stroke-width="1" fill="none" fill-rule="evenodd">
        <g id="画板" transform="translate(-351.000000, -1165.000000)">
            <g id="4" transform="translate(351.500000, 1165.000000)">
                <path d="M9,0 L9.01470588,0 C13.9852686,-9.13077564e-16 18.0147059,4.02943725 18.0147059,9 C18.0147059,13.9705627 13.9852686,18 9.01470588,18 L9,18 C4.02943725,18 6.08718376e-16,13.9705627 0,9 C-6.08718376e-16,4.02943725 4.02943725,9.13077564e-16 9,0 Z" id="Rectangle-4-Copy-4" fill="#F28806"></path>
                <path d="M10.608268,13 L10.608268,11.0722 L11.943868,11.0722 L11.943868,9.9004 L10.608268,9.9004 L10.608268,4.0036 L9.26006797,4.0036 L4.86266797,9.6736 L4.86266797,11.0722 L9.20966797,11.0722 L9.20966797,13 L10.608268,13 Z M9.20966797,9.9004 L6.05966797,9.9004 L9.17186797,5.8684 L9.20966797,5.8684 L9.20966797,9.9004 Z" fill="#FFFFFF" fill-rule="nonzero"></path>
            </g>
        </g>
    </g>
</svg>