<?xml version="1.0" encoding="UTF-8"?>
<svg width="19px" height="18px" viewBox="0 0 19 18" version="1.1" xmlns="http://www.w3.org/2000/svg" xmlns:xlink="http://www.w3.org/1999/xlink">
    <!-- Generator: Sketch 63.1 (92452) - https://sketch.com -->
    <title>1@1x</title>
    <desc>Created with Sketch.</desc>
    <g id="新版定稿（20202-8-22）" stroke="none" stroke-width="1" fill="none" fill-rule="evenodd">
        <g id="画板" transform="translate(-276.000000, -1165.000000)">
            <g id="1" transform="translate(276.500000, 1165.000000)">
                <path d="M9,0 L9.01470588,0 C13.9852686,-9.13077564e-16 18.0147059,4.02943725 18.0147059,9 C18.0147059,13.9705627 13.9852686,18 9.01470588,18 L9,18 C4.02943725,18 6.08718376e-16,13.9705627 0,9 C-6.08718376e-16,4.02943725 4.02943725,9.13077564e-16 9,0 Z" id="Rectangle-4-Copy" fill="#DD3535"></path>
                <path d="M10.4563529,14 L10.4563529,5.0036 L9.34755294,5.0036 C9.04515294,5.3186 8.66715294,5.6084 8.21355294,5.8856 C7.75995294,6.1376 7.33155294,6.314 6.92835294,6.4148 L6.92835294,7.8764 C7.75995294,7.637 8.44035294,7.2716 8.98215294,6.7802 L8.98215294,14 L10.4563529,14 Z" fill="#FFFFFF" fill-rule="nonzero"></path>
            </g>
        </g>
    </g>
</svg>