<?xml version="1.0" encoding="UTF-8"?>
<svg width="18px" height="18px" viewBox="0 0 18 18" version="1.1" xmlns="http://www.w3.org/2000/svg" xmlns:xlink="http://www.w3.org/1999/xlink">
    <!-- Generator: Sketch 52.2 (67145) - http://www.bohemiancoding.com/sketch -->
    <title>分组 15</title>
    <desc>Created with Sketch.</desc>
    <g id="切图" stroke="none" stroke-width="1" fill="none" fill-rule="evenodd">
        <g id="分组-15">
            <g id="分组-10">
                <circle id="椭圆形-copy-12" fill="#D8D8D8" cx="9.34615385" cy="9" r="8.30769231"></circle>
                <path d="M9,17.6538462 C4.22061274,17.6538462 0.346153846,13.7793873 0.346153846,9 C0.346153846,4.22061274 4.22061274,0.346153846 9,0.346153846 C13.7793873,0.346153846 17.6538462,4.22061274 17.6538462,9 C17.6538462,13.7793873 13.7793873,17.6538462 9,17.6538462 Z M9,16.9615385 C13.3970363,16.9615385 16.9615385,13.3970363 16.9615385,9 C16.9615385,4.60296372 13.3970363,1.03846154 9,1.03846154 C4.60296372,1.03846154 1.03846154,4.60296372 1.03846154,9 C1.03846154,13.3970363 4.60296372,16.9615385 9,16.9615385 Z" id="椭圆形-copy-4" fill="#555555" fill-rule="nonzero"></path>
                <path d="M9,17.3076923 C4.41178823,17.3076923 0.692307692,13.5882118 0.692307692,9 L9,9 L17.3076923,9 C17.3076923,13.5882118 13.5882118,17.3076923 9,17.3076923 Z" id="合并形状" fill="#555555"></path>
            </g>
        </g>
    </g>
</svg>