<?xml version="1.0" encoding="UTF-8"?>
<svg width="18px" height="18px" viewBox="0 0 18 18" version="1.1" xmlns="http://www.w3.org/2000/svg" xmlns:xlink="http://www.w3.org/1999/xlink">
    <!-- Generator: Sketch 63.1 (92452) - https://sketch.com -->
    <title>状态-6@1x</title>
    <desc>Created with Sketch.</desc>
    <g id="新版定稿（20202-8-22）" stroke="none" stroke-width="1" fill="none" fill-rule="evenodd">
        <g id="画板" transform="translate(-452.000000, -1188.000000)">
            <g id="状态-6" transform="translate(452.000000, 1188.000000)">
                <path d="M9,0.5445 C6.66507815,0.5445 4.55120315,1.49091407 3.02105861,3.02105861 C1.49091407,4.55120315 0.5445,6.66507815 0.5445,9 C0.5445,11.3349219 1.49091407,13.4487969 3.02105861,14.9789414 C4.55120315,16.5090859 6.66507815,17.4555 9,17.4555 C11.3349219,17.4555 13.4487969,16.5090859 14.9789414,14.9789414 C16.5090859,13.4487969 17.4555,11.3349219 17.4555,9 C17.4555,6.66507815 16.5090859,4.55120315 14.9789414,3.02105861 C13.4487969,1.49091407 11.3349219,0.5445 9,0.5445 Z" id="Rectangle-4-Copy-9" stroke="#555555" stroke-width="1.089" fill="#555555"></path>
                <g id="对号-(1)" transform="translate(3.600000, 5.400000)" fill="#FFFFFF">
                    <path d="M4.6350285,7.29162 C4.26767065,7.64945146 3.65535932,7.64945146 3.28800146,7.29162 L0.27552497,4.35726366 C-0.091819732,3.9994322 -0.091819732,3.40299946 0.27552497,3.04518081 C0.642882826,2.6872981 1.25519415,2.6872981 1.62255201,3.04518081 L4.6350285,5.97952434 C5.00242582,6.36122746 5.00242582,6.93378854 4.6350285,7.29162 Z" id="Fill-1"></path>
                    <path d="M3.31250865,7.29162 C2.94511133,6.93378854 2.94511133,6.3373558 3.31250865,5.97952434 L9.16599026,0.277797966 C9.53334811,-0.0800334915 10.1456594,-0.0800334915 10.5130173,0.277797966 C10.8804146,0.635629424 10.8804146,1.23206217 10.5130173,1.58988081 L4.6350285,7.29162 C4.26767065,7.64945146 3.6798665,7.64945146 3.31250865,7.29162 Z" id="Fill-3"></path>
                </g>
            </g>
        </g>
    </g>
</svg>