<?xml version="1.0" encoding="UTF-8"?>
<svg width="17px" height="16px" viewBox="0 0 17 16" version="1.1" xmlns="http://www.w3.org/2000/svg" xmlns:xlink="http://www.w3.org/1999/xlink">
    <!-- Generator: Sketch 63.1 (92452) - https://sketch.com -->
    <title>日历 @1x</title>
    <desc>Created with Sketch.</desc>
    <g id="新版定稿（20202-8-22）" stroke="none" stroke-width="1" fill="none" fill-rule="evenodd">
        <g id="画板" transform="translate(-212.000000, -1239.000000)" fill="#555555">
            <g id="日历-" transform="translate(212.000000, 1239.000000)">
                <path d="M3.467405,3.34239589 L4.71858375,3.34239589 C4.9066675,3.34239589 5.06107,3.19354242 5.06107,3.01141388 L5.06107,0.347784062 C5.06107,0.165655527 4.9066675,0.0168020566 4.71858375,0.0168020566 L3.467405,0.0168020566 C3.27706875,0.0168020566 3.1254075,0.165655527 3.1254075,0.347784062 L3.1254075,3.01141388 C3.1254075,3.19354242 3.27706875,3.34239589 3.467405,3.34239589 Z M12.282585,3.34239589 L13.5342525,3.34239589 C13.7230162,3.34239589 13.87625,3.19354242 13.87625,3.01141388 L13.87625,0.347784062 C13.87625,0.165655527 13.7229312,0.0168020566 13.5342525,0.0168020566 L12.282585,0.0168020566 C12.0938212,0.0168020566 11.9383562,0.165655527 11.9383562,0.347784062 L11.9383562,3.01141388 C11.9383562,3.19354242 12.0938212,3.34239589 12.282585,3.34239589 Z" id="Fill-1"></path>
                <path d="M15.0068137,1.29026221 L14.5673638,1.29026221 L14.5673638,3.01141388 C14.5673638,3.56195373 14.1036887,4.01285347 13.5342525,4.01285347 L12.282585,4.01285347 C11.7137225,4.01285347 11.2477313,3.56201542 11.2477313,3.01141388 L11.2477313,1.29026221 L5.751695,1.29026221 L5.751695,3.01141388 C5.751695,3.56195373 5.28802,4.01285347 4.71858375,4.01285347 L3.467405,4.01285347 C2.897395,4.01285347 2.433125,3.56201542 2.433125,3.01141388 L2.433125,1.29026221 L1.98936125,1.29026221 C0.892585,1.29026221 0,2.15352185 0,3.21602057 L0,14.0710951 C0,15.1367404 0.892585,16 1.98936125,16 L15.0068137,16 C16.1063313,16 17,15.1367404 17,14.0710951 L17,3.21602057 C17,2.15352185 16.1063313,1.29026221 15.0068137,1.29026221 Z M15.73945,14.0710951 C15.73945,14.463054 15.4112225,14.7800514 15.0068137,14.7800514 L1.98936125,14.7800514 C1.5881825,14.7800514 1.261145,14.463054 1.261145,14.0710951 L1.261145,6.79113625 L15.73945,6.79113625 L15.73945,14.0710951 Z" id="Fill-3"></path>
            </g>
        </g>
    </g>
</svg>