<?xml version="1.0" encoding="UTF-8"?>
<svg width="36px" height="32px" viewBox="0 0 36 32" version="1.1" xmlns="http://www.w3.org/2000/svg" xmlns:xlink="http://www.w3.org/1999/xlink">
    <!-- Generator: Sketch 63.1 (92452) - https://sketch.com -->
    <title>任务树logo@1x</title>
    <desc>Created with Sketch.</desc>
    <g id="新版定稿（20202-8-22）" stroke="none" stroke-width="1" fill="none" fill-rule="evenodd">
        <g id="画板" transform="translate(-557.000000, -1160.000000)">
            <g id="任务树logo" transform="translate(558.000000, 1160.000000)">
                <path d="M28.707961,22.8080427 C27.9613439,22.8080427 27.23261,23.0114623 26.597762,23.3981831 L26.5061114,23.4540676 L22.8847955,19.7209827 L22.9540923,19.6203906 C23.752123,18.482582 24.1723745,17.1324124 24.1723745,15.7196521 C24.1766722,14.3278626 23.7546353,12.9681392 22.9630338,11.8233844 L22.8915016,11.7227923 L26.5128176,7.98523655 L26.6067035,8.04335644 C27.2415515,8.42337106 27.9680501,8.6245553 28.707961,8.6245553 C31.0104026,8.6245553 32.8858866,6.69095142 32.8858866,4.31474223 C32.8858866,1.93853303 31.0126379,0.00716457656 28.7057256,0.00716457656 C26.403284,0.00716457656 24.5277999,1.93853307 24.5277999,4.31474223 C24.5277999,5.0747715 24.7245134,5.82138851 25.0933511,6.48306104 L25.1492357,6.58141778 L21.5234489,10.3212089 L21.4273276,10.2496767 C19.0033099,8.46859668 15.6610415,8.63767174 13.4291372,10.6542805 C12.2559401,11.7082771 11.4887893,13.1397645 11.2608184,14.7003187 L11.2429353,14.8232646 L8.47106387,14.8232646 L8.44647468,14.7114956 C7.99045712,12.7756564 6.32062811,11.4254867 4.38478885,11.4254867 C2.08234724,11.4254867 0.204627842,13.3568552 0.204627842,15.7330644 C0.204627842,18.1092735 2.08234721,20.0428775 4.38478885,20.0428774 C6.24015443,20.0428774 7.88986502,18.7575338 8.40176709,16.9200513 L8.43082702,16.8149884 L11.2697599,16.8149884 L11.2921137,16.9334636 C11.8554295,20.1099389 14.5423565,22.4168512 17.678595,22.4168512 C19.0265292,22.4168512 20.3163436,21.9943644 21.4161507,21.1940982 L21.512272,21.1270368 L25.1425295,24.8668279 L25.086645,24.9651847 C24.7187826,25.6229207 24.5263322,26.3642397 24.5277999,27.1178558 C24.5277999,29.4963004 26.4010486,31.4276688 28.7034902,31.4276688 C31.0059318,31.4276688 32.8836512,29.4963004 32.8836512,27.1178558 C32.8836512,24.7416466 31.0081672,22.8080427 28.707961,22.8080427 L28.707961,22.8080427 Z" id="路径" fill="#FFFFFF" fill-rule="nonzero"></path>
                <rect id="矩形" fill="#FF658F" fill-rule="nonzero" x="11" y="9" width="13.4" height="13.4" rx="6.7"></rect>
                <rect id="矩形" fill="#00CDD3" x="24.2" y="0" width="9" height="9" rx="4.5"></rect>
                <rect id="矩形" fill="#FFCE42" x="0" y="11" width="9" height="9" rx="4.5"></rect>
                <rect id="矩形" fill="#18A15F" x="24.3" y="22.7" width="9" height="9" rx="4.5"></rect>
            </g>
        </g>
    </g>
</svg>