<?xml version="1.0" encoding="UTF-8"?>
<svg width="25px" height="25px" viewBox="0 0 25 25" version="1.1" xmlns="http://www.w3.org/2000/svg" xmlns:xlink="http://www.w3.org/1999/xlink">
    <!-- Generator: Sketch 63.1 (92452) - https://sketch.com -->
    <title>形状@1x</title>
    <desc>Created with Sketch.</desc>
    <g id="新版定稿（20202-8-22）" stroke="none" stroke-width="1" fill="none" fill-rule="evenodd">
        <g id="工作台-弹窗" transform="translate(-1527.000000, -281.000000)" fill="#666666" fill-rule="nonzero" stroke="#666666" stroke-width="0.2">
            <g id="编组-11备份-3" transform="translate(1454.000000, 63.000000)">
                <g id="网址-(1)" transform="translate(74.000000, 216.000000)">
                    <path d="M11.54904,3 C5.19672,3 0.02904,8.16864 0.02904,14.52 C0.02904,20.87136 5.19672,26.04 11.54904,26.04 C17.90232,26.04 23.07,20.87232 23.07,14.52 C23.07,8.16768 17.90232,3 11.54904,3 Z M14.5884,24.55104 C14.80152,24.32928 15.01176,24.07296 15.23256,23.77152 L15.2892,23.6928 C15.71352,23.09664 16.08792,22.41888 16.4316,21.61824 L16.56792,21.26784 L16.7196,21.34176 C17.36376,21.65472 17.96568,22.04256 18.50808,22.4928 L18.65112,22.61184 L18.50904,22.7328 C17.4095438,23.6728085 16.1300947,24.3790044 14.74872,24.80832 L14.17176,24.98784 L14.5884,24.55104 L14.5884,24.55104 Z M17.00184,15.05472 C16.95672,16.8432 16.68216,18.59904 16.20888,20.13312 L16.16088,20.29152 L16.0044,20.232 C14.79864,19.7856 13.47576,19.5312 12.07416,19.47744 L11.92248,19.47168 L11.92248,14.89344 L17.00472,14.89344 L17.00184,15.05472 L17.00184,15.05472 Z M15.91992,20.9904 L15.86136,21.1392 C14.93976,23.48256 13.60728,24.93792 12.11064,25.23552 L11.92248,25.272 L11.92248,20.2176 L12.08568,20.22528 C13.4028,20.27904 14.64216,20.51712 15.7692,20.93568 L15.91992,20.9904 L15.91992,20.9904 Z M18.50712,6.54624 C17.9598084,6.9990854 17.3607493,7.38546078 16.72248,7.69728 L16.54008,7.71744 L16.4796,7.54848 L16.40184,7.35072 C16.1020437,6.64452137 15.7284487,5.97198592 15.28728,5.34432 L15.23064,5.26656 C15.0342991,4.99293728 14.8193932,4.73312567 14.58744,4.48896 L14.1708,4.05024 L14.7468,4.22976 C16.1281362,4.65963532 17.4075385,5.36613192 18.50712,6.30624 L18.6492,6.42624 L18.50712,6.54624 L18.50712,6.54624 Z M16.0044,8.808 L16.16088,8.74944 L16.20888,8.90784 C16.68216,10.44192 16.95672,12.19872 17.00184,13.98624 L17.00568,14.14752 L11.92344,14.14752 L11.92344,9.56928 L12.07512,9.56352 C13.47672,9.5088 14.79864,9.2544 16.0044,8.808 L16.0044,8.808 Z M11.92344,8.8224 L11.92344,3.76704 L12.1116,3.80352 C13.60824,4.10112 14.93976,5.55744 15.86232,7.9008 L15.92088,8.0496 L15.77112,8.10432 C14.64504,8.52192 13.40568,8.76096 12.0876,8.81568 L11.92344,8.8224 L11.92344,8.8224 Z M19.18392,22.10784 L19.0716,22.0128 C18.4273329,21.4620705 17.713357,20.9985671 16.94808,20.63424 L16.8204,20.57376 L16.91064,20.31552 C17.16792,19.49664 17.36952,18.63456 17.50872,17.75328 L17.55672,17.40384 C17.605657,17.0545503 17.6453509,16.7040278 17.67576,16.35264 L17.7084,15.95328 C17.72376,15.73728 17.72952,15.51264 17.73528,15.29664 L17.7468,14.89344 L22.3068,14.89344 L22.29912,15.05856 C22.1676519,17.6620973 21.0962751,20.1295726 19.28376,22.0032 L19.18392,22.10784 L19.18392,22.10784 Z M17.67672,12.68832 C17.6463109,12.3369322 17.606617,11.9864097 17.55768,11.63712 L17.50968,11.28864 C17.3725777,10.4132819 17.1700911,9.5494246 16.90392,8.70432 L16.8204,8.4672 L16.94808,8.40672 C17.7130487,8.04223549 18.4269646,7.57909383 19.0716,7.02912 L19.18392,6.93312 L19.28568,7.03872 C21.0983514,8.9118557 22.1697749,11.3790974 22.30104,13.9824 L22.30872,14.14752 L17.74872,14.14752 L17.7372,13.74528 C17.7325537,13.5262447 17.723592,13.3073222 17.71032,13.08864 L17.67672,12.68832 L17.67672,12.68832 Z M8.5116,4.48992 C8.2800198,4.7347548 8.0651367,4.99485957 7.8684,5.26848 L7.8108,5.3472 C7.37028177,5.97426064 6.99732694,6.64615856 6.69816,7.35168 L6.53304,7.77312 L6.3804,7.6992 C5.74068327,7.3879797 5.14056517,7.0012226 4.59288,6.5472 L4.4508,6.4272 L4.59288,6.3072 C5.69206166,5.36651509 6.97158852,4.65994971 8.3532,4.23072 L8.9292,4.0512 L8.5116,4.48992 L8.5116,4.48992 Z M6.09816,13.98528 C6.14232,12.20064 6.41688,10.4448 6.89112,8.90688 L6.93912,8.74848 L7.0956,8.80704 C8.30136,9.25344 9.62424,9.50784 11.02584,9.5616 L11.17656,9.56736 L11.17656,14.1456 L6.09528,14.1456 L6.09816,13.98528 L6.09816,13.98528 Z M7.18008,8.05056 L7.23864,7.90176 C8.1612,5.5584 9.49272,4.10208 10.98936,3.80448 L11.17656,3.768 L11.17656,8.82336 L11.01336,8.81664 C9.69624,8.76192 8.45688,8.52384 7.32984,8.10528 L7.18008,8.05056 Z M4.59384,22.49376 C5.14103778,22.0412929 5.74012889,21.6555414 6.37848,21.34464 L6.582,21.40608 L6.69912,21.69024 C7.01592,22.42848 7.39128,23.10336 7.81176,23.69568 L7.8684,23.77344 C7.93272,23.86272 8.00088,23.92896 8.06616,24.01248 C8.151314,24.1210456 8.23934523,24.2273233 8.33016,24.3312 C8.39064,24.40128 8.45112,24.48672 8.5116,24.55104 L8.93016,24.98784 L8.35224,24.80928 C6.97110811,24.3793948 5.69176871,23.6732595 4.59192,22.73376 L4.44984,22.6128 L4.59384,22.49376 L4.59384,22.49376 Z M7.0956,20.232 L6.93912,20.29152 L6.89112,20.13312 C6.41688,18.59616 6.14328,16.83936 6.09816,15.05472 L6.09432,14.89344 L11.1756,14.89344 L11.1756,19.47168 L11.02488,19.47744 C9.62328,19.5312 8.30136,19.78464 7.0956,20.232 L7.0956,20.232 Z M11.17656,20.2176 L11.17656,25.272 L10.98936,25.23552 C9.49272,24.93792 8.16024,23.48256 7.23864,21.1392 L7.18008,20.9904 L7.32984,20.93472 C8.45784,20.51712 9.6972,20.27808 11.01336,20.22432 L11.17656,20.2176 Z M5.54328,11.63712 C5.49432,11.98176 5.45496,12.33408 5.41944,12.74496 L5.3916,13.08672 C5.37624,13.31808 5.36952,13.55232 5.3628,13.81248 L5.3532,14.1456 L0.79224,14.1456 L0.79992,13.98048 C0.930319348,11.3771634 2.00148306,8.90973442 3.81432,7.0368 L3.91608,6.9312 L4.0284,7.0272 C4.67206671,7.57680275 5.38502444,8.03962819 6.14904,8.40384 L6.23544,8.58816 L6.19032,8.72448 C5.92724588,9.56313935 5.72701184,10.4202309 5.59128,11.28864 L5.54328,11.63712 L5.54328,11.63712 Z M5.54328,17.40288 L5.59128,17.75136 C5.7324,18.64416 5.93496,19.5072 6.19032,20.31456 L6.27672,20.57472 L6.15192,20.63328 C5.38008,21.00288 4.66584,21.46752 4.0284,22.01184 L3.91608,22.10688 L3.81432,22.00128 C2.00178733,20.127755 0.93069563,17.6601508 0.79992,15.05664 L0.79224,14.89152 L5.3532,14.89152 L5.3628,15.22464 C5.36856,15.48384 5.37624,15.71808 5.3916,15.9504 L5.4252,16.34976 C5.45405299,16.7018986 5.49343059,17.0530956 5.54328,17.40288 L5.54328,17.40288 Z" id="形状"></path>
                </g>
            </g>
        </g>
    </g>
</svg>