<?xml version="1.0" encoding="UTF-8"?>
<svg width="59px" height="59px" viewBox="0 0 59 59" version="1.1" xmlns="http://www.w3.org/2000/svg" xmlns:xlink="http://www.w3.org/1999/xlink">
    <!-- Generator: Sketch 59 (86127) - https://sketch.com -->
    <title>形状结合</title>
    <desc>Created with Sketch.</desc>
    <g id="页面-2" stroke="none" stroke-width="1" fill="none" fill-rule="evenodd">
        <g id="首页3" transform="translate(-759.000000, -6881.000000)" fill="#FFFFFF" fill-rule="nonzero">
            <g id="编组备份-4" transform="translate(0.000000, 6480.000000)">
                <g id="编组-7" transform="translate(540.000000, 401.000000)">
                    <path d="M248.150425,1.03028697e-13 C252.087929,1.03028697e-13 255.902387,0.7734384 259.500047,2.29101829 C262.968801,3.76172313 266.085992,5.85938182 268.76373,8.53711931 C271.441467,11.2148568 273.539126,14.3320479 275.009831,17.800802 C276.53327,21.3984624 277.300849,25.21292 277.300849,29.1504245 C277.300849,33.0879291 276.527411,36.9023867 275.009831,40.5000471 C273.539126,43.9688012 271.441467,47.0859923 268.76373,49.7637298 C266.085992,52.4414673 262.968801,54.539126 259.500047,56.0098308 C255.902387,57.5274107 252.08207,58.3008491 248.150425,58.3008491 C244.218779,58.3008491 240.398462,57.5274107 236.800802,56.0098308 C233.332048,54.539126 230.214857,52.4414673 227.537119,49.7637298 C224.859382,47.0859923 222.761723,43.9688012 221.291018,40.5000471 C219.767579,36.9023867 219,33.0879291 219,29.1504245 C219,25.21292 219.773438,21.3984624 221.291018,17.800802 C222.761723,14.3320479 224.859382,11.2148568 227.537119,8.53711931 C230.214857,5.85938182 233.332048,3.76172313 236.800802,2.29101829 C240.398462,0.767579018 244.21292,1.03028697e-13 248.150425,1.03028697e-13 Z M248.150425,4.68750545 C234.662128,4.68750545 223.687505,15.6621276 223.687505,29.1504245 C223.687505,42.6387215 234.662128,53.6133436 248.150425,53.6133436 C261.638721,53.6133436 272.613344,42.6387215 272.613344,29.1504245 C272.613344,15.6621276 261.638721,4.68750545 248.150425,4.68750545 Z M248.150425,9.67383938 C249.445348,9.67383938 250.494177,10.7226687 250.494177,12.0175921 L250.494,27.164 L265.470757,27.1640941 C266.765681,27.1640941 267.81451,28.2129235 267.81451,29.5078468 C267.81451,30.8027702 266.765681,31.8515996 265.470757,31.8515996 L248.150425,31.8515996 L248.150425,31.8515996 C246.855501,31.8515996 245.806672,30.8027702 245.806672,29.5078468 L245.806672,12.0175921 C245.806672,10.7226687 246.855501,9.67383938 248.150425,9.67383938 Z" id="形状结合"></path>
                </g>
            </g>
        </g>
    </g>
</svg>