<?xml version="1.0" encoding="UTF-8"?>
<svg width="49px" height="47px" viewBox="0 0 49 47" version="1.1" xmlns="http://www.w3.org/2000/svg" xmlns:xlink="http://www.w3.org/1999/xlink">
    <!-- Generator: Sketch 59 (86127) - https://sketch.com -->
    <title>形状结合</title>
    <desc>Created with Sketch.</desc>
    <g id="页面-2" stroke="none" stroke-width="1" fill="none" fill-rule="evenodd">
        <g id="首页3" transform="translate(-719.000000, -2608.000000)" fill="#FFFFFF" fill-rule="nonzero" stroke="#FFFFFF" stroke-width="2">
            <g id="编组" transform="translate(0.000000, 2160.000000)">
                <g id="编组-2" transform="translate(582.000000, 449.000000)">
                    <path d="M152.323014,-6.57252031e-14 L152.323014,9.86434408 L149.363711,9.86434408 L149.363,6.382 L142.044418,6.38224399 C141.445145,6.38224401 140.959338,6.86805052 140.959338,7.46732359 L140.959,16.946 L179.781325,16.9465396 L179.781325,19.7772532 L140.959,19.777 L140.959338,40.8581255 C140.959338,41.417447 141.38253,41.8779266 141.926186,41.936838 L142.044418,41.9432051 L179.982695,41.9432051 C180.542016,41.9432051 181.002496,41.5200136 181.061407,40.9763569 L181.067775,40.8581255 L181.067775,7.46732343 C181.067775,6.9080019 180.644583,6.44752232 180.100926,6.38861092 L179.982695,6.38224382 L173.186,6.382 L173.186104,9.86434408 L170.226801,9.86434408 L170.226801,-6.57252031e-14 L173.186104,-6.57252031e-14 L173.186,3.422 L179.982695,3.4229406 C182.214095,3.42836328 184.021654,5.23592316 184.027078,7.46732343 L184.027078,40.8580717 C184.021685,43.089472 182.214148,44.8970566 179.982748,44.9025072 L142.044383,44.9025072 C139.812983,44.8970843 138.005424,43.0895243 138,40.8581241 L138,7.46737621 C138.005393,5.23597595 139.812926,3.42839133 142.04433,3.4229406 L149.363,3.422 L149.363711,-6.57252031e-14 L152.323014,-6.57252031e-14 Z M168.224342,3.45252043 L168.224342,6.41182365 L154.315615,6.41182365 L154.315615,3.45252043 L168.224342,3.45252043 Z" id="形状结合"></path>
                </g>
            </g>
        </g>
    </g>
</svg>