<?xml version="1.0" encoding="UTF-8"?>
<svg width="50px" height="48px" viewBox="0 0 50 48" version="1.1" xmlns="http://www.w3.org/2000/svg" xmlns:xlink="http://www.w3.org/1999/xlink">
    <!-- Generator: Sketch 59 (86127) - https://sketch.com -->
    <title>形状</title>
    <desc>Created with Sketch.</desc>
    <g id="页面-2" stroke="none" stroke-width="1" fill="none" fill-rule="evenodd">
        <g id="首页3" transform="translate(-1117.000000, -5892.000000)" fill="#31344A" fill-rule="nonzero">
            <g id="编组备份-3" transform="translate(0.000000, 5400.000000)">
                <g id="编组-3" transform="translate(1112.000000, 492.000000)">
                    <path d="M55,39.1304348 C55,43.8858696 51.0597826,47.826087 46.3043478,47.826087 C43.8586957,47.826087 41.6847826,46.875 40.0543478,45.2445652 C37.0652174,46.875 33.6684783,47.826087 30,47.826087 C26.3315217,47.826087 22.9347826,46.875 19.9456522,45.2445652 C18.3152174,46.875 16.1413043,47.826087 13.6956522,47.826087 C8.94021739,47.826087 5,43.8858696 5,39.1304348 C5,35.7336957 6.90217391,32.8804348 9.75543478,31.3858696 C9.48369565,30.0271739 9.34782609,28.6684783 9.34782609,27.173913 C9.34782609,18.4782609 14.7826087,11.0054348 22.3913043,8.01630435 C22.798913,3.5326087 26.4673913,1.24344979e-13 30.951087,1.24344979e-13 C35.7065217,1.24344979e-13 39.6467391,3.94021739 39.6467391,8.69565217 L39.6467391,8.9673913 C46.1684783,12.5 50.5163043,19.2934783 50.5163043,27.173913 C50.5163043,28.6684783 50.3804348,30.0271739 50.1086957,31.3858696 C52.9619565,32.8804348 55,35.7336957 55,39.1304348 Z M9.34782609,39.1304348 C9.34782609,41.576087 11.25,43.4782609 13.6956522,43.4782609 C16.1413043,43.4782609 18.0434783,41.576087 18.0434783,39.1304348 C18.0434783,36.6847826 16.1413043,34.7826087 13.6956522,34.7826087 C11.25,34.7826087 9.34782609,36.8206522 9.34782609,39.1304348 Z M31.0869565,4.48369565 C28.6413043,4.48369565 26.7391304,6.38586957 26.7391304,8.83152174 C26.7391304,11.2771739 28.6413043,13.1793478 31.0869565,13.1793478 C33.5326087,13.1793478 35.4347826,11.2771739 35.4347826,8.83152174 C35.4347826,6.38586957 33.5326087,4.48369565 31.0869565,4.48369565 Z M38.423913,13.3152174 C36.9293478,15.7608696 34.2119565,17.3913043 31.0869565,17.3913043 C27.5543478,17.3913043 24.5652174,15.3532609 23.2065217,12.3641304 C17.6358696,14.9456522 13.6956522,20.6521739 13.6956522,27.173913 C13.6956522,28.2608696 13.8315217,29.3478261 13.9673913,30.4347826 C18.5869565,30.5706522 22.2554348,34.375 22.2554348,39.1304348 C22.2554348,39.9456522 22.1195652,40.625 21.9836957,41.4402174 C24.2934783,42.798913 27.0108696,43.4782609 29.8641304,43.4782609 C32.7173913,43.4782609 35.4347826,42.6630435 37.7445652,41.4402174 C37.6086957,40.7608696 37.4728261,39.9456522 37.4728261,39.1304348 C37.4728261,34.5108696 41.1413043,30.7065217 45.7608696,30.4347826 C46.0326087,29.3478261 46.0326087,28.2608696 46.0326087,27.173913 C46.3043478,21.3315217 43.1793478,16.1684783 38.423913,13.3152174 Z M46.3043478,34.7826087 C43.8586957,34.7826087 41.9565217,36.6847826 41.9565217,39.1304348 C41.9565217,41.576087 43.8586957,43.4782609 46.3043478,43.4782609 C48.75,43.4782609 50.6521739,41.576087 50.6521739,39.1304348 C50.6521739,36.8206522 48.6141304,34.7826087 46.3043478,34.7826087 Z" id="形状"></path>
                </g>
            </g>
        </g>
    </g>
</svg>