<?xml version="1.0" encoding="UTF-8"?>
<svg width="32px" height="38px" viewBox="0 0 32 38" version="1.1" xmlns="http://www.w3.org/2000/svg" xmlns:xlink="http://www.w3.org/1999/xlink">
    <!-- Generator: Sketch 59 (86127) - https://sketch.com -->
    <title>形状</title>
    <desc>Created with Sketch.</desc>
    <g id="页面-2" stroke="none" stroke-width="1" fill="none" fill-rule="evenodd">
        <g id="首页3" transform="translate(-293.000000, -763.000000)" fill="#6F8397" fill-rule="nonzero">
            <path d="M309.370664,771.656446 L309.370664,771.656446 C309.809168,771.646479 310.245077,771.585827 310.669778,771.475685 L310.869641,771.475685 L310.869641,771.475685 C311.329851,771.32368 311.772171,771.121637 312.18874,770.873148 L312.368617,770.873148 L312.368618,770.873148 C312.769952,770.652906 313.151173,770.397511 313.507836,770.109934 L313.647741,769.989427 L313.64774,769.989427 C314.007413,769.682491 314.341624,769.34664 314.647059,768.985198 L314.766977,768.86469 L314.766978,768.86469 C315.072006,768.485856 315.346045,768.082851 315.586417,767.659617 L315.586417,767.519026 L315.586416,767.519026 C315.824951,767.08193 316.025558,766.624989 316.186006,766.153276 L316.186006,766.052849 L316.186006,766.052849 C316.346853,765.569647 316.460642,765.071892 316.525774,764.566595 L316.525774,764.566593 C316.584026,764.046035 316.584026,763.520558 316.525774,763 L316.525773,763 C312.168063,763.478831 308.901847,767.232482 309.010912,771.636351 L309.370664,771.656446 Z M320.163312,785.795984 L320.163312,785.795985 C319.770091,784.772209 319.586547,783.679207 319.62368,782.582453 L319.623679,782.582463 C319.65087,781.851924 319.778664,781.128698 320.003416,780.433417 L320.003416,780.433416 C320.235073,779.721317 320.564709,779.045284 320.982747,778.424961 L320.982747,778.424961 C321.678885,777.396527 322.576612,776.521727 323.620948,775.854135 L323.620948,775.854135 C322.275705,773.92329 320.217154,772.614099 317.904848,772.218827 L317.904848,772.218827 C317.476108,772.134652 317.041991,772.08096 316.605734,772.05815 L314.187386,772.05815 L313.607781,772.218827 L313.168083,772.359419 L312.608466,772.560264 L312.208741,772.881617 L311.549189,773.142717 L311.009557,773.363647 L310.629816,773.504239 L310.17013,773.644831 L309.910307,773.644831 L309.910307,773.644831 C309.704456,773.668562 309.496582,773.668562 309.290729,773.644831 L309.290729,773.644831 C309.091411,773.66581 308.890458,773.66581 308.691139,773.644831 L308.471289,773.644831 L308.031591,773.524324 L307.711809,773.403817 L307.252123,773.283309 L306.492641,772.982041 L306.192849,772.881607 L305.653216,772.680761 L305.293462,772.560254 L304.793803,772.399577 L304.414062,772.399577 L303.894418,772.299154 L303.494692,772.299154 L303.015021,772.158562 L303.015022,772.158562 C301.787246,772.165328 300.57238,772.410859 299.437463,772.881607 L299.437463,772.881607 C295.295619,774.72334 292.734927,778.964024 293.021847,783.506338 L293.021847,785.514793 C293.021847,785.67547 293.021847,786.237838 293.161751,786.599362 C293.301656,786.960884 293.161751,787.001051 293.281669,787.201898 C293.401587,787.402743 293.401587,787.844604 293.481533,788.165958 C293.561478,788.487311 293.601451,788.587734 293.66141,788.788581 C293.721369,788.989427 293.821301,789.391117 293.921233,789.692385 C294.021165,789.993654 294.081124,790.134244 294.161069,790.355178 L294.460864,791.19873 L294.740673,791.841435 C294.860591,792.102535 294.960523,792.38372 295.080441,792.644818 L295.380236,793.247355 L295.779962,794.030651 L296.11973,794.613105 L296.539443,795.336149 L296.899198,795.878433 L297.338896,796.541225 L297.718637,797.04334 L298.178323,797.625793 L298.578048,798.087739 L299.037735,798.589854 L299.457449,798.991543 L299.917135,799.41332 L300.336849,799.734673 L300.796535,800.07611 L301.216249,800.317125 L301.655947,800.55814 L302.055673,800.698732 L302.495371,800.839324 L303.015015,801 L303.474702,801 L303.474701,801 C304.01789,800.979538 304.555787,800.884943 305.073606,800.718817 L305.073607,800.718817 C306.538468,799.980486 308.135274,799.543475 309.770414,799.433405 L309.770414,799.433405 C310.103137,799.4107 310.437008,799.4107 310.769733,799.433405 L311.089515,799.433405 L311.629148,799.553913 L311.968915,799.654336 L312.388629,799.794927 L312.748383,799.935519 L313.268027,800.15645 L313.727714,800.357295 L314.027509,800.457718 L314.427235,800.59831 L316.126078,800.59831 L316.126077,800.59831 C317.460896,800.482906 318.712969,799.899999 319.663663,798.951375 L319.663663,798.951375 C321.506281,797.183585 323.004273,795.085631 324.080634,792.76532 L324.080634,792.76532 C324.419212,792.13859 324.72606,791.495065 325,790.837214 L325,790.837214 C322.791948,789.859705 321.054775,788.049088 320.163312,785.79598 L320.163312,785.795984 Z" id="形状"></path>
        </g>
    </g>
</svg>