<?xml version="1.0" encoding="UTF-8"?>
<svg width="26px" height="26px" viewBox="0 0 26 26" version="1.1" xmlns="http://www.w3.org/2000/svg" xmlns:xlink="http://www.w3.org/1999/xlink">
    <!-- Generator: Sketch 63.1 (92452) - https://sketch.com -->
    <title>所有项目@1x</title>
    <desc>Created with Sketch.</desc>
    <g id="2021.3.8" stroke="none" stroke-width="1" fill="none" fill-rule="evenodd">
        <g id="企业首页中台" transform="translate(-59.000000, -597.000000)">
            <g id="主菜单">
                <g id="所有项目" transform="translate(59.000000, 597.000000)">
                    <rect id="矩形" fill="#F9F8FF" x="0" y="0" width="26" height="26"></rect>
                    <g id="项目" transform="translate(5.000000, 5.000000)" fill="#07C15E" fill-rule="nonzero">
                        <path d="M15.9131232,11.3002255 C16.0739812,11.6223676 15.9749292,12.01372 15.6801877,12.2205491 L15.5888405,12.2753574 L8.32216688,15.9086942 C8.15271042,15.9934357 7.95684581,16.0085967 7.77636707,15.9509423 L7.67131774,15.9086942 L0.405785981,12.2753574 C0.062988209,12.1067188 -0.0905378888,11.701323 0.0545576913,11.3479159 C0.199653271,10.9945089 0.59375146,10.8139469 0.956153152,10.9348365 L1.05549328,10.9759428 L7.99674231,14.4471382 L14.9379913,10.9759428 C15.1102841,10.8895144 15.3098693,10.8751286 15.492776,10.9359547 C15.6756826,10.9967808 15.8269036,11.1278282 15.9131232,11.3002255 Z M7.99674231,10.8126596 L14.9379913,7.34146416 C15.2794502,7.16344704 15.7004951,7.28290529 15.897589,7.61371983 C16.0946829,7.94453436 15.9992932,8.37167587 15.6801877,8.58721225 L15.5888405,8.6420206 L8.32216688,12.2753574 C8.15271042,12.3600989 7.95684581,12.3752599 7.77636707,12.3176055 L7.67131774,12.2753574 L0.405785981,8.6420206 C0.062988209,8.47338201 -0.0905378888,8.06798622 0.0545576913,7.71457914 C0.199653271,7.36117207 0.59375146,7.1806101 0.956153152,7.30149974 L1.05549328,7.342606 L7.99674231,10.8126596 L14.9379913,7.34146416 L7.99674231,10.8126596 Z M8.21711755,0.0336842978 L8.32216688,0.0759324001 L15.5876986,3.7092692 C15.8151656,3.82308939 15.9666513,4.0474644 15.9871947,4.30098805 C16.007738,4.55451171 15.8943543,4.80034943 15.6881806,4.94930809 L15.5876986,5.0086838 L8.32216688,8.64316244 C8.15286282,8.7282823 7.9569933,8.74385351 7.77636707,8.68655239 L7.67131774,8.64316244 L0.405785981,5.00982565 C0.178318982,4.89600545 0.0268333209,4.67163044 0.00628996781,4.41810679 C-0.0142533853,4.16458314 0.0991303237,3.91874541 0.305304008,3.76978675 L0.405785981,3.71041104 L7.67131774,0.0770742407 C7.80833861,0.00856380452 7.96020341,-0.0142730075 8.10750085,0.00856380452 L8.21711755,0.0348261384 L8.21711755,0.0336842978 Z M7.99674231,1.53863021 L2.35604973,4.3589765 L7.99674231,7.17932279 L13.6374349,4.3589765 L7.99674231,1.53863021 Z" id="形状"></path>
                    </g>
                </g>
            </g>
        </g>
    </g>
</svg>