<?xml version="1.0" encoding="UTF-8"?>
<svg width="60px" height="60px" viewBox="0 0 60 60" version="1.1" xmlns="http://www.w3.org/2000/svg" xmlns:xlink="http://www.w3.org/1999/xlink">
    <!-- Generator: Sketch 63.1 (92452) - https://sketch.com -->
    <title>Android下载@1x</title>
    <desc>Created with Sketch.</desc>
    <g id="页面-1" stroke="none" stroke-width="1" fill="none" fill-rule="evenodd">
        <g id="首页" transform="translate(-409.000000, -1201.000000)">
            <g id="编组-15" transform="translate(296.000000, 1201.000000)">
                <g id="Android下载" transform="translate(113.000000, 0.000000)">
                    <circle id="椭圆形备份" stroke="#6F8397" stroke-width="1.6" cx="29.6" cy="29.6" r="28.8"></circle>
                    <path d="M21.6660471,23.628941 L37.9519864,23.628941 L37.9519864,24.0065434 C37.9519864,28.1052978 37.9527204,32.2040522 37.9516341,36.3028067 C37.9511938,37.6885959 37.2204161,38.4210858 35.8442371,38.4216797 C35.5019099,38.4217688 35.1597001,38.4216797 34.8408308,38.4216797 C34.8408308,39.8899257 34.8565966,41.3168394 34.8350471,42.7430999 C34.8216887,43.6275868 34.0657796,44.3618286 33.199451,44.3938967 C32.2687965,44.4284591 31.4192319,43.7761692 31.3862323,42.8725601 C31.3329748,41.4115592 31.3719344,39.9472326 31.3719344,38.4530352 L28.2498278,38.4530352 C28.2498278,39.0333796 28.2508847,39.6143178 28.2495929,40.1951966 C28.2476552,41.050941 28.2658285,41.9074574 28.2350895,42.7620735 C28.2050258,43.5986958 27.5546627,44.2826975 26.7525425,44.3851671 C25.9015099,44.4939612 25.1053789,43.9954203 24.8526557,43.1809191 C24.7968146,43.0009515 24.7639911,42.8060187 24.7628168,42.6177075 C24.7548898,41.4016715 24.7568862,40.1854871 24.7605855,38.9694511 C24.7610846,38.8026671 24.7887702,38.6358533 24.8081472,38.4216203 C24.4032851,38.4216203 24.0061444,38.4240551 23.6089743,38.4211452 C22.4333768,38.4125343 21.6683371,37.6418596 21.6673682,36.4491027 C21.6641387,32.2828567 21.6660764,28.1165514 21.6660471,23.950246 L21.6660471,23.628941 L21.6660471,23.628941 Z M37.9591207,22.4132614 L21.6500464,22.4132614 C21.8015687,19.5620469 23.4033138,17.7894802 25.7842203,16.5308351 C25.5415966,16.1589931 25.3060484,15.7970685 25.0695021,15.4357673 C24.8975751,15.1731055 24.7232113,14.9120767 24.5520477,14.6489101 C24.4313818,14.4633899 24.2379639,14.2541453 24.5061594,14.0689517 C24.7957577,13.8690009 24.9140456,14.1487064 25.0418164,14.3396009 C25.3474448,14.7960375 25.6489922,15.2553543 25.9515085,15.7139585 C26.3240756,16.2789517 26.3237233,16.2787736 26.9641042,16.0899872 C29.0008926,15.4896003 31.0241757,15.5235984 33.0334546,16.2221792 C33.1054137,16.2472696 33.1790757,16.267431 33.2733185,16.2964111 C33.6898068,15.6656188 34.102684,15.0401414 34.5156493,14.4147829 C34.5650607,14.3398682 34.6133858,14.2643299 34.6644413,14.1905434 C34.7807033,14.0223044 34.9284384,13.9316525 35.1143109,14.0703473 C35.2825386,14.1957991 35.2539428,14.3559913 35.1477509,14.5164508 C34.7888358,15.0586994 34.4323281,15.6025514 34.0752333,16.1458986 C33.9954939,16.2672528 33.9170757,16.3894681 33.825857,16.5301819 C36.1936986,17.7774546 37.8097709,19.5535251 37.9591207,22.4132614 L37.9591207,22.4132614 Z M34.1676851,19.2060905 C34.1725587,18.7291065 33.7777374,18.3232663 33.3034997,18.3179513 C32.8248287,18.3125176 32.4348516,18.7023237 32.4309469,19.1899377 C32.4271889,19.6833417 32.8009304,20.067239 33.2880861,20.070327 C33.7733042,20.0733557 34.162694,19.6907352 34.1676851,19.2060905 L34.1676851,19.2060905 Z M27.1765761,19.184979 C27.170352,18.6979589 26.7772041,18.3086575 26.3006177,18.3177435 C25.8274075,18.3267107 25.4327623,18.7367079 25.4411003,19.2109007 C25.4495557,19.6944765 25.8421458,20.0760577 26.3257784,20.0708318 C26.812024,20.0655465 27.182947,19.6794223 27.1766055,19.184979 L27.1765761,19.184979 Z M42.5988878,29.1519368 C42.5988291,30.3779495 42.6019999,31.6040513 42.5978896,32.8301234 C42.5941904,33.9093353 41.8605943,34.6885912 40.8585972,34.6879384 C39.8573634,34.6873144 39.1175432,33.9028029 39.116545,32.8303016 C39.1142549,30.344367 39.1115245,27.8584325 39.1185414,25.3725574 C39.1210956,24.4573087 39.7841124,23.7227403 40.6589552,23.6306632 C41.5694693,23.5349042 42.3673325,24.1061328 42.5602219,25.0046645 C42.5974493,25.1781591 42.5969501,25.3619868 42.5973905,25.5411824 C42.6003852,26.7447177 42.5989466,27.9483124 42.5988585,29.1519368 L42.5988878,29.1519368 Z M20.4866329,29.1519962 C20.4866329,30.4344251 20.4986701,31.7168837 20.4821703,32.9989859 C20.4720708,33.7851009 19.924817,34.4472784 19.180035,34.6395685 C18.4518116,34.8274344 17.6531557,34.5219853 17.2804418,33.8524737 C17.1285084,33.5795975 17.0184411,33.2411598 17.0158869,32.9314647 C16.9950125,30.4117992 16.9975081,27.8919853 17.0074314,25.3722604 C17.0113949,24.3791575 17.7863287,23.6173015 18.750247,23.6173015 C19.7182169,23.6173015 20.4750067,24.3676664 20.4860164,25.3724386 C20.4998445,26.6321526 20.4893633,27.8921931 20.4893633,29.1520259 L20.4866329,29.1519962 L20.4866329,29.1519962 Z" id="形状" fill="#6F8397" fill-rule="nonzero"></path>
                </g>
            </g>
        </g>
    </g>
</svg>