<?xml version="1.0" encoding="UTF-8"?>
<svg width="38px" height="24px" viewBox="0 0 38 24" version="1.1" xmlns="http://www.w3.org/2000/svg" xmlns:xlink="http://www.w3.org/1999/xlink">
    <!-- Generator: Sketch 63.1 (92452) - https://sketch.com -->
    <title>活力值@1x</title>
    <desc>Created with Sketch.</desc>
    <g id="2021.4.9-图标由绿色改蓝色" stroke="none" stroke-width="1" fill="none" fill-rule="evenodd">
        <g id="图标切图" transform="translate(-16.000000, -166.000000)" fill-rule="nonzero">
            <g id="活力值" transform="translate(16.000000, 166.000000)">
                <path d="M35.52,7.68000001 L35.52,3.84000003 C35.52,1.72800005 33.792,0 31.68,0 L3.83999998,0 C1.728,0 0,1.728 0,3.83999999 L0,19.2 C0,21.312 1.728,23.04 3.83999998,23.04 L31.68,23.04 C33.792,23.04 35.52,21.312 35.52,19.2 L35.52,15.36 C36.576,15.36 37.44,14.496 37.44,13.44 L37.44,9.59999998 C37.44,8.54400001 36.576,7.68000001 35.52,7.68000001 Z" id="形状" fill="#1890FF"></path>
                <path d="M15.9670714,19.36 C15.9123045,19.3590023 15.8581941,19.3481717 15.8074474,19.3280499 C15.6367983,19.2574711 15.536055,19.0838034 15.5618721,18.9047116 L16.4172929,12.858162 L12.4144144,12.858162 C12.2738551,12.8598782 12.1422275,12.7910903 12.0657936,12.6759746 C11.9893597,12.5608589 11.978815,12.4155235 12.0378655,12.2910484 L15.5987084,4.23963227 C15.6640122,4.09362497 15.8119961,3.99945205 15.9752573,4 L21.8322298,4 C21.9759107,3.99919035 22.1095082,4.07194979 22.1842211,4.19170719 C22.2573342,4.31527449 22.2573342,4.46751568 22.1842211,4.59108298 L19.7284675,9.23981727 L23.1174075,9.23981727 C23.2724415,9.24102957 23.4134655,9.32761388 23.4816777,9.46346773 C23.5437433,9.59339626 23.5296849,9.74581647 23.4448414,9.86284352 L16.2945052,19.2002497 C16.2172086,19.3008148 16.0958991,19.36 15.9670714,19.36 L15.9670714,19.36 Z" id="路径" fill="#FFFFFF"></path>
            </g>
        </g>
    </g>
</svg>