<?xml version="1.0" encoding="UTF-8"?>
<svg width="60px" height="60px" viewBox="0 0 60 60" version="1.1" xmlns="http://www.w3.org/2000/svg" xmlns:xlink="http://www.w3.org/1999/xlink">
    <!-- Generator: Sketch 63.1 (92452) - https://sketch.com -->
    <title>椭圆形-关闭@1x</title>
    <desc>Created with Sketch.</desc>
    <defs>
        <rect id="path-1" x="0" y="0" width="153.6" height="153.6"></rect>
    </defs>
    <g id="新版定稿（20202-8-22）" stroke="none" stroke-width="1" fill="none" fill-rule="evenodd">
        <g id="画板" transform="translate(-12.000000, -859.000000)">
            <g id="椭圆形-关闭" transform="translate(-82.000000, 859.000000)">
                <mask id="mask-2" fill="white">
                    <use xlink:href="#path-1"></use>
                </mask>
                <g id="蒙版"></g>
                <circle id="椭圆形" fill="#333333" mask="url(#mask-2)" cx="153.6" cy="0" r="59.2"></circle>
                <path d="M130.975612,22.7997249 L136.356064,17.4207047 C136.680558,17.0962101 136.680554,16.5701047 136.356055,16.2456152 C136.031556,15.9211258 135.505443,15.92113 135.180949,16.2456245 L129.79914,21.6232502 L124.417331,16.2428911 C124.092832,15.9187714 123.567019,15.9190753 123.242894,16.2435698 C122.91877,16.5680644 122.919074,17.0938702 123.243573,17.4179899 L128.62131,22.7997249 L123.243573,28.1801025 C123.033659,28.3900137 122.951678,28.6959659 123.028512,28.9827099 C123.105346,29.2694539 123.329322,29.4934264 123.61607,29.5702592 C123.902818,29.6470921 124.208774,29.5651124 124.418688,29.3552012 L129.79914,23.974805 L135.180949,29.3565586 C135.344155,29.5197627 135.554983,29.6 135.768506,29.6 C136.104633,29.6007379 136.40799,29.3985964 136.536721,29.0881013 C136.665451,28.7776061 136.594112,28.420121 136.356064,28.1828173 L130.975612,22.7997249 Z" id="关闭" stroke="#FFFFFF" stroke-width="0.6" fill="#FFFFFF" fill-rule="nonzero" mask="url(#mask-2)"></path>
            </g>
        </g>
    </g>
</svg>