<?xml version="1.0" encoding="UTF-8"?>
<svg width="74px" height="65px" viewBox="0 0 74 65" version="1.1" xmlns="http://www.w3.org/2000/svg" xmlns:xlink="http://www.w3.org/1999/xlink">
    <!-- Generator: Sketch 63.1 (92452) - https://sketch.com -->
    <title>切换@1x</title>
    <desc>Created with Sketch.</desc>
    <g id="新版定稿（20202-8-22）" stroke="none" stroke-width="1" fill="none" fill-rule="evenodd">
        <g id="画板" transform="translate(-401.000000, -2002.000000)" fill="#555555" fill-rule="nonzero">
            <g id="切换" transform="translate(401.000000, 2002.000000)">
                <path d="M56.736,38.3184 C54.9504,40.104 54.9504,43.0416 56.736,44.8272 L58.0608,46.0944 L48.2112,46.0944 L42.0750915,38.3184 L35.6238915,44.8272 L42.5664,53.6976 C43.4304,54.7344 44.6976,55.3104 46.08,55.3104 L58.0608,55.3104 L56.6784,56.6928 C54.8928,58.4784 54.8928,61.416 56.6784,63.2016 C58.464,64.9872 61.344,64.9872 63.1296,63.2016 L72.4032,53.8704 C73.2672,53.0064 73.728,51.8544 73.728,50.5872 C73.728,49.3776 73.2672,48.168 72.4032,47.304 L63.1872,38.3184 C61.4016,36.5328 58.5216,36.5328 56.736,38.3184 Z M16.3008,18.5616 L23.9397835,26.3376 L30.3909835,19.8288 L21.9456,10.9584 C21.0816,9.9216 19.8144,9.3456 18.432,9.3456 L4.608,9.3456 C2.0736,9.3456 0,11.4192 0,13.9536 C0,16.488 2.0736,18.5616 4.608,18.5616 L16.3008,18.5616 Z M58.0032,18.5616 L56.6784,19.8288 C54.8928,21.6144 54.8928,24.552 56.6784,26.3376 C58.464,28.1232 61.344,28.1232 63.1296,26.3376 L72.3456,17.2944 C73.2096,16.4304 73.6704,15.2784 73.6704,14.0112 C73.6704,12.8016 73.2096,11.592 72.3456,10.728 L63.072,1.3968 C61.2864,-0.3888 58.4064,-0.3888 56.6208,1.3968 C54.8352,3.1824 54.8352,6.12 56.6208,7.9056 L58.0032,9.288 L46.08,9.288 C44.7552,9.288 43.4304,9.864 42.5664,10.9008 L16.3008,46.0944 L4.608,46.0944 C2.0736,46.0944 0,48.168 0,50.7024 C0,53.2368 2.0736,55.3104 4.608,55.3104 L18.432,55.3104 C19.7568,55.3104 21.0816,54.7344 21.9456,53.6976 L48.2112,18.504 L58.0032,18.504 L58.0032,18.5616 Z" id="形状"></path>
            </g>
        </g>
    </g>
</svg>