<?xml version="1.0" encoding="UTF-8"?>
<svg width="57px" height="53px" viewBox="0 0 57 53" version="1.1" xmlns="http://www.w3.org/2000/svg" xmlns:xlink="http://www.w3.org/1999/xlink">
    <!-- Generator: Sketch 63.1 (92452) - https://sketch.com -->
    <title>cheerchat@1x</title>
    <desc>Created with Sketch.</desc>
    <g id="新版定稿（20202-8-22）" stroke="none" stroke-width="1" fill="none" fill-rule="evenodd">
        <g id="切图" transform="translate(-32.000000, -267.000000)">
            <g id="cheerchat-2" transform="translate(35.000000, 269.000000)">
                <g id="cheerchat">
                    <path d="M0.106570696,22.4645318 C0.106570696,10.3361902 11.4192613,0.44652732 25.4146884,0.243905761 L25.8538605,0.24073559 L26.2779804,0.243718642 C40.1385656,0.438380221 51.3734984,10.1355285 51.596811,22.1012473 L51.5992473,22.5558781 L51.5967423,22.8314785 L51.5807345,23.3345166 L51.5807345,23.3345166 C51.0549355,35.0660926 39.9423839,44.4925055 26.2779804,44.6843937 L25.8519575,44.6873765 L25.2295904,44.6828592 C22.1147804,44.6268049 19.0293411,44.0692249 16.0915836,43.0323436 L15.5060363,42.8185832 L5.94036477,48.5362913 L5.79070641,48.6181002 C5.546881,48.7395402 5.28298603,48.8152804 5.01221373,48.8407189 L4.80805113,48.8502943 L4.63265483,48.8433647 C4.22447189,48.8110573 3.82613833,48.6659936 3.48645337,48.4126506 L3.34460711,48.2974588 L3.22206328,48.1811325 C2.63483077,47.5800919 2.43177151,46.6960635 2.69720663,45.8957462 L2.75656523,45.7369075 L6.39329023,37.0228501 L6.07599862,36.7017467 C2.42386717,32.9346154 0.344421691,28.2758653 0.12578019,23.3343215 C0.112993072,23.0453183 0.106570696,22.7553478 0.106570696,22.4645318 Z" id="路径" stroke="#FFFFFF" stroke-width="3.84"></path>
                    <g id="编组-9" transform="translate(14.513574, 15.224385)">
                        <path d="M0,13.2746104 C2.34736245,16.3244902 6.54727946,18.3564636 11.3378009,18.3564636 C16.0675028,18.3564636 20.2215016,16.3757577 22.5853037,13.390278" id="嘴" stroke="#FFFFFF" stroke-width="3.19488" stroke-linecap="round"></path>
                        <circle id="椭圆形" fill="#FFFFFF" cx="18.7642812" cy="2.65492207" r="2.65492207"></circle>
                        <circle id="椭圆形" fill="#FFFFFF" cx="3.5398961" cy="2.65492207" r="2.65492207"></circle>
                    </g>
                </g>
            </g>
        </g>
    </g>
</svg>