<?xml version="1.0" standalone="no"?><!DOCTYPE svg PUBLIC "-//W3C//DTD SVG 1.1//EN" "http://www.w3.org/Graphics/SVG/1.1/DTD/svg11.dtd"><svg t="1611461566352" class="icon" viewBox="0 0 1024 1024" version="1.1" xmlns="http://www.w3.org/2000/svg" p-id="1106" xmlns:xlink="http://www.w3.org/1999/xlink" width="200" height="200"><defs><style type="text/css">@font-face { font-weight: 400; font-style: normal; font-family: Circular-Loom; src: url("https://cdn.loom.com/assets/fonts/circular/CircularXXWeb-Book-cd7d2bcec649b1243839a15d5eb8f0a3.woff2") format("woff2"); }
@font-face { font-weight: 500; font-style: normal; font-family: Circular-Loom; src: url("https://cdn.loom.com/assets/fonts/circular/CircularXXWeb-Medium-d74eac43c78bd5852478998ce63dceb3.woff2") format("woff2"); }
@font-face { font-weight: 700; font-style: normal; font-family: Circular-Loom; src: url("https://cdn.loom.com/assets/fonts/circular/CircularXXWeb-Bold-83b8ceaf77f49c7cffa44107561909e4.woff2") format("woff2"); }
@font-face { font-weight: 900; font-style: normal; font-family: Circular-Loom; src: url("https://cdn.loom.com/assets/fonts/circular/CircularXXWeb-Black-bf067ecb8aa777ceb6df7d72226febca.woff2") format("woff2"); }
</style></defs><path d="M123.648 178.346667C361.642667-98.602667 802.986667-43.946667 967.936 279.68h-396.501333c-71.424 0-117.546667-1.621333-167.509334 24.661333-58.709333 30.933333-102.997333 88.234667-118.485333 155.52L123.648 178.389333z" fill="#EA4335" p-id="1107"></path><path d="M341.674667 512c0 93.866667 76.330667 170.24 170.154666 170.24 93.866667 0 170.154667-76.373333 170.154667-170.24s-76.330667-170.24-170.154667-170.24c-93.866667 0-170.154667 76.373333-170.154666 170.24z" fill="#4285F4" p-id="1108"></path><path d="M577.877333 734.848c-95.530667 28.373333-207.274667-3.114667-268.501333-108.8-46.762667-80.64-170.24-295.765333-226.346667-393.557333-196.565333 301.226667-27.136 711.808 329.685334 781.866666l165.12-279.509333z" fill="#34A853" p-id="1109"></path><path d="M669.866667 341.76a233.130667 233.130667 0 0 1 43.008 286.634667c-40.576 69.973333-170.154667 288.682667-232.96 394.581333 367.658667 22.656 635.733333-337.664 514.645333-681.258667H669.866667z" fill="#FBBC05" p-id="1110"></path></svg>