<?xml version="1.0" encoding="UTF-8"?>
<svg width="17px" height="11px" viewBox="0 0 17 11" version="1.1" xmlns="http://www.w3.org/2000/svg" xmlns:xlink="http://www.w3.org/1999/xlink">
    <!-- Generator: Sketch 63.1 (92452) - https://sketch.com -->
    <title>眼睛@1x</title>
    <desc>Created with Sketch.</desc>
    <g id="新版定稿（20202-8-22）" stroke="none" stroke-width="1" fill="none" fill-rule="evenodd">
        <g id="画板" transform="translate(-512.000000, -1221.000000)" fill="#666666" fill-rule="nonzero" stroke="#666666" stroke-width="0.2">
            <g id="眼睛" transform="translate(513.000000, 1222.000000)">
                <path d="M7.70625,0 C2.90625,0 0.00625,4.9 0.00625,4.9 C0.00625,4.9 3.35625,9.65 7.70625,9.65 C12.05625,9.65 15.40625,4.9 15.40625,4.9 C15.40625,4.9 12.50625,0 7.70625,0 Z M12.65625,6.7 C11.05625,8.05 9.35625,8.9 7.65625,8.9 C5.95625,8.9 4.25625,8.1 2.65625,6.7 C2.10625,6.2 1.55625,5.7 1.10625,5.15 C1.00625,5.05 0.95625,4.95 0.85625,4.85 C0.90625,4.75 1.00625,4.65 1.05625,4.55 C1.45625,4 1.95625,3.45 2.50625,2.95 C4.05625,1.55 5.75625,0.7 7.65625,0.7 C9.55625,0.7 11.25625,1.55 12.80625,2.95 C13.35625,3.45 13.80625,4 14.25625,4.55 C14.30625,4.65 14.40625,4.75 14.45625,4.85 C14.40625,4.95 14.30625,5.05 14.20625,5.15 C13.75625,5.65 13.25625,6.2 12.65625,6.7 Z M7.65625,1.9 C6.15625,1.9 5.00625,3.1 5.00625,4.55 C5.00625,6.05 6.20625,7.2 7.65625,7.2 C9.15625,7.2 10.30625,6 10.30625,4.55 C10.30625,3.1 9.10625,1.9 7.65625,1.9 Z M7.65625,6.5 C6.60625,6.5 5.75625,5.65 5.75625,4.6 C5.75625,3.55 6.60625,2.7 7.65625,2.7 C8.70625,2.7 9.55625,3.55 9.55625,4.6 C9.55625,5.6 8.70625,6.5 7.65625,6.5 Z" id="形状"></path>
            </g>
        </g>
    </g>
</svg>