<?xml version="1.0" encoding="UTF-8"?>
<svg width="25px" height="25px" viewBox="0 0 25 25" version="1.1" xmlns="http://www.w3.org/2000/svg" xmlns:xlink="http://www.w3.org/1999/xlink">
    <!-- Generator: Sketch 63.1 (92452) - https://sketch.com -->
    <title>克隆项目@1x</title>
    <desc>Created with Sketch.</desc>
    <g id="新版定稿（20202-8-22）" stroke="none" stroke-width="1" fill="none" fill-rule="evenodd">
        <g id="画板" transform="translate(-664.000000, -1188.000000)">
            <g id="克隆项目" transform="translate(664.000000, 1188.000000)">
                <circle id="椭圆形" fill="#D7E6FF" cx="12.5" cy="12.5" r="12.5"></circle>
                <path d="M16.4058057,8.65828571 L15.8480914,8.65828571 L15.8480914,8.17371429 C15.8480914,7.77575791 15.7753528,7.50452818 15.5380334,7.26542438 C15.3007139,7.02632058 14.9667025,6.90950018 14.6320914,6.94857142 L8.35845503,6.94857142 C7.49902645,6.94857142 7.13331217,7.25942858 7.13331217,8.17371429 L7.13331217,14.6285714 C7.13331217,15.7714286 7.1498325,16.2651429 8.15894857,16.2651429 L8.87322998,16.2651429 L8.87322998,16.8228571 L7.80074074,16.8228571 C7.46767057,16.8207059 7.1498325,16.683037 6.92042581,16.4415563 C6.69101913,16.2000756 6.56981989,15.8755999 6.58474074,15.5428571 L6.58474074,7.616 C6.58971868,6.94649452 7.13123526,6.40497794 7.80074074,6.4 L15.1440914,6.4 C15.8171647,6.4 16.3642114,6.94294551 16.3692343,7.616 L16.4058057,8.65828571 Z" id="路径" stroke="#7396D4" stroke-width="0.2" fill="#7396D4" fill-rule="nonzero"></path>
                <path d="M17.1098057,9.31445459 L11.4946576,9.31445459 C11.046899,9.31445459 10.6176117,9.49294279 10.3018578,9.81041275 C9.98610384,10.1278827 9.8099384,10.5581312 9.81237186,11.0058832 L9.81237186,17.5085714 C9.80993839,17.9563234 9.98610384,18.3865719 10.3018577,18.7040418 C10.6176117,19.0215118 11.046899,19.2 11.4946576,19.2 L17.1098057,19.2 C17.5584005,19.2 17.9886219,19.0217964 18.3058263,18.704592 C18.6230307,18.3873877 18.8012343,17.9571662 18.8012343,17.5085714 L18.8012343,11.0058832 C18.8012343,10.071733 18.0439559,9.31445459 17.1098057,9.31445459 Z" id="形状" fill="#7396D4" fill-rule="nonzero"></path>
            </g>
        </g>
    </g>
</svg>