<?xml version="1.0" encoding="UTF-8"?>
<svg width="1050px" height="404px" viewBox="0 0 1050 404" version="1.1" xmlns="http://www.w3.org/2000/svg" xmlns:xlink="http://www.w3.org/1999/xlink">
    <!-- Generator: Sketch 59 (86127) - https://sketch.com -->
    <title>编组 3</title>
    <desc>Created with Sketch.</desc>
    <g id="页面5" stroke="none" stroke-width="1" fill="none" fill-rule="evenodd">
        <g id="登录备份" transform="translate(-356.000000, -309.000000)">
            <g id="编组-3" transform="translate(356.000000, 309.000000)">
                <g id="编组-6" transform="translate(0.000000, 251.000000)">
                    <path d="M222.185786,87.5354201 C211.15045,99.9104201 186.800627,90.4632924 186.800627,90.4632924 L154.182252,90.0514946 C137.019708,103.342771 99.0585771,95.4343563 91.6486831,90.6096861 C71.0939128,103.185846 16.1080471,98.4348988 5.40133332,84.7971222 C-0.0792320556,83.5533031 -1.39371969,75.8228776 1.47907183,70.5990478 C3.57801176,66.7864946 7.91370081,64.3125478 14.4755383,66.6706435 C17.6027467,34.9801116 47.305927,50.2092605 47.305927,50.2092605 C47.305927,50.2092605 43.0974464,7.61924989 83.2847255,0.698728615 C123.472005,-6.22073947 135.790026,40.5314839 135.790026,40.5314839 C135.790026,40.5314839 150.228188,27.2075584 165.747623,36.1818031 C181.267058,45.1539414 178.341263,61.3214839 178.341263,61.3214839 C178.341263,61.3214839 196.192853,47.3666967 213.758224,55.6963882 C231.312994,64.016601 232.553277,73.4858456 232.553277,73.4858456 C232.553277,73.4858456 262.542676,67.1140371 269.931369,73.9597818 C278.687552,70.2936222 292.585079,73.1698882 297.387199,77.2341541 C298.585079,78.245218 299.221121,79.3300052 299.072711,80.4042605 C298.320061,85.796601 248.634549,91.9261754 222.185786,87.5354201 Z" id="Fill-1" fill="#F6F6F6"></path>
                    <path d="M299.072711,79.5861584 C298.320061,84.9388857 248.634549,91.0234311 222.185786,86.6649311 C211.15045,98.949022 186.800627,89.5712948 186.800627,89.5712948 L154.182252,89.162522 C137.019708,102.356158 99.0585771,94.5058402 91.6486831,89.7166129 C71.0939128,102.200386 16.1080471,97.4843402 5.40133332,83.9467493 C-0.0792320556,82.7120675 -1.39371969,75.0384311 1.47907183,69.8529766 C9.39779975,78.237522 21.8536301,82.4088857 33.281192,80.0984311 C36.8006266,79.3885675 40.3094605,78.1131129 43.8818987,78.4988857 C50.486139,79.2202493 56.3695312,85.5034311 62.7405559,83.6320675 C59.3271284,78.1235675 61.4260683,70.4081129 66.4084005,66.2147948 C71.3907326,62.0329766 78.4932061,60.999022 84.9490365,62.0967493 C91.3942662,63.1934311 97.3306619,66.1844766 103.055044,69.3302493 C101.65575,62.4312948 106.182252,54.9657039 112.871298,52.5099311 C119.560344,50.0635675 127.648683,52.5611584 132.090379,58.0717493 C136.532075,63.5802493 137.263524,71.6093402 134.305927,78.0179766 C140.719355,70.1770675 155.019708,70.9308402 160.553277,79.3979766 C166.691086,75.6552493 175.373065,76.6484311 180.482605,81.6666129 C192.281192,76.9620675 205.934902,76.972522 217.733489,81.6885675 C217.489673,79.847522 219.55681,78.3849311 221.433135,78.3849311 C223.320061,78.3849311 225.047976,79.3362948 226.786492,80.0566129 C231.217588,81.8861584 236.125715,82.2416129 240.927835,82.4088857 C255.620415,82.9420675 270.376598,82.0116129 284.878365,79.6499311 C289.023241,78.9808402 293.401333,77.9970675 297.387199,76.4393402 C298.585079,77.4429766 299.221121,78.5197948 299.072711,79.5861584" id="Fill-3" fill="#ECECEC"></path>
                </g>
                <g id="编组-6备份" transform="translate(864.000000, 0.000000)">
                    <path d="M138.172486,54.5283582 C131.309851,62.2371055 116.167228,56.352215 116.167228,56.352215 L95.8825738,56.0956942 C85.2095626,64.3752168 61.6023648,59.4488352 56.9943136,56.4434079 C44.2117511,64.2774633 10.0172425,61.3179604 3.35897118,52.8225929 C-0.0492726843,52.0477818 -0.866723823,47.2322749 0.919802456,43.9781995 C2.22508734,41.6032492 4.92135763,40.0621559 9.00202097,41.5310823 C10.9467636,21.7901285 29.4185224,31.2768082 29.4185224,31.2768082 C29.4185224,31.2768082 26.8013603,4.74625228 51.7929511,0.435258369 C76.784542,-3.87507948 84.4448502,25.2482398 84.4448502,25.2482398 C84.4448502,25.2482398 93.4236281,16.9483792 103.074825,22.5386971 C112.726023,28.1277029 110.906535,38.1989352 110.906535,38.1989352 C110.906535,38.1989352 122.008049,29.5060925 132.931569,34.6948995 C143.848497,39.877802 144.619802,45.7764698 144.619802,45.7764698 C144.619802,45.7764698 163.269554,41.807285 167.86442,46.0716984 C173.3097,43.787941 181.952268,45.5796507 184.938601,48.1114002 C185.683537,48.7412212 186.079078,49.4169667 185.986785,50.0861516 C185.518728,53.4451972 154.620394,57.2634874 138.172486,54.5283582 Z" id="Fill-1" fill="#F6F6F6"></path>
                    <path d="M185.986785,49.2756645 C185.518728,52.5763822 154.620394,56.3283699 138.172486,53.6407347 C131.309851,61.2156239 116.167228,55.4329213 116.167228,55.4329213 L95.8825738,55.1808547 C85.2095626,63.316608 61.6023648,58.4757703 56.9943136,55.5225306 C44.2117511,63.220552 10.0172425,60.3124392 3.35897118,51.964589 C-0.0492726843,51.2032321 -0.866723823,46.4713439 0.919802456,43.2737736 C5.84428633,48.4440384 13.5902951,51.0162774 20.6968461,49.5915535 C22.8855056,49.1538216 25.0675728,48.3673225 27.289194,48.6052063 C31.3962268,49.0500295 35.0549798,52.9245048 39.0169809,51.7705429 C36.8942449,48.3737692 38.1995298,43.6160942 41.2979333,41.0303171 C44.3963368,38.4516314 48.8132099,37.8140514 52.8279497,38.4909564 C56.8360973,39.1672167 60.5278121,41.0116216 64.0876799,42.9514379 C63.21749,38.6972513 66.0324226,34.0936527 70.1921941,32.5793195 C74.3519656,31.0707884 79.381927,32.6109084 82.1441208,36.0089714 C84.9063146,39.4057451 85.3611866,44.3568216 83.5219215,48.3086574 C87.510292,43.4736218 96.4033693,43.9384299 99.8445749,49.1596237 C103.661544,46.8517 109.060677,47.4641379 112.238189,50.5585607 C119.575472,47.6575393 128.066416,47.663986 135.403699,50.5720988 C135.252075,49.4368324 136.537583,48.5349371 137.704429,48.5349371 C138.877867,48.5349371 139.952419,49.1215881 141.033565,49.5657667 C143.789166,50.6939417 146.841423,50.9131299 149.827757,51.0162774 C158.964751,51.3450598 168.141299,50.7713022 177.159631,49.3149895 C179.737239,48.9023998 182.459879,48.295764 184.938601,47.3352036 C185.683537,47.9540881 186.079078,48.6180997 185.986785,49.2756645" id="Fill-3" fill="#ECECEC"></path>
                </g>
                <g id="编组-6备份-2" transform="translate(734.000000, 353.500000)">
                    <path d="M112.915149,45.1953756 C107.306975,51.5140209 94.9323586,46.6903402 94.9323586,46.6903402 L78.3556517,46.4800772 C69.633621,53.2665711 50.3417175,49.2285535 46.5759982,46.7650884 C36.1300331,53.1864453 8.18613369,50.7606233 2.74496569,43.7972073 C-0.0402658495,43.1621162 -0.708290436,39.2149795 0.751666523,36.5477045 C1.81835094,34.601024 4.02175462,33.3378327 7.35649025,34.5418707 C8.94574229,18.3607611 24.040943,26.136728 24.040943,26.136728 C24.040943,26.136728 21.9021869,4.39037072 42.3254224,0.856769155 C62.748658,-2.67629466 69.0086948,21.1952785 69.0086948,21.1952785 C69.0086948,21.1952785 76.3461907,14.3921141 84.2331906,18.9743419 C92.1201906,23.5554942 90.6332971,31.8106026 90.6332971,31.8106026 C90.6332971,31.8106026 99.705502,24.6853217 108.63225,28.9384422 C117.553611,33.1867229 118.183924,38.0216966 118.183924,38.0216966 C118.183924,38.0216966 133.424582,34.7682664 137.179526,38.2636872 C141.629432,36.3917549 148.692176,37.8603694 151.132621,39.9355739 C151.741385,40.4518207 152.064623,41.0057104 151.9892,41.5542226 C151.606703,44.3075387 126.356451,47.4372847 112.915149,45.1953756 Z" id="Fill-1" fill="#F6F6F6"></path>
                    <path d="M151.9892,41.6907244 C151.606703,44.4020282 126.356451,47.4840181 112.915149,45.2763178 C107.306975,51.4985482 94.9323586,46.748471 94.9323586,46.748471 L78.3556517,46.5414164 C69.633621,53.2243566 50.3417175,49.2479542 46.5759982,46.8220787 C36.1300331,53.1454534 8.18613369,50.7566465 2.74496569,43.8994838 C-0.0402658495,43.2740835 -0.708290436,39.3871753 0.751666523,36.7605998 C4.77597593,41.007603 11.1060476,43.1205136 16.9135517,41.9502047 C18.7021336,41.5906392 20.4853283,40.9445864 22.3008467,41.1399909 C25.6571315,41.5053814 28.6470803,44.6879861 31.8848446,43.7400888 C30.1501356,40.9498819 31.21682,37.0417916 33.7488487,34.9177605 C36.2808774,32.7995544 39.8903651,32.2758279 43.1712277,32.831857 C46.4467031,33.3873566 49.4635884,34.9024035 52.3727277,36.495824 C51.6616047,33.0013135 53.9619797,29.2197861 57.3613629,27.9758696 C60.7607461,26.736719 64.8712522,28.0018176 67.1285288,30.7930837 C69.3858055,33.5832907 69.7575288,37.6502463 68.2544735,40.8963972 C71.513787,36.9247608 78.781248,37.3065674 81.593416,41.5954052 C84.7126599,39.6996107 89.1248545,40.2026847 91.7215307,42.744532 C97.7175901,40.3615501 104.656426,40.3668456 110.652486,42.7556526 C110.528578,41.8231123 111.5791,41.0822698 112.532652,41.0822698 C113.49159,41.0822698 114.369719,41.5641616 115.253236,41.9290226 C117.505125,42.8557378 119.999442,43.0357853 122.439887,43.1205136 C129.906678,43.3905848 137.405793,42.919284 144.775612,41.7230271 C146.882045,41.3841141 149.106998,40.8858061 151.132621,40.0967744 C151.741385,40.6051438 152.064623,41.1505819 151.9892,41.6907244" id="Fill-3" fill="#ECECEC"></path>
                </g>
            </g>
        </g>
    </g>
</svg>