<?xml version="1.0" encoding="UTF-8"?>
<svg width="30px" height="27px" viewBox="0 0 30 27" version="1.1" xmlns="http://www.w3.org/2000/svg" xmlns:xlink="http://www.w3.org/1999/xlink">
    <!-- Generator: Sketch 63.1 (92452) - https://sketch.com -->
    <title>企业@1x</title>
    <desc>Created with Sketch.</desc>
    <g id="新版定稿（20202-8-22）" stroke="none" stroke-width="1" fill="none" fill-rule="evenodd">
        <g id="切图" transform="translate(-25.000000, -298.000000)" fill="#FFFFFF">
            <g id="企业" transform="translate(25.000000, 298.000000)">
                <polygon id="路径" points="29.0293632 5.7106944 29.0293632 7.11802236 0.4758912 7.11802236 0.4758912 5.7106944 14.7525159 3.20171994e-05"></polygon>
                <path d="M2.379456,6.6624768 L27.1257984,6.6624768 L27.1257984,8.0901504 C27.1257984,8.35297785 26.9127347,8.5660416 26.6499072,8.5660416 L2.8553472,8.5660416 C2.59251975,8.5660416 2.379456,8.35297785 2.379456,8.0901504 L2.379456,6.6624768 L2.379456,6.6624768 Z" id="矩形"></path>
                <rect id="矩形" x="5.2348032" y="9.517824" width="3.8071296" height="11.89728"></rect>
                <path d="M2.76959346,20.9392128 L26.7356609,20.9392128 C26.9625092,20.9392128 27.157822,21.099331 27.2023107,21.3217741 L27.4878454,22.7494477 C27.5393901,23.0071712 27.3722491,23.2578826 27.1145256,23.3094273 C27.0837958,23.3155733 27.052534,23.3186688 27.0211957,23.3186688 L2.48405874,23.3186688 C2.22123129,23.3186688 2.00816754,23.1056051 2.00816754,22.8427776 C2.00816754,22.8114392 2.01126307,22.7801775 2.01740903,22.7494477 L2.30294375,21.3217741 C2.34743236,21.099331 2.54274516,20.9392128 2.76959346,20.9392128 Z" id="矩形"></path>
                <path d="M0.879031527,23.79456 L28.6262229,23.79456 C28.8588571,23.79456 29.0573942,23.9627462 29.0956391,24.1922152 L29.4128999,26.09578 C29.4561084,26.3550314 29.2809711,26.6002236 29.0217197,26.6434322 C28.9958639,26.6477415 28.9696962,26.6499072 28.9434837,26.6499072 L0.561770727,26.6499072 C0.298943274,26.6499072 0.0858795266,26.4368435 0.0858795266,26.174016 C0.0858795266,26.1478035 0.0880452307,26.1216358 0.0923545386,26.09578 L0.409615339,24.1922152 C0.447860174,23.9627462 0.646397276,23.79456 0.879031527,23.79456 Z" id="矩形备份-3"></path>
                <rect id="矩形备份" x="12.8490624" y="9.517824" width="3.8071296" height="11.89728"></rect>
                <rect id="矩形备份-2" x="20.4633216" y="9.517824" width="3.8071296" height="11.89728"></rect>
            </g>
        </g>
    </g>
</svg>