<?xml version="1.0" encoding="UTF-8"?>
<svg width="58px" height="76px" viewBox="0 0 58 76" version="1.1" xmlns="http://www.w3.org/2000/svg" xmlns:xlink="http://www.w3.org/1999/xlink">
    <!-- Generator: Sketch 63.1 (92452) - https://sketch.com -->
    <title>昨日人均活力@1x</title>
    <desc>Created with Sketch.</desc>
    <g id="2021.3.8-企业中台" stroke="none" stroke-width="1" fill="none" fill-rule="evenodd">
        <g id="4.13企业首页中台" transform="translate(-817.000000, -133.000000)" fill-rule="nonzero">
            <g id="编组-4" transform="translate(436.000000, 121.000000)">
                <g id="1-copy-4" transform="translate(362.000000, 0.000000)">
                    <g id="昨日人均活力" transform="translate(19.000000, 12.000000)">
                        <g id="活力值" fill="#FF5050">
                            <path d="M20.9889632,73.2107194 C20.9889632,73.2107194 -10.4289808,66.0974788 3.61296625,30.7917148 C3.61296625,30.7917148 6.8009993,34.7145775 6.36294895,36.6027604 C6.36294895,36.6027604 8.86145831,27.6908628 14.2559672,22.3681405 C18.8879439,17.7941803 23.5929291,4.9350039 19.2529859,0.28779523 C19.2529859,0.28779523 40.7499008,4.9350039 43.1429536,28.179186 C43.1429536,28.179186 45.8929363,20.7729515 51.5389185,20.0404668 C51.5389185,20.0404668 49.8029412,24.1098264 51.5389185,30.2138658 C51.5389185,30.2138658 69.9600202,60.982422 39.1372266,72.3522327 C39.1372266,72.3522327 29.1982919,75.382815 20.9889632,73.2107194 Z" id="路径"></path>
                        </g>
                        <g id="群众" transform="translate(34.000000, 52.000000)">
                            <circle id="椭圆形" fill="#FFFFFF" opacity="0.8" cx="12" cy="12" r="12"></circle>
                            <path d="M17.6517333,16.2105778 C17.7638275,16.0196945 17.8227005,15.8022513 17.8222222,15.5808889 L17.8222222,14.6444445 C17.8222222,13.2755556 16.5790222,12.0933333 14.7832889,11.5464 C15.5019555,10.8619556 15.9555555,9.85582223 15.9555555,8.73333333 C15.9555555,8.05573333 15.7900444,7.42044444 15.5013333,6.87288889 C16.7974222,6.96995556 17.8222222,8.18391112 17.8222222,9.66666667 C17.8222222,10.6342222 17.3866667,11.4872889 16.7227555,11.9900445 C18.4469333,12.3633778 19.6888889,13.4105778 19.6888889,14.6444445 L19.6888889,15.5883556 C19.6888889,15.9319994 19.4103105,16.2105778 19.0666667,16.2105778 L17.6517333,16.2105778 L17.6517333,16.2105778 Z M10.9777778,11.8444445 C9.25982221,11.8444445 7.86666667,10.3125333 7.86666667,8.42222223 C7.86666667,6.53191111 9.25982221,5 10.9777778,5 C12.6957333,5 14.0888889,6.53191111 14.0888889,8.42222223 C14.0888889,10.3125333 12.6957333,11.8444445 10.9777778,11.8444445 Z M15.9555555,16.2031111 C15.9555555,16.8903988 15.3983988,17.4475556 14.7111111,17.4475556 L7.24444444,17.4475556 C6.55715675,17.4475556 6,16.8903988 6,16.2031111 L6,15.2666667 C6,13.3763556 8.2288,11.8444445 10.9777778,11.8444445 C13.7267555,11.8444445 15.9555555,13.3763556 15.9555555,15.2666667 L15.9555555,16.2031111 L15.9555555,16.2031111 Z" id="形状" fill="#FF5050"></path>
                        </g>
                    </g>
                </g>
            </g>
        </g>
    </g>
</svg>