<?xml version="1.0" encoding="UTF-8"?>
<svg width="29px" height="23px" viewBox="0 0 29 23" version="1.1" xmlns="http://www.w3.org/2000/svg" xmlns:xlink="http://www.w3.org/1999/xlink">
    <!-- Generator: Sketch 63.1 (92452) - https://sketch.com -->
    <title>企业 (1)@1x</title>
    <desc>Created with Sketch.</desc>
    <g id="新版定稿（20202-8-22）" stroke="none" stroke-width="1" fill="none" fill-rule="evenodd">
        <g id="首页-默认状态" transform="translate(-58.000000, -304.000000)" fill="#FFFFFF" fill-rule="nonzero">
            <g id="企业-(1)" transform="translate(58.000000, 304.000000)">
                <path d="M15.9085714,21.2114286 L15.9085714,1.76761905 L3.5352381,1.76761905 L3.5352381,21.2114286 L15.9085714,21.2114286 Z M1.76761905,21.2114286 L1.76761905,1.76761905 C1.76761905,0.791390004 2.55900905,0 3.5352381,0 L15.9085714,0 C16.8848005,0 17.6761905,0.791390004 17.6761905,1.76761905 L17.6761905,5.30285714 L24.7466667,5.30285714 C25.7228957,5.30285714 26.5142857,6.09424715 26.5142857,7.07047619 L26.5142857,21.2114286 L28.2819048,21.2114286 L28.2819048,22.9790476 L0,22.9790476 L0,21.2114286 L1.76761905,21.2114286 Z M17.6761905,21.2114286 L24.7466667,21.2114286 L24.7466667,7.07047619 L17.6761905,7.07047619 L17.6761905,21.2114286 Z M19.4438095,10.6057143 L22.9790476,10.6057143 L22.9790476,12.3733333 L19.4438095,12.3733333 L19.4438095,10.6057143 Z M19.4438095,15.9085714 L22.9790476,15.9085714 L22.9790476,17.6761905 L19.4438095,17.6761905 L19.4438095,15.9085714 Z M5.30285714,5.30285714 L14.1409524,5.30285714 L14.1409524,7.07047619 L5.30285714,7.07047619 L5.30285714,5.30285714 Z M5.30285714,10.6057143 L14.1409524,10.6057143 L14.1409524,12.3733333 L5.30285714,12.3733333 L5.30285714,10.6057143 Z M5.30285714,15.9085714 L14.1409524,15.9085714 L14.1409524,17.6761905 L5.30285714,17.6761905 L5.30285714,15.9085714 Z" id="形状"></path>
            </g>
        </g>
    </g>
</svg>