<?xml version="1.0" encoding="UTF-8"?>
<svg width="16px" height="16px" viewBox="0 0 16 16" version="1.1" xmlns="http://www.w3.org/2000/svg" xmlns:xlink="http://www.w3.org/1999/xlink">
    <!-- Generator: Sketch 63.1 (92452) - https://sketch.com -->
    <title>项目@1x</title>
    <desc>Created with Sketch.</desc>
    <g id="企业端" stroke="none" stroke-width="1" fill="none" fill-rule="evenodd">
        <g id="项目群统一管理" transform="translate(-26.000000, -152.000000)" fill="#FFFFFF" fill-rule="nonzero">
            <g id="菜单">
                <g id="企业账户中心" transform="translate(0.000000, 102.000000)">
                    <g id="项目" transform="translate(26.000000, 50.000000)">
                        <path d="M6.881167,8.06980511 L0.779676595,5.16804798 C0.354669467,5.00344887 0.074536537,4.59454965 0.074536537,4.13878224 C0.074536537,3.68301484 0.354669467,3.27411561 0.779676595,3.10951651 L6.881167,0.207759375 C7.47079955,-0.0660698048 8.15115514,-0.0660698048 8.7407877,0.207759375 L14.8438382,3.10951651 C15.2688453,3.27411561 15.5489782,3.68301484 15.5489782,4.13878224 C15.5489782,4.59454965 15.2688453,5.00344887 14.8438382,5.16804798 L8.7407877,8.06980511 C8.15115514,8.34363429 7.47079955,8.34363429 6.881167,8.06980511" id="路径"></path>
                        <path d="M7.81097735,15.4505655 C7.36731979,15.4508837 6.92956097,15.348918 6.53170807,15.1525887 L0.543323796,12.1782876 C0.249992153,12.0654699 0.0458702012,11.7962443 0.0164325613,11.483347 C-0.0130050786,11.1704497 0.137321624,10.8678772 0.404464429,10.7023297 C0.671607234,10.5367821 1.00946551,10.5368278 1.2765635,10.7024477 L7.25870744,13.6759687 C7.60660628,13.847578 8.01456837,13.847578 8.36246721,13.6759687 L14.3492914,10.7024477 C14.6163894,10.5368278 14.9542477,10.5367821 15.2213905,10.7023297 C15.4885333,10.8678772 15.63886,11.1704497 15.6094223,11.483347 C15.5799847,11.7962443 15.3758628,12.0654699 15.0825311,12.1782876 L9.09024662,15.1525887 C8.69239372,15.348918 8.2546349,15.4508837 7.81097735,15.4505655 L7.81097735,15.4505655 Z M7.81097735,11.9520762 C7.36713331,11.9520762 6.92952962,11.8506698 6.53170807,11.6540992 L0.543323796,8.67979814 C0.249992153,8.56698047 0.0458702012,8.29775483 0.0164325613,7.98485755 C-0.0130050786,7.67196027 0.137321624,7.3693878 0.404464429,7.20384021 C0.671607234,7.03829263 1.00946551,7.03833835 1.2765635,7.20395823 L7.25870744,10.1782593 C7.60718026,10.3474335 8.01399439,10.3474335 8.36246721,10.1782593 L14.3492914,7.20395823 C14.6163894,7.03833835 14.9542477,7.03829263 15.2213905,7.20384021 C15.4885333,7.3693878 15.63886,7.67196027 15.6094223,7.98485755 C15.5799847,8.29775483 15.3758628,8.56698047 15.0825311,8.67979814 L9.09024662,11.6540992 C8.69240323,11.8504551 8.25463811,11.9524223 7.81097735,11.9520762 L7.81097735,11.9520762 Z" id="形状"></path>
                    </g>
                </g>
            </g>
        </g>
    </g>
</svg>