<?xml version="1.0" encoding="UTF-8"?>
<svg width="15px" height="17px" viewBox="0 0 15 17" version="1.1" xmlns="http://www.w3.org/2000/svg" xmlns:xlink="http://www.w3.org/1999/xlink">
    <!-- Generator: Sketch 63.1 (92452) - https://sketch.com -->
    <title>企业账户@1x</title>
    <desc>Created with Sketch.</desc>
    <g id="企业端" stroke="none" stroke-width="1" fill="none" fill-rule="evenodd">
        <g id="项目群统一管理" transform="translate(-27.000000, -269.000000)" fill="#FFFFFF" fill-rule="nonzero">
            <g id="菜单">
                <g id="企业账户中心" transform="translate(0.000000, 102.000000)">
                    <g id="企业账户" transform="translate(27.000000, 167.000000)">
                        <path d="M12.5835825,5.61597754 C12.1918754,5.2050148 11.7683057,4.82564808 11.3168286,4.48141974 C11.2521322,4.43203488 11.2025317,4.39753018 11.1451677,4.35547757 C11.9468629,4.0800869 12.50778,3.4208314 12.50778,2.64048595 C12.50778,1.58960206 11.5101627,0.78553463 10.3255731,0.78553463 C10.0696879,0.784990584 9.8158715,0.831368271 9.5767132,0.922367347 C9.49097426,0.954709238 9.40805959,0.994092806 9.32881847,1.04011465 C9.28741283,1.05758266 9.19910235,1.03806593 9.17484123,1.00787432 L9.17376296,1.00862911 C9.08340376,0.873198144 8.94711018,0.705311194 8.74903162,0.53332681 C8.37206772,0.205747776 7.92577094,0.0036796032 7.41607177,0.0036796032 C6.9063726,0.0036796032 6.46029147,0.205747776 6.08321975,0.53332681 C5.88966993,0.701321587 5.75682682,0.864248486 5.66614414,0.998277696 L5.665605,0.997846387 C5.63131596,1.03828159 5.54235852,1.05952355 5.51141211,1.04464339 C5.42982182,0.996593913 5.34425132,0.955648501 5.25564599,0.92225952 C5.01644234,0.831276605 4.76260026,0.784864361 4.50667826,0.785318976 C3.32208864,0.785318976 2.32457921,1.58949423 2.32457921,2.6402703 C2.32457921,3.30750501 2.73615564,3.88502749 3.3556229,4.21185174 C3.28898569,4.25908005 3.22299544,4.30717098 3.15754433,4.35590888 C2.70453305,4.69322781 2.28136966,5.06888001 1.89273128,5.47871351 C0.721620058,6.71721673 0.0104996736,8.13363483 0.0104996736,9.70597106 C0.0104996736,14.0658561 3.25965669,16.1393731 7.17367622,16.1393731 C8.81405142,16.1393731 10.4175497,15.8121176 11.7150344,15.0396435 C13.4756369,13.991024 14.477136,12.2296667 14.477136,9.70597106 C14.4768125,8.22830711 13.7611634,6.85555903 12.5835825,5.61597754 L12.5835825,5.61597754 Z M9.44532972,10.073141 C9.69349221,10.073141 9.89453979,10.2724345 9.89453979,10.5178081 C9.89453979,10.7632978 9.69337232,10.9627074 9.44532972,10.9627074 L7.6481298,10.9627074 L7.6481298,12.2433162 C7.6481298,12.4312348 7.44696233,12.5835196 7.19891973,12.5835196 C6.95075724,12.5835196 6.74970966,12.4312348 6.74970966,12.2433162 L6.74970966,10.9627074 L4.95250974,10.9627074 C4.70434725,10.9627074 4.50329967,10.7634138 4.50329967,10.5179242 C4.50329967,10.2724345 4.70446714,10.073257 4.95250974,10.073257 L6.74970966,10.073257 L6.74970966,9.62858991 L4.95250974,9.62858991 C4.70434725,9.62858991 4.50329967,9.42941246 4.50329967,9.18392278 C4.50329967,8.9384331 4.70446714,8.73925566 4.95250974,8.73925566 L6.78819283,8.73925566 L5.08402387,7.05263128 C4.90853658,6.87747997 4.90853658,6.59902722 5.08402387,6.42387591 C5.16735019,6.34061832 5.2819776,6.2935996 5.40171981,6.2935996 C5.52146201,6.2935996 5.63608943,6.34061832 5.71941574,6.42387591 L7.19891973,7.88799262 L8.67842372,6.42387591 C8.84848558,6.25400864 9.12854994,6.24969637 9.30410489,6.41424204 L9.31393548,6.42387591 C9.48929718,6.59907649 9.48929718,6.8774307 9.31393548,7.05263128 L7.60976651,8.73925566 L9.44556949,8.73925566 C9.69373198,8.73925566 9.89465967,8.93831703 9.89465967,9.18392278 C9.89465967,9.42952853 9.69361209,9.62858991 9.44556949,9.62858991 L7.64824968,9.62858991 L7.64824968,10.073141 L9.44532972,10.073141 L9.44532972,10.073141 Z" id="形状"></path>
                    </g>
                </g>
            </g>
        </g>
    </g>
</svg>