<?xml version="1.0" encoding="UTF-8"?>
<svg width="20px" height="17px" viewBox="0 0 20 17" version="1.1" xmlns="http://www.w3.org/2000/svg" xmlns:xlink="http://www.w3.org/1999/xlink">
    <!-- Generator: Sketch 63.1 (92452) - https://sketch.com -->
    <title>电脑@1x</title>
    <desc>Created with Sketch.</desc>
    <g id="新版定稿（20202-8-22）" stroke="none" stroke-width="1" fill="none" fill-rule="evenodd">
        <g id="画板" transform="translate(-482.000000, -1977.000000)" fill="#FFFFFF" fill-rule="nonzero">
            <g id="电脑" transform="translate(482.000000, 1977.000000)">
                <path d="M18.9419841,0.0152592344 L0.665738631,0.0152592344 C0.307223306,0.0152592344 0.0165787562,0.305903784 0.0165787562,0.664419109 L0.0165787562,12.1919538 C0.0165787562,12.5504692 0.307223306,12.8411137 0.665738631,12.8411137 L18.9419617,12.8411137 C19.3004771,12.8411137 19.5911216,12.5504692 19.5911216,12.1919538 L19.5911216,0.664419109 C19.5911216,0.305903784 19.3004995,0.0152592344 18.9419841,0.0152592344 Z M18.4599494,11.2246161 C18.4599494,11.5240131 18.2027925,11.7667093 17.8855548,11.7667093 L1.71444521,11.7667093 C1.39722988,11.7667093 1.14005065,11.5240131 1.14005065,11.2246161 L1.14005065,1.598202 C1.14005065,1.298805 1.3972075,1.05610875 1.71444521,1.05610875 L17.8855548,1.05610875 C18.2027701,1.05610875 18.4599494,1.298805 18.4599494,1.598202 L18.4599494,11.2246161 Z" id="形状"></path>
                <path d="M11.7008968,15.0794617 C11.7008968,15.437977 11.4102299,15.7286216 11.0517145,15.7286216 L8.55600823,15.7286216 C8.19749291,15.7286216 7.90684836,15.437977 7.90684836,15.0794617 L7.90684836,13.0202371 C7.90684836,12.6617217 8.19749291,12.3710772 8.55600823,12.3710772 L11.0517369,12.3710772 C11.4102522,12.3710772 11.7008968,12.6617217 11.7008968,13.0202371 L11.7008968,15.0794617 L11.7008968,15.0794617 Z" id="路径"></path>
                <path d="M14.8345929,15.7845389 C14.8345929,16.1430542 14.5439484,16.4336987 14.1854331,16.4336987 L5.3439428,16.4336987 C4.98542747,16.4336987 4.69478295,16.1430542 4.69478295,15.7845389 L4.69478295,15.5719502 C4.69478295,15.2134349 4.9854275,14.9227903 5.3439428,14.9227903 L14.1854331,14.9227903 C14.5439484,14.9227903 14.8345929,15.2134349 14.8345929,15.5719502 L14.8345929,15.7845389 Z" id="路径"></path>
            </g>
        </g>
    </g>
</svg>