<?xml version="1.0" encoding="UTF-8"?>
<svg width="65px" height="77px" viewBox="0 0 65 77" version="1.1" xmlns="http://www.w3.org/2000/svg" xmlns:xlink="http://www.w3.org/1999/xlink">
    <!-- Generator: Sketch 63.1 (92452) - https://sketch.com -->
    <title>今日打卡人数@1x</title>
    <desc>Created with Sketch.</desc>
    <g id="2021.3.8-企业中台" stroke="none" stroke-width="1" fill="none" fill-rule="evenodd">
        <g id="4.13企业首页中台" transform="translate(-1178.000000, -137.000000)" fill="#FFC246" fill-rule="nonzero">
            <g id="编组-4" transform="translate(436.000000, 121.000000)">
                <g id="1" transform="translate(724.000000, 0.000000)">
                    <g id="今日打卡人数" transform="translate(18.000000, 16.000000)">
                        <path d="M32.3623691,0.0749315663 C14.7887659,0.00408441132 0.481441442,14.4776455 0.393756073,32.4129509 C0.393756073,41.2070596 3.91943742,49.617545 10.1578839,55.6861011 L28.5517105,73.8132182 C30.882679,77.2219857 34.4722976,78.0878785 36.4890604,74.4251888 L56.6146723,53.466566 C58.1403706,51.669266 59.4607741,49.7073487 60.5513787,47.6172233 C63.0358096,42.9115504 64.3332747,37.6702681 64.3309852,32.3490136 C64.2268558,14.4301494 49.9177046,-0.012356633 32.3623691,0.0749315663 Z M32.3623691,55.5564 C19.6991448,55.4321791 9.52399198,44.8660958 9.62263802,31.943469 C9.72128406,19.0190154 20.0535398,8.61551534 32.7185908,8.69181837 C45.3836419,8.76896473 55.5953303,19.2948589 55.5443718,32.2211392 C55.5371295,38.4325758 53.0961971,44.3939073 48.7449132,48.8265502 C44.4459903,53.2069509 38.5619403,55.6681883 32.4244796,55.6532871 L32.3623691,55.5564 L32.3623691,55.5564 Z" id="形状"></path>
                        <path d="M41.2752185,30.7030868 L34.5654633,30.7030868 C34.1693224,30.7356728 33.7809236,30.5800426 33.5168927,30.2829279 C33.2454785,29.9773308 33.1225117,29.5676644 33.1807657,29.163113 L33.1807657,17.6050893 C33.2093545,16.7805733 32.8835209,15.9832786 32.2856444,15.4147827 C31.7025943,14.8612324 30.8986741,14.604247 30.1026449,14.7169535 C28.7654434,15.0768287 27.8191725,16.3245181 27.7954244,17.7676726 L27.7954244,33.5930494 C27.8776294,35.1640784 29.0376334,36.4409962 30.5355912,36.6108865 L41.459723,36.6108865 C42.2817731,36.5944455 43.0563269,36.2053418 43.5824389,35.5458749 C44.1067242,34.8882349 44.3314178,34.0223422 44.1980631,33.1765441 C43.8765502,31.7534841 42.6745303,30.7377956 41.2752185,30.7030868 L41.2752185,30.7030868 Z" id="路径"></path>
                    </g>
                </g>
            </g>
        </g>
    </g>
</svg>