<?xml version="1.0" encoding="UTF-8"?>
<svg width="14px" height="16px" viewBox="0 0 14 16" version="1.1" xmlns="http://www.w3.org/2000/svg" xmlns:xlink="http://www.w3.org/1999/xlink">
    <!-- Generator: Sketch 63.1 (92452) - https://sketch.com -->
    <title>退出@1x</title>
    <desc>Created with Sketch.</desc>
    <g id="企业端-后台2021定稿" stroke="none" stroke-width="1" fill="none" fill-rule="evenodd">
        <g id="人员管理" transform="translate(-38.000000, -340.000000)" fill="#FFFFFF" fill-rule="nonzero">
            <g id="菜单">
                <g id="退出" transform="translate(38.000000, 340.000000)">
                    <path d="M10.9997921,2.72824625 C11.4683385,3.06085275 11.8842965,3.43784514 12.24773,3.85880773 C12.612043,4.28021802 12.9237997,4.73517356 13.1838953,5.22364237 C13.444007,5.71257487 13.641569,6.22960033 13.7765975,6.77561414 C13.9116259,7.32162795 13.9795958,7.87491681 13.9795958,8.43680784 C13.9795958,9.40380022 13.7947132,10.3109612 13.4258593,11.1583227 C13.0561099,12.0056841 12.5576479,12.7442874 11.9278029,13.3732369 C11.2988534,14.0021865 10.5611455,14.5010803 9.71290464,14.8703979 C8.86645453,15.2396995 7.9583822,15.4241184 6.99138983,15.4241184 C6.03527008,15.4241184 5.13354545,15.2396995 4.28527258,14.8703979 C3.43882247,14.5010802 2.69750109,14.0021865 2.0631152,13.3732369 C1.42872931,12.7438397 0.930283266,12.0056841 0.565970266,11.1583227 C0.201641281,10.3109612 0.0203881719,9.40380022 0.0203881719,8.43680784 C0.0203881719,7.88578944 0.0847285469,7.34474827 0.214336672,6.8145957 C0.344840188,6.28442716 0.529722844,5.78009709 0.768968625,5.30157353 C1.00821442,4.82352964 1.30366211,4.37628087 1.65710247,3.96030691 C2.01054284,3.54431695 2.40568294,3.1700427 2.84250677,2.83743622 C3.07179131,2.67113297 3.31919158,2.60859937 3.58382816,2.65028311 C3.84844875,2.69196684 4.0641425,2.82157497 4.23089345,3.03998689 C4.39764439,3.25838281 4.45928261,3.50263322 4.41849427,3.7731538 C4.37681053,4.04367439 4.24721839,4.2620863 4.02789509,4.42837356 C3.37357072,4.90643344 2.87149514,5.49414697 2.52349108,6.19061877 C2.17548703,6.88753825 2.00058161,7.63610273 2.00058161,8.43679186 C2.00058161,9.12283872 2.13017375,9.7703517 2.39118078,10.3784674 C2.65036505,10.9870308 3.00653956,11.5171993 3.45876097,11.9694207 C3.91189375,12.4216421 4.44115091,12.7805348 5.050162,13.0456191 C5.6582617,13.3107033 6.30534298,13.4430136 6.99138984,13.4430136 C7.67833209,13.4430136 8.32541338,13.3107033 8.93351308,13.0456191 C9.54161278,12.7805348 10.0717813,12.4216581 10.5249141,11.9694207 C10.9771355,11.5171993 11.3351168,10.9870308 11.6006488,10.3784674 C11.8661807,9.7703677 11.998491,9.12285472 11.998491,8.43679186 C11.998491,7.6256778 11.8109062,6.85898161 11.4366,6.13623964 C11.0623258,5.41348167 10.5375775,4.81807736 9.86150791,4.35044241 C9.63313475,4.19456409 9.49538814,3.9811408 9.44825209,3.71108389 C9.40113205,3.4405633 9.45640656,3.19087659 9.61228488,2.96203975 C9.76816319,2.74364383 9.9811388,2.61131755 10.2512117,2.56464519 C10.522196,2.51752512 10.771419,2.57236794 10.9997921,2.72824625 L10.9997921,2.72824625 L10.9997921,2.72824625 L10.9997921,2.72824625 Z M6.99138984,8.4834802 C6.72131695,8.4834802 6.49020964,8.38741733 6.29718852,8.19482791 C6.10504678,8.00270217 6.00899989,7.77114716 6.00899989,7.50062658 L6.00899989,1.57410077 C6.00899989,1.30358017 6.10506277,1.0697707 6.2971885,0.872208656 C6.49020963,0.674662594 6.72131694,0.575865578 6.99138983,0.575865578 C7.27231936,0.575865578 7.50886298,0.674662594 7.70098872,0.872208656 C7.89402584,1.0697707 7.9900887,1.30358019 7.9900887,1.57410077 L7.9900887,7.50062658 C7.9900887,7.77114717 7.89402583,8.00270217 7.70098872,8.19482791 C7.50886298,8.38743331 7.27231938,8.4834802 6.99138984,8.4834802 L6.99138984,8.4834802 L6.99138984,8.4834802 L6.99138984,8.4834802 Z" id="形状"></path>
                </g>
            </g>
        </g>
    </g>
</svg>