<?xml version="1.0" encoding="UTF-8"?>
<svg width="64px" height="64px" viewBox="0 0 64 64" version="1.1" xmlns="http://www.w3.org/2000/svg" xmlns:xlink="http://www.w3.org/1999/xlink">
    <!-- Generator: Sketch 63.1 (92452) - https://sketch.com -->
    <title>员工上线率@1x</title>
    <desc>Created with Sketch.</desc>
    <g id="2021.3.8-企业中台" stroke="none" stroke-width="1" fill="none" fill-rule="evenodd">
        <g id="4.13企业首页中台" transform="translate(-1540.000000, -135.000000)" fill-rule="nonzero">
            <g id="编组-4" transform="translate(436.000000, 121.000000)">
                <g id="1-copy-2" transform="translate(1086.000000, 0.000000)">
                    <g id="员工上线率" transform="translate(18.000000, 14.000000)">
                        <rect id="矩形" fill="#000000" opacity="0" x="0" y="0" width="64" height="64"></rect>
                        <path d="M27.082907,63.6800404 C27.1868679,62.7004089 27.2548423,61.8407324 27.3707987,60.9970499 C27.5707234,59.5256035 27.8106332,58.0661526 28.026552,56.5987047 C28.1305129,55.8629816 28.1984873,55.1232599 28.2864542,54.3875367 L28.7382842,50.9888154 C28.8262511,50.3330622 28.914218,49.6693119 28.9861909,49.0095601 C29.0861533,48.0219317 29.1581263,47.0303048 29.2660856,46.0426764 C29.3220646,45.514875 29.4340224,44.9910721 29.4860029,44.4632707 C29.5979608,43.3756799 29.1501293,42.3960485 28.8582391,41.3844291 C28.7622752,41.0245645 28.6223278,40.6646999 28.5743459,40.3008368 C28.5623504,40.1848804 28.7902646,39.9249782 28.906221,39.9249782 C31.0254236,39.9009872 33.1406278,39.9089842 35.2558319,39.9089842 C35.5597176,39.9089842 35.6716755,39.9809572 35.5597176,40.3208293 C35.3198079,41.03656 35.1358771,41.7602877 34.9359523,42.4800169 C34.8559824,42.7679086 34.75602,43.0558002 34.7080381,43.3516889 C34.5401013,44.3593098 34.6840471,45.3509367 34.8919689,46.3505606 C35.0439117,47.0582943 35.0918936,47.7820221 35.1598681,48.5017512 C35.2558319,49.549357 35.3118109,50.6009614 35.4397628,51.6445687 C35.6356891,53.1719941 35.8795973,54.6914224 36.0915175,56.2148492 C36.1914799,56.8945934 36.2754483,57.5743377 36.3394243,58.2540819 C36.4433851,59.2816952 36.5193566,60.3133071 36.6193189,61.336922 C36.6792964,61.9646858 36.7632648,62.5884511 36.8632272,63.2082179 C36.8792212,63.3281728 37.039161,63.4241367 37.2350873,63.6440539 C37.5309759,62.5124797 37.7668872,61.5368467 38.0387849,60.5692108 C38.3106826,59.5775839 38.6225653,58.5979525 38.9064584,57.6103241 C39.1023848,56.9225829 39.2663231,56.2228462 39.4502538,55.5311064 C39.6621741,54.7793892 39.8860898,54.0316706 40.0900131,53.2759549 C40.2819409,52.5882137 40.4418808,51.8924755 40.637807,51.2047342 C40.8377318,50.4650126 41.0576491,49.7292894 41.2655708,48.9895677 C41.4495016,48.3098234 41.6294339,47.6140852 41.8213617,46.9303424 C42.0332819,46.1546343 42.2611962,45.3869231 42.4731164,44.6072166 C42.6610458,43.8994829 42.8209856,43.1837521 43.0129134,42.4800169 C43.2128381,41.7402952 43.4447509,41.0085705 43.6526726,40.2768458 C43.8406019,39.6050986 44.0045402,38.9293528 44.1884711,38.2576056 C44.268441,37.9497214 44.2764379,37.5378764 44.4763627,37.3699396 C44.7162725,37.1700148 45.1920934,37.0420629 45.4679896,37.1380268 C46.7475082,37.5938553 47.9870418,38.1496462 49.2505664,38.6414611 C50.554076,39.1492701 51.8735795,39.6210926 53.1810876,40.116906 C54.2206964,40.5127571 55.2603053,40.9126066 56.2919171,41.3244517 C57.6234161,41.8562516 58.8949377,42.4840154 60.0584999,43.3276979 C61.1061058,44.0914106 61.9297959,45.0310571 62.3976199,46.2066147 C62.6095401,46.7264192 62.6015431,47.3261935 62.6615206,47.8979784 C62.7654814,48.9415857 62.8214604,49.9931901 62.9294198,51.0407959 C63.0613701,52.2723325 63.2253084,53.4998706 63.3692543,54.7314073 L63.3852483,54.8993441 C63.4772136,56.1468747 63.5651806,57.3824099 63.6651429,58.6219435 C63.7331174,59.4816201 63.8010918,60.3412966 63.9170482,61.1889776 C64.0969805,62.5604616 62.6135386,63.9879245 61.1460907,63.9760041 C53.1011177,63.9039561 45.0601431,63.9239486 37.007173,63.9239486 C25.711423,63.9239486 14.4116746,63.9319456 3.10792762,63.9599351 C2.10430525,63.9599351 1.23663169,63.7440163 0.676842312,62.9443172 C0.0050950625,61.9766812 -0.082871875,60.8650995 0.185027375,59.7375237 C0.213016875,59.6255659 0.27299425,59.5176065 0.27299425,59.4096471 C0.372956625,58.1861075 0.440931062,56.9625678 0.560885937,55.7430267 C0.668845312,54.7034178 0.840780625,53.6678075 0.976729437,52.6321971 L0.996721937,52.4602618 C1.08868731,51.2407207 1.07269337,49.9971886 1.30060762,48.8016384 C1.52052487,47.6380762 1.33259556,46.4025411 2.12829619,45.3189487 C2.92799531,44.2513504 3.87164025,43.3756799 4.9792235,42.6759432 C6.66658862,41.6043464 8.5858665,41.020566 10.4491654,40.3128323 C11.9166133,39.7530429 13.3600702,39.1372746 14.8235196,38.5534942 C16.0510577,38.0656778 17.2905914,37.5818598 18.5341235,37.1300298 C19.1099069,36.9141111 19.6337097,37.3099621 19.7656601,37.897741 C19.9415939,38.6574552 20.2014961,39.4051738 20.4054194,40.1648879 C20.5933487,40.8526292 20.7532886,41.5483674 20.9412178,42.2401072 C21.1451411,42.9958229 21.3810523,43.7435415 21.5889741,44.5032556 C21.7689064,45.1710044 21.9368432,45.8467501 22.1247725,46.5184974 C22.4166627,47.5820972 22.7245468,48.6377001 23.016437,49.7052984 C23.2043663,50.3730471 23.3683046,51.0447944 23.5442384,51.7125431 C23.7601572,52.4922497 23.9920699,53.2599609 24.2039902,54.0356691 C24.3919195,54.7274088 24.5478608,55.423147 24.7397886,56.1148867 C24.9477104,56.8706024 25.1756246,57.6183211 25.3795479,58.3740367 C25.5714757,59.0657765 25.7434111,59.7575162 25.9233433,60.4532544 C26.1712501,61.4128934 26.4111597,62.3765308 26.6790589,63.3321712 C26.7070484,63.4521261 26.8909792,63.5201006 27.082907,63.6800404 L27.082907,63.6800404 Z M17.0586786,16.1539221 C17.2825944,14.9343809 17.5424966,13.4229496 17.8463823,11.9155168 C18.1982499,10.1281893 19.0059459,8.51679556 19.9935744,6.98937025 C21.4161222,4.76106848 23.4025195,2.94848099 25.751408,1.73534706 C26.8310018,1.17555769 27.9665746,0.719729187 29.1901142,0.535798375 C30.0977727,0.403848 31.0014327,0.17193525 31.9090912,0.163643796 C32.8527361,0.155941313 33.8083766,0.311882625 34.740026,0.499811937 C35.6116981,0.67574575 36.4873686,0.919654 37.3070602,1.25552762 C39.5666911,2.17456301 41.5550994,3.6538287 43.0848862,5.55391031 C44.2324545,6.96138075 45.1361145,8.48480756 45.7918677,10.1361862 C46.1717248,11.0838297 46.3596541,12.1114431 46.5715744,13.1150654 C46.7555052,14.0227239 46.971424,14.9543734 46.9636427,15.8740274 C46.9232271,17.1481757 46.8003482,18.4183701 46.5955654,19.6765967 C46.495603,20.4203169 46.2796842,21.1440446 46.1077489,21.8757692 C45.7838708,23.2752427 45.164104,24.5547612 44.5003537,25.8222844 C43.3687794,27.981472 41.8373556,29.8127829 39.9300732,31.3602007 C38.6959191,32.3755498 37.2828401,33.1512515 35.7636409,33.6473402 C34.4001539,34.0871747 33.0166744,34.3910604 31.5892115,34.2990949 C29.3103911,34.1594285 27.1113676,33.4080034 25.2236066,32.1239134 C23.5282444,30.9763451 22.0448026,29.6008627 20.9452163,27.8895066 C20.1657305,26.7077917 19.4644924,25.4762841 18.8460061,24.2028937 C18.3381972,23.1153029 18.0023236,21.9397452 17.6664499,20.7841799 C17.4905161,20.2043981 17.4625267,19.5846312 17.3865552,18.9848569 C17.2825944,18.1451729 17.1906289,17.3134858 17.0586786,16.1539221 L17.0586786,16.1539221 Z" id="形状" fill="#17B881"></path>
                    </g>
                </g>
            </g>
        </g>
    </g>
</svg>