<?xml version="1.0" encoding="UTF-8"?>
<svg width="18px" height="17px" viewBox="0 0 18 17" version="1.1" xmlns="http://www.w3.org/2000/svg" xmlns:xlink="http://www.w3.org/1999/xlink">
    <!-- Generator: Sketch 63.1 (92452) - https://sketch.com -->
    <title>组织管理@1x</title>
    <desc>Created with Sketch.</desc>
    <g id="企业端-后台2021定稿" stroke="none" stroke-width="1" fill="none" fill-rule="evenodd">
        <g id="人员管理" transform="translate(-35.000000, -151.000000)" fill="#FFFFFF">
            <g id="菜单">
                <g id="组织管理" transform="translate(35.000000, 151.000000)">
                    <path d="M14.698476,11.6777179 C14.3162081,11.6777179 13.9430963,11.7818687 13.6180542,11.9798698 L13.5711291,12.0084826 L11.7170153,10.0971431 L11.7524952,10.04564 C12.161087,9.46308201 12.3762557,8.77179514 12.3762557,8.04846186 C12.3784562,7.33586565 12.1623733,6.63968725 11.7570733,6.0535728 L11.7204488,6.00206964 L13.5745626,4.08844111 L13.6226322,4.1181985 C13.9476744,4.31276598 14.3196417,4.41577231 14.698476,4.41577231 C15.8773261,4.41577231 16.8375739,3.42576713 16.8375739,2.20914802 C16.8375739,0.992528914 15.8784706,0.0036682632 14.6973315,0.0036682632 C13.5184814,0.0036682632 12.5582336,0.99252893 12.5582336,2.20914802 C12.5582336,2.59828301 12.6589509,2.98055092 12.8477958,3.31932725 L12.8764087,3.36968591 L11.0200058,5.28445895 L10.9707917,5.24783448 C9.72969465,4.3359215 8.01845327,4.42248793 6.87571824,5.45499163 C6.27504133,5.99463785 5.88226015,6.72755944 5.76553901,7.52656318 L5.7563829,7.58951148 L4.3371847,7.58951148 L4.32459503,7.53228576 C4.09111404,6.54113606 3.23616159,5.84984919 2.24501189,5.84984919 C1.06616179,5.84984919 0.104769455,6.83870986 0.104769455,8.05532897 C0.104769455,9.27194806 1.06616177,10.2619533 2.24501189,10.2619532 C3.19495907,10.2619532 4.03961089,9.60385731 4.30170475,8.66306624 L4.31658343,8.60927406 L5.77011706,8.60927406 L5.78156222,8.66993334 C6.06997991,10.2962887 7.44568655,11.4774278 9.05144062,11.4774278 C9.74158297,11.4774278 10.4019679,11.2611146 10.9650691,10.8513783 L11.0142833,10.8170429 L12.8729751,12.7318159 L12.8443622,12.7821745 C12.6560167,13.1189354 12.5574821,13.4984907 12.5582336,13.8843422 C12.5582336,15.1021058 13.5173369,16.0909664 14.696187,16.0909664 C15.8750371,16.0909664 16.8364294,15.1021058 16.8364294,13.8843422 C16.8364294,12.6677231 15.8761816,11.6777179 14.698476,11.6777179 L14.698476,11.6777179 Z" id="路径" fill-rule="nonzero"></path>
                    <rect id="矩形" fill-rule="nonzero" x="5.632" y="4.608" width="6.8608" height="6.8608" rx="3.4304"></rect>
                    <rect id="矩形" x="12.3904" y="0" width="4.608" height="4.608" rx="2.304"></rect>
                    <rect id="矩形" x="0" y="5.632" width="4.608" height="4.608" rx="2.304"></rect>
                    <rect id="矩形" x="12.4416" y="11.6224" width="4.608" height="4.608" rx="2.304"></rect>
                </g>
            </g>
        </g>
    </g>
</svg>