<?xml version="1.0" encoding="UTF-8"?>
<svg width="14px" height="17px" viewBox="0 0 14 17" version="1.1" xmlns="http://www.w3.org/2000/svg" xmlns:xlink="http://www.w3.org/1999/xlink">
    <!-- Generator: Sketch 63.1 (92452) - https://sketch.com -->
    <title>电子书@1x</title>
    <desc>Created with Sketch.</desc>
    <g id="新版定稿（20202-8-22）" stroke="none" stroke-width="1" fill="none" fill-rule="evenodd">
        <g id="画板" transform="translate(-455.000000, -1980.000000)" fill="#FFFFFF" fill-rule="nonzero">
            <g id="电子书" transform="translate(455.000000, 1980.000000)">
                <path d="M7.28847059,6.4602353 L8.74047059,5.43654536 L10.1044706,6.41685862 L10.1044706,4.46309656e-13 L12.6494118,6.75015599e-13 C12.9825882,6.75015599e-13 13.2517647,0.269657157 13.2517647,0.603428579 L13.2517647,0.603428579 L13.2517647,16.2925714 C13.2517647,16.6263429 12.9825882,16.896 12.6494118,16.896 L12.6494118,16.896 L0.602352932,16.896 C0.269176468,16.896 6.57252031e-13,16.6263428 6.57252031e-13,16.2925714 L6.57252031e-13,16.2925714 L6.57252031e-13,0.603428579 C6.57252031e-13,0.26965714 0.269176468,6.75015599e-13 0.602352932,6.75015599e-13 L0.602352932,6.75015599e-13 L7.28847059,4.46309656e-13 L7.28847059,6.4602353 Z" id="形状结合"></path>
            </g>
        </g>
    </g>
</svg>