<?xml version="1.0" encoding="UTF-8"?>
<svg width="104px" height="109px" viewBox="0 0 104 109" version="1.1" xmlns="http://www.w3.org/2000/svg" xmlns:xlink="http://www.w3.org/1999/xlink">
    <!-- Generator: Sketch 63.1 (92452) - https://sketch.com -->
    <title>及时的沟通@1x</title>
    <desc>Created with Sketch.</desc>
    <g id="页面-1" stroke="none" stroke-width="1" fill="none" fill-rule="evenodd">
        <g id="首页" transform="translate(-1470.000000, -3462.000000)" fill-rule="nonzero">
            <g id="及时的沟通" transform="translate(1470.000000, 3462.000000)">
                <path d="M92,32 L80,32 L80,28 L92,28 L92,16 L84.48,16 L89.8,10.68 L81.32,2.2 L76,7.52 L76,0 L64,0 L64,12 L12,12 C5.372583,12 0,17.372583 0,24 L0,88.56 L4.84,84.56 C11.596761,96.5281318 24.2563659,103.949806 38,104 C50.3112376,104.032677 61.8654069,98.0615301 68.96,88 L79.36,88 L104,108.56 L104,44 C104,37.372583 98.627417,32 92,32 Z" id="路径" fill="#FFFFFF"></path>
                <path d="M100,44 C100,39.581722 96.418278,36 92,36 L36,36 C31.581722,36 28,39.581722 28,44 L28,76 C28,80.418278 31.581722,84 36,84 L80.8,84 L100,100 L100,76 L100,44 Z" id="路径" fill="#FFFFFF"></path>
                <path d="M4,24 C4,19.581722 7.581722,16 12,16 L68,16 C72.418278,16 76,19.581722 76,24 L76,56 C76,60.418278 72.418278,64 68,64 L23.2,64 L4,80 L4,56 L4,24 Z" id="路径" fill="#A3D4FF"></path>
                <path d="M92,36 L80,36 L80,40 L92,40 C94.209139,40 96,41.790861 96,44 L96,91.44 L83.36,80.92 L82.24,80 L36,80 C33.790861,80 32,78.209139 32,76 L32,68 L28,68 L28,76 C28,80.418278 31.581722,84 36,84 L80.8,84 L100,100 L100,44 C100,39.581722 96.418278,36 92,36 Z" id="路径" fill="#2A5082"></path>
                <path d="M84,56 L88,56 L88,60 L84,60 L84,56 Z M40,68 L68,68 L68,72 L40,72 L40,68 Z M76,68 L88,68 L88,72 L76,72 L76,68 Z" id="形状" fill="#2A5082"></path>
                <path d="M23.2,64 L68,64 C72.418278,64 76,60.418278 76,56 L76,24 C76,19.581722 72.418278,16 68,16 L12,16 C7.581722,16 4,19.581722 4,24 L4,80 L23.2,64 Z M8,24 C8,21.790861 9.790861,20 12,20 L68,20 C70.209139,20 72,21.790861 72,24 L72,56 C72,58.209139 70.209139,60 68,60 L21.76,60 L20.64,60.92 L8,71.44 L8,24 Z" id="形状" fill="#2A5082"></path>
                <path d="M16,28 L64,28 L64,32 L16,32 L16,28 Z M36,40 L64,40 L64,44 L36,44 L36,40 Z M16,40 L28,40 L28,44 L16,44 L16,40 Z M80,20 L88,20 L88,24 L80,24 L80,20 Z M75.672,13.552 L81.332,7.896 L84.16,10.724 L78.5,16.38 L75.672,13.552 Z M68,4 L72,4 L72,12 L68,12 L68,4 Z M16,76 L24,76 L24,80 L16,80 L16,76 Z M19.856,89.272 L25.512,83.616 L28.34,86.444 L22.684,92.1 L19.856,89.272 Z M32,88 L36,88 L36,96 L32,96 L32,88 Z" id="形状" fill="#2A5082"></path>
            </g>
        </g>
    </g>
</svg>