<?xml version="1.0" encoding="UTF-8"?>
<svg width="99px" height="112px" viewBox="0 0 99 112" version="1.1" xmlns="http://www.w3.org/2000/svg" xmlns:xlink="http://www.w3.org/1999/xlink">
    <!-- Generator: Sketch 63.1 (92452) - https://sketch.com -->
    <title>结构化的目标@1x</title>
    <desc>Created with Sketch.</desc>
    <g id="页面-1" stroke="none" stroke-width="1" fill="none" fill-rule="evenodd">
        <g id="首页" transform="translate(-410.000000, -3448.000000)" fill-rule="nonzero">
            <g id="结构化的目标" transform="translate(410.000000, 3448.000000)">
                <g id="结构" transform="translate(0.000000, 15.000000)">
                    <rect id="矩形" fill="#000000" opacity="0" x="0" y="0" width="98.70336" height="98.70336"></rect>
                    <path d="M4.694193,50.903559 C4.694193,75.993876 25.032483,96.341805 50.132439,96.341805 C75.232395,96.341805 95.570685,76.003515 95.570685,50.903559 C95.570685,25.813242 75.232395,5.465313 50.142078,5.455674 C25.051761,5.455674 4.703832,25.793964 4.694193,50.884281 L4.694193,50.903559 Z" id="路径" fill="#FFFFFF"></path>
                    <path d="M50.132439,36.801702 C55.751976,36.801702 59.540103,35.895636 65.795814,33.669027 L65.795814,28.965195 C65.795814,26.420499 57.178548,22.699845 50.132439,22.699845 C43.08633,22.699845 34.469064,26.420499 34.469064,28.965195 L34.469064,33.669027 C40.734414,35.895636 44.512902,36.801702 50.132439,36.801702 Z" id="路径" fill="#A3D4FF"></path>
                    <path d="M50.132439,38.372859 C44.079147,38.372859 40.078962,37.331847 33.938919,35.153433 L32.897907,34.787151 L32.897907,28.974834 C32.897907,24.724035 43.481529,21.176883 50.132439,21.176883 C56.783349,21.176883 67.366971,24.762591 67.366971,28.974834 L67.366971,34.787151 L66.325959,35.153433 C60.176277,37.331847 56.19537,38.372859 50.132439,38.372859 L50.132439,38.372859 Z M36.030582,32.560542 C41.25492,34.372674 44.869545,35.230545 50.132439,35.230545 C55.385694,35.230545 59.009958,34.363035 64.234296,32.560542 L64.234296,29.01339 C63.733068,27.683208 56.947212,24.251724 50.132439,24.251724 C43.317666,24.251724 36.53181,27.683208 36.030582,29.01339 L36.030582,32.560542 Z" id="形状" fill="#2A5082"></path>
                    <path d="M50.132439,3.903795 C46.084059,3.903795 42.334488,7.190694 42.334488,11.239074 L42.334488,16.916445 C42.334488,20.964825 46.112976,24.251724 50.132439,24.251724 C54.151902,24.251724 57.93039,20.964825 57.93039,16.916445 L57.93039,11.239074 C57.968946,7.209972 54.180819,3.903795 50.132439,3.903795 Z" id="路径" fill="#FFFFFF"></path>
                    <path d="M50.132439,25.83252 C45.033408,25.83252 40.724775,21.755223 40.724775,16.935723 L40.724775,11.258352 C40.724775,6.438852 45.033408,2.361555 50.132439,2.361555 C55.23147,2.361555 59.540103,6.409935 59.540103,11.229435 L59.540103,16.906806 C59.540103,21.764862 55.23147,25.83252 50.132439,25.83252 Z M50.132439,5.465313 C46.787706,5.465313 43.867089,8.164233 43.867089,11.229435 L43.867089,16.906806 C43.867089,19.981647 46.797345,22.670928 50.132439,22.670928 C53.467533,22.670928 56.397789,19.972008 56.397789,16.906806 L56.397789,11.229435 C56.397789,8.164233 53.467533,5.465313 50.132439,5.465313 Z" id="形状" fill="#2A5082"></path>
                    <path d="M50.132439,93.20913 C55.751976,93.20913 59.540103,92.303064 65.795814,90.076455 L65.795814,85.372623 C65.795814,82.827927 57.178548,79.107273 50.132439,79.107273 C43.08633,79.107273 34.469064,82.827927 34.469064,85.372623 L34.469064,90.076455 C40.734414,92.303064 44.512902,93.20913 50.132439,93.20913 Z" id="路径" fill="#A3D4FF"></path>
                    <path d="M50.132439,94.770648 C44.079147,94.770648 40.078962,93.729636 33.938919,91.541583 L32.897907,91.175301 L32.897907,85.362984 C32.897907,81.112185 43.481529,77.565033 50.132439,77.565033 C56.783349,77.565033 67.366971,81.150741 67.366971,85.362984 L67.366971,91.175301 L66.325959,91.541583 C60.176277,93.729636 56.185731,94.770648 50.132439,94.770648 L50.132439,94.770648 Z M36.030582,88.96797 C41.25492,90.780102 44.869545,91.647612 50.132439,91.647612 C55.385694,91.647612 59.009958,90.780102 64.234296,88.96797 L64.234296,85.420818 C63.733068,84.090636 56.947212,80.659152 50.132439,80.659152 C43.317666,80.659152 36.53181,84.090636 36.030582,85.420818 L36.030582,88.96797 Z" id="形状" fill="#2A5082"></path>
                    <path d="M50.132439,60.311223 C46.084059,60.311223 42.334488,63.598122 42.334488,67.646502 L42.334488,73.323873 C42.334488,77.372253 46.112976,80.659152 50.132439,80.659152 C54.151902,80.659152 57.93039,77.372253 57.93039,73.323873 L57.93039,67.646502 C57.968946,63.588483 54.180819,60.311223 50.132439,60.311223 Z" id="路径" fill="#FFFFFF"></path>
                    <path d="M50.132439,82.239948 C45.033408,82.239948 40.724775,78.162651 40.724775,73.343151 L40.724775,67.66578 C40.724775,62.84628 45.033408,58.768983 50.132439,58.768983 C55.23147,58.768983 59.5304801,62.84628 59.5304801,67.66578 L59.5304801,73.343151 C59.540103,78.162651 55.23147,82.239948 50.132439,82.239948 L50.132439,82.239948 Z M50.132439,61.872741 C46.787706,61.872741 43.867089,64.571661 43.867089,67.636863 L43.867089,73.314234 C43.867089,76.389075 46.797345,79.078356 50.132439,79.078356 C53.467533,79.078356 56.397789,76.379436 56.397789,73.314234 L56.397789,67.636863 C56.397789,64.571661 53.467533,61.872741 50.132439,61.872741 Z" id="形状" fill="#2A5082"></path>
                    <path d="M17.234532,93.20913 C22.854069,93.20913 26.642196,92.303064 32.897907,90.076455 L32.897907,85.372623 C32.897907,82.827927 24.280641,79.107273 17.234532,79.107273 C10.188423,79.107273 1.571157,82.827927 1.571157,85.372623 L1.571157,90.076455 C7.846146,92.303064 11.605356,93.20913 17.234532,93.20913 Z" id="路径" fill="#A3D4FF"></path>
                    <path d="M17.234532,94.770648 C11.18124,94.770648 7.181055,93.729636 1.041012,91.541583 L0,91.175301 L0,85.362984 C0,81.112185 10.583622,77.565033 17.234532,77.565033 C23.885442,77.565033 34.469064,81.150741 34.469064,85.362984 L34.469064,91.175301 L33.428052,91.541583 C27.27837,93.729636 23.287824,94.770648 17.234532,94.770648 L17.234532,94.770648 Z M3.132675,88.96797 C8.357013,90.780102 11.971638,91.647612 17.234532,91.647612 C22.497426,91.647612 26.112051,90.780102 31.336389,88.96797 L31.336389,85.420818 C30.835161,84.090636 24.049305,80.659152 17.234532,80.659152 C10.419759,80.659152 3.633903,84.100275 3.132675,85.430457 L3.132675,88.96797 Z" id="形状" fill="#2A5082"></path>
                    <path d="M17.234532,60.311223 C13.186152,60.311223 9.436581,63.598122 9.436581,67.646502 L9.436581,73.323873 C9.436581,77.372253 13.215069,80.659152 17.234532,80.659152 C21.253995,80.659152 25.032483,77.372253 25.032483,73.323873 L25.032483,67.646502 C25.071039,63.588483 21.321468,60.311223 17.234532,60.311223 Z" id="路径" fill="#FFFFFF"></path>
                    <path d="M17.234532,82.239948 C12.14514,82.239948 7.836507,78.162651 7.836507,73.343151 L7.836507,67.66578 C7.836507,62.84628 12.14514,58.768983 17.234532,58.768983 C22.323924,58.768983 26.632557,62.84628 26.632557,67.66578 L26.632557,73.343151 C26.632557,78.162651 22.323924,82.239948 17.234532,82.239948 L17.234532,82.239948 Z M17.234532,61.872741 C13.889799,61.872741 10.969182,64.571661 10.969182,67.636863 L10.969182,73.314234 C10.969182,76.389075 13.899438,79.078356 17.234532,79.078356 C20.569626,79.078356 23.499882,76.379436 23.499882,73.314234 L23.499882,67.636863 C23.499882,64.571661 20.569626,61.872741 17.234532,61.872741 Z" id="形状" fill="#2A5082"></path>
                    <path d="M81.468828,93.20913 C87.088365,93.20913 90.876492,92.303064 97.132203,90.076455 L97.132203,85.372623 C97.132203,82.827927 88.514937,79.107273 81.468828,79.107273 C74.422719,79.107273 65.805453,82.827927 65.805453,85.372623 L65.805453,90.076455 C72.070803,92.303064 75.849291,93.20913 81.468828,93.20913 Z" id="路径" fill="#A3D4FF"></path>
                    <path d="M81.468828,94.770648 C75.415536,94.770648 71.415351,93.729636 65.275308,91.541583 L64.234296,91.175301 L64.234296,85.362984 C64.234296,81.112185 74.817918,77.565033 81.468828,77.565033 C88.119738,77.565033 98.70336,81.150741 98.70336,85.362984 L98.70336,91.175301 L97.662348,91.541583 C91.522305,93.729636 87.52212,94.770648 81.468828,94.770648 Z M67.37661,88.96797 C72.600948,90.780102 76.215573,91.647612 81.478467,91.647612 C86.741361,91.647612 90.355986,90.780102 95.580324,88.96797 L95.580324,85.420818 C95.079096,84.090636 88.29324,80.659152 81.478467,80.659152 C74.663694,80.659152 67.868199,84.090636 67.37661,85.420818 L67.37661,88.96797 Z" id="形状" fill="#2A5082"></path>
                    <path d="M81.468828,60.311223 C77.420448,60.311223 73.670877,63.598122 73.670877,67.646502 L73.670877,73.323873 C73.670877,77.372253 77.449365,80.659152 81.468828,80.659152 C85.488291,80.659152 89.266779,77.372253 89.266779,73.323873 L89.266779,67.646502 C89.295696,63.588483 85.517208,60.311223 81.468828,60.311223 Z" id="路径" fill="#FFFFFF"></path>
                    <path d="M81.468828,82.239948 C76.369797,82.239948 72.061164,78.162651 72.061164,73.343151 L72.061164,67.66578 C72.061164,62.84628 76.369797,58.768983 81.468828,58.768983 C86.567859,58.768983 90.866853,62.84628 90.866853,67.66578 L90.866853,73.343151 C90.866853,78.162651 86.55822,82.239948 81.468828,82.239948 L81.468828,82.239948 Z M81.468828,61.872741 C78.124095,61.872741 75.203478,64.571661 75.203478,67.636863 L75.203478,73.314234 C75.203478,76.389075 78.133734,79.078356 81.468828,79.078356 C84.803922,79.078356 87.7342017,76.379436 87.7342017,73.314234 L87.7342017,67.636863 C87.743817,64.571661 84.813561,61.872741 81.468828,61.872741 Z M48.570921,41.505534 L51.703596,41.505534 L51.703596,55.607391 L48.570921,55.607391 L48.570921,41.505534 Z" id="形状" fill="#2A5082"></path>
                    <polygon id="路径" fill="#2A5082" points="83.039985 55.607391 79.90731 55.607391 79.90731 49.342041 18.79605 49.342041 18.79605 55.607391 15.663375 55.607391 15.663375 46.199727 83.039985 46.199727"></polygon>
                </g>
                <path d="M87,16 L95,16 L95,20 L87,20 L87,16 Z M82.672,9.552 L88.332,3.896 L91.16,6.724 L85.5,12.38 L82.672,9.552 Z M75,0 L79,0 L79,8 L75,8 L75,0 Z" id="形状" fill="#2A5082"></path>
            </g>
        </g>
    </g>
</svg>