<?xml version="1.0" encoding="UTF-8"?>
<svg width="40px" height="40px" viewBox="0 0 40 40" version="1.1" xmlns="http://www.w3.org/2000/svg" xmlns:xlink="http://www.w3.org/1999/xlink">
    <!-- Generator: Sketch 63.1 (92452) - https://sketch.com -->
    <title>哭脸@1x</title>
    <desc>Created with Sketch.</desc>
    <g id="新版定稿（20202-8-22）" stroke="none" stroke-width="1" fill="none" fill-rule="evenodd">
        <g id="画板" transform="translate(-785.000000, -1182.000000)" fill="#17B881" fill-rule="nonzero">
            <g id="哭脸" transform="translate(785.000000, 1182.000000)">
                <path d="M20,0 C8.97234375,0 0,8.97234375 0,20 C0,31.0276562 8.97234375,40 20,40 C31.0276562,40 40,31.0276562 40,20 C40,8.97234375 31.0276562,0 20,0 Z M20,37.6470703 C10.2676563,37.6470703 2.35292969,29.7329297 2.35292969,20 C2.35292969,10.2670703 10.2670703,2.35292969 20,2.35292969 C29.7329297,2.35292969 37.6470703,10.2676563 37.6470703,20 C37.6470703,29.7323438 29.7323438,37.6470703 20,37.6470703 Z" id="形状"></path>
                <path d="M25,15 C25,16.3807119 26.1192881,17.5 27.5,17.5 C28.8807119,17.5 30,16.3807119 30,15 C30,13.6192881 28.8807119,12.5 27.5,12.5 C26.1192881,12.5 25,13.6192881 25,15 Z M10,15 C10,16.3807119 11.1192881,17.5 12.5,17.5 C13.8807119,17.5 15,16.3807119 15,15 C15,13.6192881 13.8807119,12.5 12.5,12.5 C11.1192881,12.5 10,13.6192881 10,15 Z M20.16,23.3223438 C16.5774047,23.2591007 13.2145645,25.0445468 11.26,28.0476562 C11.002802,28.4218716 10.9685403,28.9060618 11.17048,29.312766 C11.3724196,29.7194703 11.7788583,29.9848409 12.2324379,30.006136 C12.6860175,30.0274311 13.1155314,29.8013077 13.3546875,29.4153125 C14.8378847,27.1292962 17.3954344,25.7701291 20.12,25.82 C22.7267397,25.8654294 25.1454074,27.1865499 26.5923437,29.3553125 C26.7744467,29.6331162 27.060215,29.8264253 27.3858327,29.8920715 C27.7114505,29.9577176 28.0497961,29.8902329 28.3253125,29.7046875 C28.8983565,29.3200759 29.0524706,28.5444751 28.67,27.97 C26.7683274,25.1177543 23.5875809,23.3808386 20.16,23.3229297 L20.16,23.3223438 Z" id="形状"></path>
            </g>
        </g>
    </g>
</svg>