<?xml version="1.0" encoding="UTF-8"?>
<svg width="30px" height="30px" viewBox="0 0 30 30" version="1.1" xmlns="http://www.w3.org/2000/svg" xmlns:xlink="http://www.w3.org/1999/xlink">
    <!-- Generator: Sketch 63.1 (92452) - https://sketch.com -->
    <title>编组 14@1x</title>
    <desc>Created with Sketch.</desc>
    <g id="新版定稿（20202-8-22）" stroke="none" stroke-width="1" fill="none" fill-rule="evenodd">
        <g id="画板" transform="translate(-135.000000, -1139.000000)">
            <g id="编组-14" transform="translate(135.000000, 1139.000000)">
                <rect id="矩形" fill="#DEDFE3" x="0" y="0" width="30" height="30" rx="15"></rect>
                <g id="群组" transform="translate(6.000000, 8.000000)" fill="#ACB0B3">
                    <path d="M10.9191146,8.98740706 C10.8504325,8.98740706 10.3697587,8.51510471 10.7130936,7.63814471 C11.4684705,6.89600471 12.0865838,5.68166118 12.0865838,4.46729294 C12.0865838,2.64582706 10.7817756,1.70129647 9.40831046,1.70129647 C7.96616325,1.70129647 6.73001192,2.64582706 6.73001192,4.46729294 C6.73001192,5.68166118 7.2793678,6.89600471 8.03482016,7.63814471 C8.3094981,8.38018588 7.82882428,8.91996 7.69148531,8.98740706 C6.18068119,9.52708235 4.46375545,10.4716129 4.46375545,11.4835906 L4.46375545,11.8208753 C4.46375545,13.1026906 7.00468986,13.4399753 9.40831046,13.4399753 C11.7432238,13.4399753 14.2840828,13.1701376 14.2840828,11.8208753 L14.2840828,11.4835906 C14.2154008,10.4716129 12.4299187,9.45963529 10.9191146,8.98740706 Z" id="Fill-1"></path>
                    <path d="M15.4515269,6.55872 C15.38287,6.55872 14.9708531,6.42380118 15.2455311,5.61418941 C15.9323265,4.93962 16.4130003,3.79272353 16.4130003,2.64582706 C16.4130003,0.959255294 15.3142131,0.0147494118 13.9407228,0.0147494118 C12.9793752,0.0147494118 12.0865838,0.486952941 11.7432238,1.43148353 C12.5672577,2.10615176 13.1167141,3.11803059 13.1167141,4.46729294 C13.1167141,5.88402706 12.4299187,7.23328941 11.6744663,8.11034824 C12.8419356,8.51510471 14.6275183,9.39216353 15.1081921,10.7414506 C16.8936741,10.6739788 18.5419178,10.2692224 18.5419178,9.25724471 L18.5419178,8.91996 C18.6105999,7.90798235 16.9623562,7.03092353 15.4515269,6.55872 Z M3.0902903,6.55872 C3.15894721,6.55872 3.57106472,6.42380118 3.29628618,5.61418941 C2.60961648,4.93962 2.12891751,3.79272353 2.12891751,2.64582706 C2.19749897,0.959255294 3.29628618,0.0147494118 4.60109442,0.0147494118 C5.5625678,0.0147494118 6.45535913,0.486952941 6.79869398,1.43148353 C5.97455957,2.10615176 5.42522883,3.11803059 5.42522883,4.46729294 C5.42522883,5.88402706 6.11189854,7.23328941 6.86735089,8.11034824 C5.69990678,8.51510471 3.91439957,9.39216353 3.43362515,10.7414506 C1.64814309,10.6739788 0,10.2692224 0,9.25724471 L0,8.91996 C0,7.90798235 1.64814309,7.03092353 3.0902903,6.55872 Z" id="Fill-3"></path>
                </g>
            </g>
        </g>
    </g>
</svg>