<?xml version="1.0" encoding="UTF-8"?>
<svg width="40px" height="39px" viewBox="0 0 40 39" version="1.1" xmlns="http://www.w3.org/2000/svg" xmlns:xlink="http://www.w3.org/1999/xlink">
    <!-- Generator: Sketch 63.1 (92452) - https://sketch.com -->
    <title>垃圾桶@1x</title>
    <desc>Created with Sketch.</desc>
    <g id="新版定稿（20202-8-22）" stroke="none" stroke-width="1" fill="none" fill-rule="evenodd">
        <g id="画板" transform="translate(-379.000000, -549.000000)" fill="#A6AAAD" fill-rule="nonzero">
            <g id="垃圾桶" transform="translate(379.000000, 549.000000)">
                <path d="M28.740625,38.3203125 L10.7130078,38.3203125 C8.22753906,38.3203125 6.20441406,36.3029297 6.20441406,33.8220313 L6.20441406,10.1469922 C6.20441406,9.52492187 6.70976562,9.01992187 7.33085937,9.01992187 C7.95289062,9.01992187 8.45871094,9.52492187 8.45871094,10.1469922 L8.45871094,33.8220313 C8.45871094,35.0596094 9.46988281,36.0661719 10.7130078,36.0661719 L28.740625,36.0661719 C29.9853516,36.0661719 30.9961328,35.0596094 30.9961328,33.8220313 L30.9961328,10.1469922 C30.9961328,9.52492187 31.5015234,9.01992187 32.1233984,9.01992187 C32.7444922,9.01992187 33.2502734,9.52492187 33.2502734,10.1469922 L33.2502734,33.8220313 C33.2502734,36.3027344 31.2264844,38.3203125 28.740625,38.3203125 Z M25.3614453,31.5583594 C24.7395703,31.5583594 24.2353516,31.0553516 24.2353516,30.4322656 L24.2353516,14.6548047 C24.2353516,14.0333203 24.739375,13.5283594 25.3614453,13.5283594 C25.9837109,13.5283594 26.4882813,14.0333594 26.4882813,14.6548047 L26.4882813,30.4322656 C26.4884766,31.0553125 25.9837109,31.5583594 25.3614453,31.5583594 Z M19.7277344,31.5583594 C19.1054687,31.5583594 18.60125,31.0553516 18.60125,30.4322656 L18.60125,14.6548047 C18.60125,14.0333203 19.1054297,13.5283594 19.7277344,13.5283594 C20.3487891,13.5283594 20.8539844,14.0333594 20.8539844,14.6548047 L20.8539844,30.4322656 C20.8541797,31.0553125 20.3489844,31.5583594 19.7277344,31.5583594 L19.7277344,31.5583594 Z M14.0930078,31.5583594 C13.4707422,31.5583594 12.9659375,31.0553516 12.9659375,30.4322656 L12.9659375,14.6548047 C12.9659375,14.0333203 13.4707422,13.5283594 14.0930078,13.5283594 C14.7148828,13.5283594 15.2194531,14.0333594 15.2194531,14.6548047 L15.2194531,30.4322656 C15.2194531,31.0553125 14.7148828,31.5583594 14.0930078,31.5583594 Z M38.3215234,7.89304688 L1.13351563,7.89304688 C0.511445313,7.89304688 0.0060546875,7.3890625 0.0060546875,6.76699219 C0.0060546875,6.14453125 0.511445313,5.64011719 1.13351563,5.64011719 L11.8394531,5.64011719 L11.8394531,3.39160156 C11.8394531,1.525 13.36,0.005234375 15.2290234,0.005234375 L24.2255469,0.005234375 C26.0961328,0.005234375 27.6149219,1.52476562 27.6149219,3.3915625 L27.6149219,5.64011719 L38.3212891,5.64011719 C38.9421484,5.64011719 39.4481641,6.14453125 39.4481641,6.76699219 C39.4481641,7.3890625 38.9423828,7.89304688 38.3214844,7.89304688 L38.3215234,7.89304688 Z M14.0930078,5.64011719 L25.3616406,5.64011719 L25.3616406,3.39160156 C25.3616406,2.76671875 24.8522656,2.25917969 24.2259766,2.25917969 L15.2292969,2.25917969 C14.6028125,2.25917969 14.0930078,2.76671875 14.0930078,3.39160156 L14.0930078,5.64011719 L14.0930078,5.64011719 Z" id="形状"></path>
            </g>
        </g>
    </g>
</svg>