<?xml version="1.0" encoding="UTF-8"?>
<svg width="208px" height="80px" viewBox="0 0 208 80" version="1.1" xmlns="http://www.w3.org/2000/svg" xmlns:xlink="http://www.w3.org/1999/xlink">
    <!-- Generator: Sketch 63.1 (92452) - https://sketch.com -->
    <title>编组 2@1x</title>
    <desc>Created with Sketch.</desc>
    <g id="新版定稿（20202-8-22）" stroke="none" stroke-width="1" fill="none" fill-rule="evenodd">
        <g id="切图" transform="translate(-778.000000, -279.000000)">
            <g id="编组-2" transform="translate(778.000000, 279.000000)">
                <text id="你来到了一个没有知识的沙漠" font-family="PingFangSC-Regular, PingFang SC" font-size="16" font-weight="normal" fill="#999999">
                    <tspan x="0" y="78">你来到了一个没有知识的沙漠</tspan>
                </text>
                <g id="沙漠" transform="translate(40.000000, 0.000000)" fill="#B0B0B0" fill-rule="nonzero">
                    <path d="M34.5683347,7.03326416 C36.7251377,7.03326416 38.4711211,8.77924752 38.4711211,10.9360505 C38.4711211,13.0928535 36.7251378,14.8388369 34.5683347,14.8388369 C32.4115317,14.8388369 30.6655484,13.0928536 30.6655484,10.9360505 C30.6655484,8.77924745 32.4115317,7.03326416 34.5683347,7.03326416 M34.5683347,5.80080528 C31.7336794,5.80080528 29.4330895,8.10139515 29.4330895,10.9360505 C29.4330895,13.7707059 31.7336794,16.0712958 34.5683347,16.0712958 C37.4029901,16.0712958 39.70358,13.7707059 39.70358,10.9360505 C39.70358,8.10139508 37.4029902,5.80080528 34.5683347,5.80080528 Z M33.9521053,0.0493305781 L35.1845642,0.0493305781 L35.1845642,3.13047774 L33.9521053,3.13047774 L33.9521053,0.0493305781 Z M33.9521053,19.152443 L35.1845642,19.152443 L35.1845642,22.2335901 L33.9521053,22.2335901 L33.9521053,19.152443 Z M39.8025875,5.03709157 L41.9813694,2.85851515 L42.8527178,3.730069 L40.6741414,5.90864542 L39.8025875,5.03709157 Z M26.2800489,18.5417596 L28.4588307,16.3631832 L29.3303846,17.2345316 L27.1516027,19.4133134 L26.2800489,18.5417596 Z M42.5793173,10.525231 L45.6604645,10.525231 L45.6604645,11.7576898 L42.5793173,11.7576898 L42.5793173,10.525231 Z M23.476205,10.525231 L26.5573521,10.525231 L26.5573521,11.7576898 L23.476205,11.7576898 L23.476205,10.525231 Z M39.7937549,17.2289855 L40.6651034,16.3574317 L42.8438852,18.5362135 L41.9723314,19.407562 L39.7937549,17.2289855 Z M26.2890869,3.73561502 L27.1606408,2.86406124 L29.3392172,5.04284311 L28.4678688,5.91419152 L26.2890869,3.73561502 Z M11.3981082,50.3747341 L11.3159442,49.1422753 C23.7843196,48.382259 32.2061219,41.7475221 38.3478753,36.8998505 C42.2712026,33.8187034 45.3728908,31.3743266 48.2897101,31.2716218 C54.2671356,31.066212 58.087758,35.6263098 58.2315449,35.8111785 L57.2866598,36.5917358 C57.2455778,36.5506539 53.6919881,32.3192118 48.330792,32.5040807 C45.8042514,32.5862446 42.8463501,34.9279164 39.1078916,37.8652767 C32.8428924,42.8156531 24.2567622,49.5941769 11.3981082,50.3747341 L11.3981082,50.3747341 Z M78.8546898,50.49798 C77.3551982,49.7174227 75.9584115,49.2449802 74.6232478,48.7725376 C72.178871,47.9303574 70.083691,47.2114231 68.5636584,44.9519151 C65.6262981,40.5561452 70.3507237,36.5506539 73.1648381,34.1473591 C73.8426905,33.5722116 74.438379,33.0792281 74.7670347,32.6889495 C75.0135265,32.4013757 75.1162313,32.134343 75.0751494,31.7851463 C74.9108215,30.6348514 73.1853791,29.2996876 72.5486087,28.888868 L73.2059201,27.841278 C73.4934938,28.0261468 76.0405754,29.6899662 76.2870672,31.6002775 C76.3897722,32.2986709 76.1638214,32.9354412 75.6913788,33.4900477 C75.3011002,33.9419493 74.6848707,34.4554739 73.9659364,35.0717033 C71.2956088,37.3312112 67.2695765,40.761555 69.5907074,44.2535218 C70.8642482,46.184374 72.7129365,46.8006035 75.0135264,47.6017017 C76.3281492,48.0536033 77.8276408,48.5671278 79.4298373,49.388767 L78.8546898,50.49798 L78.8546898,50.49798 Z" id="形状"></path>
                    <path d="M10.7407967,49.2038982 L120.840455,49.2038982 L120.840455,50.4363571 L10.7407967,50.4363571 L10.7407967,49.2038982 Z M0.0594865781,49.2038982 L6.01637113,49.2038982 L6.01637113,50.4363571 L0.0594865781,50.4363571 L0.0594865781,49.2038982 Z" id="形状"></path>
                    <polygon id="路径" points="125.359471 49.2038982 131.110946 49.2038982 131.110946 50.4363571 125.359471 50.4363571"></polygon>
                    <path d="M109.501834,50.3747341 L104.346047,50.3747341 L104.346047,39.8988338 L101.696261,39.8988338 C100.504884,39.8988338 99.5599987,38.9334077 99.5599987,37.7625718 L99.5599987,30.5526874 C99.5599987,29.3613105 100.525425,28.4164254 101.696261,28.4164254 C102.887638,28.4164254 103.832523,29.3818515 103.832523,30.5526874 L103.832523,35.6057688 L104.346047,35.6057688 L104.346047,28.1288516 C104.346047,26.7115239 105.496342,25.5406881 106.934211,25.5406881 C108.37208,25.5406881 109.522375,26.6909831 109.522375,28.1288516 L109.522375,38.645834 L109.604538,38.645834 L109.604538,33.1408511 C109.604538,31.9494742 110.569965,31.004589 111.7408,31.004589 C112.932177,31.004589 113.877063,31.9700152 113.877063,33.1408511 L113.877063,40.782096 C113.877063,41.9734729 112.911636,42.9183581 111.7408,42.918358 L109.522375,42.918358 L109.522375,50.3747341 L109.501834,50.3747341 Z M105.557965,49.1422753 L108.248834,49.1422753 L108.248834,41.7269811 L111.699719,41.7269811 C112.192702,41.7269811 112.603522,41.3161615 112.603522,40.823178 L112.603522,33.181933 C112.603522,32.6889495 112.192702,32.2781299 111.699719,32.2781299 C111.206735,32.2781299 110.795915,32.6889495 110.795915,33.181933 L110.795915,39.9193748 L108.248834,39.9193748 L108.248834,28.1288516 C108.248834,27.3893763 107.653145,26.7731469 106.893129,26.7731469 C106.133113,26.7731469 105.537424,27.3688354 105.537424,28.1288516 L105.537424,36.8176866 L102.558982,36.8176866 L102.558982,30.5321464 C102.558982,30.0391629 102.148162,29.6283433 101.655179,29.6283433 C101.162195,29.6283433 100.751376,30.0391629 100.751376,30.5321464 L100.751376,37.7420308 C100.751376,38.2350143 101.162195,38.645834 101.655179,38.645834 L105.537424,38.645834 L105.537424,49.1422753 L105.557965,49.1422753 Z" id="形状"></path>
                    <path d="M119.813406,50.1693243 L117.143079,50.1693243 L117.143079,45.2394889 L116.013325,45.2394889 C115.397095,45.2394889 114.883571,44.7259643 114.883571,44.1097349 L114.883571,40.720473 C114.883571,40.1042436 115.397095,39.5907191 116.013325,39.5907191 C116.629554,39.5907191 117.143079,40.1042436 117.143079,40.720473 L117.143079,42.979981 L117.143079,39.5907191 C117.143079,38.8512438 117.738767,38.2555553 118.478242,38.2555553 C119.217718,38.2555553 119.813406,38.8512438 119.813406,39.5907191 L119.813406,41.2956205 C120.018816,41.0080467 120.347472,40.8231779 120.73775,40.823178 C121.35398,40.823178 121.867504,41.3367025 121.867504,41.9529319 L121.867504,45.5476036 C121.867504,46.163833 121.35398,46.6773575 120.73775,46.6773575 L119.813406,46.6773575 L119.813406,50.1693243 L119.813406,50.1693243 Z M117.964718,49.3476851 L118.991767,49.3476851 L118.991767,45.8557183 L120.73775,45.8557183 C120.902078,45.8557183 121.045865,45.7119314 121.045865,45.5476036 L121.045865,41.9529319 C121.045865,41.7886041 120.902078,41.6448172 120.73775,41.6448172 C120.573422,41.6448172 120.429635,41.7886041 120.429635,41.9529319 L120.429635,45.2394889 L118.991767,45.2394889 L118.991767,39.5907191 C118.991767,39.3031453 118.765816,39.0771945 118.478242,39.0771945 C118.190669,39.0771945 117.964718,39.3031453 117.964718,39.5907191 L117.964718,43.8016202 L116.321439,43.8016202 L116.321439,40.720473 C116.321439,40.5561452 116.177652,40.4123583 116.013325,40.4123583 C115.848997,40.4123583 115.70521,40.5561452 115.70521,40.720473 L115.70521,44.1097349 C115.70521,44.2740627 115.848997,44.4178496 116.013325,44.4178496 L117.964718,44.4178496 L117.964718,49.3476851 L117.964718,49.3476851 Z" id="形状"></path>
                    <path d="M105.22931,45.4038167 C97.5469826,41.9734729 92.3911964,38.1528504 88.0365084,34.8868344 C82.6958533,30.9018841 78.4849522,27.759114 72.3637399,27.759114 C66.0165767,27.759114 60.7991676,32.4835397 56.2185288,36.6738998 C54.2055127,38.5020471 52.2952014,40.2274894 50.4670541,41.4188664 C43.1339238,46.163833 39.683039,47.8892755 32.3909907,49.3476851 L32.6374825,50.5596029 C40.1349406,49.0601113 43.6474484,47.3141279 51.1243654,42.4664564 C53.0346767,41.2134566 54.9860699,39.4674732 57.040168,37.5982439 C61.4770199,33.5722116 66.4890192,29.0121139 72.3637399,29.0121139 C78.0535916,29.0121139 81.935837,31.8878512 87.2970331,35.8933425 C91.8160489,39.2620634 97.156704,43.2470137 105.22931,46.7595214 L105.22931,45.4038167 L105.22931,45.4038167 Z M108.310457,46.6978985 L108.310457,48.0125213 C110.405637,48.8136196 112.665145,49.5941769 115.109521,50.3336521 L115.458718,49.1422753 C112.870554,48.382259 110.508342,47.5606198 108.310457,46.6978985 L108.310457,46.6978985 Z" id="形状"></path>
                </g>
            </g>
        </g>
    </g>
</svg>