<?xml version="1.0" encoding="UTF-8"?>
<svg width="286px" height="258px" viewBox="0 0 286 258" version="1.1" xmlns="http://www.w3.org/2000/svg" xmlns:xlink="http://www.w3.org/1999/xlink">
    <!-- Generator: Sketch 63.1 (92452) - https://sketch.com -->
    <title>空白页@1x</title>
    <desc>Created with Sketch.</desc>
    <g id="新版定稿（20202-8-22）" stroke="none" stroke-width="1" fill="none" fill-rule="evenodd">
        <g id="其他" transform="translate(-294.000000, -581.000000)">
            <g id="空白页-2" transform="translate(294.000000, 581.000000)">
                <g id="空白页">
                    <path d="M200.012043,55.966976 L83.9855055,55.966976 L141.998774,7.95780449 L200.012043,55.966976 Z M98.5718986,50.7200721 L185.425649,50.7200721 L141.998774,14.7787797 L98.5718986,50.7200721 Z" id="形状" fill="#EEEEEE" fill-rule="nonzero"></path>
                    <path d="M0,190 C0,205.463973 64.0232808,218 143,218 C221.976719,218 286,205.463973 286,190 C286,174.536027 221.976719,162 143,162 C64.0232808,162 0,174.536027 0,190 Z" id="路径" fill="#F9F9F9"></path>
                    <text id="暂无数据" font-family="PingFangSC-Regular, PingFang SC" font-size="18" font-weight="normal" letter-spacing="0.217058737" fill="#AAAAAA">
                        <tspan x="106" y="256">暂无数据</tspan>
                    </text>
                    <path d="M42.307598,49.8455879 L241.68995,49.8455879 C246.353865,49.8455879 248.685822,52.1775452 248.685822,56.84146 L248.685822,186.265092 C248.685822,190.929007 246.353865,193.260964 241.68995,193.260964 L42.307598,193.260964 C37.6436833,193.260964 35.311726,190.929007 35.311726,186.265092 L35.311726,56.84146 C35.311726,52.1775452 37.6436833,49.8455879 42.307598,49.8455879 Z" id="路径" fill="#FFFFFF" fill-rule="nonzero"></path>
                    <path d="M241.68995,194.57269 L42.307598,194.57269 C40.1042861,194.57269 37.991216,193.697428 36.4332391,192.139451 C34.8752623,190.581474 34,188.468404 34,186.265092 L34,56.84146 C34,52.2533003 37.7194383,48.5338619 42.307598,48.5338619 L241.68995,48.5338619 C246.27811,48.5338619 249.997548,52.2533003 249.997548,56.84146 L249.997548,186.265092 C249.997548,190.853252 246.27811,194.57269 241.68995,194.57269 L241.68995,194.57269 Z M42.307598,51.1573141 C39.1723171,51.1669168 36.6330548,53.706179 36.623452,56.84146 L36.623452,186.265092 C36.6330548,189.400373 39.1723171,191.939635 42.307598,191.949238 L241.68995,191.949238 C244.825231,191.939635 247.364493,189.400373 247.374096,186.265092 L247.374096,56.84146 C247.364493,53.7061791 244.825231,51.1669169 241.68995,51.1573141 L42.307598,51.1573141 Z" id="形状" fill="#EEEEEE" fill-rule="nonzero"></path>
                    <polygon id="路径" fill="#EEEEEE" fill-rule="nonzero" points="56.299342 67.335268 143.747742 67.335268 143.747742 175.771284 56.299342 175.771284"></polygon>
                    <g id="1" transform="translate(68.000000, 85.000000)" fill="#FFFFFF">
                        <rect id="矩形" x="5" y="0" width="2" height="60" rx="1"></rect>
                        <circle id="椭圆形" cx="6" cy="59" r="4"></circle>
                        <rect id="矩形" x="0" y="71" width="12" height="5"></rect>
                    </g>
                    <g id="1" transform="translate(95.000000, 85.000000)" fill="#FFFFFF">
                        <rect id="矩形" x="5" y="0" width="2" height="60" rx="1"></rect>
                        <circle id="椭圆形" cx="6" cy="59" r="4"></circle>
                        <rect id="矩形" x="0" y="71" width="12" height="5"></rect>
                    </g>
                    <g id="1" transform="translate(122.000000, 85.000000)" fill="#FFFFFF">
                        <rect id="矩形" x="5" y="0" width="2" height="60" rx="1"></rect>
                        <circle id="椭圆形" cx="6" cy="59" r="4"></circle>
                        <rect id="矩形" x="0" y="71" width="12" height="5"></rect>
                    </g>
                    <path d="M157.739486,67.335268 L225.949238,67.335268 L225.949238,77.829076 L157.739486,77.829076 L157.739486,67.335268 Z M157.739486,165.277476 L225.949238,165.277476 L225.949238,175.771284 L157.739486,175.771284 L157.739486,165.277476 Z M157.739486,132.047084 L225.949238,132.047084 L225.949238,142.540892 L157.739486,142.540892 L157.739486,132.047084 Z M157.739486,100.56566 L225.949238,100.56566 L225.949238,111.059468 L157.739486,111.059468 L157.739486,100.56566 Z" id="形状" fill="#EEEEEE" fill-rule="nonzero"></path>
                    <path d="M128.00703,16.6151959 C128.00703,24.3426228 134.271347,30.6069399 141.998774,30.6069399 C149.726201,30.6069399 155.990518,24.3426228 155.990518,16.6151959 C155.990518,8.88776904 149.726201,2.62345186 141.998774,2.62345186 C134.271347,2.62345186 128.00703,8.88776904 128.00703,16.6151959 L128.00703,16.6151959 Z" id="路径" fill="#EEEEEE" fill-rule="nonzero"></path>
                    <g id="编组-7" transform="translate(255.062500, 16.890625)" fill="#E6E6E6">
                        <path d="M4.296875,8.61328125 C3.8671875,8.61328125 3.53515625,8.26171875 3.53515625,7.8515625 L3.53515625,0.76171875 C3.53515625,0.33203125 3.88671875,8.8817842e-16 4.296875,8.8817842e-16 C4.70703125,8.8817842e-16 5.05859375,0.3515625 5.05859375,0.76171875 L5.05859375,7.8515625 C5.05859375,8.28125 4.7265625,8.61328125 4.296875,8.61328125 Z" id="路径"></path>
                        <path d="M7.83203125,5.078125 L0.76171875,5.078125 C0.33203125,5.078125 8.8817842e-15,4.7265625 8.8817842e-15,4.31640625 C8.8817842e-15,3.88671875 0.3515625,3.5546875 0.76171875,3.5546875 L7.8515625,3.5546875 C8.28125,3.5546875 8.61328125,3.90625 8.61328125,4.31640625 C8.61328125,4.7265625 8.26171875,5.078125 7.83203125,5.078125 L7.83203125,5.078125 Z" id="路径"></path>
                    </g>
                    <g id="编组-7" transform="translate(260.000000, 90.000000)" fill="#E6E6E6">
                        <path d="M4.296875,8.61328125 C3.8671875,8.61328125 3.53515625,8.26171875 3.53515625,7.8515625 L3.53515625,0.76171875 C3.53515625,0.33203125 3.88671875,8.8817842e-16 4.296875,8.8817842e-16 C4.70703125,8.8817842e-16 5.05859375,0.3515625 5.05859375,0.76171875 L5.05859375,7.8515625 C5.05859375,8.28125 4.7265625,8.61328125 4.296875,8.61328125 Z" id="路径"></path>
                        <path d="M7.83203125,5.078125 L0.76171875,5.078125 C0.33203125,5.078125 8.8817842e-15,4.7265625 8.8817842e-15,4.31640625 C8.8817842e-15,3.88671875 0.3515625,3.5546875 0.76171875,3.5546875 L7.8515625,3.5546875 C8.28125,3.5546875 8.61328125,3.90625 8.61328125,4.31640625 C8.61328125,4.7265625 8.26171875,5.078125 7.83203125,5.078125 L7.83203125,5.078125 Z" id="路径"></path>
                    </g>
                    <g id="编组-7" transform="translate(22.000000, 135.000000)" fill="#E6E6E6">
                        <path d="M4.296875,8.61328125 C3.8671875,8.61328125 3.53515625,8.26171875 3.53515625,7.8515625 L3.53515625,0.76171875 C3.53515625,0.33203125 3.88671875,8.8817842e-16 4.296875,8.8817842e-16 C4.70703125,8.8817842e-16 5.05859375,0.3515625 5.05859375,0.76171875 L5.05859375,7.8515625 C5.05859375,8.28125 4.7265625,8.61328125 4.296875,8.61328125 Z" id="路径"></path>
                        <path d="M7.83203125,5.078125 L0.76171875,5.078125 C0.33203125,5.078125 8.8817842e-15,4.7265625 8.8817842e-15,4.31640625 C8.8817842e-15,3.88671875 0.3515625,3.5546875 0.76171875,3.5546875 L7.8515625,3.5546875 C8.28125,3.5546875 8.61328125,3.90625 8.61328125,4.31640625 C8.61328125,4.7265625 8.26171875,5.078125 7.83203125,5.078125 L7.83203125,5.078125 Z" id="路径"></path>
                    </g>
                    <g id="编组-6" transform="translate(0.000000, 38.000000)" fill="#E6E6E6">
                        <path d="M7.5,15 C6.67372881,15 6,14.3879908 6,13.6374134 L6,1.36258661 C6,0.612009238 6.67372881,0 7.5,0 C8.32627119,0 9,0.612009238 9,1.36258661 L9,13.6374134 C9,14.3879908 8.32627119,15 7.5,15 Z" id="路径"></path>
                        <path d="M13.6363636,9 L1.36363636,9 C0.61248074,9 0,8.32627119 0,7.5 C0,6.67372881 0.61248074,6 1.36363636,6 L13.6363636,6 C14.3875193,6 15,6.67372881 15,7.5 C15,8.32627119 14.3875193,9 13.6363636,9 Z" id="路径"></path>
                    </g>
                    <g id="编组-6" transform="translate(264.000000, 26.000000)" fill="#E6E6E6">
                        <path d="M7.5,15 C6.67372881,15 6,14.3879908 6,13.6374134 L6,1.36258661 C6,0.612009238 6.67372881,0 7.5,0 C8.32627119,0 9,0.612009238 9,1.36258661 L9,13.6374134 C9,14.3879908 8.32627119,15 7.5,15 Z" id="路径"></path>
                        <path d="M13.6363636,9 L1.36363636,9 C0.61248074,9 0,8.32627119 0,7.5 C0,6.67372881 0.61248074,6 1.36363636,6 L13.6363636,6 C14.3875193,6 15,6.67372881 15,7.5 C15,8.32627119 14.3875193,9 13.6363636,9 Z" id="路径"></path>
                    </g>
                    <path d="M141.998774,33.230392 C132.822455,33.230392 125.383578,25.7915154 125.383578,16.6151962 C125.383578,7.43887687 132.822455,1.95312168e-07 141.998774,1.95312168e-07 C151.175093,1.95312168e-07 158.61397,7.43887661 158.61397,16.6151959 C158.60433,25.7875193 151.171097,33.220752 141.998774,33.230392 L141.998774,33.230392 Z M141.998774,5.24690391 C135.72024,5.24690391 130.630482,10.3366616 130.630482,16.6151959 C130.630482,22.8937302 135.72024,27.9834879 141.998774,27.9834879 C148.277308,27.9834879 153.367066,22.8937302 153.367066,16.6151959 C153.357435,10.3406552 148.273315,5.25653482 141.998774,5.24690391 L141.998774,5.24690391 Z" id="形状" fill="#EEEEEE" fill-rule="nonzero"></path>
                </g>
            </g>
        </g>
    </g>
</svg>