<?xml version="1.0" encoding="UTF-8"?>
<svg width="32px" height="20px" viewBox="0 0 32 20" version="1.1" xmlns="http://www.w3.org/2000/svg" xmlns:xlink="http://www.w3.org/1999/xlink">
    <!-- Generator: Sketch 63.1 (92452) - https://sketch.com -->
    <title>眼睛-绿色@1x</title>
    <desc>Created with Sketch.</desc>
    <g id="新版定稿（20202-8-22）" stroke="none" stroke-width="1" fill="none" fill-rule="evenodd">
        <g id="画板" transform="translate(-18.000000, -1144.000000)" fill="#17B881" fill-rule="nonzero">
            <g id="眼睛-绿色" transform="translate(18.000000, 1144.000000)">
                <path d="M16,4.640625 C13.290625,4.640625 11.09375,6.896875 11.09375,9.678125 C11.09375,12.459375 13.290625,14.7125 16,14.7125 C18.709375,14.7125 20.90625,12.45625 20.90625,9.675 C20.90625,6.89375 18.709375,4.640625 16,4.640625 Z" id="路径"></path>
                <path d="M16,0.0125 C6.875,0.0125 0.015625,6.484375 0.015625,9.68125 C0.015625,12.88125 6.846875,19.3625 16,19.3625 C25.39375,19.3625 31.9843761,12.771875 31.9843761,9.68125 C31.9875,6.484375 25.465625,0.0125 16,0.0125 Z M16.0125,17.59375 C11.7625,17.59375 8.3125,14.053125 8.3125,9.6875 C8.3125,5.321875 11.759375,1.78125 16.015625,1.78125 C20.271875,1.78125 23.71875,5.321875 23.71875,9.6875 C23.71875,14.053125 20.26875,17.59375 16.0125,17.59375 Z" id="形状"></path>
            </g>
        </g>
    </g>
</svg>