<?xml version="1.0" encoding="UTF-8"?>
<svg width="17px" height="11px" viewBox="0 0 17 11" version="1.1" xmlns="http://www.w3.org/2000/svg" xmlns:xlink="http://www.w3.org/1999/xlink">
    <!-- Generator: Sketch 63.1 (92452) - https://sketch.com -->
    <title>眼睛-高亮@1x</title>
    <desc>Created with Sketch.</desc>
    <g id="新版定稿（20202-8-22）" stroke="none" stroke-width="1" fill="none" fill-rule="evenodd">
        <g id="画板" transform="translate(-73.000000, -616.000000)" fill="#333333" fill-rule="nonzero">
            <g id="眼睛-高亮" transform="translate(73.000000, 616.000000)">
                <path d="M16.584375,5.1225 C15.2175,2.58375 11.953125,0.016875 8.38125,0.016875 C4.809375,0.016875 1.545,2.58375 0.178125,5.1225 L0.01125,5.401875 L0.178125,5.68125 C1.545,8.191875 4.809375,10.75875 8.38125,10.75875 C11.953125,10.75875 15.2175,8.191875 16.584375,5.68125 L16.75125,5.401875 L16.584375,5.1225 Z M12.87375,8.499375 C11.870625,9.16875 10.27875,9.97875 8.38125,9.97875 C6.48375,9.97875 4.89375,9.16875 3.88875,8.499375 C2.6325,7.663125 1.573125,6.5175 0.90375,5.37375 C1.21125,4.815 1.629375,4.28625 2.10375,3.755625 C2.634375,3.196875 3.219375,2.668125 3.88875,2.248125 C4.89375,1.606875 6.48375,0.796875 8.38125,0.796875 C10.27875,0.796875 11.86875,1.606875 12.87375,2.248125 C13.515,2.694375 14.13,3.196875 14.65875,3.755625 C15.133125,4.28625 15.55125,4.815 15.85875,5.37375 C15.189375,6.545625 14.13,7.689375 12.87375,8.499375 L12.87375,8.499375 Z" id="形状"></path>
                <path d="M8.38125,3.114375 C7.125,3.114375 6.09375,4.1475 6.09375,5.401875 C6.09375,6.65625 7.126875,7.689375 8.38125,7.689375 C9.635625,7.689375 10.66875,6.65625 10.66875,5.401875 C10.66875,4.1475 9.6375,3.114375 8.38125,3.114375 Z" id="路径"></path>
            </g>
        </g>
    </g>
</svg>