<?xml version="1.0" encoding="UTF-8"?>
<svg width="40px" height="40px" viewBox="0 0 40 40" version="1.1" xmlns="http://www.w3.org/2000/svg" xmlns:xlink="http://www.w3.org/1999/xlink">
    <!-- Generator: Sketch 63.1 (92452) - https://sketch.com -->
    <title>钉一下-高亮@1x</title>
    <desc>Created with Sketch.</desc>
    <g id="新版定稿（20202-8-22）" stroke="none" stroke-width="1" fill="none" fill-rule="evenodd">
        <g id="钉一下-高亮" fill="#FFFFFF">
            <rect id="透明背景" opacity="0.24" x="0" y="0" width="40" height="40" rx="20"></rect>
            <path d="M28.7434163,16.4256013 L23.5749606,11.2562727 C23.4145255,11.0952297 23.1843105,11.0099067 22.9684678,11 C22.7410492,11.0027531 22.5246645,11.1060252 22.3681096,11.2702764 C21.4529293,12.2292937 21.0145671,13.536475 21.1513738,14.8427242 L19.4506662,16.5437225 C18.6404484,16.2300692 17.7692517,16.0659914 16.8985102,16.0659914 C15.0231905,16.0659914 13.2598784,16.7961149 11.9355355,18.1205299 L11.8102612,18.2451761 C11.65143,18.4032954 11.5620866,18.6181451 11.5619673,18.8422641 C11.5619673,19.0661287 11.6504548,19.2812356 11.8091774,19.4396989 L15.2648729,22.8954128 L11.1225212,28.0870693 C11.0456311,28.1831445 11,28.3045824 11,28.4375095 C11,28.7484097 11.2516106,29 11.5624875,29 C11.6953489,29 11.8173064,28.9543253 11.9128608,28.8774348 L17.1039912,24.7351262 L20.5596433,28.19084 C20.7179162,28.3490392 20.9325156,28.4379389 21.1562946,28.4380081 C21.380035,28.4379378 21.5945937,28.3490356 21.7528158,28.19084 L21.8780249,28.0655651 C23.8611035,26.0825845 24.460898,23.1294442 23.4567316,20.5487036 L25.1573957,18.8483122 C26.4708782,18.983472 27.7766002,18.5404468 28.7291525,17.632632 C28.8933378,17.4758596 28.997173,17.2594087 28.9999426,17.0322707 C29.0027224,16.8048943 28.9043933,16.5862973 28.7434163,16.4256013 Z M25.0387982,17.1234467 C24.7597438,17.0638767 24.4692221,17.150457 24.2669928,17.3522755 L21.8561307,19.7631938 C21.6006398,20.0186211 21.5358458,20.4087096 21.6956522,20.7327248 C22.6086431,22.5855964 22.3685649,24.7735605 21.1266398,26.3715253 L13.6285258,18.872526 C14.559509,18.1468899 15.6988562,17.7535497 16.8984886,17.7535497 C17.7175509,17.7535497 18.5365481,17.9438357 19.2672313,18.3042476 C19.5902259,18.4632745 19.9807026,18.3998675 20.2366921,18.1438767 L22.6476626,15.7329367 C22.8499155,15.5311145 22.9359522,15.2404576 22.8761433,14.9610622 C22.8353438,14.7683556 22.81474,14.5719214 22.814666,14.3749431 C22.814666,13.9519913 22.9091148,13.5359114 23.08984,13.1576805 L26.8422787,16.9109195 C26.4675399,17.0902366 26.0479287,17.1839056 25.6249792,17.1841874 C25.4279962,17.1845523 25.2315212,17.1641934 25.0387982,17.1234467 L25.0387982,17.1234467 Z" id="形状" fill-rule="nonzero"></path>
        </g>
    </g>
</svg>