<?xml version="1.0" encoding="UTF-8"?>
<svg width="26px" height="26px" viewBox="0 0 26 26" version="1.1" xmlns="http://www.w3.org/2000/svg" xmlns:xlink="http://www.w3.org/1999/xlink">
    <!-- Generator: Sketch 63.1 (92452) - https://sketch.com -->
    <title>钉-白色@1x</title>
    <desc>Created with Sketch.</desc>
    <defs>
        <rect id="path-1" x="0" y="0" width="485.625853" height="179.572261" rx="12.4919834"></rect>
    </defs>
    <g id="新版定稿（20202-8-22）" stroke="none" stroke-width="1" fill="none" fill-rule="evenodd">
        <g id="画板" transform="translate(-47.000000, -1107.000000)">
            <g id="编组-6" transform="translate(-429.000000, 939.000000)">
                <g id="标签" transform="translate(0.000000, 6.000000)">
                    <mask id="mask-2" fill="white">
                        <use xlink:href="#path-1"></use>
                    </mask>
                    <g id="蒙版"></g>
                </g>
            </g>
            <g id="钉-白色" transform="translate(47.000000, 1107.000000)" fill="#FFFFFF" fill-rule="nonzero">
                <path d="M25.5787813,7.82203125 L18.128,0.37003125 C17.8967188,0.137875 17.5648438,0.014875 17.2536875,0.00059375 C16.9258438,0.0045625 16.6139063,0.1534375 16.3882188,0.39021875 C15.0689063,1.77271875 14.4369688,3.657125 14.6341875,5.5401875 L12.1824688,7.9923125 C11.0144688,7.54015625 9.7585625,7.303625 8.5033125,7.303625 C5.799875,7.303625 3.25790625,8.35615625 1.34875,10.2654062 L1.16815625,10.4450937 C0.939187095,10.6730353 0.810390721,10.9827583 0.81021875,11.3058438 C0.81021875,11.6285625 0.93778125,11.9386563 1.16659375,12.1670938 L6.14828125,17.1487812 L0.17671875,24.6329687 C0.065875,24.7714688 9.375e-05,24.9465312 9.375e-05,25.1381563 C9.375e-05,25.5863438 0.3628125,25.9490313 0.81096875,25.9490313 C1.0025,25.9490313 1.1783125,25.8831875 1.3160625,25.7723438 L8.79953125,19.800875 L13.7811563,24.7825625 C14.0093204,25.0106193 14.3186844,25.1387753 14.6412813,25.138875 C14.9638227,25.1387736 15.2731277,25.010614 15.5012188,24.7825625 L15.6817188,24.6019688 C18.5405,21.7433438 19.4051563,17.4861563 17.9575625,13.7658125 L20.4092188,11.3145625 C22.3027188,11.5094063 24.1850313,10.87075 25.5582188,9.5620625 C25.7949063,9.3360625 25.9445938,9.02403125 25.9485863,8.69659375 C25.9525938,8.3688125 25.8108438,8.0536875 25.5787813,7.82203125 Z M20.23825,8.82803125 C19.8359688,8.74215625 19.4171563,8.86696875 19.125625,9.15790625 L15.6501563,12.6334375 C15.2818438,13.0016562 15.1884375,13.564 15.4188125,14.0310938 C16.7349688,16.7021563 16.388875,19.8562813 14.5985313,22.159875 L3.78934375,11.3494687 C5.1314375,10.3034063 6.77390625,9.736375 8.50328125,9.736375 C9.68403125,9.736375 10.8646875,10.0106875 11.9180313,10.53025 C12.3836563,10.7595 12.9465625,10.6680937 13.3155938,10.2990625 L16.7912188,6.8235 C17.0827841,6.53255714 17.2068135,6.11355196 17.1205938,5.71078125 C17.0617777,5.43297928 17.0320755,5.1498037 17.0319688,4.86584375 C17.0319688,4.256125 17.168125,3.6563125 17.4286562,3.1110625 L22.838125,8.52165625 C22.2979063,8.78015625 21.693,8.9151875 21.0832813,8.91559375 C20.799313,8.91611978 20.5160772,8.88677077 20.23825,8.82803125 L20.23825,8.82803125 Z" id="形状"></path>
            </g>
        </g>
    </g>
</svg>