<?xml version="1.0" encoding="UTF-8"?>
<svg width="54px" height="53px" viewBox="0 0 54 53" version="1.1" xmlns="http://www.w3.org/2000/svg" xmlns:xlink="http://www.w3.org/1999/xlink">
    <!-- Generator: Sketch 63.1 (92452) - https://sketch.com -->
    <title>交付时间-黑色@1x</title>
    <desc>Created with Sketch.</desc>
    <g id="2021.4.9-图标由绿色改蓝色" stroke="none" stroke-width="1" fill="none" fill-rule="evenodd">
        <g id="图标切图" transform="translate(-95.000000, -352.000000)">
            <g id="交付时间-2" transform="translate(96.000000, 353.000000)">
                <g id="交付时间-黑色">
                    <g id="时间-(1)" transform="translate(0.000000, 0.614158)">
                        <path d="M5.69936691,27.5279532 L2.77000602,27.5279532 C1.68001126,27.5279532 0.828452864,26.6423324 0.828452864,25.5864 C0.828452864,24.4964052 1.7140736,23.6448468 2.77000602,23.6448468 L5.69936691,23.6448468 C6.78936166,23.6448468 7.64092006,24.5304676 7.64092006,25.5864 C7.64092006,26.6423324 6.78936166,27.5279532 5.69936691,27.5279532 Z" id="路径" stroke="#3E474D" stroke-width="2.4" fill="#3E474D" fill-rule="nonzero"></path>
                        <path d="M49.1940454,27.5279532 L46.2987469,27.5279532 C45.2087521,27.5279532 44.3571937,26.6423324 44.3571937,25.5864 C44.3571937,24.4964052 45.2428145,23.6448468 46.2987469,23.6448468 L49.2281078,23.6448468 C50.3181025,23.6448468 51.1696609,24.5304676 51.1696609,25.5864 C51.1696609,26.6423324 50.2840402,27.5279532 49.1940454,27.5279532 Z" id="路径" stroke="#3E474D" stroke-width="2.4" fill="#3E474D" fill-rule="nonzero"></path>
                        <path d="M27.2919634,6.8124672 C27.2919634,6.8124672 27.2919634,6.8124672 27.2919634,6.8124672 C26.2019686,6.8124672 25.3504102,5.92684646 25.3504102,4.87091405 L25.3504102,1.94155315 C25.3504102,0.8515584 26.236031,0 27.2919634,0 C27.2919634,0 27.2919634,0 27.2919634,0 C28.3819581,0 29.2335165,0.885620736 29.2335165,1.94155315 L29.2335165,4.87091405 C29.2335165,5.92684646 28.3478958,6.8124672 27.2919634,6.8124672 Z" id="路径" stroke="#3E474D" stroke-width="2.4" fill="#3E474D" fill-rule="nonzero"></path>
                        <path d="M27.2919634,49.4640975 C26.2019686,49.4640975 25.3504102,48.5784768 25.3504102,47.5225444 L25.3504102,44.5931835 C25.3504102,43.5031887 26.236031,42.6516303 27.2919634,42.6516303 C27.2919634,42.6516303 27.2919634,42.6516303 27.2919634,42.6516303 C28.3819581,42.6516303 29.2335165,43.5372511 29.2335165,44.5931835 L29.2335165,47.5225444 C29.2335165,48.5784768 28.3478958,49.4640975 27.2919634,49.4640975 C27.2919634,49.4640975 27.2919634,49.4640975 27.2919634,49.4640975 Z" id="路径" stroke="#3E474D" stroke-width="2.4" fill="#3E474D" fill-rule="nonzero"></path>
                        <path d="M22.2044191,35.3201578 L13.1053232,25.7625629 C12.2182256,24.8297219 12.2182256,23.315915 13.1053232,22.383074 C13.994716,21.4501859 15.4348095,21.4501859 16.3219071,22.383074 L23.8127335,30.2508774 L38.1260929,15.2166669 C39.0131905,14.2813777 40.453284,14.2813777 41.3426768,15.2166669 C42.2297744,16.1495079 42.2297744,17.6609137 41.3426768,18.5937547 L25.4210029,35.3201578 C24.976329,35.7854013 24.3933612,36.0192 23.8127335,36.0192 C23.2297656,36.0192 22.6491379,35.7854013 22.2044191,35.3201578 Z" id="对号---勾选" fill="#1890FF"></path>
                    </g>
                </g>
            </g>
        </g>
    </g>
</svg>