<?xml version="1.0" encoding="UTF-8"?>
<svg width="38px" height="41px" viewBox="0 0 38 41" version="1.1" xmlns="http://www.w3.org/2000/svg" xmlns:xlink="http://www.w3.org/1999/xlink">
    <!-- Generator: Sketch 63.1 (92452) - https://sketch.com -->
    <title>执行人-黑色@1x</title>
    <desc>Created with Sketch.</desc>
    <g id="2021.4.9-图标由绿色改蓝色" stroke="none" stroke-width="1" fill="none" fill-rule="evenodd">
        <g id="图标切图" transform="translate(-104.000000, -436.000000)">
            <g id="执行人-2" transform="translate(104.000000, 436.000000)">
                <g id="执行人-黑色">
                    <g id="编组-12">
                        <path d="M23.9360039,29.894604 L23.9360039,38.0625474 C20.5021229,38.0618129 17.6168999,38.0609089 17.6168999,38.0609089 C17.6168999,38.0609089 9.79386707,38.0634514 4.58066237,38.0634514 C1.97324657,38.0634514 0.0195079685,38.0626039 0.0210787685,38.0609089 C0.0234910685,38.0583665 0.0210787685,36.2284651 0.0210787685,36.2284651 C0.0210787685,36.2284651 -0.491619132,31.843832 3.54006347,28.8994807 C7.77437927,25.8073271 9.91880177,26.2733903 12.3380021,24.3183428 C13.1703017,23.6465089 13.9785344,22.5639811 14.0346344,21.7233271 C14.1131183,20.5526603 13.2295994,20.089083 12.3380021,18.8218023 C11.1091877,17.074164 7.93942547,12.4081641 7.93942547,12.4081641 L7.93942547,10.5765678 L8.81896127,10.5765678 C8.81896127,10.5765678 8.81733437,8.59796007 8.81896127,6.91162358 C8.82058817,5.22528709 8.95275977,4.42418262 10.5788744,2.75795991 C13.054904,0.22176 16.237457,2.26900738e-13 17.2740167,2.26900738e-13 C17.4934799,2.26900738e-13 17.6168438,0.0100568866 17.6168438,0.0100568866 L25.5344051,0.0100568866 C25.5344051,0.0100568866 26.4131555,5.22523059 26.4147824,6.91156708 C26.4164093,8.59790357 26.4147824,10.5765113 26.4147824,10.5765113 L27.2943182,10.5765113 L27.2943182,12.4081076 C27.2943182,12.4081076 24.124556,17.0741075 22.8957416,18.8217458 C22.0042004,20.0890265 21.1206254,20.5526038 21.1991093,21.7232706 C21.2552093,22.5639246 22.063442,23.6464524 22.8957416,24.3182863 C23.9100857,25.1383181 24.8763521,25.5324012 25.9688435,25.941739 C24.7380095,26.8169142 23.9360039,28.2614899 23.9360039,29.894604 Z" id="由我指派的" fill="#3E474D" fill-rule="nonzero"></path>
                        <rect id="矩形" fill="#1890FF" x="25.85088" y="28.1140831" width="11.996161" height="12.0983977" rx="2.89066608"></rect>
                        <path d="M34.899701,31.696896 L34.741174,31.7114202 C34.5828918,31.7418559 34.4356938,31.8193878 34.3137832,31.9379529 L31.2356344,34.9446451 L29.5457332,33.3499373 C29.2333836,33.0375516 28.7179383,33.0361968 28.3928011,33.3523241 C28.0682293,33.6700154 28.0689217,34.1839203 28.3958498,34.5083508 L30.6080301,36.5994462 L30.6696691,36.6663217 C30.8148014,36.813968 31.0248389,36.900864 31.2445796,36.900864 C31.4662487,36.8986464 31.6758961,36.8099156 31.8278411,36.6535358 L35.4697218,33.0920339 C35.7957212,32.7818071 35.8005584,32.2682175 35.4785176,31.9377365 C35.3625597,31.8217352 35.2165174,31.7442631 35.0598104,31.7127771 L34.899701,31.696896 Z" id="路径" fill="#FFFFFF" fill-rule="nonzero"></path>
                    </g>
                </g>
            </g>
        </g>
    </g>
</svg>