<?xml version="1.0" encoding="UTF-8"?>
<svg width="40px" height="40px" viewBox="0 0 40 40" version="1.1" xmlns="http://www.w3.org/2000/svg" xmlns:xlink="http://www.w3.org/1999/xlink">
    <!-- Generator: Sketch 63.1 (92452) - https://sketch.com -->
    <title>bangzhu@1x</title>
    <desc>Created with Sketch.</desc>
    <g id="控件" stroke="none" stroke-width="1" fill="none" fill-rule="evenodd">
        <g id="head功能菜单" transform="translate(-109.000000, 0.000000)" fill="#FFFFFF">
            <g id="bangzhu">
                <g transform="translate(109.000000, 0.000000)">
                    <rect id="透明背景" opacity="0.24" x="0" y="0" width="40" height="40" rx="20"></rect>
                    <g id="编组-17" transform="translate(14.000000, 10.000000)">
                        <path d="M6.12910345,0 C7.76353103,0 9.19365516,0.423200009 10.2151724,1.48119999 C11.2366896,2.32760001 11.8496,3.8088 11.8496,5.29 C11.8496,6.55959999 11.4409931,7.82920001 10.8280827,8.67559999 C10.6237793,8.8872 9.80656552,9.73359998 8.5807448,10.7916 C8.1721379,11.2148 7.763531,11.638 7.55922758,12.2728 C7.35492413,12.9076 7.15062068,13.5424 7.15062068,13.9656 L7.15062068,14.3888 L4.29037242,14.3888 L4.29037242,13.9656 C4.29037242,12.9076 4.49467587,12.0612 4.90328274,11.4264 C5.31188964,10.58 6.33340687,9.52200001 7.76353103,8.04080002 L8.17213794,7.61760001 C8.58074484,6.9828 8.98935174,6.34800002 8.98935171,5.71320001 C8.98935171,4.86679999 8.78504826,4.02040001 8.17213794,3.5972 C7.55922758,2.96239999 6.94631726,2.75079998 5.9248,2.75079998 C4.69897932,2.75079998 3.88176552,3.17399999 3.26885516,3.8088 C2.86024826,4.44360002 2.6559448,5.29 2.65594484,6.55959999 L0,6.55959999 C0,4.65519998 0.612910356,2.96239999 1.63442758,1.9044 C2.6559448,0.634800013 4.29037242,0 6.12910345,0 L6.12910345,0 Z" id="路径"></path>
                        <circle id="椭圆形" cx="5.9248" cy="17.7744" r="1.6928"></circle>
                    </g>
                </g>
            </g>
        </g>
    </g>
</svg>