<?xml version="1.0" encoding="UTF-8"?>
<svg width="60px" height="60px" viewBox="0 0 60 60" version="1.1" xmlns="http://www.w3.org/2000/svg" xmlns:xlink="http://www.w3.org/1999/xlink">
    <!-- Generator: Sketch 63.1 (92452) - https://sketch.com -->
    <title>ios@1x</title>
    <desc>Created with Sketch.</desc>
    <g id="页面-1" stroke="none" stroke-width="1" fill="none" fill-rule="evenodd">
        <g id="首页" transform="translate(-310.000000, -1201.000000)">
            <g id="编组-15" transform="translate(296.000000, 1201.000000)">
                <g id="ios" transform="translate(14.000000, 0.000000)">
                    <circle id="椭圆形" stroke="#6F8397" stroke-width="1.6" cx="29.6" cy="29.6" r="28.8"></circle>
                    <path d="M30.0965314,20.9251567 L30.0965313,20.9251567 C30.4473346,20.9171836 30.7960613,20.8686613 31.1358224,20.7805477 L31.2957132,20.7805477 L31.2957129,20.7805478 C31.6638804,20.6589443 32.0177365,20.49731 32.3509917,20.2985187 L32.4948935,20.2985187 L32.4948941,20.2985185 C32.8159619,20.1223249 33.1209382,19.9180088 33.4062689,19.6879476 L33.5181924,19.5915418 L33.5181923,19.5915419 C33.8059305,19.3459928 34.0732991,19.0773118 34.3176474,18.7881582 L34.4135818,18.6917524 L34.4135821,18.691752 C34.6576047,18.3886847 34.8768362,18.0662806 35.0691333,17.727694 L35.0691333,17.6152204 L35.0691331,17.6152208 C35.2599612,17.2655437 35.4204467,16.8999913 35.548805,16.5226209 L35.548805,16.4422789 L35.548805,16.4422792 C35.6774822,16.0557174 35.7685138,15.6575137 35.8206192,15.2532758 L35.8206194,15.2532743 C35.8672204,14.836828 35.8672204,14.4164463 35.8206194,14 L35.8206188,14 C32.3344503,14.3830647 29.7214779,17.3859854 29.8087293,20.9090808 L30.0965314,20.9251567 Z M38.7306494,32.2367874 L38.7306495,32.2367878 C38.4160729,31.4177672 38.2692378,30.5433659 38.2989436,29.6659624 L38.2989433,29.6659704 C38.3206956,29.0815396 38.4229311,28.5029581 38.602733,27.9467333 L38.6027331,27.9467331 C38.7880584,27.3770538 39.0517676,26.8362275 39.3861976,26.3399687 L39.3861976,26.3399686 C39.9431082,25.5172214 40.6612899,24.8173813 41.4967582,24.2833077 L41.4967582,24.2833078 C40.420564,22.738632 38.7737233,21.6912793 36.9238785,21.3750614 L36.9238785,21.3750614 C36.5808866,21.3077218 36.2335929,21.2647681 35.8845874,21.2465202 L33.9499092,21.2465202 L33.4862249,21.3750614 L33.1344663,21.487535 L32.6867728,21.6482114 L32.3669925,21.9052939 L31.8393516,22.1141736 L31.4076457,22.2909178 L31.1038531,22.4033913 L30.7361038,22.5158648 L30.5282456,22.5158648 L30.5282456,22.5158648 C30.3635651,22.5348495 30.197266,22.5348495 30.0325831,22.5158648 L30.0325832,22.5158648 C29.8731285,22.5326476 29.7123668,22.5326476 29.5529113,22.5158649 L29.3770314,22.5158649 L29.0252728,22.419459 L28.7694474,22.3230532 L28.4016981,22.2266474 L27.7941129,21.9856326 L27.554279,21.9052853 L27.1225731,21.7446089 L26.8347697,21.6482031 L26.4350421,21.5196618 L26.1312495,21.5196618 L25.7155342,21.4393234 L25.395754,21.4393234 L25.012017,21.3268499 L25.0120173,21.3268499 C24.0297971,21.3322627 23.0579041,21.5286874 22.1499706,21.9052853 L22.1499704,21.9052854 C18.836495,23.3786723 16.7879419,26.7712194 17.0174774,30.4050703 L17.0174774,32.0118347 C17.0174774,32.1403759 17.0174774,32.5902701 17.129401,32.8794893 C17.2413245,33.168707 17.129401,33.200841 17.2253353,33.3615183 C17.3212697,33.5221948 17.3212697,33.8756828 17.3852261,34.1327666 C17.4491824,34.3898491 17.4811605,34.4701875 17.5291279,34.6308648 C17.5770951,34.7915412 17.6570406,35.1128938 17.7369862,35.3539083 C17.8169317,35.5949232 17.8648989,35.7073955 17.9288552,35.8841421 L18.1686915,36.5589839 L18.3925386,37.0731484 C18.4884729,37.282028 18.5684185,37.5069757 18.6643528,37.7158547 L18.9041891,38.1978838 L19.2239694,38.8245209 L19.4957836,39.2904837 L19.8315546,39.8689191 L20.119358,40.3027464 L20.4711166,40.8329801 L20.7749092,41.234672 L21.1426585,41.7006348 L21.4624388,42.0701911 L21.830188,42.471883 L22.1659589,42.7932347 L22.5337082,43.1306556 L22.8694791,43.3877381 L23.2372284,43.6608881 L23.5729993,43.8537 L23.9247579,44.0465119 L24.2445382,44.1589855 L24.5962968,44.271459 L25.0120121,44.4 L25.3797613,44.4 L25.3797611,44.4 C25.8143121,44.3836301 26.2446296,44.3079546 26.6588852,44.1750535 L26.6588857,44.1750533 C27.8307746,43.5843885 29.1082195,43.23478 30.4163314,43.1467243 L30.4163316,43.1467243 C30.6825097,43.1285602 30.9496063,43.1285602 31.2157867,43.1467243 L31.4716122,43.1467243 L31.9033181,43.2431301 L32.1751323,43.3234685 L32.5109033,43.435942 L32.7987067,43.5484155 L33.214422,43.7251597 L33.5821712,43.8858362 L33.8220075,43.9661745 L34.1417877,44.0786481 L35.5008621,44.0786481 L35.5008619,44.0786481 C36.5687167,43.9863249 37.5703749,43.5199996 38.3309303,42.7610999 L38.3309304,42.7610998 C39.8050247,41.3468679 41.0034183,39.6685045 41.8645072,37.8122557 L41.8645071,37.8122559 C42.1353693,37.3108722 42.3808477,36.7960519 42.6,36.2697714 L42.6,36.2697715 C40.8335587,35.4877638 39.4438203,34.0392708 38.7306494,32.2367838 L38.7306494,32.2367874 Z" id="形状" fill="#6F8397" fill-rule="nonzero"></path>
                </g>
            </g>
        </g>
    </g>
</svg>