<?xml version="1.0" encoding="UTF-8"?>
<svg width="121px" height="128px" viewBox="0 0 121 128" version="1.1" xmlns="http://www.w3.org/2000/svg" xmlns:xlink="http://www.w3.org/1999/xlink">
    <!-- Generator: Sketch 63.1 (92452) - https://sketch.com -->
    <title>link@1x</title>
    <desc>Created with Sketch.</desc>
    <g id="新版定稿（20202-8-22）" stroke="none" stroke-width="1" fill="none" fill-rule="evenodd">
        <g id="切图" transform="translate(-847.000000, -512.000000)" fill-rule="nonzero">
            <g id="link" transform="translate(847.000000, 512.000000)">
                <g id="google-docs">
                    <g id="Docs_3_">
                        <path d="M96.768,33.4966154 L70.715077,26.052923 L63.2713846,0 L11.1655385,0 C4.99893563,0 0,4.99893563 0,11.1655385 L0,115.873477 C0,122.040079 4.99893563,127.039015 11.1655385,127.039015 L85.6024615,127.039015 C91.7690644,127.039015 96.768,122.040079 96.768,115.873477 L96.768,33.4966154 Z" id="路径" fill="#2699F7"></path>
                        <path d="M96.768,33.4966154 L96.768,115.873477 C96.768,122.040079 91.7690644,127.039015 85.6024615,127.039015 L48.384,127.039015 L48.384,0 L63.2713846,0 L70.715077,26.052923 L96.768,33.4966154 Z" id="路径" fill="#1885DF"></path>
                        <path d="M41.9989584,40 C28.2141161,40 17,51.2166667 17,65 C17,78.7833333 28.2141161,90 41.9989584,90 C55.7858839,90 67,78.7854167 67,65 C67,51.2145833 55.7858839,40 41.9989584,40 Z M48.5945169,86.76875 C49.0569976,86.2875 49.5132286,85.73125 49.9923753,85.0770833 L50.1152869,84.90625 C51.0360818,83.6125 51.848548,82.1416667 52.5943502,80.4041667 L52.8901712,79.64375 L53.2193242,79.8041667 C54.6171826,80.4833333 55.9233782,81.325 57.1004125,82.3020833 L57.4108162,82.5604167 L57.1024957,82.8229167 C54.7165357,84.8628657 51.9400691,86.3954088 48.9424191,87.3270833 L47.6903879,87.7166667 L48.5945169,86.76875 L48.5945169,86.76875 Z M53.8317987,66.1604167 C53.7338861,70.0416667 53.1380776,73.8520833 52.111037,77.18125 L52.0068747,77.525 L51.6673055,77.3958333 C49.0507479,76.4270833 46.1800342,75.875 43.1384942,75.7583333 L42.8093413,75.7458333 L42.8093413,65.8104167 L53.8380484,65.8104167 L53.8317987,66.1604167 L53.8317987,66.1604167 Z M51.4839798,79.0416667 L51.3569018,79.3645833 C49.3569851,84.45 46.4654389,87.6083333 43.2176576,88.2541667 L42.8093413,88.3333333 L42.8093413,77.3645833 L43.1634932,77.38125 C46.0217074,77.4979167 48.7111787,78.0145833 51.1569101,78.9229167 L51.4839798,79.0416667 L51.4839798,79.0416667 Z M57.0983292,47.6958333 C55.9106365,48.6785708 54.6106493,49.517059 53.2255739,50.19375 L52.8297571,50.2375 L52.6985126,49.8708333 L52.5297696,49.4416667 C51.8791972,47.9091176 51.0684778,46.4496222 50.1111204,45.0875 L49.9882088,44.91875 C49.5621395,44.3249507 49.0957833,43.7611234 48.5924336,43.23125 L47.6883047,42.2791667 L48.9382526,42.66875 C51.9358192,43.6016392 54.7121842,45.1348349 57.0983292,47.175 L57.4066497,47.4354167 L57.0983292,47.6958333 L57.0983292,47.6958333 Z M51.6673055,52.6041667 L52.0068747,52.4770833 L52.111037,52.8208333 C53.1380776,56.15 53.7338861,59.9625 53.8317987,63.8416667 L53.8401317,64.1916667 L42.8114245,64.1916667 L42.8114245,54.25625 L43.1405775,54.24375 C46.1821174,54.125 49.0507479,53.5729167 51.6673055,52.6041667 L51.6673055,52.6041667 Z M42.8114245,52.6354167 L42.8114245,41.6645833 L43.2197408,41.74375 C46.4675222,42.3895833 49.3569851,45.55 51.358985,50.6354167 L51.4860631,50.9583333 L51.1610766,51.0770833 C48.7174284,51.9833333 46.0279572,52.5020833 43.1676597,52.6208333 L42.8114245,52.6354167 L42.8114245,52.6354167 Z M58.567018,81.4666667 L58.3232782,81.2604167 C56.9251873,80.0652571 55.375825,79.0593904 53.7151369,78.26875 L53.4380651,78.1375 L53.6338903,77.5770833 C54.1922003,75.8 54.6296821,73.9291667 54.9317528,72.0166667 L55.0359152,71.2583333 C55.1421108,70.5003262 55.2282485,69.7396437 55.2942377,68.9770833 L55.3650681,68.1104167 C55.3984001,67.6416667 55.4108995,67.1541667 55.423399,66.6854167 L55.448398,65.8104167 L65.343819,65.8104167 L65.327153,66.16875 C65.0418609,71.8187876 62.7169213,77.1735518 58.7836757,81.2395833 L58.567018,81.4666667 L58.567018,81.4666667 Z M55.296321,61.025 C55.2303317,60.2624396 55.1441941,59.5017572 55.0379984,58.74375 L54.9338361,57.9875 C54.6363175,56.0878513 54.1969118,54.213161 53.6193075,52.3791667 L53.4380651,51.8645833 L53.7151369,51.7333333 C55.3751559,50.9423513 56.9243881,49.9372696 58.3232782,48.74375 L58.567018,48.5354167 L58.7878422,48.7645833 C62.721427,52.829548 65.0464679,58.1838051 65.3313195,63.8333333 L65.3479855,64.1916667 L55.4525645,64.1916667 L55.4275655,63.31875 C55.4174828,62.843413 55.3980354,62.3683208 55.3692346,61.89375 L55.296321,61.025 L55.296321,61.025 Z M35.4075664,43.2333333 C34.9050261,43.7646589 34.4387194,44.3291223 34.0117912,44.9229167 L33.8867964,45.09375 C32.9308505,46.4545587 32.1215204,47.9126705 31.4723137,49.44375 L31.1139953,50.3583333 L30.7827591,50.1979167 C29.3945427,49.5225254 28.0922574,48.6832088 26.903754,47.6979167 L26.5954335,47.4375 L26.903754,47.1770833 C29.2890315,45.1356664 32.0656668,43.6023214 35.0638307,42.6708333 L36.3137786,42.28125 L35.4075664,43.2333333 L35.4075664,43.2333333 Z M30.1702846,63.8395833 C30.2661139,59.9666667 30.8619224,56.15625 31.8910462,52.81875 L31.9952085,52.475 L32.3347777,52.6020833 C34.9513354,53.5708333 37.8220491,54.1229167 40.863589,54.2395833 L41.1906587,54.2520833 L41.1906587,64.1875 L30.1640348,64.1875 L30.1702846,63.8395833 L30.1702846,63.8395833 Z M32.5181034,50.9604167 L32.6451815,50.6375 C34.6471814,45.5520833 37.5366443,42.3916667 40.7844256,41.7458333 L41.1906587,41.6666667 L41.1906587,52.6375 L40.8365068,52.6229167 C37.9782926,52.5041667 35.2888213,51.9875 32.8430899,51.0791667 L32.5181034,50.9604167 Z M26.9058373,82.3041667 C28.093283,81.3222503 29.3933397,80.485116 30.7785926,79.8104167 L31.2202408,79.94375 L31.4743969,80.5604167 C32.1618683,82.1625 32.9764176,83.6270833 33.8888796,84.9125 L34.0117912,85.08125 C34.1513687,85.275 34.2992792,85.41875 34.44094,85.6 C34.6257283,85.8356024 34.8167603,86.0662398 35.0138328,86.2916667 C35.1450773,86.44375 35.2763218,86.6291667 35.4075664,86.76875 L36.3158618,87.7166667 L35.0617474,87.3291667 C32.0646243,86.3962561 29.2883958,84.8638445 26.9016708,82.825 L26.5933503,82.5625 L26.9058373,82.3041667 L26.9058373,82.3041667 Z M32.3347777,77.3958333 L31.9952085,77.525 L31.8910462,77.18125 C30.8619224,73.8458333 30.2681972,70.0333333 30.1702846,66.1604167 L30.1619516,65.8104167 L41.1885755,65.8104167 L41.1885755,75.7458333 L40.8615058,75.7583333 C37.8199658,75.875 34.9513354,76.425 32.3347777,77.3958333 L32.3347777,77.3958333 Z M41.1906587,77.3645833 L41.1906587,88.3333333 L40.7844256,88.2541667 C37.5366443,87.6083333 34.6450981,84.45 32.6451815,79.3645833 L32.5181034,79.0416667 L32.8430899,78.9208333 C35.2909045,78.0145833 37.9803758,77.4958333 40.8365068,77.3791667 L41.1906587,77.3645833 Z M28.9661681,58.74375 C28.8599225,59.4916667 28.7745094,60.25625 28.6974293,61.1479167 L28.6370151,61.8895833 C28.6036832,62.3916667 28.5891005,62.9 28.5745177,63.4645833 L28.5536853,64.1875 L18.656181,64.1875 L18.672847,63.8291667 C18.9558199,58.1796082 21.280297,52.8249445 25.2142411,48.7604167 L25.4350652,48.53125 L25.678805,48.7395833 C27.075593,49.9322976 28.6227458,50.9366931 30.2806966,51.7270833 L30.4681888,52.1270833 L30.3702762,52.4229167 C29.7993927,54.2429239 29.3648751,56.1029316 29.0703304,57.9875 L28.9661681,58.74375 L28.9661681,58.74375 Z M28.9661681,71.25625 L29.0703304,72.0125 C29.3765676,73.95 29.8161327,75.8229167 30.3702762,77.575 L30.5577684,78.1395833 L30.2869464,78.2666667 C28.6120162,79.06875 27.0620807,80.0770833 25.678805,81.2583333 L25.4350652,81.4645833 L25.2142411,81.2354167 C21.2809573,77.1696072 18.9566364,71.8145633 18.672847,66.1645833 L18.656181,65.80625 L28.5536853,65.80625 L28.5745177,66.5291667 C28.5870172,67.0916667 28.6036832,67.6 28.6370151,68.1041667 L28.7099288,68.9708333 C28.7725411,69.735023 28.8579924,70.4971693 28.9661681,71.25625 L28.9661681,71.25625 Z" id="形状" stroke="#FFFFFF" stroke-width="0.2" fill="#FFFFFF"></path>
                        <path d="M96.768,33.4966154 L70.715077,33.4966154 C66.6210462,33.4966154 63.2713846,30.1469538 63.2713846,26.052923 L63.2713846,0 C64.2390646,0 65.2067446,0.372184615 65.8764288,1.11680197 L95.651198,30.8915712 C96.3958154,31.5612554 96.768,32.5289354 96.768,33.4966154 Z" id="路径" fill="#2699F7"></path>
                    </g>
                </g>
                <g id="编组-18备份" transform="translate(73.113600, 60.361600)">
                    <rect id="矩形" fill="#0B70C4" x="0" y="2" width="47.3088" height="47.3088" rx="5.376"></rect>
                    <polygon id="L" fill="#FFFFFF" points="35.3004 36.6384 35.3004 33.4764 21.9384 33.4764 21.9384 12.3624 18.2664 12.3624 18.2664 36.6384"></polygon>
                </g>
            </g>
        </g>
    </g>
</svg>