<?xml version="1.0" encoding="UTF-8"?>
<svg width="80px" height="90px" viewBox="0 0 80 90" version="1.1" xmlns="http://www.w3.org/2000/svg" xmlns:xlink="http://www.w3.org/1999/xlink">
    <!-- Generator: Sketch 63.1 (92452) - https://sketch.com -->
    <title>L@1x</title>
    <desc>Created with Sketch.</desc>
    <g id="新版定稿（20202-8-22）" stroke="none" stroke-width="1" fill="none" fill-rule="evenodd">
        <g id="切图" transform="translate(-1004.000000, -544.000000)" fill-rule="nonzero">
            <g id="L" transform="translate(1004.000000, 544.000000)">
                <path d="M16.7142857,0 C13.5714286,0 11,2.53125 11,5.625 L11,84.375 C11,87.46875 13.5714286,90 16.7142857,90 L73.8571429,90 C77,90 79.5714286,87.46875 79.5714286,84.375 L79.5714286,22.5 L56.7142857,0 L16.7142857,0 Z" id="路径" fill="#E2E5E7"></path>
                <path d="M62.8571429,23.5 L80,23.5 L57.1428571,1 L57.1428571,17.875 C57.1428571,20.96875 59.7142857,23.5 62.8571429,23.5 Z" id="路径" fill="#B0B7BD"></path>
                <polygon id="路径" fill="#CAD1D8" points="80 40.375 62.8571429 23.5 80 23.5"></polygon>
                <path d="M68.5714286,72.75 C68.5714286,74.95 67.2857143,76.75 65.7142857,76.75 L2.85714286,76.75 C1.28571429,76.75 0,74.95 0,72.75 L0,32.75 C0,30.55 1.28571429,28.75 2.85714286,28.75 L65.7142857,28.75 C67.2857143,28.75 68.5714286,30.55 68.5714286,32.75 L68.5714286,72.75 Z" id="路径" fill="#2699F7"></path>
                <path d="M34.9993334,37 C26.1770343,37 19,44.1786667 19,53 C19,61.8213333 26.1770343,69 34.9993334,69 C43.8229657,69 51,61.8226667 51,53 C51,44.1773333 43.8229657,37 34.9993334,37 Z M39.2204908,66.932 C39.5164785,66.624 39.8084663,66.268 40.1151202,65.8493333 L40.1937836,65.74 C40.7830924,64.912 41.3030707,63.9706667 41.7803842,62.8586667 L41.9697096,62.372 L42.1803675,62.4746667 C43.0749969,62.9093333 43.910962,63.448 44.664264,64.0733333 L44.8629224,64.2386667 L44.6655973,64.4066667 C43.1385829,65.7122341 41.3616442,66.6930616 39.4431482,67.2893333 L38.6418483,67.5386667 L39.2204908,66.932 L39.2204908,66.932 Z M42.5723512,53.7426667 C42.5096871,56.2266667 42.1283697,58.6653333 41.4710637,60.796 L41.4043998,61.016 L41.1870755,60.9333333 C39.5124786,60.3133333 37.6752219,59.96 35.7286363,59.8853333 L35.5179784,59.8773333 L35.5179784,53.5186667 L42.576351,53.5186667 L42.5723512,53.7426667 L42.5723512,53.7426667 Z M41.0697471,61.9866667 L40.9884171,62.1933333 C39.7084705,65.448 37.8578809,67.4693333 35.7793009,67.8826667 L35.5179784,67.9333333 L35.5179784,60.9133333 L35.7446356,60.924 C37.5738928,60.9986667 39.2951544,61.3293333 40.8604225,61.9106667 L41.0697471,61.9866667 L41.0697471,61.9866667 Z M44.6629307,41.9253333 C43.9028074,42.5542853 43.0708156,43.0909178 42.1843673,43.524 L41.9310445,43.552 L41.847048,43.3173333 L41.7390525,43.0426667 C41.3226862,42.0618352 40.8038258,41.1277582 40.191117,40.256 L40.1124536,40.148 C39.8397693,39.7679684 39.5413013,39.407119 39.2191575,39.068 L38.640515,38.4586667 L39.4404816,38.708 C41.3589243,39.3050491 43.1357979,40.2862943 44.6629307,41.592 L44.8602558,41.7586667 L44.6629307,41.9253333 L44.6629307,41.9253333 Z M41.1870755,45.0666667 L41.4043998,44.9853333 L41.4710637,45.2053333 C42.1283697,47.336 42.5096871,49.776 42.5723512,52.2586667 L42.5776843,52.4826667 L35.5193117,52.4826667 L35.5193117,46.124 L35.7299696,46.116 C37.6765551,46.04 39.5124786,45.6866667 41.1870755,45.0666667 L41.1870755,45.0666667 Z M35.5193117,45.0866667 L35.5193117,38.0653333 L35.7806341,38.116 C37.8592142,38.5293333 39.7084705,40.552 40.9897504,43.8066667 L41.0710804,44.0133333 L40.863089,44.0893333 C39.2991542,44.6693333 37.5778926,45.0013333 35.7473022,45.0773333 L35.5193117,45.0866667 L35.5193117,45.0866667 Z M45.6028915,63.5386667 L45.446898,63.4066667 C44.5521199,62.6417645 43.560528,61.9980099 42.4976876,61.492 L42.3203617,61.408 L42.4456898,61.0493333 C42.8030082,59.912 43.0829965,58.7146667 43.2763218,57.4906667 L43.3429857,57.0053333 C43.4109509,56.5202087 43.466079,56.033372 43.5083122,55.5453333 L43.5536436,54.9906667 C43.574976,54.6906667 43.5829757,54.3786667 43.5909754,54.0786667 L43.6069747,53.5186667 L49.9400442,53.5186667 L49.9293779,53.748 C49.746791,57.3640241 48.2588296,60.7910731 45.7415524,63.3933333 L45.6028915,63.5386667 L45.6028915,63.5386667 Z M43.5096454,50.456 C43.4674123,49.9679613 43.4122842,49.4811246 43.344319,48.996 L43.2776551,48.512 C43.0872432,47.2962248 42.8060235,46.0964231 42.4363568,44.9226667 L42.3203617,44.5933333 L42.4976876,44.5093333 C43.5600998,44.0031048 44.5516084,43.3598525 45.446898,42.596 L45.6028915,42.4626667 L45.744219,42.6093333 C48.2617133,45.2109107 49.7497395,48.6376353 49.9320445,52.2533333 L49.9427107,52.4826667 L43.6096413,52.4826667 L43.5936419,51.924 C43.587189,51.6197843 43.5747427,51.3157253 43.5563102,51.012 L43.5096454,50.456 L43.5096454,50.456 Z M30.7808425,39.0693333 C30.4592167,39.4093817 30.1607804,39.7706383 29.8875464,40.1506667 L29.8075497,40.26 C29.1957443,41.1309176 28.6777731,42.0641091 28.2622807,43.044 L28.032957,43.6293333 L27.8209658,43.5266667 C26.9325074,43.0944162 26.0990447,42.5572536 25.3384026,41.9266667 L25.1410775,41.76 L25.3384026,41.5933333 C26.8649802,40.2868265 28.6420267,39.3054857 30.5608516,38.7093333 L31.3608183,38.46 L30.7808425,39.0693333 L30.7808425,39.0693333 Z M27.4289821,52.2573333 C27.4903129,49.7786667 27.8716303,47.34 28.5302696,45.204 L28.5969335,44.984 L28.8142577,45.0653333 C30.4888546,45.6853333 32.3261114,46.0386667 34.272697,46.1133333 L34.4820216,46.1213333 L34.4820216,52.48 L27.4249823,52.48 L27.4289821,52.2573333 L27.4289821,52.2573333 Z M28.9315862,44.0146667 L29.0129161,43.808 C30.2941961,40.5533333 32.1434524,38.5306667 34.2220324,38.1173333 L34.4820216,38.0666667 L34.4820216,45.088 L34.2553644,45.0786667 C32.4261072,45.0026667 30.7048456,44.672 29.1395775,44.0906667 L28.9315862,44.0146667 Z M25.3397358,64.0746667 C26.0997011,63.4462402 26.9317374,62.9104742 27.8182992,62.4786667 L28.1009541,62.564 L28.263614,62.9586667 C28.7035957,63.984 29.2249073,64.9213333 29.808883,65.744 L29.8875464,65.852 C29.976876,65.976 30.0715387,66.068 30.1622016,66.184 C30.2804661,66.3347856 30.4027266,66.4823935 30.528853,66.6266667 C30.6128495,66.724 30.696846,66.8426667 30.7808425,66.932 L31.3621516,67.5386667 L30.5595184,67.2906667 C28.6413595,66.6936039 26.8645733,65.7128605 25.3370693,64.408 L25.1397442,64.24 L25.3397358,64.0746667 L25.3397358,64.0746667 Z M28.8142577,60.9333333 L28.5969335,61.016 L28.5302696,60.796 C27.8716303,58.6613333 27.4916462,56.2213333 27.4289821,53.7426667 L27.423649,53.5186667 L34.4806883,53.5186667 L34.4806883,59.8773333 L34.2713637,59.8853333 C32.3247781,59.96 30.4888546,60.312 28.8142577,60.9333333 L28.8142577,60.9333333 Z M34.4820216,60.9133333 L34.4820216,67.9333333 L34.2220324,67.8826667 C32.1434524,67.4693333 30.2928628,65.448 29.0129161,62.1933333 L28.9315862,61.9866667 L29.1395775,61.9093333 C30.7061789,61.3293333 32.4274405,60.9973333 34.2553644,60.9226667 L34.4820216,60.9133333 Z M26.6583476,48.996 C26.5903504,49.4746667 26.535686,49.964 26.4863547,50.5346667 L26.4476897,51.0093333 C26.4263572,51.3306667 26.4170243,51.656 26.4076913,52.0173333 L26.3943586,52.48 L20.0599558,52.48 L20.0706221,52.2506667 C20.2517247,48.6349492 21.7393901,45.2079645 24.2571143,42.6066667 L24.3984417,42.46 L24.5544352,42.5933333 C25.4483795,43.3566705 26.4385573,43.9994836 27.4996458,44.5053333 L27.6196408,44.7613333 L27.5569768,44.9506667 C27.1916113,46.1154713 26.9135201,47.3058762 26.7250115,48.512 L26.6583476,48.996 L26.6583476,48.996 Z M26.6583476,57.004 L26.7250115,57.488 C26.9210033,58.728 27.2023249,59.9266667 27.5569768,61.048 L27.6769718,61.4093333 L27.5036457,61.4906667 C26.4316903,62.004 25.4397317,62.6493333 24.5544352,63.4053333 L24.3984417,63.5373333 L24.2571143,63.3906667 C21.7398127,60.7885486 20.2522473,57.3613205 20.0706221,53.7453333 L20.0599558,53.516 L26.3943586,53.516 L26.4076913,53.9786667 C26.415691,54.3386667 26.4263572,54.664 26.4476897,54.9866667 L26.4943544,55.5413333 C26.5344263,56.0304147 26.5891152,56.5181883 26.6583476,57.004 L26.6583476,57.004 Z" id="形状" stroke="#FFFFFF" stroke-width="0.5" fill="#FFFFFF"></path>
                <path d="M65.7142857,76.9375 L11.4285714,76.9375 L11.4285714,79.75 L65.7142857,79.75 C67.2857143,79.75 68.5714286,78.484375 68.5714286,76.9375 L68.5714286,74.125 C68.5714286,75.671875 67.2857143,76.9375 65.7142857,76.9375 Z" id="路径" fill="#CAD1D8"></path>
            </g>
        </g>
    </g>
</svg>