<?xml version="1.0" standalone="no"?><!DOCTYPE svg PUBLIC "-//W3C//DTD SVG 1.1//EN" "http://www.w3.org/Graphics/SVG/1.1/DTD/svg11.dtd"><svg t="1614668411147" class="icon" viewBox="0 0 1024 1024" version="1.1" xmlns="http://www.w3.org/2000/svg" p-id="2088" xmlns:xlink="http://www.w3.org/1999/xlink" width="64" height="64"><defs><style type="text/css"></style></defs><path d="M224 917.81818156h571.63636406c48 0 87.27272719-39.27272719 87.27272719-82.90909031v-654.54545531c0-48-39.27272719-82.90909125-87.27272719-82.90909032H224c-48 0-87.27272719 39.27272719-87.27272719 82.90909032v650.18181843c0 48 39.27272719 87.27272719 87.27272719 87.27272719zM197.81818156 180.36363594c0-13.09090875 13.09090875-26.18181844 26.18181844-26.1818175h571.63636406c13.09090875 0 26.18181844 13.09090875 26.1818175 26.1818175v650.18181844c0 13.09090875-13.09090875 26.18181844-26.1818175 26.18181843H224c-13.09090875 0-26.18181844-13.09090875-26.18181844-26.18181843V180.36363594z" fill="#ffffff" p-id="2089"></path><path d="M446.54545438 363.63636406H730.18181844c17.45454563 0 30.54545437-13.09090875 30.54545437-30.54545531s-13.09090875-30.54545437-30.54545437-30.54545438H446.54545438c-17.45454563 0-30.54545437 13.09090875-30.54545438 30.54545438s13.09090875 30.54545437 30.54545438 30.54545531zM446.54545438 520.72727281H730.18181844c17.45454563 0 30.54545437-13.09090875 30.54545437-30.54545437s-13.09090875-26.18181844-30.54545437-26.18181844H446.54545438c-17.45454563 0-30.54545437 13.09090875-30.54545438 30.54545438s17.45454563 26.18181844 30.54545438 26.18181843zM446.54545438 690.90909125H730.18181844c17.45454563 0 30.54545437-13.09090875 30.54545437-30.54545531 0-17.45454563-13.09090875-30.54545437-30.54545437-30.54545438H446.54545438c-17.45454563 0-30.54545437 13.09090875-30.54545438 30.54545438 4.36363594 17.45454563 17.45454563 30.54545437 30.54545438 30.54545531zM311.27272719 363.63636406H337.45454563c17.45454563 0 30.54545437-13.09090875 30.54545437-30.54545531s-17.45454563-26.18181844-30.54545438-26.1818175h-26.18181843c-17.45454563 0-30.54545437 13.09090875-30.54545438 26.1818175s13.09090875 30.54545437 30.54545438 30.54545531zM311.27272719 520.72727281H337.45454563c17.45454563 0 30.54545437-13.09090875 30.54545437-30.54545437s-13.09090875-26.18181844-30.54545438-26.18181844h-26.18181843c-17.45454563 0-30.54545437 13.09090875-30.54545438 30.54545438s13.09090875 26.18181844 30.54545438 26.18181843zM311.27272719 690.90909125H337.45454563c17.45454563 0 30.54545437-13.09090875 30.54545437-30.54545531 0-17.45454563-13.09090875-30.54545437-30.54545438-30.54545438h-26.18181843c-17.45454563 0-30.54545437 13.09090875-30.54545438 30.54545438 0 17.45454563 13.09090875 30.54545437 30.54545438 30.54545531z" fill="#ffffff" p-id="2090"></path></svg>