<?xml version="1.0" encoding="UTF-8"?>
<svg width="60px" height="60px" viewBox="0 0 60 60" version="1.1" xmlns="http://www.w3.org/2000/svg" xmlns:xlink="http://www.w3.org/1999/xlink">
    <!-- Generator: Sketch 63.1 (92452) - https://sketch.com -->
    <title>本地@1x</title>
    <desc>Created with Sketch.</desc>
    <g id="页面-1" stroke="none" stroke-width="1" fill="none" fill-rule="evenodd">
        <g id="首页" transform="translate(-1532.000000, -1201.000000)" stroke="#6F8397">
            <g id="编组-15备份-2" transform="translate(1338.000000, 1201.000000)">
                <g id="本地" transform="translate(194.000000, 0.000000)">
                    <circle id="椭圆形备份" stroke-width="1.6" cx="29.6" cy="29.6" r="28.8"></circle>
                    <path d="M29.5255823,28.1719375 C29.9326656,28.1719375 30.2816711,28.4629504 30.3549461,28.8638125 L30.3684317,29.0156875 L30.3684317,40.1228125 L32.5042122,37.9830625 L32.6222112,37.8851875 C32.9572394,37.6541365 33.4093181,37.6956329 33.6967869,37.9838229 C33.9842557,38.2720129 34.0250577,38.7246338 33.7937719,39.0596875 L33.697687,39.1778125 L30.120634,42.7553125 C30.0153587,42.8610078 29.8838628,42.9367279 29.739666,42.9746875 L29.5963816,43 L29.4530972,43 C29.306623,42.9876596 29.165953,42.9370341 29.0451581,42.8531875 L28.9288449,42.7553125 L25.3534775,39.1778125 C25.0387854,38.8703141 25.013139,38.3722924 25.2945767,38.0340297 C25.5760144,37.695767 26.0699405,37.6309587 26.4289534,37.8851875 L26.5452666,37.9830625 L28.6810471,40.1228125 L28.6810471,29.0156875 C28.6810471,28.5496973 29.0584037,28.1719375 29.5238966,28.1719375 L29.5255823,28.1719375 Z M29.5255823,16 C33.2628103,16.001858 36.444456,18.7225962 37.0303138,22.4175625 L37.0775133,22.7719375 L37.1651696,22.7719375 C40.4381131,22.9517124 43,25.6609124 43,28.9422812 C43,32.22365 40.4381131,34.9328501 37.1651696,35.112625 L36.8364584,35.12275 L33.8274859,35.12275 C33.382513,35.1352685 33.0045338,34.7992264 32.9643928,34.3554176 C32.9242518,33.9116089 33.2357905,33.5130688 33.6757729,33.445375 L33.8274859,33.431875 L36.8364584,33.431875 C39.2613828,33.4374378 41.2513615,31.5120881 41.3284276,29.0857926 C41.4054937,26.6594971 39.5417205,24.6114795 37.1213415,24.4628125 L36.8364584,24.454375 L36.2801777,24.454375 C36.0560566,24.4552725 35.8408074,24.366774 35.6820126,24.2084428 C35.5232177,24.0501116 35.4339551,23.8349874 35.4339569,23.610625 L35.4339569,23.495875 C35.3719987,20.3139582 32.8073823,17.7508482 29.6287633,17.6940913 C26.4501444,17.6373345 23.7958508,20.1072566 23.6205791,23.2849375 L23.6121505,23.6089375 C23.6144747,24.0175855 23.3228098,24.3686695 22.921014,24.440875 L22.7693011,24.454375 L22.2096491,24.454375 C19.785073,24.4497578 17.7959979,26.3753449 17.7193985,28.8013043 C17.642799,31.2272638 19.5064243,33.2747597 21.9264517,33.4234375 L22.2096491,33.431875 L25.2354786,33.431875 C25.6759225,33.4257808 26.0467757,33.7602272 26.0865359,34.1993838 C26.1262961,34.6385403 25.8215527,35.0342845 25.3871915,35.1075625 L25.2354786,35.12275 L22.2130205,35.12275 C18.8522769,35.1454484 16.0912724,32.4719019 16.0022085,29.1086725 C15.9131445,25.7454432 18.5287704,22.92921 21.8859949,22.773625 L21.9736512,22.77025 C22.4020962,18.9184581 25.6541211,16.0044953 29.5255823,16.003375 L29.5255823,16 Z" id="形状" fill="#6F8397" fill-rule="nonzero"></path>
                </g>
            </g>
        </g>
    </g>
</svg>