<?xml version="1.0" encoding="UTF-8"?>
<svg width="193px" height="41px" viewBox="0 0 193 41" version="1.1" xmlns="http://www.w3.org/2000/svg" xmlns:xlink="http://www.w3.org/1999/xlink">
    <!-- Generator: Sketch 63.1 (92452) - https://sketch.com -->
    <title>我的工作台中logo-白色@1x</title>
    <desc>Created with Sketch.</desc>
    <defs>
        <polygon id="path-1" points="0.0229608655 0 22.2982201 0 22.2982201 18.057823 0.0229608655 18.057823"></polygon>
    </defs>
    <g id="新版定稿（20202-8-22）" stroke="none" stroke-width="1" fill="none" fill-rule="evenodd">
        <g id="画板" transform="translate(-166.000000, -499.000000)">
            <g id="我的工作台中logo-白色" transform="translate(166.000000, 499.000000)">
                <g id="logo">
                    <g id="编组-2">
                        <g id="编组" transform="translate(0.226605, 0.338009)">
                            <path d="M29.9761122,19.0276553 C29.9583523,19.0779498 29.9405922,19.1284838 29.9211522,19.1787783 C29.9405922,19.1284838 29.9583523,19.0779498 29.9761122,19.0276553" id="Fill-1" fill="#000000" fill-rule="nonzero"></path>
                            <path d="M28.5539195,21.4219371 C28.5063995,21.4784585 28.4588794,21.5352194 28.4094394,21.5912619 C28.4588794,21.5352194 28.5063995,21.4784585 28.5539195,21.4219371" id="Fill-3" fill="#000000" fill-rule="nonzero"></path>
                            <path d="M26.2087582,23.5886481 C26.1266782,23.64972 26.0445981,23.7107919 25.9610781,23.7711453 C26.0445981,23.7107919 26.1266782,23.64972 26.2087582,23.5886481" id="Fill-5" fill="#000000" fill-rule="nonzero"></path>
                            <path d="M30.2744804,17.6573457 C30.2723204,17.6846485 30.2682404,17.7117117 30.2656004,17.7387749 C30.2682404,17.7117117 30.2723204,17.6846485 30.2744804,17.6573457" id="Fill-7" fill="#000000" fill-rule="nonzero"></path>
                            <path d="M16.2668008,28.0553746 C15.9327206,28.1380014 15.5991205,28.2144011 15.2664803,28.2852924 C15.5993605,28.2144011 15.9327206,28.1380014 16.2668008,28.0553746" id="Fill-9" fill="#000000" fill-rule="nonzero"></path>
                            <path d="M30.2683844,16.8256423 C30.2724644,16.8709074 30.2770244,16.9161724 30.2799044,16.961198 C30.2770244,16.9161724 30.2724644,16.8709074 30.2683844,16.8256423" id="Fill-11" fill="#000000" fill-rule="nonzero"></path>
                            <path d="M29.0372077,20.7990995 C28.9980877,20.854184 28.9577677,20.9090289 28.9169677,20.9638739 C28.9577677,20.9090289 28.9980877,20.854184 29.0372077,20.7990995" id="Fill-13" fill="#000000" fill-rule="nonzero"></path>
                            <path d="M22.2904921,25.9122781 C20.3992911,26.8132681 18.33097,27.5439754 16.2698488,28.0543448 C18.33121,27.5439754 20.3990511,26.8132681 22.2904921,25.9122781" id="Fill-15" fill="#000000" fill-rule="nonzero"></path>
                            <path d="M30.2873684,17.2026595 C30.2878484,17.2390631 30.2900084,17.2759458 30.2897684,17.3123494 C30.2900084,17.2759458 30.2878484,17.2390631 30.2873684,17.2026595" id="Fill-17" fill="#000000" fill-rule="nonzero"></path>
                            <path d="M26.5607904,23.3194528 C26.4847104,23.3790877 26.4081503,23.4384831 26.3303903,23.497639 C26.4081503,23.4384831 26.4847104,23.3790877 26.5607904,23.3194528" id="Fill-19" fill="#000000" fill-rule="nonzero"></path>
                            <path d="M15.2215042,28.2951118 C14.8991841,28.3631291 14.5780639,28.425159 14.2583838,28.4819199 C14.5780639,28.4253985 14.8991841,28.3631291 15.2215042,28.2951118" id="Fill-21" fill="#000000" fill-rule="nonzero"></path>
                            <path d="M30.1708724,18.3462367 C30.1603124,18.3955732 30.1480724,18.4444307 30.1358323,18.4935277 C30.1480724,18.4444307 30.1603124,18.3955732 30.1708724,18.3462367" id="Fill-23" fill="#000000" fill-rule="nonzero"></path>
                            <path d="M27.558999,22.466937 C27.4903589,22.5313619 27.4193189,22.5945893 27.3482788,22.6582957 C27.4193189,22.5945893 27.4903589,22.5313619 27.558999,22.466937" id="Fill-25" fill="#000000" fill-rule="nonzero"></path>
                            <path d="M28.2907114,21.7235364 C28.2379113,21.7817343 28.1858313,21.8401718 28.1313512,21.8978907 C28.1858313,21.8401718 28.2379113,21.7817343 28.2907114,21.7235364" id="Fill-27" fill="#000000" fill-rule="nonzero"></path>
                            <path d="M30.0846163,18.6879519 C30.0702163,18.7382464 30.0553363,18.7885409 30.0394963,18.8385959 C30.0553363,18.7885409 30.0702163,18.7382464 30.0846163,18.6879519" id="Fill-29" fill="#000000" fill-rule="nonzero"></path>
                            <path d="M27.2383828,22.7571842 C27.1687827,22.8184956 27.0975027,22.8790885 27.0262227,22.9394419 C27.0975027,22.8790885 27.1687827,22.8184956 27.2383828,22.7571842" id="Fill-31" fill="#000000" fill-rule="nonzero"></path>
                            <path d="M30.2344004,18.0030127 C30.2276804,18.0477987 30.2188004,18.0923453 30.2108804,18.1371313 C30.2188004,18.0923453 30.2276804,18.0477987 30.2344004,18.0030127" id="Fill-33" fill="#000000" fill-rule="nonzero"></path>
                            <path d="M29.6864321,19.7147022 C29.6648321,19.7582907 29.6451521,19.8021188 29.6225921,19.8454679 C29.6451521,19.8021188 29.6648321,19.7582907 29.6864321,19.7147022" id="Fill-35" fill="#000000" fill-rule="nonzero"></path>
                            <path d="M26.9055506,23.0411326 C26.8333106,23.1012465 26.7598705,23.1608814 26.6857105,23.2202768 C26.7598705,23.1608814 26.8333106,23.1012465 26.9055506,23.0411326" id="Fill-37" fill="#000000" fill-rule="nonzero"></path>
                            <path d="M28.8037596,21.1129851 C28.7603196,21.1687881 28.7163996,21.224591 28.6712795,21.2801544 C28.7163996,21.224591 28.7603196,21.1690276 28.8037596,21.1129851" id="Fill-39" fill="#000000" fill-rule="nonzero"></path>
                            <path d="M9.31968507,28.8578354 C9.04872492,28.8458605 8.78232477,28.8283772 8.52240461,28.80323 C8.78232477,28.8283772 9.04872492,28.8458605 9.31968507,28.8578354" id="Fill-41" fill="#000000" fill-rule="nonzero"></path>
                            <path d="M8.4534526,28.7958534 C8.18825244,28.7692692 7.92833231,28.736458 7.67633217,28.6957434 C7.92833231,28.736458 8.18825244,28.7692692 8.4534526,28.7958534" id="Fill-43" fill="#000000" fill-rule="nonzero"></path>
                            <path d="M29.451352,20.158156 C29.4227919,20.2079715 29.3913519,20.2570685 29.3611119,20.306405 C29.3913519,20.2570685 29.4227919,20.2079715 29.451352,20.158156" id="Fill-45" fill="#000000" fill-rule="nonzero"></path>
                            <path d="M30.0536803,15.7470887 C30.0680803,15.7930722 30.0803203,15.8388163 30.0935203,15.8847998 C30.0803203,15.8388163 30.0680803,15.7930722 30.0536803,15.7470887" id="Fill-47" fill="#000000" fill-rule="nonzero"></path>
                            <path d="M29.8446162,19.3670235 C29.8239762,19.4161205 29.8040562,19.4652175 29.7822162,19.514075 C29.8040562,19.4652175 29.8239762,19.4161205 29.8446162,19.3670235" id="Fill-49" fill="#000000" fill-rule="nonzero"></path>
                            <path d="M7.63663616,28.6887261 C7.37599602,28.6453771 7.12207588,28.5955616 6.87727571,28.5371242 C7.12207588,28.5955616 7.37599602,28.6453771 7.63663616,28.6887261" id="Fill-51" fill="#000000" fill-rule="nonzero"></path>
                            <path d="M29.9287602,15.3886565 C29.9438802,15.4276947 29.9563602,15.4667328 29.9707603,15.5055314 C29.9563602,15.4667328 29.9438802,15.4276947 29.9287602,15.3886565" id="Fill-53" fill="#000000" fill-rule="nonzero"></path>
                            <path d="M27.596031,22.4314914 C27.7457911,22.2904273 27.8900311,22.1472077 28.0292312,22.0030301 C27.8900311,22.1472077 27.7457911,22.2904273 27.596031,22.4314914" id="Fill-55" fill="#000000" fill-rule="nonzero"></path>
                            <path d="M10.2304856,28.8739536 C9.95256542,28.8758696 9.67872525,28.8725166 9.41016512,28.8619787 C9.67872525,28.8725166 9.95256542,28.8758696 10.2304856,28.8739536" id="Fill-57" fill="#000000" fill-rule="nonzero"></path>
                            <path d="M12.1570386,28.771281 C11.8635185,28.7995417 11.5728783,28.822294 11.2860781,28.8390588 C11.5728783,28.822294 11.8635185,28.7995417 12.1570386,28.771281" id="Fill-59" fill="#000000" fill-rule="nonzero"></path>
                            <path d="M13.1608631,28.6543582 C12.858463,28.6955518 12.5587028,28.7309975 12.2615826,28.7609347 C12.5587028,28.7309975 12.858463,28.6955518 13.1608631,28.6543582" id="Fill-61" fill="#000000" fill-rule="nonzero"></path>
                            <path d="M30.2229044,16.4638332 C30.2308244,16.5117328 30.2382644,16.5593928 30.2447444,16.6072923 C30.2382644,16.5593928 30.2308244,16.5117328 30.2229044,16.4638332" id="Fill-63" fill="#000000" fill-rule="nonzero"></path>
                            <path d="M14.1846077,28.4950684 C13.8726075,28.5496738 13.5627674,28.5982918 13.2548472,28.6411619 C13.5627674,28.5982918 13.8726075,28.5496738 14.1846077,28.4950684" id="Fill-65" fill="#000000" fill-rule="nonzero"></path>
                            <path d="M30.1516483,16.1054011 C30.1629284,16.1533006 30.1732484,16.2009606 30.1833284,16.2488602 C30.1732484,16.2009606 30.1629284,16.1533006 30.1516483,16.1054011" id="Fill-67" fill="#000000" fill-rule="nonzero"></path>
                            <path d="M11.1775741,28.8449744 C10.8924539,28.8600627 10.6106938,28.8698821 10.3330136,28.8732351 C10.6106938,28.8698821 10.8924539,28.8600627 11.1775741,28.8449744" id="Fill-69" fill="#000000" fill-rule="nonzero"></path>
                            <path d="M29.2535199,20.4805437 C29.2187198,20.5344307 29.1819998,20.5878387 29.1459998,20.6412466 C29.1819998,20.5878387 29.2187198,20.5344307 29.2535199,20.4805437" id="Fill-71" fill="#000000" fill-rule="nonzero"></path>
                            <path d="M29.7822882,19.5140271 C29.7520481,19.5813259 29.7189281,19.6479063 29.6865281,19.7147261 C29.7189281,19.6479063 29.7520481,19.5813259 29.7822882,19.5140271" id="Fill-73" fill="#000000" fill-rule="nonzero"></path>
                            <path d="M30.0394003,18.8386917 C30.0194803,18.9019191 29.9981203,18.9646675 29.9760403,19.0276553 C29.9981203,18.9646675 30.0194803,18.9019191 30.0394003,18.8386917" id="Fill-75" fill="#000000" fill-rule="nonzero"></path>
                            <path d="M29.9212722,19.1787544 C29.8970322,19.2417422 29.8708722,19.3042512 29.8447122,19.3669995 C29.8708722,19.3042512 29.8970322,19.2417422 29.9212722,19.1787544" id="Fill-77" fill="#000000" fill-rule="nonzero"></path>
                            <path d="M30.2109524,18.1371552 C30.1987124,18.2070885 30.1859924,18.2767824 30.1708724,18.3462367 C30.1859924,18.2767824 30.1987124,18.2070885 30.2109524,18.1371552" id="Fill-79" fill="#000000" fill-rule="nonzero"></path>
                            <path d="M29.9707123,15.5056033 C29.9999923,15.5860744 30.0285523,15.6667851 30.0537523,15.7470168 C30.0285523,15.6667851 29.9999923,15.5860744 29.9707123,15.5056033" id="Fill-81" fill="#000000" fill-rule="nonzero"></path>
                            <path d="M30.1359523,18.4934798 C30.1201124,18.5583837 30.1030723,18.6232875 30.0845923,18.6879519 C30.1030723,18.6232875 30.1201124,18.5583837 30.1359523,18.4934798" id="Fill-83" fill="#000000" fill-rule="nonzero"></path>
                            <path d="M29.7761921,15.0296496 C29.8318722,15.1496379 29.8822722,15.2691472 29.9288322,15.3886565 C29.8822722,15.2691472 29.8318722,15.1496379 29.7761921,15.0296496" id="Fill-85" fill="#000000" fill-rule="nonzero"></path>
                            <path d="M30.1833044,16.2488841 C30.1981844,16.3207334 30.2113844,16.3923432 30.2229044,16.4637135 C30.2113844,16.3923432 30.1981844,16.3207334 30.1833044,16.2488841" id="Fill-87" fill="#000000" fill-rule="nonzero"></path>
                            <path d="M30.0935203,15.8848477 C30.1144003,15.9583735 30.1340804,16.0318993 30.1516003,16.105425 C30.1340804,16.0318993 30.1144003,15.9583735 30.0935203,15.8848477" id="Fill-89" fill="#000000" fill-rule="nonzero"></path>
                            <path d="M30.2896964,17.3124691 C30.2884964,17.4276675 30.2836964,17.5426263 30.2745764,17.6573457 C30.2836964,17.5426263 30.2884964,17.4276675 30.2896964,17.3124691" id="Fill-91" fill="#000000" fill-rule="nonzero"></path>
                            <path d="M30.2655524,17.738727 C30.2571524,17.8271016 30.2475524,17.9152367 30.2343524,18.0031324 C30.2475524,17.9152367 30.2571524,17.8271016 30.2655524,17.738727" id="Fill-93" fill="#000000" fill-rule="nonzero"></path>
                            <path d="M30.2798564,16.9612937 C30.2848964,17.0420045 30.2863364,17.1222362 30.2872964,17.2027074 C30.2863364,17.1222362 30.2848964,17.0420045 30.2798564,16.9612937" id="Fill-95" fill="#000000" fill-rule="nonzero"></path>
                            <path d="M30.2446964,16.6071965 C30.2545364,16.6802433 30.2617364,16.7528111 30.2684564,16.8256183 C30.2617364,16.7528111 30.2545364,16.6802433 30.2446964,16.6071965" id="Fill-97" fill="#000000" fill-rule="nonzero"></path>
                            <path d="M22.2907081,25.9120625 L22.2907081,25.9120625 C22.2907081,25.912302 22.2907081,25.912302 22.2904681,25.912302 C22.2907081,25.912302 22.2907081,25.912302 22.2907081,25.9120625" id="Fill-99" fill="#000000" fill-rule="nonzero"></path>
                            <path d="M13.2548472,28.6412577 C13.2234072,28.6458082 13.1922072,28.6501191 13.1607671,28.6544301 C13.1922072,28.6501191 13.2234072,28.6458082 13.2548472,28.6412577" id="Fill-101" fill="#000000" fill-rule="nonzero"></path>
                            <path d="M25.9610301,23.7710735 C25.9288701,23.7943047 25.8959901,23.8168175 25.86359,23.8400488 C25.8959901,23.8168175 25.9288701,23.7943047 25.9610301,23.7710735" id="Fill-103" fill="#000000" fill-rule="nonzero"></path>
                            <path d="M14.2584557,28.4819678 C14.2337357,28.4862788 14.2092557,28.4908292 14.1845357,28.4951402 C14.2092557,28.4908292 14.2337357,28.4862788 14.2584557,28.4819678" id="Fill-105" fill="#000000" fill-rule="nonzero"></path>
                            <path d="M16.2698488,28.0544406 C16.2688888,28.0549196 16.2679288,28.0551591 16.2667288,28.0553986 C16.2679288,28.0551591 16.2688888,28.0549196 16.2698488,28.0544406" id="Fill-107" fill="#000000" fill-rule="nonzero"></path>
                            <path d="M15.2665043,28.2852684 L15.2216243,28.2950879 L15.2665043,28.2852684 Z" id="Fill-109" fill="#000000" fill-rule="nonzero"></path>
                            <path d="M11.2861021,28.8391067 C11.2498621,28.8412622 11.2136221,28.8429387 11.1776221,28.8448546 C11.2136221,28.8429387 11.2498621,28.8412622 11.2861021,28.8391067" id="Fill-111" fill="#000000" fill-rule="nonzero"></path>
                            <path d="M12.2615587,28.7610065 C12.2265186,28.764599 12.1919586,28.7679519 12.1569186,28.7713049 C12.1919586,28.7679519 12.2265186,28.764599 12.2615587,28.7610065" id="Fill-113" fill="#000000" fill-rule="nonzero"></path>
                            <path d="M7.67626015,28.6957434 C7.66258015,28.6933484 7.65010014,28.690714 7.63666014,28.688798 C7.65010014,28.690714 7.66258015,28.6933484 7.67626015,28.6957434" id="Fill-115" fill="#000000" fill-rule="nonzero"></path>
                            <path d="M10.3331336,28.873259 C10.2985736,28.873738 10.2647336,28.873738 10.2304135,28.8739775 C10.2647336,28.873738 10.2985736,28.873738 10.3331336,28.873259" id="Fill-117" fill="#000000" fill-rule="nonzero"></path>
                            <path d="M9.41016512,28.8620266 C9.37992509,28.8608291 9.35016507,28.8591527 9.31968507,28.8577157 C9.35016507,28.8591527 9.37992509,28.8608291 9.41016512,28.8620266" id="Fill-119" fill="#000000" fill-rule="nonzero"></path>
                            <path d="M8.52235661,28.8033257 C8.49907662,28.8011703 8.4765166,28.7982963 8.45347658,28.7959013 C8.4765166,28.7982963 8.49907662,28.8011703 8.52235661,28.8033257" id="Fill-121" fill="#000000" fill-rule="nonzero"></path>
                            <path d="M26.3304143,23.497663 C26.2903343,23.5280792 26.2492942,23.5582559 26.2087342,23.5886721 C26.2492942,23.5582559 26.2903343,23.5280792 26.3304143,23.497663" id="Fill-123" fill="#000000" fill-rule="nonzero"></path>
                            <path d="M28.6713516,21.2802024 C28.6329515,21.3276229 28.5935915,21.3748039 28.5539915,21.4219849 C28.5935915,21.3748039 28.6329515,21.3276229 28.6713516,21.2802024" id="Fill-125" fill="#000000" fill-rule="nonzero"></path>
                            <path d="M28.4095354,21.5912619 C28.3706554,21.6355689 28.3305754,21.679397 28.2907353,21.7234646 C28.3305754,21.679397 28.3706554,21.6355689 28.4095354,21.5912619" id="Fill-127" fill="#000000" fill-rule="nonzero"></path>
                            <path d="M28.9169677,20.9638739 C28.8797677,21.0136894 28.8420876,21.0635049 28.8036876,21.1130809 C28.8420876,21.0635049 28.8797677,21.0136894 28.9169677,20.9638739" id="Fill-129" fill="#000000" fill-rule="nonzero"></path>
                            <path d="M29.6226641,19.8455637 C29.568664,19.9502241 29.511544,20.0544056 29.451304,20.1581081 C29.511544,20.0544056 29.568664,19.9502241 29.6226641,19.8455637" id="Fill-131" fill="#000000" fill-rule="nonzero"></path>
                            <path d="M29.3611119,20.306429 C29.3258319,20.3646269 29.2907919,20.4228248 29.2535919,20.4805437 C29.2907919,20.4228248 29.3258319,20.3646269 29.3611119,20.306429" id="Fill-133" fill="#000000" fill-rule="nonzero"></path>
                            <path d="M29.1459518,20.6412227 C29.1101918,20.6939122 29.0744318,20.7466017 29.0372318,20.7990516 C29.0744318,20.7466017 29.1101918,20.6939122 29.1459518,20.6412227" id="Fill-135" fill="#000000" fill-rule="nonzero"></path>
                            <path d="M28.1313512,21.8978907 C28.0979913,21.9330968 28.0631912,21.967824 28.0291112,22.0030301 C28.0631912,21.967824 28.0979913,21.9330968 28.1313512,21.8978907" id="Fill-137" fill="#000000" fill-rule="nonzero"></path>
                            <path d="M27.0262707,22.9393701 C26.9861906,22.9736182 26.9463506,23.0073874 26.9055506,23.0411565 C26.9463506,23.0073874 26.9861906,22.9736182 27.0262707,22.9393701" id="Fill-139" fill="#000000" fill-rule="nonzero"></path>
                            <path d="M26.6857105,23.2202768 C26.6441905,23.253567 26.6024304,23.2863782 26.5606704,23.3194289 C26.6024304,23.2863782 26.6441905,23.253567 26.6857105,23.2202768" id="Fill-141" fill="#000000" fill-rule="nonzero"></path>
                            <path d="M27.3483028,22.6582477 C27.3118228,22.6912984 27.2755828,22.7243491 27.2383828,22.7571603 C27.2755828,22.7243491 27.3118228,22.6912984 27.3483028,22.6582477" id="Fill-143" fill="#000000" fill-rule="nonzero"></path>
                            <path d="M27.596031,22.4314914 C27.583311,22.4432268 27.571551,22.4552016 27.5590709,22.466937 C27.571551,22.4552016 27.583551,22.4432268 27.596031,22.4314914" id="Fill-145" fill="#000000" fill-rule="nonzero"></path>
                            <path d="M7.63663616,28.6887261 C7.65007616,28.6908816 7.66255617,28.6935161 7.67623617,28.6956716 C7.92823631,28.7363862 8.18815643,28.7691973 8.4533566,28.7957816 C8.47639658,28.7981765 8.4991966,28.80129 8.52223662,28.8034455 C8.78215675,28.8283532 9.04879691,28.8458366 9.31975705,28.8578114 C9.35023709,28.8592484 9.37999707,28.8609249 9.4102371,28.8621224 C9.67879727,28.8726603 9.95239739,28.8757738 10.2305575,28.8738578 C10.2646376,28.8736183 10.2987176,28.8736183 10.3330376,28.8733788 C10.6107177,28.8700258 10.8922379,28.8602064 11.1775981,28.8448786 C11.2135981,28.8429626 11.2498381,28.8412861 11.2860781,28.8391306 C11.5728783,28.8223658 11.8635185,28.7996135 12.1570386,28.7713528 C12.1918386,28.7679998 12.2266386,28.7644074 12.2616786,28.7610544 C12.5587988,28.7311172 12.858559,28.6954321 13.1609591,28.6542385 C13.1921592,28.650167 13.2233592,28.6456166 13.2547992,28.6413056 C13.5627194,28.598196 13.8725595,28.549578 14.1845597,28.4949725 C14.2092797,28.4909011 14.2337597,28.4861111 14.2584798,28.4820397 C14.5781599,28.4250392 14.8992801,28.3632489 15.2216002,28.294992 L15.2664803,28.2851726 C15.5991205,28.2145208 15.9327206,28.1378816 16.2668008,28.0552549 C16.2680008,28.0550154 16.2689608,28.0550154 16.2699208,28.0545364 C18.3310419,27.544167 20.3993631,26.8132202 22.2905641,25.9122302 C22.2908041,25.9122302 22.2908041,25.9122302 22.2908041,25.9119907 C22.4960042,25.6964428 22.7820844,25.5024497 23.0400845,25.3867724 C23.6448848,25.115182 24.2496852,24.8282639 24.8396055,24.5229044 C25.1933657,24.3018481 25.5346458,24.0736069 25.863446,23.8400967 C25.8958461,23.8168654 25.9289661,23.7941132 25.9611261,23.7711214 C26.0446461,23.710768 26.1267262,23.6496961 26.2088062,23.5886242 C26.2493662,23.558208 26.2904063,23.5280313 26.3304863,23.4976151 C26.4082463,23.4384592 26.4845664,23.3790638 26.5608864,23.3194289 C26.6024064,23.2863782 26.6441665,23.253567 26.6856865,23.2202768 C26.7598465,23.1608814 26.8332865,23.1012465 26.9055266,23.0411326 C26.9463266,23.0073634 26.9861666,22.9735943 27.0262467,22.9393461 C27.0975267,22.8789927 27.1688067,22.8183998 27.2384068,22.7570884 C27.2756068,22.7245167 27.3116068,22.6912266 27.3483268,22.6581759 C27.4193669,22.594709 27.4904069,22.5312422 27.559047,22.4668173 C27.5717669,22.4553214 27.583287,22.4433465 27.596007,22.4316111 C27.745767,22.2903075 27.8900071,22.1473275 28.0292072,22.0031499 C28.0630472,21.9679437 28.0980873,21.9329771 28.1314472,21.8980104 C28.1856873,21.840052 28.2380073,21.7818541 28.2908074,21.7234167 C28.3306474,21.6793491 28.3707274,21.635521 28.4096074,21.591214 C28.4588074,21.5351715 28.5063275,21.4786501 28.5538475,21.4218892 C28.5934475,21.3747081 28.6328075,21.3275271 28.6714476,21.2801065 C28.7163276,21.2245431 28.7604876,21.1689797 28.8036876,21.1129372 C28.8420876,21.0633612 28.8797677,21.0137852 28.9169677,20.9639697 C28.9577677,20.9091247 28.9980877,20.8542798 29.0372077,20.7991953 C29.0744078,20.7467453 29.1101678,20.6940559 29.1459278,20.6411269 C29.1819278,20.5877189 29.2188879,20.534311 29.2534479,20.4806635 C29.2908879,20.422705 29.3256879,20.3645071 29.3612079,20.3063092 C29.3914479,20.2569727 29.4226479,20.2078757 29.451448,20.1580602 C29.511688,20.0543577 29.568808,19.9501762 29.6225681,19.8455158 C29.6451281,19.8021667 29.6648081,19.7583386 29.6864081,19.7147501 C29.7190481,19.6479302 29.7519281,19.5813499 29.7821682,19.5140511 C29.8040082,19.4651935 29.8239282,19.4160965 29.8445682,19.3669995 C29.8709682,19.3042512 29.8971282,19.2417422 29.9213682,19.1787544 C29.9405682,19.1284599 29.9583282,19.0781654 29.9760883,19.0276314 C29.9981683,18.9646435 30.0195283,18.9018951 30.0394483,18.8386677 C30.0552883,18.7886127 30.0704083,18.7383182 30.0845683,18.6880237 C30.1030483,18.6233594 30.1200883,18.5584555 30.1359283,18.4935517 C30.1481684,18.4444546 30.1604084,18.3953576 30.1709684,18.3462606 C30.1860884,18.2768063 30.1988084,18.206873 30.2110484,18.1371792 C30.2187284,18.0923932 30.2276084,18.0478466 30.2343284,18.0030605 C30.2475284,17.9151649 30.2571284,17.8270298 30.2655284,17.7386552 C30.2681684,17.7115919 30.2722484,17.6845287 30.2744084,17.6572259 C30.2835284,17.5427461 30.2885684,17.4277872 30.289787,17.3125889 C30.289787,17.2759458 30.2878484,17.2390631 30.2873684,17.2026595 C30.2864084,17.1224278 30.2847284,17.0419566 30.2799284,16.9612459 C30.2770484,16.9162203 30.2722484,16.8709552 30.2684084,16.8256902 C30.2616884,16.7528829 30.2544884,16.6800756 30.2446484,16.6072684 C30.2384084,16.5593689 30.2309684,16.5117088 30.2228084,16.4638093 C30.2115284,16.392439 30.1980884,16.3205897 30.1832084,16.2489799 C30.1731284,16.2010804 30.1628084,16.1531809 30.1517684,16.1052814 C30.1340083,16.0319951 30.1143283,15.9584693 30.0934483,15.8849435 C30.0804883,15.83896 30.0680083,15.7929764 30.0536083,15.7469929 C30.0286483,15.6667612 30.0000883,15.58629 29.9708083,15.5055793 C29.9564082,15.4665412 29.9439282,15.4277426 29.9288082,15.3887045 C29.8822482,15.2691951 29.8318482,15.1496858 29.7761682,15.0296975 C29.7348881,14.9413229 29.6902481,14.8543852 29.6429681,14.7686451 C26.0468061,18.9902698 23.4274447,20.6224461 19.2000824,21.794308 C13.1170391,23.4806108 7.44007605,28.0212462 7.44007605,28.0212462 C7.24711594,28.1922476 7.06015582,28.3644463 6.87679574,28.5366452 L6.87727571,28.5371242 C7.12207588,28.5955616 7.37599602,28.6453771 7.63663616,28.6887261" id="Fill-147" fill="#000000" fill-rule="nonzero"></path>
                            <path d="M19.2000104,21.794284 C23.4273727,20.6224221 26.0467341,18.9902458 29.6431361,14.7688606 C29.6901761,14.8543613 29.7350561,14.9412989 29.7760962,15.0296735 C28.6063355,12.5209359 25.0960936,11.0923326 22.8914524,10.5228072 C22.7728924,10.4921515 22.6560123,10.4605378 22.5381722,10.4294031 C16.8223291,15.4847191 8.8634448,21.5947825 0.710400387,15.5280681 C1.53432083,20.2943104 2.88000156,24.4285184 6.87672372,28.5366212 C7.06008384,28.3644224 7.24704392,28.1922236 7.44000403,28.0212223 C7.44000403,28.0212223 13.1169671,23.4805868 19.2000104,21.794284" id="Fill-149" fill="#00A2AE" fill-rule="nonzero"></path>
                            <path d="M20.4000111,33.5296677 C14.6205679,33.9820787 10.1260855,31.8174992 6.87720373,28.5371002 L6.87672372,28.5366212 C0.904560489,34.1624204 0,40.475099 0,40.475099 C3.12000169,38.3196202 12.3796867,38.1562829 16.560009,37.8406252 C32.7153777,36.6201453 39.0000211,27.3295532 39.7850615,13.6539992 C37.5324204,19.1131081 33.4351381,32.5094078 20.4000111,33.5296677" id="Fill-151" fill="#FF658F" fill-rule="nonzero"></path>
                            <path d="M30.2873684,17.2026595 C30.2864084,17.1224278 30.2847284,17.0419566 30.2799284,16.9612459 C30.2770484,16.9162203 30.2724884,16.8709552 30.2684084,16.8256902 C30.2619284,16.7528829 30.2544884,16.6800756 30.2446484,16.6072684 C30.2384084,16.5593689 30.2309684,16.5117088 30.2228084,16.4638093 C30.2115284,16.392439 30.1980884,16.3205897 30.1832084,16.2489799 C30.1731284,16.2010804 30.1628084,16.1531809 30.1517684,16.1052814 C30.1340083,16.0319951 30.1143283,15.9584693 30.0934483,15.8849435 C30.0804883,15.83896 30.0680083,15.7929764 30.0536083,15.7469929 C30.0286483,15.6667612 30.0000883,15.5860505 29.9708083,15.5055793 C29.9564082,15.4665412 29.9439282,15.4277426 29.9288082,15.3887045 C29.8824882,15.2691951 29.8320882,15.1496858 29.7761682,15.0296975 C29.7348881,14.9413229 29.6902481,14.8543852 29.6429681,14.7686451 C26.0468061,18.9902698 23.4274447,20.6224461 19.2000824,21.794308 C13.1170391,23.4806108 7.44007605,28.0212462 7.44007605,28.0212462 C7.24711594,28.1922476 7.06015582,28.3642068 6.87679574,28.5366452 L6.87727571,28.5371242 C7.12231585,28.5955616 7.37599602,28.6453771 7.63663616,28.6887261 C7.65007616,28.6908816 7.66255617,28.6935161 7.67623617,28.6956716 C7.92823631,28.7363862 8.18815643,28.7691973 8.4533566,28.7957816 C8.47639658,28.7981765 8.4991966,28.80129 8.52223662,28.8034455 C8.78239675,28.8283532 9.04879691,28.8458366 9.31975705,28.8578114 C9.35023709,28.8592484 9.37999707,28.8609249 9.4102371,28.8621224 C9.67879727,28.8726603 9.95239739,28.8757738 10.2305575,28.8738578 C10.2646376,28.8736183 10.2987176,28.8736183 10.3330376,28.8731393 C10.6107177,28.8700258 10.8922379,28.8602064 11.1775981,28.8448786 C11.2135981,28.8429626 11.2498381,28.8412861 11.2860781,28.8391306 C11.5728783,28.8223658 11.8635185,28.7996135 12.1570386,28.7713528 C12.1920786,28.7679998 12.2266386,28.7644074 12.2616786,28.7610544 C12.5587988,28.7311172 12.858559,28.6954321 13.1609591,28.6542385 C13.1923992,28.650167 13.2233592,28.6456166 13.2547992,28.6413056 C13.5627194,28.598196 13.8725595,28.549578 14.1845597,28.4949725 C14.2092797,28.4909011 14.2337597,28.4861111 14.2584798,28.4820397 C14.5781599,28.4250392 14.8992801,28.3632489 15.2216002,28.294992 L15.2664803,28.2851726 C15.5991205,28.2145208 15.9327206,28.1378816 16.2668008,28.0552549 C16.2680008,28.0550154 16.2689608,28.0550154 16.2699208,28.0545364 C18.3310419,27.544167 20.3993631,26.8132202 22.2905641,25.9122302 C22.2908041,25.9122302 22.2908041,25.9122302 22.2908041,25.9119907 C23.1699246,25.4933488 24.005605,25.0351898 24.7894454,24.5478122 C24.8060055,24.5394298 24.8228055,24.5315263 24.8396055,24.5229044 C24.8900055,24.4915302 24.9382455,24.458719 24.9881656,24.4268659 C25.0258456,24.4029161 25.0628056,24.3787268 25.1004856,24.3542981 C25.3611257,24.1859313 25.6169659,24.0151694 25.863446,23.8400967 C25.8958461,23.8168654 25.9289661,23.7941132 25.9611261,23.7711214 C26.0446461,23.710768 26.1267262,23.6496961 26.2088062,23.5886242 C26.2493662,23.558208 26.2904063,23.5280313 26.3304863,23.4976151 C26.4082463,23.4384592 26.4845664,23.3790638 26.5608864,23.3194289 C26.6024064,23.2863782 26.6441665,23.253567 26.6856865,23.2202768 C26.7598465,23.1608814 26.8332865,23.1012465 26.9055266,23.0411326 C26.9463266,23.0073634 26.9861666,22.9735943 27.0262467,22.9393461 C27.0975267,22.8789927 27.1688067,22.8183998 27.2384068,22.7570884 C27.2756068,22.7245167 27.3118468,22.6912266 27.3483268,22.6581759 C27.4193669,22.594709 27.4904069,22.5312422 27.559047,22.4668173 C27.5717669,22.4553214 27.583287,22.4433465 27.596007,22.4316111 C27.745767,22.2903075 27.8900071,22.1473275 28.0292072,22.0031499 C28.0630472,21.9679437 28.0980873,21.9329771 28.1314472,21.8977709 C28.1856873,21.840052 28.2380073,21.7818541 28.2908074,21.7234167 C28.3306474,21.6793491 28.3707274,21.635521 28.4096074,21.591214 C28.4588074,21.5351715 28.5063275,21.4786501 28.5538475,21.4218892 C28.5934475,21.3747081 28.6328075,21.3275271 28.6714476,21.2801065 C28.7163276,21.2245431 28.7604876,21.1689797 28.8036876,21.1129372 C28.8423276,21.0633612 28.8797677,21.0137852 28.9169677,20.9639697 C28.9577677,20.9091247 28.9980877,20.8542798 29.0372077,20.7991953 C29.0744078,20.7467453 29.1101678,20.6940559 29.1459278,20.6411269 C29.1821678,20.5877189 29.2188879,20.534311 29.2534479,20.4806635 C29.2908879,20.422705 29.3256879,20.3645071 29.3612079,20.3063092 C29.3914479,20.2569727 29.4226479,20.2078757 29.451448,20.1580602 C29.511688,20.0543577 29.568808,19.9501762 29.6225681,19.8455158 C29.6451281,19.8021667 29.6648081,19.7583386 29.6864081,19.7147501 C29.7190481,19.6479302 29.7521681,19.5813499 29.7824081,19.5140511 C29.8040082,19.4651935 29.8239282,19.4160965 29.8445682,19.3669995 C29.8709682,19.3042512 29.8971282,19.2417422 29.9213682,19.1787544 C29.9405682,19.1284599 29.9583282,19.0781654 29.9760883,19.0276314 C29.9981683,18.9646435 30.0195283,18.9018951 30.0394483,18.8386677 C30.0552883,18.7886127 30.0704083,18.7383182 30.0845683,18.6880237 C30.1030483,18.6233594 30.1200883,18.5584555 30.1359283,18.4935517 C30.1481684,18.4444546 30.1604084,18.3953576 30.1709684,18.3462606 C30.1860884,18.2768063 30.1988084,18.206873 30.2110484,18.1371792 C30.2187284,18.0923932 30.2276084,18.0478466 30.2343284,18.0030605 C30.2475284,17.9151649 30.2571284,17.8270298 30.2655284,17.7386552 C30.2681684,17.7115919 30.2724884,17.6845287 30.2744084,17.6572259 C30.2835284,17.5427461 30.2885684,17.4277872 30.289787,17.3123494 C30.289787,17.2759458 30.2878484,17.2390631 30.2873684,17.2026595" id="Fill-153" fill="#004163" fill-rule="nonzero"></path>
                            <path d="M25.9200141,7.42442642 C24.9124935,8.28637839 23.7777729,9.33322251 22.5381722,10.4294031 C22.6560123,10.4605378 22.7728924,10.4921515 22.8914524,10.5228072 C25.0185736,11.0724543 28.3598554,12.4215444 29.6431361,14.7688606 C29.6901761,14.8543613 29.7350561,14.9412989 29.7760962,15.0296735 C31.4301771,18.5773519 28.9106557,21.9789367 24.8395335,24.52312 C24.042973,25.020796 23.1866526,25.4854214 22.2907321,25.9119667 C17.2456893,28.3155649 10.9394459,29.5087421 6.87720373,28.5371002 C10.1260855,31.8174992 14.6205679,33.9820787 20.4000111,33.5296677 C33.4351381,32.5094078 37.5324204,19.1131081 39.7850615,13.6539992 C39.9751415,13.1934453 40.1520219,12.7891733 40.3200218,12.4538766 C41.0510623,10.994857 43.5600238,5.50844543 48.7200265,5.98744066 C45.6000246,1.43698576 37.6800204,-2.63447389 25.9200141,7.42442642" id="Fill-155" fill="#00CDD3" fill-rule="nonzero"></path>
                            <path d="M24.000013,27.0632318 C21.7723318,27.1374761 21.7771318,26.4517944 22.2907321,25.9119667 C17.2456893,28.3155649 10.9394459,29.5087421 6.87720373,28.5371002 C10.1260855,31.8174992 14.6205679,33.9820787 20.4000111,33.5296677 C33.4351381,32.5094078 37.5324204,19.1131081 39.7850615,13.6539992 C34.3200186,21.794284 31.2000169,26.8237342 24.000013,27.0632318" id="Fill-157" fill="#005279" fill-rule="nonzero"></path>
                            <g transform="translate(0.240000, 0.000000)" id="Fill-159-Clipped">
                                <g>
                                    <mask id="mask-2" fill="white">
                                        <use xlink:href="#path-1"></use>
                                    </mask>
                                    <g id="path-1"></g>
                                    <path d="M22.2982201,10.4293792 C13.2686952,8.04925179 6.64877159,4.49175403 1.20004865,-2.39497627e-05 C-0.121872066,6.15530457 -0.278112151,11.1986456 0.470448255,15.5280442 C8.62325266,21.5947585 16.582377,15.4846951 22.2982201,10.4293792" id="Fill-159" fill="#00CDD3" fill-rule="nonzero" mask="url(#mask-2)"></path>
                                </g>
                            </g>
                        </g>
                    </g>
                </g>
                <g id="编组" transform="translate(54.925225, 10.742652)" fill="#F0F0F0" fill-rule="nonzero">
                    <path d="M126.870834,5.59564771 C126.533476,5.27547254 125.888362,4.86632204 125.254817,4.50157417 C125.186427,6.25386112 125.431407,7.23207958 126.117351,7.22323308 C126.286285,7.22323308 126.446542,6.65416512 126.604418,5.72017917 C126.854162,6.03150781 127.161067,6.37839258 127.439732,6.5474968 C127.097781,8.09495331 126.671958,8.59307916 125.880537,8.59307916 C123.826108,8.59307916 123.691709,6.00479821 124.18303,2.00243868 L119.789723,2.00243868 L119.979753,0.650455725 L125.689316,0.650455725 C125.583158,1.34422526 125.49061,2.00243868 125.415585,2.59821625 C125.962027,2.12680002 126.507107,1.60196456 126.910133,1.13973507 L127.978858,1.76222226 C127.341229,2.37586294 126.604418,2.99852025 125.927151,3.51433908 C126.583493,3.84353085 127.283217,4.24383485 127.666338,4.55516353 L126.870834,5.59564771 Z" id="Fill-1"></path>
                    <path d="M135.340862,3.4253978 C135.456547,3.4253978 135.538887,3.4077048 135.621398,3.32757595 C135.725344,3.22090762 135.827249,2.87402284 135.986996,2.05572185 L134.901939,2.05572185 C135.231301,2.24234891 135.625821,2.53598457 135.81449,2.776201 L135.21633,3.4253978 L135.340862,3.4253978 Z M134.397179,2.48256534 L134.804117,2.05572185 L134.457233,2.05572185 L134.397179,2.48256534 Z M137.014381,4.61729317 C137.014381,4.61729317 136.961642,4.92862185 136.932721,5.0708463 C136.546027,7.06317954 136.300366,7.92588317 135.997204,8.24622844 C135.757838,8.49529136 135.531742,8.58409658 135.240998,8.62866931 C134.994657,8.67324207 134.610856,8.68208854 134.203236,8.67324207 C134.226373,8.31734067 134.160535,7.83724808 134.01746,7.5259194 C134.332531,7.56147553 134.635013,7.56147553 134.795101,7.56147553 C134.919462,7.56147553 135.002313,7.5436124 135.103537,7.45463707 C135.25699,7.31241262 135.417248,6.80544026 135.650829,5.64893086 L132.75156,5.64893086 L133.407902,0.979511429 L134.288299,0.979511429 C134.431204,0.721431881 134.57666,0.445829466 134.67142,0.214459538 L136.021191,0.35685412 C135.865357,0.57937755 135.69302,0.792544109 135.533443,0.979511429 L137.312099,0.979511429 C137.312099,0.979511429 137.263103,1.26413047 137.235543,1.39750842 C136.938335,3.06966653 136.7546,3.80783867 136.493288,4.08361122 C136.274167,4.31498116 136.067295,4.39493989 135.794075,4.43951262 C135.566788,4.47489859 135.209865,4.48391522 134.818578,4.48391522 C134.849371,4.13703045 134.788806,3.68347735 134.661042,3.39001181 C134.845288,3.4077048 135.021877,3.4165513 135.162911,3.4253978 C134.9984,3.20304449 134.672611,2.92727195 134.363324,2.72278177 L134.097078,4.61729317 L137.014381,4.61729317 Z M135.205782,7.1079224 L132.297497,7.1079224 L132.450099,6.02269539 L135.358385,6.02269539 L135.205782,7.1079224 Z M132.148467,3.10522266 C131.941935,2.74064489 131.605428,2.28709177 131.261436,1.88678777 C130.916933,2.31363127 130.529048,2.73179839 130.138611,3.10522266 L132.148467,3.10522266 Z M130.222142,5.73807635 L130.049636,6.96552785 L130.912339,6.96552785 L131.084846,5.73807635 L130.222142,5.73807635 Z M129.710066,3.49651003 C129.569203,3.61219499 129.42987,3.71903345 129.290368,3.82587194 C129.242563,3.53206613 129.031438,2.82060361 128.888363,2.50927496 C129.695095,1.95772988 130.556948,1.07716315 131.111555,0.170056927 L132.192359,0.57937755 C132.134006,0.677029271 132.066977,0.774851116 132.008624,0.872672961 C132.47868,1.3263962 132.965237,1.91332727 133.20137,2.32264789 L132.39753,3.10522266 L132.450949,3.10522266 L132.293413,4.22583567 L129.607651,4.22583567 L129.710066,3.49651003 Z M131.93496,8.04156813 L129.898394,8.04156813 L129.83834,8.46858176 L128.637939,8.46858176 L129.172812,4.6616958 L132.409949,4.6616958 L131.93496,8.04156813 Z" id="Fill-3"></path>
                    <polygon id="Fill-5" points="19.8860072 23.9257773 15.2315588 23.9257773 13.0937687 12.5008663 7.74504031 23.9257773 3.1227455 23.9257773 -6.80499791e-05 0.750336159 5.95668686 0.750336159 7.26375683 12.9891249 12.7269793 0.750336159 16.7633638 0.750336159 18.7864897 12.9891249 23.5336562 0.750336159 29.490241 0.750336159"></polygon>
                    <path d="M36.3700258,6.21888343 C39.2017555,6.21888343 40.7993988,7.3580401 41.6854096,8.46470288 C42.9259607,10.0596243 43.1437207,11.7521974 42.6634581,15.1698374 C42.1787722,18.6201415 41.489596,20.2802207 39.8007654,21.8751421 C38.6037665,22.9818049 36.6857777,24.1209616 33.854048,24.1209616 C31.021978,24.1209616 29.4246748,22.9818049 28.538494,21.8751421 C27.2979429,20.2802207 27.0754194,18.6201415 27.5604457,15.1698374 C28.0407084,11.7521974 28.7343078,10.0596243 30.4231382,8.46470288 C31.6203075,7.3580401 33.5379559,6.21888343 36.3700258,6.21888343 Z M34.4772155,11.3624581 C34.2387005,11.0848142 33.7841267,11.218022 33.7330891,11.5805583 L33.7330891,11.5805583 L32.7387088,18.6555445 C32.6839287,19.0461514 33.1441167,19.2948741 33.4406444,19.034753 L33.4406444,19.034753 L37.4753278,15.497345 C37.6507265,15.3433819 37.6697803,15.0769662 37.5175186,14.9000363 L37.5175186,14.9000363 L34.4772155,11.3624581 Z" id="形状结合"></path>
                    <path d="M55.9402132,11.9474157 C55.4926145,11.4266633 55.059136,11.0362265 54.1477765,11.0362265 C53.4317207,11.0362265 51.9398951,11.4593273 51.6608902,13.4448555 L50.1877782,23.9257432 L44.849938,23.9257432 L47.3107952,6.4141018 L52.5190004,6.4141018 L52.3175726,7.84638375 C53.2085169,7.06517 54.8573679,6.21879838 56.6802566,6.21879838 C58.4053235,6.21879838 59.5176006,6.64189911 60.5526408,7.84638375 L55.9402132,11.9474157 Z" id="Fill-9"></path>
                    <polygon id="Fill-11" points="70.3356927 23.9257772 67.5912372 17.5135978 66.3894746 18.6527545 65.6482402 23.9257772 60.3102296 23.9257772 63.5672718 0.750336082 68.9054524 0.750336082 67.2492858 12.5333601 72.8292141 6.41396572 79.2417338 6.41396572 71.7766511 13.6725167 76.9433459 23.9257772"></polygon>
                    <path d="M86.640774,11.1988149 L84.8520802,23.9258623 L79.5140699,23.9258623 L81.3025933,11.1988149 L79.7076719,11.1988149 L80.2840553,7.09778295 L81.8789768,7.09778295 L82.0940145,5.56767915 C82.4325633,3.15905016 84.3835563,0.392308128 88.2573013,0.392308128 L91.0888609,0.392308128 L90.4578675,4.88428726 L88.6023145,4.88428726 C87.8862587,4.88428726 87.4733654,5.27489413 87.377245,5.95828605 L87.2173275,7.09778295 L90.1465388,7.09778295 L89.5703255,11.1988149 L86.640774,11.1988149 Z" id="Fill-13"></path>
                    <path d="M95.8860101,23.9257772 C92.0122651,23.9257772 90.8389133,21.1590352 91.1772919,18.7504062 L93.7070498,0.750336082 L99.0452305,0.750336082 L96.5704229,18.3596292 C96.4744722,19.0433613 96.777465,19.4339682 97.4935208,19.4339682 L99.3489033,19.4339682 L98.7177398,23.9257772 L95.8860101,23.9257772 Z" id="Fill-15"></path>
                    <path d="M107.83147,26.0088211 C107.331642,27.0180023 106.77074,27.766552 106.139577,28.3199685 C104.942408,29.4266313 103.55759,29.7845742 101.994993,29.7845742 L99.9769708,29.7845742 L100.654068,24.9673162 L101.793225,24.9673162 C102.737248,24.9673162 103.25749,24.7393487 103.766504,23.6653499 L104.460784,22.2005741 L100.852774,6.41399974 L106.451586,6.41399974 L108.137184,15.4954396 L112.245361,6.41399974 L117.844003,6.41399974 L107.83147,26.0088211 Z" id="Fill-17"></path>
                </g>
            </g>
        </g>
    </g>
</svg>