<?xml version="1.0" encoding="UTF-8"?>
<svg width="34px" height="34px" viewBox="0 0 34 34" version="1.1" xmlns="http://www.w3.org/2000/svg" xmlns:xlink="http://www.w3.org/1999/xlink">
    <!-- Generator: Sketch 63.1 (92452) - https://sketch.com -->
    <title>队友@1x</title>
    <desc>Created with Sketch.</desc>
    <g id="新版定稿（20202-8-22）" stroke="none" stroke-width="1" fill="none" fill-rule="evenodd">
        <g id="画板" transform="translate(-734.000000, -728.000000)">
            <g id="队友" transform="translate(734.000000, 728.000000)">
                <circle id="椭圆形" stroke="#D3D3D3" cx="17" cy="17" r="16.5"></circle>
                <g id="群-(1)" transform="translate(9.000000, 10.000000)" fill="#D3D3D3" fill-rule="nonzero">
                    <path d="M14.27601,8.53 C13.29501,8.007 12.19801,7.63 12.19601,7.016 C12.19301,6.168 13.48801,5.373 13.48101,3.296 C13.47901,2.565 13.12501,-0.009 10.38701,-2.35426195e-05 C9.68001,0.003 9.13701,0.184 8.71401,0.46 C10.59001,1.097 10.87101,3.193 10.87401,3.865 C10.88101,6.133 9.46701,7 9.47101,7.926 C9.47301,8.596 10.67001,9.008 11.74101,9.579 C12.68601,10.087 13.66201,10.499 13.63401,11.585 L13.63301,11.605 L14.71801,11.601 C15.53401,11.599 16.01301,11.07 16.01001,10.368 C16.03601,9.373 15.14201,8.996 14.27601,8.531 L14.27601,8.53 Z" id="路径"></path>
                    <path d="M10.41801,10.102 C9.34301,9.522 8.14301,9.104 8.14101,8.423 C8.13801,7.483 9.55501,6.602 9.54801,4.299 C9.54501,3.488 9.15801,0.635 6.16001,0.644973778 C3.19301,0.655 2.79201,3.543 2.79501,4.322 C2.80201,6.592 4.22501,7.496 4.22801,8.436 C4.23001,9.117 3.03201,9.543 1.96101,10.131 C1.01601,10.686 0.00701,11.078 0.0109981457,12.181 C0.01301,12.96 0.47101,13.521 1.43501,13.538 L10.90201,13.507 C11.79701,13.505 12.32101,12.918 12.31801,12.139 C12.34601,11.036 11.36601,10.618 10.41801,10.102 Z" id="路径"></path>
                </g>
            </g>
        </g>
    </g>
</svg>