<?xml version="1.0" encoding="UTF-8"?>
<svg width="16px" height="16px" viewBox="0 0 16 16" version="1.1" xmlns="http://www.w3.org/2000/svg" xmlns:xlink="http://www.w3.org/1999/xlink">
    <!-- Generator: Sketch 63.1 (92452) - https://sketch.com -->
    <title>已完成任务@1x</title>
    <desc>Created with Sketch.</desc>
    <g id="新版定稿（20202-8-22）" stroke="none" stroke-width="1" fill="none" fill-rule="evenodd">
        <g id="画板" transform="translate(-691.000000, -1164.000000)" fill="#8D8D8D" fill-rule="nonzero">
            <path d="M700.353435,1176.32291 C699.912208,1176.81235 699.151226,1176.85165 698.661768,1176.41222 L694.672864,1172.82182 C694.183406,1172.38061 694.144106,1171.61966 694.583547,1171.13022 C695.024774,1170.64078 695.785756,1170.60149 696.275214,1171.04091 L699.372732,1173.82928 L705.373059,1167.16649 C705.072953,1166.77172 704.733548,1166.39839 704.35127,1166.05364 C701.069758,1163.09915 696.010835,1163.36352 693.054437,1166.64668 C690.098039,1169.92985 690.364205,1174.98857 693.647503,1177.94484 C696.930801,1180.90112 701.989725,1180.63675 704.946123,1177.35359 C706.955758,1175.12254 707.475584,1172.07337 706.571695,1169.41898 L700.353435,1176.32291 Z" id="已完成任务"></path>
        </g>
    </g>
</svg>