<?xml version="1.0" encoding="UTF-8"?>
<svg width="16px" height="16px" viewBox="0 0 16 16" version="1.1" xmlns="http://www.w3.org/2000/svg" xmlns:xlink="http://www.w3.org/1999/xlink">
    <!-- Generator: Sketch 63.1 (92452) - https://sketch.com -->
    <title>未完成任务的@1x</title>
    <desc>Created with Sketch.</desc>
    <g id="新版定稿（20202-8-22）" stroke="none" stroke-width="1" fill="none" fill-rule="evenodd">
        <g id="画板" transform="translate(-670.000000, -1164.000000)" fill="#CACACA" fill-rule="nonzero">
            <path d="M679.353435,1176.32291 C678.912208,1176.81235 678.151226,1176.85165 677.661768,1176.41222 L673.672864,1172.82182 C673.183406,1172.38061 673.144106,1171.61966 673.583547,1171.13022 C674.024774,1170.64078 674.785756,1170.60149 675.275214,1171.04091 L678.372732,1173.82928 L684.373059,1167.16649 C684.072953,1166.77172 683.733548,1166.39839 683.35127,1166.05364 C680.069758,1163.09915 675.010835,1163.36352 672.054437,1166.64668 C669.098039,1169.92985 669.364205,1174.98857 672.647503,1177.94484 C675.930801,1180.90112 680.989725,1180.63675 683.946123,1177.35359 C685.955758,1175.12254 686.475584,1172.07337 685.571695,1169.41898 L679.353435,1176.32291 Z" id="未完成任务的"></path>
        </g>
    </g>
</svg>