<?xml version="1.0" encoding="UTF-8"?>
<svg width="52px" height="52px" viewBox="0 0 52 52" version="1.1" xmlns="http://www.w3.org/2000/svg" xmlns:xlink="http://www.w3.org/1999/xlink">
    <!-- Generator: Sketch 63.1 (92452) - https://sketch.com -->
    <title>修改任务标题@1x</title>
    <desc>Created with Sketch.</desc>
    <g id="新版定稿（20202-8-22）" stroke="none" stroke-width="1" fill="none" fill-rule="evenodd">
        <g id="画板" transform="translate(-13.000000, -1704.000000)" fill-rule="nonzero">
            <g id="修改任务标题" transform="translate(13.000000, 1704.000000)">
                <rect id="矩形" fill="#7D59FF" x="0" y="0" width="51.8" height="51.8" rx="25.9"></rect>
                <path d="M23.9885,31.9925 L24.0005,31.9925 L24.0005,18.068 L20.489,18.068 C18.225164,18.0778049 16.3193136,19.7641937 16.034,22.01 L14,22.01 L16.013,14 L35.987,14 L38,22.01 L35.9645,22.01 C35.6830151,19.7627751 33.775776,18.074589 31.511,18.068 L28.001,18.068 L28.001,31.9925 L28.0115,31.9925 C28.0036288,32.096315 27.999626,32.2003871 27.9995,32.3045 C27.9995,34.5515 29.7905,36.3725 32,36.3725 L32,38 L20,38 L20,36.3725 C22.2095,36.3725 24.0005,34.5515 24.0005,32.3045 C24.0005,32.1995 23.996,32.0945 23.9885,31.9925 Z" id="路径" fill="#FFFFFF"></path>
            </g>
        </g>
    </g>
</svg>