<?xml version="1.0" encoding="UTF-8"?>
<svg width="13px" height="12px" viewBox="0 0 13 12" version="1.1" xmlns="http://www.w3.org/2000/svg" xmlns:xlink="http://www.w3.org/1999/xlink">
    <!-- Generator: Sketch 63.1 (92452) - https://sketch.com -->
    <title>签收盖章@1x</title>
    <desc>Created with Sketch.</desc>
    <g id="新版定稿（20202-8-22）" stroke="none" stroke-width="1" fill="none" fill-rule="evenodd">
        <g id="画板" transform="translate(-653.000000, -1165.000000)" fill="#FFFFFF" fill-rule="nonzero">
            <path d="M653,1175.92008 L665.479987,1175.92008 L665.479987,1175.92008 C665.479987,1176.35086 665.130769,1176.70008 664.699987,1176.70008 L653.780002,1176.70008 L653.780002,1176.70008 C653.34922,1176.70008 653,1176.35086 653,1175.92008 L653,1175.92008 Z M663.139998,1172.80007 L663.139998,1172.80007 C664.432343,1172.80007 665.48,1173.84773 665.48,1175.14008 L665.48,1175.53008 L653.000013,1175.53008 L653.000013,1175.14008 L653.000013,1175.14008 C653.000013,1173.84773 654.047667,1172.80007 655.340016,1172.80007 L656.900018,1172.80007 L656.900018,1172.80007 C657.3308,1172.80007 657.680017,1172.45086 657.680017,1172.02008 L657.680017,1169.97062 L657.680017,1169.97062 C656.442692,1169.10906 656.138073,1167.40757 656.999639,1166.17024 C657.861202,1164.93291 659.562691,1164.6283 660.80002,1165.48986 C662.037345,1166.35142 662.341964,1168.05291 661.480398,1169.29024 C661.295676,1169.55553 661.065306,1169.7859 660.80002,1169.97062 L660.80002,1172.02008 L660.80002,1172.02008 C660.80002,1172.45086 661.149237,1172.80007 661.580019,1172.80007 L663.140021,1172.80007 L663.139998,1172.80007 Z" id="签收盖章"></path>
        </g>
    </g>
</svg>