<?xml version="1.0" encoding="UTF-8"?>
<svg width="13px" height="13px" viewBox="0 0 13 13" version="1.1" xmlns="http://www.w3.org/2000/svg" xmlns:xlink="http://www.w3.org/1999/xlink">
    <!-- Generator: Sketch 63.1 (92452) - https://sketch.com -->
    <title>盖章-默认@1x</title>
    <desc>Created with Sketch.</desc>
    <g id="新版定稿（20202-8-22）" stroke="none" stroke-width="1" fill="none" fill-rule="evenodd">
        <g id="画板" transform="translate(-628.000000, -1185.000000)" fill="#B8B8B8" fill-rule="nonzero">
            <g id="盖章-默认" transform="translate(628.000000, 1185.000000)">
                <path d="M6.24,12.48 C2.79364312,12.48 0,9.6863569 0,6.24 C0,2.79364312 2.79364312,0 6.24,0 C9.6863569,0 12.48,2.79364312 12.48,6.24 C12.48,9.6863569 9.6863569,12.48 6.24,12.48 Z M9.1522031,8.5288369 C9.3818351,8.5288369 9.5677871,8.3578609 9.5677871,8.1481969 L9.5677871,7.3856689 C9.5677871,7.1753809 9.3818351,7.0050289 9.1522031,7.0050289 L6.6562031,7.0050289 L6.6562031,6.1882129 C7.4674031,5.9966449 7.99656,5.2821649 7.89048,4.52088975 C7.785024,3.76023375 7.078032,3.18864975 6.24,3.18864975 C5.401968,3.18864975 4.69497844,3.75960975 4.58952,4.52088975 C4.48344,5.28216974 5.012592,5.99664974 5.8237969,6.1882129 L5.8237969,7.0037809 L3.32779688,7.0037809 C3.09816488,7.0037809 2.91221288,7.1747569 2.91221288,7.3850449 L2.91221288,8.1469489 C2.91221288,8.3572369 3.09816488,8.5275889 3.32779688,8.5275889 L9.1522129,8.5275889 L9.1522031,8.5288369 Z M3.95178469,8.9094769 C3.83696869,8.9094769 3.74399269,8.9949649 3.74399269,9.1004209 C3.74399269,9.2052529 3.83759269,9.2907409 3.95178469,9.2907409 L8.5282031,9.2907409 C8.6430191,9.2907409 8.7359951,9.2052529 8.7359951,9.1004209 C8.7359951,8.9949649 8.6423951,8.9094769 8.5282031,8.9094769 L3.95178469,8.9094769 Z" id="形状"></path>
            </g>
        </g>
    </g>
</svg>