<?xml version="1.0" encoding="UTF-8"?>
<svg width="52px" height="52px" viewBox="0 0 52 52" version="1.1" xmlns="http://www.w3.org/2000/svg" xmlns:xlink="http://www.w3.org/1999/xlink">
    <!-- Generator: Sketch 63.1 (92452) - https://sketch.com -->
    <title>提醒@1x</title>
    <desc>Created with Sketch.</desc>
    <g id="新版定稿（20202-8-22）" stroke="none" stroke-width="1" fill="none" fill-rule="evenodd">
        <g id="画板" transform="translate(-13.000000, -1773.000000)" fill-rule="nonzero">
            <g id="提醒" transform="translate(13.000000, 1773.000000)">
                <rect id="矩形" fill="#708397" x="0" y="0" width="51.8" height="51.8" rx="25.9"></rect>
                <path d="M25.9746492,39 C27.7015356,39 29.1011855,37.6072706 29.1011855,35.8889164 L22.8481406,35.8889164 C22.8481406,37.6072706 24.2478181,39 25.9746492,39 Z M36.8543707,28.9018869 C34.4026819,27.3063607 34.1681951,25.9172625 34.1681951,20.1451438 C34.1681951,15.0050184 30.8040758,13.3987086 27.8745394,12.9755916 C27.8792391,12.9262953 27.8677387,12.8775768 27.8677387,12.828308 C27.8677387,11.7870896 27.0168741,11 25.9746492,11 C24.9262319,11 24.1081268,11.7870896 24.1081268,12.8288307 C24.1081268,12.8780719 24.1102279,12.9268455 24.1144023,12.9760868 C21.1848382,13.3986811 17.8269667,15.0050184 17.8269667,20.1456389 C17.8269667,25.9177852 17.5961291,27.3068834 15.1439151,28.9024096 C13.3701424,30.0571029 12.71672,32.2110083 13.1106367,33.5244565 C13.3466993,34.312619 14.1376843,35.3703704 14.9010795,35.3703704 L37.1008831,35.3703704 C37.8642783,35.3703704 38.6531899,34.3126465 38.8897501,33.5239889 C39.2831416,32.2105682 38.6281434,30.0566353 36.8543707,28.9018869 L36.8543707,28.9018869 Z M37.5219198,33.301468 C37.454659,33.5264922 37.3916003,33.8147873 37.3191974,33.8147873 L14.6827652,33.8147873 C14.6098094,33.8147873 14.546723,33.5264922 14.4800704,33.301468 C14.307039,32.7238875 14.5535238,31.1293791 15.926579,30.2354993 C19.0947766,28.1739143 19.25581,25.9976165 19.25581,20.2166674 C19.25581,16.7534676 20.9868155,14.8225233 24.5489852,14.3879899 L25.5650853,14.2459331 C25.6364929,14.2370752 25.7005745,14.1899521 25.7417382,14.1313303 C25.7829296,14.072736 25.7974987,13.9903188 25.7813538,13.9208033 L25.5505162,12.9294314 C25.5411169,12.8863797 25.5364172,12.8552669 25.5364172,12.828308 C25.5364172,12.5830096 25.7308184,12.387035 25.9746492,12.3683563 C26.4957893,12.387035 26.4389507,12.5830096 26.4389507,12.828308 C26.4389507,12.8552394 26.4608181,12.8863522 26.4509487,12.9294314 L26.2201111,13.9208033 C26.2039663,13.9908139 26.2185077,14.072736 26.2596991,14.1313303 C26.3008905,14.1899521 26.3654974,14.2376253 26.4363797,14.2459331 L27.4525075,14.3879899 C31.0141242,14.8230184 32.745655,16.7534676 32.745655,20.2166674 C32.745655,25.9971489 32.9066608,28.1733091 36.074886,30.2354993 C37.4484388,31.1293791 37.694896,32.7238875 37.5219198,33.301468 L37.5219198,33.301468 Z" id="形状" fill="#FFFFFF"></path>
            </g>
        </g>
    </g>
</svg>