<?xml version="1.0" encoding="UTF-8"?>
<svg width="172px" height="38px" viewBox="0 0 172 38" version="1.1" xmlns="http://www.w3.org/2000/svg" xmlns:xlink="http://www.w3.org/1999/xlink">
    <!-- Generator: Sketch 59 (86127) - https://sketch.com -->
    <title>编组 20备份</title>
    <desc>Created with Sketch.</desc>
    <defs>
        <polygon id="path-1" points="0.186468085 0.0677163121 0.470156028 0.0677163121 0.470156028 0.283687943 0.186468085 0.283687943"></polygon>
        <polygon id="path-3" points="0.105248227 0.139716312 0.38893617 0.139716312 0.38893617 0.283687943 0.105248227 0.283687943"></polygon>
        <polygon id="path-5" points="0.0107234043 0.0102695035 0.294411348 0.0102695035 0.294411348 0.283687943 0.0107234043 0.283687943"></polygon>
        <polygon id="path-7" points="0.222269504 0.277163121 39.9885106 0.277163121 39.9885106 19.8287376 0.222269504 19.8287376"></polygon>
        <polygon id="path-9" points="0.0584680851 0.0992340426 0.342156028 0.0992340426 0.342156028 0.283687943 0.0584680851 0.283687943"></polygon>
        <polygon id="path-11" points="0.000113475177 0.217194577 40 0.217194577 40 24.7582531 0.000113475177 24.7582531"></polygon>
        <polygon id="path-13" points="0.272397163 0.105251831 2.01906383 0.105251831 2.01906383 0.283687943 0.272397163 0.283687943"></polygon>
        <polygon id="path-15" points="0.186099291 0.0556595745 1.0164539 0.0556595745 1.0164539 0.283687943 0.186099291 0.283687943"></polygon>
        <polygon id="path-17" points="0.235234043 0.120595745 1.07296454 0.120595745 1.07296454 0.283687943 0.235234043 0.283687943"></polygon>
        <polygon id="path-19" points="0.0559716312 0.0119148936 0.895404255 0.0119148936 0.895404255 0.283687943 0.0559716312 0.283687943"></polygon>
        <polygon id="path-21" points="0.232141844 0.192435817 33.9972482 0.192435817 33.9972482 11.9148936 0.232141844 11.9148936"></polygon>
        <polygon id="path-23" points="0.186468085 0.0677163121 0.470156028 0.0677163121 0.470156028 0.283687943 0.186468085 0.283687943"></polygon>
        <polygon id="path-25" points="0.105248227 0.139716312 0.38893617 0.139716312 0.38893617 0.283687943 0.105248227 0.283687943"></polygon>
        <polygon id="path-27" points="0.0107234043 0.0102695035 0.294411348 0.0102695035 0.294411348 0.283687943 0.0107234043 0.283687943"></polygon>
        <polygon id="path-29" points="0.222269504 0.277163121 39.9885106 0.277163121 39.9885106 19.8287376 0.222269504 19.8287376"></polygon>
        <polygon id="path-31" points="0.0584680851 0.0992340426 0.342156028 0.0992340426 0.342156028 0.283687943 0.0584680851 0.283687943"></polygon>
        <polygon id="path-33" points="0.000113475177 0.217194577 40 0.217194577 40 24.7582531 0.000113475177 24.7582531"></polygon>
        <polygon id="path-35" points="0.272397163 0.105251831 2.01906383 0.105251831 2.01906383 0.283687943 0.272397163 0.283687943"></polygon>
        <polygon id="path-37" points="0.186099291 0.0556595745 1.0164539 0.0556595745 1.0164539 0.283687943 0.186099291 0.283687943"></polygon>
        <polygon id="path-39" points="0.235234043 0.120595745 1.07296454 0.120595745 1.07296454 0.283687943 0.235234043 0.283687943"></polygon>
        <polygon id="path-41" points="0.0559716312 0.0119148936 0.895404255 0.0119148936 0.895404255 0.283687943 0.0559716312 0.283687943"></polygon>
        <polygon id="path-43" points="0.232141844 0.192435817 33.9972482 0.192435817 33.9972482 11.9148936 0.232141844 11.9148936"></polygon>
    </defs>
    <g id="页面10" stroke="none" stroke-width="1" fill="none" fill-rule="evenodd">
        <g id="编组-20备份">
            <g id="编组-13" transform="translate(47.000000, 10.000000)">
                <g id="编组-22备份" transform="translate(0.000000, 0.000000)">
                    <path d="M115.808167,2.84647944 C115.623874,3.25492918 115.419342,3.65663276 115.197332,4.03687126 C115.331642,4.23373668 115.453073,4.42416257 115.560705,4.60692237 L115.808167,2.84647944 Z M113.596957,4.8534641 C113.794743,4.64923923 113.989155,4.41710976 114.165782,4.16351521 C114.037605,3.97339596 113.902068,3.78297007 113.772051,3.60695644 L113.596957,4.8534641 Z M115.376719,5.91721198 L115.468712,5.26222049 L114.974709,5.62130056 C114.898661,5.40971623 114.778457,5.16378778 114.626055,4.89608761 C114.3743,5.23400925 114.113346,5.53666683 113.838286,5.79056802 C113.776037,5.6850825 113.653993,5.50140278 113.527656,5.34654758 L113.447315,5.91721198 L115.376719,5.91721198 Z M116.970654,2.29022731 L112.907928,2.29022731 L113.042545,1.3322716 L114.521489,1.3322716 C114.445441,1.12099392 114.350382,0.895917256 114.271267,0.705491362 L115.230143,0.39578097 C115.373959,0.677280118 115.540467,1.043413 115.640739,1.3322716 L117.104964,1.3322716 L116.970654,2.29022731 Z M114.293652,2.8532256 C114.420603,3.00133463 114.55246,3.16324264 114.683704,3.3325101 C114.856957,3.00133463 115.019172,2.64930738 115.154095,2.29022731 L115.965475,2.48034656 L115.891267,2.65636019 L116.763976,2.65636019 L116.140569,7.09349818 L115.211438,7.09349818 L115.243942,6.86075542 L112.378354,6.86075542 L112.970177,2.64930738 L113.906668,2.64930738 L113.832767,3.17734826 L114.293652,2.8532256 Z M111.681046,1.45186274 L111.557468,2.33223753 L111.916549,2.33223753 L112.040126,1.45186274 L111.681046,1.45186274 Z M111.693925,3.91697347 L111.801864,3.14944366 L111.442784,3.14944366 L111.425612,3.26934145 C111.398014,3.46620686 111.367349,3.68453736 111.327792,3.91697347 L111.693925,3.91697347 Z M112.234845,6.07911998 C112.180262,6.46671794 112.095322,6.72000584 111.849394,6.86780823 C111.602239,7.02266342 111.317673,7.04382186 110.923329,7.04382186 C110.935901,6.80433293 110.873652,6.39588318 110.793618,6.16344707 C110.988644,6.17755269 111.200228,6.17755269 111.277503,6.17755269 C111.355083,6.17755269 111.380228,6.14964809 111.392187,6.06501436 L111.574947,4.76208421 L111.159445,4.76208421 C110.977605,5.60750158 110.711744,6.49462254 110.347145,7.1355084 C110.222954,6.96654758 109.880739,6.64947773 109.704112,6.55104502 C110.192903,5.62835337 110.405101,4.26900073 110.54493,3.27608761 L110.911063,0.670227308 L112.995015,0.670227308 L112.234845,6.07911998 Z" id="Fill-1" fill="#FFFFFF"></path>
                    <path d="M122.293196,3.19866002 C122.428119,3.33940959 122.55507,3.48721198 122.631731,3.59331078 L122.485155,3.68469068 L122.977932,3.68469068 L123.067472,3.19866002 L122.293196,3.19866002 Z M122.664848,5.16363446 C122.708392,5.00172646 122.748562,4.81835337 122.792412,4.60707569 L121.961407,4.60707569 C122.122702,4.76223753 122.290129,4.92414554 122.384576,5.05078949 L122.207336,5.16363446 L122.664848,5.16363446 Z M121.211049,3.68469068 L121.851935,3.68469068 C121.755956,3.5647929 121.647097,3.4378423 121.548971,3.33266342 L121.778954,3.19866002 L121.335547,3.19866002 L121.211049,3.68469068 Z M120.813026,5.16363446 L121.552344,5.16363446 C121.424474,5.02257824 121.283111,4.87477586 121.159227,4.75518472 L121.412208,4.60707569 L120.961441,4.60707569 L120.813026,5.16363446 Z M123.728903,4.60707569 C123.685666,4.81130056 123.645802,4.994367 123.601339,5.16363446 L124.009789,5.16363446 L123.887744,6.02990363 L123.373503,6.02990363 C123.272617,6.34697347 123.175717,6.53678608 123.075445,6.64963106 C122.863554,6.90291896 122.663009,6.98049988 122.410334,7.02281675 C122.186177,7.06482697 121.855308,7.06482697 121.519227,7.05102799 C121.538852,6.81153906 121.490709,6.45215235 121.382463,6.22002288 C121.660589,6.24792748 121.906825,6.24792748 122.047574,6.24792748 C122.160112,6.24792748 122.226348,6.22707569 122.318034,6.12833634 C122.341952,6.1071779 122.360964,6.07222049 122.388256,6.02990363 L119.578784,6.02990363 C119.719533,5.62850669 119.866416,5.13511657 120.018204,4.60707569 L119.40553,4.60707569 L119.53524,3.68469068 L120.267813,3.68469068 C120.340487,3.41699051 120.406109,3.14959698 120.471118,2.88864298 C120.428801,2.93801266 120.386484,2.98768898 120.345394,3.0296992 C120.170913,2.86779119 119.773196,2.59273157 119.551492,2.46608761 C120.071254,1.97300414 120.599908,1.17021027 120.932003,0.40973327 L121.889039,0.663021175 C121.82679,0.803770749 121.751969,0.9380808 121.682974,1.07883037 L124.548256,1.07883037 L124.420385,1.9874164 L121.139601,1.9874164 C121.06662,2.10700755 120.987199,2.21985252 120.901032,2.33239085 L124.153911,2.33239085 C124.153911,2.33239085 124.106382,2.62094281 124.082463,2.7408406 C124.019908,3.08581504 123.962259,3.39613872 123.907676,3.68469068 L124.386041,3.68469068 L124.256637,4.60707569 L123.728903,4.60707569 Z M119.58277,2.04353225 C119.355853,1.80434997 118.849278,1.45201606 118.472412,1.22663276 L119.133843,0.529631055 C119.507336,0.726496473 120.03323,1.04356632 120.290198,1.26894962 L119.58277,2.04353225 Z M118.814014,4.00881334 C118.615922,3.76196496 118.14277,3.42373668 117.77909,3.20540618 L118.432242,2.51515065 C118.800828,2.69852373 119.285325,3.00854077 119.513162,3.24097688 L118.814014,4.00881334 Z M117.50679,6.44540618 C117.865871,5.89590022 118.382566,5.02257824 118.802974,4.18452032 L119.513775,4.7410791 C119.147029,5.49450329 118.726313,6.28349818 118.317557,6.98724605 L117.50679,6.44540618 Z" id="Fill-3" fill="#FFFFFF"></path>
                    <polygon id="Fill-79" fill="#FFFFFF" points="12.6003066 20.2862716 13.8351618 11.4996958 10.5951618 16.0346532 7.70964225 16.0346532 5.74436116 11.4996958 4.50950596 20.2862716 1.10134124e-13 20.2862716 2.57826235 1.94037722 7.01049404 1.94037722 9.9962862 10.0308713 15.2558433 1.94037722 19.6877683 1.94037722 17.109506 20.2862716"></polygon>
                    <polygon id="Fill-81" fill="#FFFFFF" points="20.5634821 20.2862716 22.4352368 6.96504502 26.6614037 6.96504502 24.7893424 20.2862716"></polygon>
                    <path d="M35.6120954,20.2862716 L36.7779557,11.9890995 C37.0024191,10.3914845 35.9122998,10.0823874 35.3453152,10.0823874 C34.7783305,10.0823874 33.6008177,10.3914845 33.376661,11.9890995 L32.210494,20.2862716 L27.9849404,20.2862716 L29.9327428,6.42381845 L34.0558773,6.42381845 L33.8961158,7.5571745 C34.8660307,6.70715746 36.1904259,6.26865661 37.2983305,6.26865661 C38.6122998,6.26865661 39.6073595,6.70715746 40.2497785,7.45414213 C41.2681431,8.63962765 41.2896082,9.95390363 41.0835434,11.4227282 L39.8376491,20.2862716 L35.6120954,20.2862716 Z" id="Fill-83" fill="#FFFFFF"></path>
                    <path d="M49.8270051,10.0822648 C48.2554549,10.0822648 47.8972947,11.3450246 47.6148756,13.354769 C47.3324566,15.3648202 47.335523,16.6272733 48.9070733,16.6272733 C50.4792368,16.6272733 50.8367836,15.3648202 51.1195094,13.354769 C51.4019284,11.3450246 51.398862,10.0822648 49.8270051,10.0822648 L49.8270051,10.0822648 Z M50.274092,20.2861489 L50.4335468,19.1524863 C49.4633254,20.0028099 48.5001567,20.4406975 47.0570903,20.4406975 C45.7173629,20.4406975 44.5453697,19.9770518 43.8591005,19.1782443 C42.6852675,17.8127588 43.1029165,15.3905782 43.3890153,13.354769 C43.6751141,11.3192665 43.9382147,8.89708591 45.4959659,7.53160039 C46.4070051,6.7327929 47.6832572,6.26853395 49.0229847,6.26853395 C50.3887768,6.26853395 51.2878569,6.65551862 51.9523543,7.42887467 L52.7235639,1.94025456 L56.9494242,1.94025456 L54.3708552,20.2861489 L50.274092,20.2861489 Z" id="Fill-85" fill="#FFFFFF"></path>
                    <path d="M63.1618467,20.4407895 C60.7657308,20.4407895 57.0712845,19.4101592 57.9222215,13.354861 C58.7731584,7.29956291 62.7573833,6.26862594 65.1534991,6.26862594 C67.086276,6.26862594 68.490092,6.91349818 69.4646065,8.04685422 L66.2025281,10.907229 C65.7373492,10.3660024 65.3135673,10.0823568 64.6177922,10.0823568 C64.0508075,10.0823568 63.6392913,10.2629701 63.2277751,10.6232767 C62.6656968,11.1390518 62.3326814,12.0405851 62.1477751,13.354861 C61.9634821,14.669137 62.0429029,15.5706702 62.4599387,16.0861387 C62.7699557,16.4470587 63.1311823,16.6270587 63.6978603,16.6270587 C64.3939421,16.6270587 64.8974514,16.3440263 65.5144191,15.8027997 L67.972477,18.6628679 C66.6796661,19.7965305 65.0946235,20.4407895 63.1618467,20.4407895" id="Fill-87" fill="#FFFFFF"></path>
                    <path d="M77.4076048,20.2862716 L77.5670596,19.1526089 C76.5968382,20.0026259 75.2727496,20.4408202 74.164845,20.4408202 C72.8508756,20.4408202 71.8561227,20.0026259 71.2140102,19.2556413 C70.1950324,18.0701558 70.1732606,16.7561864 70.3799387,15.2873619 L71.625833,6.42381845 L75.8516934,6.42381845 L74.6855264,14.7206839 C74.461063,16.3182989 75.5508756,16.6270893 76.118167,16.6270893 C76.6851516,16.6270893 77.8620511,16.3182989 78.0868211,14.7206839 L79.2529881,6.42381845 L83.4788484,6.42381845 L81.5304327,20.2862716 L77.4076048,20.2862716 Z" id="Fill-89" fill="#FFFFFF"></path>
                    <path d="M89.338569,20.2862716 C86.2721295,20.2862716 85.3433049,18.0959138 85.6110051,16.1895084 L86.4512095,10.2117912 L85.1887564,10.2117912 L85.6447359,6.96504502 L86.9071891,6.96504502 L87.4652811,2.99645899 L91.6911414,2.99645899 L91.133356,6.96504502 L93.3234072,6.96504502 L92.8674276,10.2117912 L90.6770698,10.2117912 L89.8807155,15.8801046 C89.8043612,16.4213312 90.0444634,16.7304283 90.6111414,16.7304283 L91.9514821,16.7304283 L91.4516525,20.2862716 L89.338569,20.2862716 Z" id="Fill-91" fill="#FFFFFF"></path>
                    <path d="M102.830014,10.8297094 C102.65584,10.2372733 102.157543,9.74786956 101.152671,9.74786956 C100.147492,9.74786956 99.5121261,10.2372733 99.171138,10.8297094 C98.9399284,11.1906294 98.8341363,11.5770007 98.7869131,11.9118559 L102.910048,11.9118559 C102.956964,11.5770007 102.959724,11.1906294 102.830014,10.8297094 L102.830014,10.8297094 Z M98.3922624,14.7204079 C98.2331141,15.8543772 98.96446,16.8850075 100.536317,16.8850075 C102.004835,16.8850075 102.707049,16.4725714 103.559213,15.7255868 L105.729332,18.2504931 C104.113319,19.6678014 102.61291,20.4408508 100.036487,20.4408508 C96.9700477,20.4408508 93.5957376,19.3326396 94.4359421,13.3546157 C95.0731482,8.81996496 98.0080375,6.26868727 101.641462,6.26868727 C105.660951,6.26868727 107.464324,9.20633634 106.953455,12.8394539 L106.689128,14.7204079 L98.3922624,14.7204079 Z" id="Fill-93" fill="#FFFFFF"></path>
                    <path d="M27.1210017,2.68687126 C26.9830119,2.39709272 26.7824668,2.13675201 26.5313254,1.92240789 L26.3240341,1.74516768 C26.3007291,1.72523583 26.2645451,1.72738233 26.2433867,1.74915405 C26.2381738,1.75467364 26.2341874,1.76049988 26.2320409,1.76755269 L26.1394344,2.01470772 C26.082092,2.16986956 25.9762998,2.32871112 25.8257376,2.4847929 C25.8183782,2.49215235 25.8079523,2.49705865 25.7969131,2.49767194 C25.7855673,2.49889852 25.7742215,2.49521879 25.7659421,2.48816598 C25.7564361,2.48019324 25.7509165,2.46823412 25.7518365,2.45596836 C25.7779012,2.05641129 25.6500307,1.60595133 25.3697581,1.11562765 C25.1382419,0.707791192 24.8153458,0.390108057 24.413029,0.16840448 L24.1189574,0.00741640461 C24.0919727,-0.00760914906 24.0570153,0.000976881608 24.0410698,0.0261216857 C24.0355503,0.0353210043 24.0330971,0.0454402547 24.0334037,0.0555595051 L24.0490426,0.374162572 C24.0600818,0.591879778 24.0330971,0.78445218 23.9690085,0.943907035 C23.890201,1.14046581 23.7770494,1.3232256 23.6341533,1.48482697 C23.5341874,1.59859187 23.4210358,1.7013176 23.2962317,1.79116428 C22.9963339,2.00642833 22.752552,2.28240789 22.5829779,2.59763787 C22.2628416,3.20111317 22.2407632,3.90455439 22.522569,4.52397518 C22.7786167,5.08053395 23.2566746,5.52240789 23.8558569,5.75576393 C24.1643407,5.87658165 24.4915298,5.93821709 24.8297581,5.93821709 C25.1676797,5.93821709 25.4951755,5.87658165 25.8036593,5.75668387 C26.1011039,5.6410791 26.3715639,5.47273157 26.6000136,5.2608406 C27.0700988,4.82816598 27.3344259,4.23818301 27.3338137,3.62213531 C27.3338137,3.2983193 27.2629779,2.98400925 27.1210017,2.68687126" id="Fill-95" fill="#FF658F"></path>
                </g>
            </g>
            <g id="编组备份">
                <path d="M21.367461,36.4537305 C21.3413617,36.465078 21.3149787,36.4775603 21.2891631,36.4886241 C21.3149787,36.4775603 21.3413617,36.465078 21.367461,36.4537305" id="Fill-1" fill="#5FB2E3"></path>
                <path d="M23.1009078,35.6314894 C22.8132482,35.7639716 22.5224681,35.902695 22.2260142,36.0521986 C22.5224681,35.902695 22.8132482,35.7639716 23.1009078,35.6314894" id="Fill-3" fill="#5FB2E3"></path>
                <path d="M25.7649078,34.5989787 C25.536539,34.6693333 25.304766,34.7464965 25.069305,34.8293333 C25.304766,34.7464965 25.536539,34.6693333 25.7649078,34.5989787" id="Fill-5" fill="#5FB2E3"></path>
                <path d="M23.9586099,35.2569362 C23.7642837,35.3375035 23.5674043,35.4231773 23.3688227,35.5119716 C23.5674043,35.4231773 23.7642837,35.3375035 23.9586099,35.2569362" id="Fill-7" fill="#5FB2E3"></path>
                <path d="M20.4723404,36.8119433 C20.4346099,36.825844 20.3965957,36.8405957 20.3588652,36.8536454 C20.3965957,36.8405957 20.4346099,36.825844 20.4723404,36.8119433" id="Fill-9" fill="#5FB2E3"></path>
                <path d="M19.5614468,37.1142128 C19.5200284,37.126695 19.4783262,37.1391773 19.4366241,37.1510922 C19.4783262,37.1391773 19.5200284,37.126695 19.5614468,37.1142128" id="Fill-11" fill="#5FB2E3"></path>
                <g id="编组" transform="translate(16.453901, 37.453333)">
                    <mask id="mask-2" fill="white">
                        <use xlink:href="#path-1"></use>
                    </mask>
                    <g id="Clip-14"></g>
                    <path d="M0.339659574,0.208567376 C0.332,0.20941844 0.324340426,0.209702128 0.316964539,0.210553191 C0.324340426,0.209702128 0.332,0.20941844 0.339659574,0.208567376" id="Fill-13" fill="#5FB2E3" mask="url(#mask-2)"></path>
                </g>
                <path d="M17.7188652,37.5391773 C17.6902128,37.5437163 17.6615603,37.5476879 17.6329078,37.552227 C17.6615603,37.5476879 17.6902128,37.5437163 17.7188652,37.5391773" id="Fill-15" fill="#5FB2E3"></path>
                <path d="M18.6419574,37.3568794 C18.6033759,37.3656738 18.565078,37.3741844 18.5262128,37.382695 C18.565078,37.3741844 18.6033759,37.3656738 18.6419574,37.3568794" id="Fill-17" fill="#5FB2E3"></path>
                <path d="M30.2468369,33.9603972 C30.057617,33.949617 29.8647092,33.9436596 29.6675461,33.944227 C29.8647092,33.9436596 30.057617,33.949617 30.2468369,33.9603972" id="Fill-19" fill="#5FB2E3"></path>
                <path d="M26.6203972,34.3573901 C26.3690496,34.4209362 26.1137305,34.4912908 25.8530213,34.570156 C26.1137305,34.4912908 26.3690496,34.4209362 26.6203972,34.3573901" id="Fill-21" fill="#5FB2E3"></path>
                <path d="M33.105617,34.6662979 C32.9598014,34.596227 32.8102979,34.530695 32.656539,34.4702695 C32.8102979,34.530695 32.9598014,34.596227 33.105617,34.6662979" id="Fill-23" fill="#5FB2E3"></path>
                <path d="M33.6084255,34.9347234 L33.6084255,34.9347234 C33.4631773,34.8484823 33.3128227,34.7679149 33.1584965,34.6921702 C33.3128227,34.7679149 33.4631773,34.8484823 33.6084255,34.9347234" id="Fill-25" fill="#5FB2E3"></path>
                <path d="M30.8618723,34.0180142 C30.7007376,33.997305 30.5364823,33.9808511 30.3688227,33.9689362 C30.5361986,33.9811348 30.7007376,33.997305 30.8618723,34.0180142" id="Fill-27" fill="#5FB2E3"></path>
                <path d="M28.0937021,34.0648227 C27.922922,34.0895035 27.7498723,34.1178723 27.5739858,34.1502128 C27.7498723,34.1178723 27.922922,34.0895035 28.0937021,34.0648227" id="Fill-29" fill="#5FB2E3"></path>
                <g id="编组" transform="translate(14.751773, 37.453333)">
                    <mask id="mask-4" fill="white">
                        <use xlink:href="#path-3"></use>
                    </mask>
                    <g id="Clip-32"></g>
                    <path d="M0.272340426,0.281702128 C0.255319149,0.28141844 0.238865248,0.281702128 0.221843972,0.28141844 C0.238865248,0.281702128 0.255319149,0.28141844 0.272340426,0.281702128" id="Fill-31" fill="#5FB2E3" mask="url(#mask-4)"></path>
                </g>
                <path d="M27.3595461,34.1908936 C27.1742979,34.2280567 26.9859291,34.2700426 26.7950071,34.316 C26.9859291,34.2700426 27.1745816,34.227773 27.3595461,34.1908936" id="Fill-33" fill="#5FB2E3"></path>
                <path d="M28.8876879,33.9759149 C28.6893901,33.991234 28.4871206,34.0119433 28.2811631,34.0386099 C28.4871206,34.012227 28.6893901,33.9909504 28.8876879,33.9759149" id="Fill-35" fill="#5FB2E3"></path>
                <path d="M24.8140993,34.9225532 C24.6277163,34.990922 24.4396312,35.062695 24.2487092,35.1390071 C24.4393475,35.062695 24.6277163,34.990922 24.8140993,34.9225532" id="Fill-37" fill="#5FB2E3"></path>
                <path d="M12.3287943,37.4746383 C12.3146099,37.4720851 12.3004255,37.4692482 12.2865248,37.4669787 C12.3004255,37.4692482 12.3146099,37.4720851 12.3287943,37.4746383" id="Fill-39" fill="#5FB2E3"></path>
                <g id="编组" transform="translate(13.049645, 37.453333)">
                    <mask id="mask-6" fill="white">
                        <use xlink:href="#path-5"></use>
                    </mask>
                    <g id="Clip-42"></g>
                    <path d="M0.186184397,0.15622695 L0.118950355,0.148 L0.186184397,0.15622695 Z" id="Fill-41" fill="#5FB2E3" mask="url(#mask-6)"></path>
                </g>
                <path d="M28.9494752,33.9700993 C29.1795461,33.9539291 29.404227,33.9451348 29.6238014,33.9437163 C29.404227,33.9454184 29.1795461,33.9539291 28.9494752,33.9700993" id="Fill-43" fill="#5FB2E3"></path>
                <g id="编组" transform="translate(0.000000, 0.006525)">
                    <mask id="mask-8" fill="white">
                        <use xlink:href="#path-7"></use>
                    </mask>
                    <g id="Clip-46"></g>
                    <path d="M15.798156,6.2826383 C16.5408511,6.2826383 17.1428369,6.88462411 17.1428369,7.62731915 C17.1428369,8.3697305 16.5408511,8.97171631 15.798156,8.97171631 C15.0557447,8.97171631 14.4537589,8.3697305 14.4537589,7.62731915 C14.4537589,6.88462411 15.0557447,6.2826383 15.798156,6.2826383 M12.0112057,14.8664681 C11.8619858,14.7430638 11.7646809,14.5589504 11.7646809,14.3498723 C11.7646809,13.9788085 12.0656738,13.6775319 12.4367376,13.6775319 C12.7836879,13.6775319 13.0656738,13.941078 13.1019858,14.278383 C13.8965957,13.825617 14.6801418,13.3280284 15.4512057,12.7833475 C28.798156,3.36207092 37.2095035,12.3127092 39.9885106,19.8287376 C39.7493617,8.99100709 30.895461,0.276964539 20.0001418,0.276964539 C15.5019858,0.276964539 11.3510638,1.76235461 8.01035461,4.2684539 C8.0293617,4.26817021 8.04808511,4.26590071 8.0670922,4.26590071 C9.18113475,4.26590071 10.0838298,5.16887943 10.0838298,6.2826383 C10.0838298,7.39668085 9.18113475,8.29937589 8.0670922,8.29937589 C6.95333333,8.29937589 6.0506383,7.39668085 6.0506383,6.2826383 C6.0506383,6.15838298 6.06340426,6.03668085 6.08496454,5.91838298 C3.00865248,8.90051064 0.885531915,12.8588085 0.222269504,17.296539 C4.33460993,17.6341277 8.28978723,16.7609362 12.0112057,14.8664681" id="Fill-45" fill="#00CDD3" mask="url(#mask-8)"></path>
                </g>
                <g id="编组" transform="translate(13.900709, 37.453333)">
                    <mask id="mask-10" fill="white">
                        <use xlink:href="#path-9"></use>
                    </mask>
                    <g id="Clip-48"></g>
                    <path d="M0.235205674,0.243489362 C0.211943262,0.241787234 0.188680851,0.240368794 0.16541844,0.238666667 C0.188680851,0.240368794 0.211943262,0.241787234 0.235205674,0.243489362" id="Fill-47" fill="#5FB2E3" mask="url(#mask-10)"></path>
                </g>
                <g id="编组" transform="translate(0.000000, 8.517163)">
                    <mask id="mask-12" fill="white">
                        <use xlink:href="#path-11"></use>
                    </mask>
                    <g id="Clip-50"></g>
                    <path d="M4.7711773,24.7240284 C10.9399716,25.0820426 17.9016738,22.5722553 22.8571348,19.9569362 C29.668766,16.3620426 35.0937305,17.2230355 38.536,19.2712624 C39.4767092,16.9535319 40.0001135,14.4224681 40.0001135,11.7665816 C40.0001135,11.616227 39.9918865,11.4675745 39.988766,11.3180709 C37.2094752,3.80204255 28.7981277,-5.14859574 15.4511773,4.27268085 C14.6801135,4.8173617 13.8965674,5.31495035 13.1019574,5.76771631 C13.1045106,5.7915461 13.1093333,5.81480851 13.1093333,5.83948936 C13.1093333,6.21055319 12.8083404,6.5115461 12.4367092,6.5115461 C12.2744397,6.5115461 12.127773,6.45168794 12.0111773,6.35580142 C8.28975887,8.2502695 4.33458156,9.12346099 0.222241135,8.78587234 C0.0767092199,9.7586383 0.000113475177,10.7535319 0.000113475177,11.7665816 C0.000113475177,16.7112624 1.7972766,21.2338156 4.7711773,24.7240284" id="Fill-49" fill="#00A2AE" mask="url(#mask-12)"></path>
                </g>
                <path d="M28.9494752,33.9700993 C28.9293333,33.9718014 28.9080567,33.9743546 28.8876312,33.9760567 C28.9080567,33.9743546 28.9293333,33.9718014 28.9494752,33.9700993" id="Fill-51" fill="#005279"></path>
                <path d="M28.2812482,34.0385248 C28.2194043,34.0461844 28.1564255,34.0561135 28.0937305,34.0649078 C28.1564255,34.0561135 28.2194043,34.0461844 28.2812482,34.0385248" id="Fill-53" fill="#005279"></path>
                <path d="M27.5739574,34.150156 C27.5027518,34.1632057 27.4315461,34.176539 27.3594894,34.1910071 C27.4315461,34.176539 27.5027518,34.1632057 27.5739574,34.150156" id="Fill-55" fill="#005279"></path>
                <path d="M32.656539,34.470156 C32.6423546,34.4644823 32.6284539,34.4585248 32.6145532,34.4528511 C32.6284539,34.4585248 32.6423546,34.4644823 32.656539,34.470156" id="Fill-57" fill="#005279"></path>
                <path d="M29.623773,33.943773 C29.6388085,33.9434894 29.6529929,33.9443404 29.667461,33.9443404 C29.6529929,33.9443404 29.6388085,33.9434894 29.623773,33.943773" id="Fill-59" fill="#005279"></path>
                <path d="M26.794922,34.3161135 C26.7364823,34.3302979 26.679461,34.3424965 26.6204539,34.3575319 C26.679461,34.3424965 26.7364823,34.3302979 26.794922,34.3161135" id="Fill-61" fill="#005279"></path>
                <path d="M30.3687376,33.9689929 C30.3278865,33.966156 30.2878865,33.9630355 30.2467518,33.9604823 C30.2878865,33.9630355 30.3278865,33.966156 30.3687376,33.9689929" id="Fill-63" fill="#005279"></path>
                <g id="编组" transform="translate(14.751773, 37.453333)">
                    <mask id="mask-14" fill="white">
                        <use xlink:href="#path-13"></use>
                    </mask>
                    <g id="Clip-66"></g>
                    <path d="M2.01906383,0.210524823 C1.43523404,0.268113475 0.853390071,0.290808511 0.272397163,0.281730496 C0.853390071,0.290524823 1.43523404,0.268113475 2.01906383,0.210524823" id="Fill-65" fill="#005279" mask="url(#mask-14)"></path>
                </g>
                <path d="M33.1585248,34.6920567 C33.1409362,34.6832624 33.1233475,34.6747518 33.1054752,34.6662411 C33.1233475,34.6747518 33.1409362,34.6832624 33.1585248,34.6920567" id="Fill-67" fill="#005279"></path>
                <path d="M13.1684823,37.6012482 C12.8884823,37.5655035 12.6084823,37.5235177 12.328766,37.4747234 C12.6084823,37.5235177 12.8884823,37.5655035 13.1684823,37.6012482" id="Fill-69" fill="#005279"></path>
                <path d="M19.4365106,37.1510355 C19.1712624,37.2273475 18.9065816,37.296 18.6419007,37.3569929 C18.9065816,37.296 19.1712624,37.2276312 19.4365106,37.1510355" id="Fill-71" fill="#005279"></path>
                <g id="编组" transform="translate(13.049645, 37.453333)">
                    <mask id="mask-16" fill="white">
                        <use xlink:href="#path-15"></use>
                    </mask>
                    <g id="Clip-74"></g>
                    <path d="M1.0164539,0.238780142 C0.73929078,0.21835461 0.462695035,0.190553191 0.186099291,0.15622695 C0.462695035,0.190553191 0.73929078,0.21835461 1.0164539,0.238780142" id="Fill-73" fill="#005279" mask="url(#mask-16)"></path>
                </g>
                <path d="M21.2890496,36.4886525 C21.0164255,36.6058156 20.7443688,36.7124823 20.4723121,36.8120567 C20.7443688,36.7124823 21.0164255,36.6058156 21.2890496,36.4886525" id="Fill-75" fill="#005279"></path>
                <path d="M18.526156,37.3826667 C18.2569362,37.4422411 17.9877163,37.4950071 17.7187801,37.5392624 C17.9877163,37.4950071 18.2569362,37.4422411 18.526156,37.3826667" id="Fill-77" fill="#005279"></path>
                <g id="编组" transform="translate(13.900709, 37.453333)">
                    <mask id="mask-18" fill="white">
                        <use xlink:href="#path-17"></use>
                    </mask>
                    <g id="Clip-80"></g>
                    <path d="M1.07296454,0.281446809 C0.793531915,0.276056738 0.514099291,0.26329078 0.235234043,0.243432624 C0.514099291,0.26329078 0.793531915,0.276056738 1.07296454,0.281446809" id="Fill-79" fill="#005279" mask="url(#mask-18)"></path>
                </g>
                <g id="编组" transform="translate(16.737589, 37.453333)">
                    <mask id="mask-20" fill="white">
                        <use xlink:href="#path-19"></use>
                    </mask>
                    <g id="Clip-82"></g>
                    <path d="M0.895404255,0.0988652482 C0.615404255,0.143120567 0.335120567,0.180567376 0.0559716312,0.208652482 C0.335120567,0.180567376 0.615404255,0.143120567 0.895404255,0.0988652482" id="Fill-81" fill="#005279" mask="url(#mask-20)"></path>
                </g>
                <path d="M22.2260142,36.0523121 C21.9392057,36.1967092 21.6532482,36.3291915 21.3675745,36.4537305 C21.6532482,36.3291915 21.9394894,36.1967092 22.2260142,36.0523121" id="Fill-83" fill="#005279"></path>
                <path d="M20.3587518,36.8537872 C20.0929362,36.9491064 19.8268369,37.0353475 19.561305,37.1142128 C19.8268369,37.0353475 20.0929362,36.9491064 20.3587518,36.8537872" id="Fill-85" fill="#005279"></path>
                <path d="M24.2486809,35.138922 C24.1525106,35.1775035 24.055773,35.2163688 23.9587518,35.2569362 C24.055773,35.2163688 24.1525106,35.1775035 24.2486809,35.138922" id="Fill-87" fill="#005279"></path>
                <path d="M25.0692482,34.8291915 C24.9849929,34.858695 24.8990355,34.8913191 24.8142128,34.9225248 C24.8990355,34.8913191 24.9849929,34.858695 25.0692482,34.8291915" id="Fill-89" fill="#005279"></path>
                <path d="M25.8529929,34.570156 C25.8240567,34.5789504 25.7939858,34.5897305 25.764766,34.5990922 C25.7939858,34.5897305 25.823773,34.5789504 25.8529929,34.570156" id="Fill-91" fill="#005279"></path>
                <path d="M23.3687943,35.5120851 C23.2794326,35.5520851 23.190922,35.5898156 23.1009929,35.6315177 C23.190922,35.5898156 23.2794326,35.5520851 23.3687943,35.5120851" id="Fill-93" fill="#005279"></path>
                <path d="M32.6144113,34.4529645 C32.2725674,34.3210496 31.9111489,34.2121135 31.5290213,34.129844 C31.9111489,34.2121135 32.2725674,34.3210496 32.6144113,34.4529645" id="Fill-95" fill="#5FB2E3"></path>
                <g id="编组" transform="translate(4.539007, 25.822128)">
                    <mask id="mask-22" fill="white">
                        <use xlink:href="#path-21"></use>
                    </mask>
                    <g id="Clip-98"></g>
                    <path d="M18.3180993,2.65205674 C13.3626383,5.26737589 6.40093617,7.77687943 0.232141844,7.41914894 C1.16036879,8.50822695 2.20150355,9.49801418 3.34051064,10.3669504 C4.80292199,10.9419858 6.27157447,11.3825532 7.74731915,11.6446809 C7.76150355,11.647234 7.77568794,11.6500709 7.78987234,11.6526241 C8.06958865,11.7011348 8.34930496,11.7434043 8.62958865,11.7791489 L8.6968227,11.7873759 C8.97341844,11.8217021 9.25001418,11.8495035 9.5271773,11.8699291 C9.55043972,11.8716312 9.57370213,11.8730496 9.59696454,11.8747518 C9.87582979,11.8943262 10.1552624,11.9073759 10.434695,11.912766 C10.4517163,11.9130496 10.4681702,11.912766 10.4851915,11.9130496 C11.0661844,11.9221277 11.6480284,11.8994326 12.2318582,11.841844 C12.239234,11.8409929 12.2468936,11.8407092 12.2545532,11.8398582 C12.5337021,11.811773 12.8139858,11.7743262 13.0939858,11.7300709 C13.1226383,11.7255319 13.1512908,11.7215603 13.1799433,11.7170213 C13.4485957,11.672766 13.7178156,11.62 13.9870355,11.5604255 C14.0259007,11.5519149 14.0644823,11.5436879 14.1030638,11.5348936 C14.367461,11.4739007 14.6324255,11.4052482 14.8973901,11.3289362 C14.9393759,11.3170213 14.9807943,11.304539 15.0224965,11.2920567 C15.2877447,11.2131915 15.553844,11.1269504 15.8196596,11.0316312 C15.8576738,11.0182979 15.8956879,11.0035461 15.9334184,10.9899291 C16.2054752,10.8903546 16.4775319,10.7836879 16.750156,10.6665248 C16.7759716,10.655461 16.8023546,10.6429787 16.8284539,10.6316312 C17.1144113,10.5068085 17.4003688,10.3746099 17.6868936,10.2302128 C17.9833475,10.0807092 18.2744113,9.94170213 18.5617872,9.80950355 C18.652,9.76780142 18.740227,9.72978723 18.8298723,9.69007092 C19.0284539,9.60099291 19.2253333,9.51531915 19.4196596,9.43475177 C19.5169645,9.39446809 19.6134184,9.35531915 19.7095887,9.31673759 C19.9005106,9.24070922 20.0885957,9.16893617 20.2749787,9.10028369 C20.3600851,9.06907801 20.4460426,9.03673759 20.5302979,9.00695035 C20.7657589,8.92411348 20.9975319,8.84723404 21.2259007,8.77687943 C21.2551206,8.76780142 21.2851915,8.75702128 21.3141277,8.74794326 C21.5745532,8.66907801 21.830156,8.5987234 22.0815035,8.5351773 C22.1405106,8.52042553 22.1975319,8.50822695 22.2559716,8.49404255 C22.4468936,8.44808511 22.6352624,8.4058156 22.8205106,8.36865248 C22.8925674,8.35446809 22.963773,8.34113475 23.0349787,8.32808511 C23.2108652,8.29574468 23.3839149,8.26737589 23.554695,8.24269504 C23.6173901,8.23390071 23.6803688,8.22425532 23.7422128,8.21631206 C23.9481702,8.18992908 24.1504397,8.16893617 24.3487376,8.15390071 C24.3688794,8.15219858 24.390156,8.14964539 24.4105816,8.14794326 C24.6403688,8.13177305 24.8650496,8.12326241 25.0849078,8.12156028 C25.0996596,8.1212766 25.113844,8.12212766 25.1285957,8.12212766 C25.3257589,8.12156028 25.5186667,8.12751773 25.7078865,8.13829787 C25.7487376,8.14085106 25.7890213,8.14397163 25.8298723,8.14680851 C25.9972482,8.1587234 26.1615035,8.1751773 26.322922,8.19588652 C26.359234,8.20070922 26.3958298,8.20496454 26.4321418,8.21007092 C26.616539,8.2364539 26.7975319,8.26737589 26.9737021,8.3048227 C26.9788085,8.30595745 26.9844823,8.30680851 26.9898723,8.30794326 C27.3722837,8.39021277 27.7334184,8.49886525 28.0755461,8.63078014 C28.0894468,8.6364539 28.1033475,8.64241135 28.1175319,8.64808511 C28.2712908,8.70879433 28.4207943,8.77404255 28.5666099,8.84411348 C28.5841986,8.85262411 28.6020709,8.86113475 28.6196596,8.86992908 C28.7737021,8.94595745 28.9243404,9.02652482 29.069305,9.11248227 C31.1963972,7.13631206 32.8877447,4.70056738 33.9972482,1.96638298 C30.554695,-0.0821276596 25.1297305,-0.942836879 18.3180993,2.65205674" id="Fill-97" fill="#27899D" mask="url(#mask-22)"></path>
                </g>
                <path d="M6.08487943,5.92487943 C6.69197163,5.33679433 7.3328227,4.78360284 8.0102695,4.27523404" id="Fill-99" fill="#FFFFFF"></path>
                <path d="M8.0670922,8.30601418 C9.18113475,8.30601418 10.0838298,7.40303546 10.0838298,6.2892766 C10.0838298,5.17551773 9.18113475,4.27225532 8.0670922,4.27225532 C8.04808511,4.27225532 8.0293617,4.27480851 8.01035461,4.2750922 C7.3329078,4.78346099 6.69177305,5.33665248 6.08496454,5.92473759 C6.06340426,6.04303546 6.0506383,6.16473759 6.0506383,6.2892766 C6.0506383,7.40303546 6.95333333,8.30601418 8.0670922,8.30601418" id="Fill-101" fill="#FFFFFF"></path>
                <path d="M15.798156,8.97838298 C16.5408511,8.97838298 17.1428369,8.37639716 17.1428369,7.63398582 C17.1428369,6.89129078 16.5408511,6.28930496 15.798156,6.28930496 C15.0557447,6.28930496 14.4537589,6.89129078 14.4537589,7.63398582 C14.4537589,8.37639716 15.0557447,8.97838298 15.798156,8.97838298" id="Fill-103" fill="#FFFFFF"></path>
                <path d="M13.1020142,14.2847943 C13.0657021,13.947773 12.7837163,13.684227 12.436766,13.684227 C12.0657021,13.684227 11.7647092,13.9852199 11.7647092,14.3565674 C11.7647092,14.5653617 11.8620142,14.7497589 12.011234,14.8728794 C12.1275461,14.968766 12.2744965,15.0286241 12.436766,15.0286241 C12.8083972,15.0286241 13.1091064,14.7279149 13.1091064,14.3565674 C13.1091064,14.3318865 13.1045674,14.3086241 13.1020142,14.2847943" id="Fill-105" fill="#FFFFFF"></path>
                <path d="M17.9609929,17.1817872 C19.2157447,19.0643404 20.8285106,20.2186667 20.8285106,20.2186667 C20.8293617,20.2166809 20.8296454,20.214695 20.8310638,20.2135603 C23.8699291,17.1534184 25.38,12.6067518 25.5916312,9.40504965 C25.8038298,6.20221277 25.5314894,4.98405674 24.7306383,6.53526241 C23.6075177,8.712 21.7255319,10.5939858 18.9019858,12.4762553 C16.5348936,14.054695 16.7059574,15.2995177 17.9609929,17.1817872" id="Fill-107" fill="#005279"></path>
                <path d="M23.44,35.480227 C24.3211348,29.4311489 25.4107801,24.0240567 17.0198582,23.7698723 C11.288227,23.5959716 8.19035461,22.8569645 5.34893617,21.0260426 C3.84425532,20.9466099 3.53900709,20.8640567 5.09900709,22.201078 C7.29503546,24.0833475 11.027234,25.6124255 16.4419858,25.3885957 C17.8862411,25.3287376 20.8130496,25.5548369 22.3097872,28.1372482 C23.3310638,29.8995177 23.0851064,33.2725674 21.3495035,36.4617872 C21.6411348,36.3349787 21.9333333,36.1996596 22.2260993,36.0524255 C22.6405674,35.8430638 23.0436879,35.6558298 23.44,35.480227" id="Fill-109" fill="#005279"></path>
                <path d="M19.0084823,20.9641986 C18.969617,20.9571064 18.933305,20.9505816 18.9020993,20.9466099 C18.938695,20.9514326 18.9721702,20.9585248 19.0084823,20.9641986" id="Fill-111" fill="#9FC3F8"></path>
                <path d="M25.4898156,23.4561702 C25.0049929,22.5940426 25.0634326,21.2970213 25.5927943,20.2436879 C28.5247092,14.4104965 28.4750638,9.55687943 27.8918014,6.68198582 C27.7057021,5.76595745 27.4600284,4.55943262 27.0478298,4.4377305 C26.8132199,4.36879433 26.5249929,4.64907801 26.1624397,5.5364539 C25.9079716,6.15971631 25.6316596,6.73617021 25.335773,7.27460993 C25.0787518,7.74269504 24.8069787,8.18212766 24.5187518,8.59460993 C23.4747801,10.0887943 22.2296738,11.2422695 20.7882553,12.2394326 C20.2430071,12.6164539 19.2444255,13.5038298 19.2432908,15.0737589 C19.2427234,15.964539 19.562156,17.0740426 20.4708085,18.4368794 C19.5683972,17.444539 18.8027234,16.7807092 18.1153475,16.3602837 C16.4123688,15.3188652 15.1956312,15.7804255 13.6092482,16.5021277 C11.8035745,17.3242553 9.37265248,18.6714894 6.06570213,18.9687943 C5.53974468,19.0158865 4.98541844,18.995461 4.58768794,19.0164539 C3.84811348,19.0547518 2.08868085,18.511773 3.53038298,19.6913475 C4.14031206,20.1906383 4.7391773,20.6329078 5.34910638,21.0260993 C8.19052482,22.8570213 11.2881135,23.5960284 17.0200284,23.7696454 C25.4109504,24.0241135 24.321305,29.4312057 23.4398865,35.4802837 C23.4668369,35.4683688 23.4940709,35.4558865 23.5207376,35.4442553 C25.5017305,34.5747518 27.2577589,34.1140426 28.7942128,33.9843972 C29.1681135,33.9529078 29.5238582,33.9475177 29.8713759,33.9540426 C29.0180426,30.2765957 27.606695,27.2190071 25.4898156,23.4561702" id="Fill-113" fill="#FFFFFF"></path>
            </g>
        </g>
        <g id="编组备份-2">
            <path d="M21.367461,36.4537305 C21.3413617,36.465078 21.3149787,36.4775603 21.2891631,36.4886241 C21.3149787,36.4775603 21.3413617,36.465078 21.367461,36.4537305" id="Fill-1" fill="#5FB2E3"></path>
            <path d="M23.1009078,35.6314894 C22.8132482,35.7639716 22.5224681,35.902695 22.2260142,36.0521986 C22.5224681,35.902695 22.8132482,35.7639716 23.1009078,35.6314894" id="Fill-3" fill="#5FB2E3"></path>
            <path d="M25.7649078,34.5989787 C25.536539,34.6693333 25.304766,34.7464965 25.069305,34.8293333 C25.304766,34.7464965 25.536539,34.6693333 25.7649078,34.5989787" id="Fill-5" fill="#5FB2E3"></path>
            <path d="M23.9586099,35.2569362 C23.7642837,35.3375035 23.5674043,35.4231773 23.3688227,35.5119716 C23.5674043,35.4231773 23.7642837,35.3375035 23.9586099,35.2569362" id="Fill-7" fill="#5FB2E3"></path>
            <path d="M20.4723404,36.8119433 C20.4346099,36.825844 20.3965957,36.8405957 20.3588652,36.8536454 C20.3965957,36.8405957 20.4346099,36.825844 20.4723404,36.8119433" id="Fill-9" fill="#5FB2E3"></path>
            <path d="M19.5614468,37.1142128 C19.5200284,37.126695 19.4783262,37.1391773 19.4366241,37.1510922 C19.4783262,37.1391773 19.5200284,37.126695 19.5614468,37.1142128" id="Fill-11" fill="#5FB2E3"></path>
            <g id="编组" transform="translate(16.453901, 37.453333)">
                <mask id="mask-24" fill="white">
                    <use xlink:href="#path-23"></use>
                </mask>
                <g id="Clip-14"></g>
                <path d="M0.339659574,0.208567376 C0.332,0.20941844 0.324340426,0.209702128 0.316964539,0.210553191 C0.324340426,0.209702128 0.332,0.20941844 0.339659574,0.208567376" id="Fill-13" fill="#5FB2E3" mask="url(#mask-24)"></path>
            </g>
            <path d="M17.7188652,37.5391773 C17.6902128,37.5437163 17.6615603,37.5476879 17.6329078,37.552227 C17.6615603,37.5476879 17.6902128,37.5437163 17.7188652,37.5391773" id="Fill-15" fill="#5FB2E3"></path>
            <path d="M18.6419574,37.3568794 C18.6033759,37.3656738 18.565078,37.3741844 18.5262128,37.382695 C18.565078,37.3741844 18.6033759,37.3656738 18.6419574,37.3568794" id="Fill-17" fill="#5FB2E3"></path>
            <path d="M30.2468369,33.9603972 C30.057617,33.949617 29.8647092,33.9436596 29.6675461,33.944227 C29.8647092,33.9436596 30.057617,33.949617 30.2468369,33.9603972" id="Fill-19" fill="#5FB2E3"></path>
            <path d="M26.6203972,34.3573901 C26.3690496,34.4209362 26.1137305,34.4912908 25.8530213,34.570156 C26.1137305,34.4912908 26.3690496,34.4209362 26.6203972,34.3573901" id="Fill-21" fill="#5FB2E3"></path>
            <path d="M33.105617,34.6662979 C32.9598014,34.596227 32.8102979,34.530695 32.656539,34.4702695 C32.8102979,34.530695 32.9598014,34.596227 33.105617,34.6662979" id="Fill-23" fill="#5FB2E3"></path>
            <path d="M33.6084255,34.9347234 L33.6084255,34.9347234 C33.4631773,34.8484823 33.3128227,34.7679149 33.1584965,34.6921702 C33.3128227,34.7679149 33.4631773,34.8484823 33.6084255,34.9347234" id="Fill-25" fill="#5FB2E3"></path>
            <path d="M30.8618723,34.0180142 C30.7007376,33.997305 30.5364823,33.9808511 30.3688227,33.9689362 C30.5361986,33.9811348 30.7007376,33.997305 30.8618723,34.0180142" id="Fill-27" fill="#5FB2E3"></path>
            <path d="M28.0937021,34.0648227 C27.922922,34.0895035 27.7498723,34.1178723 27.5739858,34.1502128 C27.7498723,34.1178723 27.922922,34.0895035 28.0937021,34.0648227" id="Fill-29" fill="#5FB2E3"></path>
            <g id="编组" transform="translate(14.751773, 37.453333)">
                <mask id="mask-26" fill="white">
                    <use xlink:href="#path-25"></use>
                </mask>
                <g id="Clip-32"></g>
                <path d="M0.272340426,0.281702128 C0.255319149,0.28141844 0.238865248,0.281702128 0.221843972,0.28141844 C0.238865248,0.281702128 0.255319149,0.28141844 0.272340426,0.281702128" id="Fill-31" fill="#5FB2E3" mask="url(#mask-26)"></path>
            </g>
            <path d="M27.3595461,34.1908936 C27.1742979,34.2280567 26.9859291,34.2700426 26.7950071,34.316 C26.9859291,34.2700426 27.1745816,34.227773 27.3595461,34.1908936" id="Fill-33" fill="#5FB2E3"></path>
            <path d="M28.8876879,33.9759149 C28.6893901,33.991234 28.4871206,34.0119433 28.2811631,34.0386099 C28.4871206,34.012227 28.6893901,33.9909504 28.8876879,33.9759149" id="Fill-35" fill="#5FB2E3"></path>
            <path d="M24.8140993,34.9225532 C24.6277163,34.990922 24.4396312,35.062695 24.2487092,35.1390071 C24.4393475,35.062695 24.6277163,34.990922 24.8140993,34.9225532" id="Fill-37" fill="#5FB2E3"></path>
            <path d="M12.3287943,37.4746383 C12.3146099,37.4720851 12.3004255,37.4692482 12.2865248,37.4669787 C12.3004255,37.4692482 12.3146099,37.4720851 12.3287943,37.4746383" id="Fill-39" fill="#5FB2E3"></path>
            <g id="编组" transform="translate(13.049645, 37.453333)">
                <mask id="mask-28" fill="white">
                    <use xlink:href="#path-27"></use>
                </mask>
                <g id="Clip-42"></g>
                <path d="M0.186184397,0.15622695 L0.118950355,0.148 L0.186184397,0.15622695 Z" id="Fill-41" fill="#5FB2E3" mask="url(#mask-28)"></path>
            </g>
            <path d="M28.9494752,33.9700993 C29.1795461,33.9539291 29.404227,33.9451348 29.6238014,33.9437163 C29.404227,33.9454184 29.1795461,33.9539291 28.9494752,33.9700993" id="Fill-43" fill="#5FB2E3"></path>
            <g id="编组" transform="translate(0.000000, 0.006525)">
                <mask id="mask-30" fill="white">
                    <use xlink:href="#path-29"></use>
                </mask>
                <g id="Clip-46"></g>
                <path d="M15.798156,6.2826383 C16.5408511,6.2826383 17.1428369,6.88462411 17.1428369,7.62731915 C17.1428369,8.3697305 16.5408511,8.97171631 15.798156,8.97171631 C15.0557447,8.97171631 14.4537589,8.3697305 14.4537589,7.62731915 C14.4537589,6.88462411 15.0557447,6.2826383 15.798156,6.2826383 M12.0112057,14.8664681 C11.8619858,14.7430638 11.7646809,14.5589504 11.7646809,14.3498723 C11.7646809,13.9788085 12.0656738,13.6775319 12.4367376,13.6775319 C12.7836879,13.6775319 13.0656738,13.941078 13.1019858,14.278383 C13.8965957,13.825617 14.6801418,13.3280284 15.4512057,12.7833475 C28.798156,3.36207092 37.2095035,12.3127092 39.9885106,19.8287376 C39.7493617,8.99100709 30.895461,0.276964539 20.0001418,0.276964539 C15.5019858,0.276964539 11.3510638,1.76235461 8.01035461,4.2684539 C8.0293617,4.26817021 8.04808511,4.26590071 8.0670922,4.26590071 C9.18113475,4.26590071 10.0838298,5.16887943 10.0838298,6.2826383 C10.0838298,7.39668085 9.18113475,8.29937589 8.0670922,8.29937589 C6.95333333,8.29937589 6.0506383,7.39668085 6.0506383,6.2826383 C6.0506383,6.15838298 6.06340426,6.03668085 6.08496454,5.91838298 C3.00865248,8.90051064 0.885531915,12.8588085 0.222269504,17.296539 C4.33460993,17.6341277 8.28978723,16.7609362 12.0112057,14.8664681" id="Fill-45" fill="#00CDD3" mask="url(#mask-30)"></path>
            </g>
            <g id="编组" transform="translate(13.900709, 37.453333)">
                <mask id="mask-32" fill="white">
                    <use xlink:href="#path-31"></use>
                </mask>
                <g id="Clip-48"></g>
                <path d="M0.235205674,0.243489362 C0.211943262,0.241787234 0.188680851,0.240368794 0.16541844,0.238666667 C0.188680851,0.240368794 0.211943262,0.241787234 0.235205674,0.243489362" id="Fill-47" fill="#5FB2E3" mask="url(#mask-32)"></path>
            </g>
            <g id="编组" transform="translate(0.000000, 8.517163)">
                <mask id="mask-34" fill="white">
                    <use xlink:href="#path-33"></use>
                </mask>
                <g id="Clip-50"></g>
                <path d="M4.7711773,24.7240284 C10.9399716,25.0820426 17.9016738,22.5722553 22.8571348,19.9569362 C29.668766,16.3620426 35.0937305,17.2230355 38.536,19.2712624 C39.4767092,16.9535319 40.0001135,14.4224681 40.0001135,11.7665816 C40.0001135,11.616227 39.9918865,11.4675745 39.988766,11.3180709 C37.2094752,3.80204255 28.7981277,-5.14859574 15.4511773,4.27268085 C14.6801135,4.8173617 13.8965674,5.31495035 13.1019574,5.76771631 C13.1045106,5.7915461 13.1093333,5.81480851 13.1093333,5.83948936 C13.1093333,6.21055319 12.8083404,6.5115461 12.4367092,6.5115461 C12.2744397,6.5115461 12.127773,6.45168794 12.0111773,6.35580142 C8.28975887,8.2502695 4.33458156,9.12346099 0.222241135,8.78587234 C0.0767092199,9.7586383 0.000113475177,10.7535319 0.000113475177,11.7665816 C0.000113475177,16.7112624 1.7972766,21.2338156 4.7711773,24.7240284" id="Fill-49" fill="#00A2AE" mask="url(#mask-34)"></path>
            </g>
            <path d="M28.9494752,33.9700993 C28.9293333,33.9718014 28.9080567,33.9743546 28.8876312,33.9760567 C28.9080567,33.9743546 28.9293333,33.9718014 28.9494752,33.9700993" id="Fill-51" fill="#005279"></path>
            <path d="M28.2812482,34.0385248 C28.2194043,34.0461844 28.1564255,34.0561135 28.0937305,34.0649078 C28.1564255,34.0561135 28.2194043,34.0461844 28.2812482,34.0385248" id="Fill-53" fill="#005279"></path>
            <path d="M27.5739574,34.150156 C27.5027518,34.1632057 27.4315461,34.176539 27.3594894,34.1910071 C27.4315461,34.176539 27.5027518,34.1632057 27.5739574,34.150156" id="Fill-55" fill="#005279"></path>
            <path d="M32.656539,34.470156 C32.6423546,34.4644823 32.6284539,34.4585248 32.6145532,34.4528511 C32.6284539,34.4585248 32.6423546,34.4644823 32.656539,34.470156" id="Fill-57" fill="#005279"></path>
            <path d="M29.623773,33.943773 C29.6388085,33.9434894 29.6529929,33.9443404 29.667461,33.9443404 C29.6529929,33.9443404 29.6388085,33.9434894 29.623773,33.943773" id="Fill-59" fill="#005279"></path>
            <path d="M26.794922,34.3161135 C26.7364823,34.3302979 26.679461,34.3424965 26.6204539,34.3575319 C26.679461,34.3424965 26.7364823,34.3302979 26.794922,34.3161135" id="Fill-61" fill="#005279"></path>
            <path d="M30.3687376,33.9689929 C30.3278865,33.966156 30.2878865,33.9630355 30.2467518,33.9604823 C30.2878865,33.9630355 30.3278865,33.966156 30.3687376,33.9689929" id="Fill-63" fill="#005279"></path>
            <g id="编组" transform="translate(14.751773, 37.453333)">
                <mask id="mask-36" fill="white">
                    <use xlink:href="#path-35"></use>
                </mask>
                <g id="Clip-66"></g>
                <path d="M2.01906383,0.210524823 C1.43523404,0.268113475 0.853390071,0.290808511 0.272397163,0.281730496 C0.853390071,0.290524823 1.43523404,0.268113475 2.01906383,0.210524823" id="Fill-65" fill="#005279" mask="url(#mask-36)"></path>
            </g>
            <path d="M33.1585248,34.6920567 C33.1409362,34.6832624 33.1233475,34.6747518 33.1054752,34.6662411 C33.1233475,34.6747518 33.1409362,34.6832624 33.1585248,34.6920567" id="Fill-67" fill="#005279"></path>
            <path d="M13.1684823,37.6012482 C12.8884823,37.5655035 12.6084823,37.5235177 12.328766,37.4747234 C12.6084823,37.5235177 12.8884823,37.5655035 13.1684823,37.6012482" id="Fill-69" fill="#005279"></path>
            <path d="M19.4365106,37.1510355 C19.1712624,37.2273475 18.9065816,37.296 18.6419007,37.3569929 C18.9065816,37.296 19.1712624,37.2276312 19.4365106,37.1510355" id="Fill-71" fill="#005279"></path>
            <g id="编组" transform="translate(13.049645, 37.453333)">
                <mask id="mask-38" fill="white">
                    <use xlink:href="#path-37"></use>
                </mask>
                <g id="Clip-74"></g>
                <path d="M1.0164539,0.238780142 C0.73929078,0.21835461 0.462695035,0.190553191 0.186099291,0.15622695 C0.462695035,0.190553191 0.73929078,0.21835461 1.0164539,0.238780142" id="Fill-73" fill="#005279" mask="url(#mask-38)"></path>
            </g>
            <path d="M21.2890496,36.4886525 C21.0164255,36.6058156 20.7443688,36.7124823 20.4723121,36.8120567 C20.7443688,36.7124823 21.0164255,36.6058156 21.2890496,36.4886525" id="Fill-75" fill="#005279"></path>
            <path d="M18.526156,37.3826667 C18.2569362,37.4422411 17.9877163,37.4950071 17.7187801,37.5392624 C17.9877163,37.4950071 18.2569362,37.4422411 18.526156,37.3826667" id="Fill-77" fill="#005279"></path>
            <g id="编组" transform="translate(13.900709, 37.453333)">
                <mask id="mask-40" fill="white">
                    <use xlink:href="#path-39"></use>
                </mask>
                <g id="Clip-80"></g>
                <path d="M1.07296454,0.281446809 C0.793531915,0.276056738 0.514099291,0.26329078 0.235234043,0.243432624 C0.514099291,0.26329078 0.793531915,0.276056738 1.07296454,0.281446809" id="Fill-79" fill="#005279" mask="url(#mask-40)"></path>
            </g>
            <g id="编组" transform="translate(16.737589, 37.453333)">
                <mask id="mask-42" fill="white">
                    <use xlink:href="#path-41"></use>
                </mask>
                <g id="Clip-82"></g>
                <path d="M0.895404255,0.0988652482 C0.615404255,0.143120567 0.335120567,0.180567376 0.0559716312,0.208652482 C0.335120567,0.180567376 0.615404255,0.143120567 0.895404255,0.0988652482" id="Fill-81" fill="#005279" mask="url(#mask-42)"></path>
            </g>
            <path d="M22.2260142,36.0523121 C21.9392057,36.1967092 21.6532482,36.3291915 21.3675745,36.4537305 C21.6532482,36.3291915 21.9394894,36.1967092 22.2260142,36.0523121" id="Fill-83" fill="#005279"></path>
            <path d="M20.3587518,36.8537872 C20.0929362,36.9491064 19.8268369,37.0353475 19.561305,37.1142128 C19.8268369,37.0353475 20.0929362,36.9491064 20.3587518,36.8537872" id="Fill-85" fill="#005279"></path>
            <path d="M24.2486809,35.138922 C24.1525106,35.1775035 24.055773,35.2163688 23.9587518,35.2569362 C24.055773,35.2163688 24.1525106,35.1775035 24.2486809,35.138922" id="Fill-87" fill="#005279"></path>
            <path d="M25.0692482,34.8291915 C24.9849929,34.858695 24.8990355,34.8913191 24.8142128,34.9225248 C24.8990355,34.8913191 24.9849929,34.858695 25.0692482,34.8291915" id="Fill-89" fill="#005279"></path>
            <path d="M25.8529929,34.570156 C25.8240567,34.5789504 25.7939858,34.5897305 25.764766,34.5990922 C25.7939858,34.5897305 25.823773,34.5789504 25.8529929,34.570156" id="Fill-91" fill="#005279"></path>
            <path d="M23.3687943,35.5120851 C23.2794326,35.5520851 23.190922,35.5898156 23.1009929,35.6315177 C23.190922,35.5898156 23.2794326,35.5520851 23.3687943,35.5120851" id="Fill-93" fill="#005279"></path>
            <path d="M32.6144113,34.4529645 C32.2725674,34.3210496 31.9111489,34.2121135 31.5290213,34.129844 C31.9111489,34.2121135 32.2725674,34.3210496 32.6144113,34.4529645" id="Fill-95" fill="#5FB2E3"></path>
            <g id="编组" transform="translate(4.539007, 25.822128)">
                <mask id="mask-44" fill="white">
                    <use xlink:href="#path-43"></use>
                </mask>
                <g id="Clip-98"></g>
                <path d="M18.3180993,2.65205674 C13.3626383,5.26737589 6.40093617,7.77687943 0.232141844,7.41914894 C1.16036879,8.50822695 2.20150355,9.49801418 3.34051064,10.3669504 C4.80292199,10.9419858 6.27157447,11.3825532 7.74731915,11.6446809 C7.76150355,11.647234 7.77568794,11.6500709 7.78987234,11.6526241 C8.06958865,11.7011348 8.34930496,11.7434043 8.62958865,11.7791489 L8.6968227,11.7873759 C8.97341844,11.8217021 9.25001418,11.8495035 9.5271773,11.8699291 C9.55043972,11.8716312 9.57370213,11.8730496 9.59696454,11.8747518 C9.87582979,11.8943262 10.1552624,11.9073759 10.434695,11.912766 C10.4517163,11.9130496 10.4681702,11.912766 10.4851915,11.9130496 C11.0661844,11.9221277 11.6480284,11.8994326 12.2318582,11.841844 C12.239234,11.8409929 12.2468936,11.8407092 12.2545532,11.8398582 C12.5337021,11.811773 12.8139858,11.7743262 13.0939858,11.7300709 C13.1226383,11.7255319 13.1512908,11.7215603 13.1799433,11.7170213 C13.4485957,11.672766 13.7178156,11.62 13.9870355,11.5604255 C14.0259007,11.5519149 14.0644823,11.5436879 14.1030638,11.5348936 C14.367461,11.4739007 14.6324255,11.4052482 14.8973901,11.3289362 C14.9393759,11.3170213 14.9807943,11.304539 15.0224965,11.2920567 C15.2877447,11.2131915 15.553844,11.1269504 15.8196596,11.0316312 C15.8576738,11.0182979 15.8956879,11.0035461 15.9334184,10.9899291 C16.2054752,10.8903546 16.4775319,10.7836879 16.750156,10.6665248 C16.7759716,10.655461 16.8023546,10.6429787 16.8284539,10.6316312 C17.1144113,10.5068085 17.4003688,10.3746099 17.6868936,10.2302128 C17.9833475,10.0807092 18.2744113,9.94170213 18.5617872,9.80950355 C18.652,9.76780142 18.740227,9.72978723 18.8298723,9.69007092 C19.0284539,9.60099291 19.2253333,9.51531915 19.4196596,9.43475177 C19.5169645,9.39446809 19.6134184,9.35531915 19.7095887,9.31673759 C19.9005106,9.24070922 20.0885957,9.16893617 20.2749787,9.10028369 C20.3600851,9.06907801 20.4460426,9.03673759 20.5302979,9.00695035 C20.7657589,8.92411348 20.9975319,8.84723404 21.2259007,8.77687943 C21.2551206,8.76780142 21.2851915,8.75702128 21.3141277,8.74794326 C21.5745532,8.66907801 21.830156,8.5987234 22.0815035,8.5351773 C22.1405106,8.52042553 22.1975319,8.50822695 22.2559716,8.49404255 C22.4468936,8.44808511 22.6352624,8.4058156 22.8205106,8.36865248 C22.8925674,8.35446809 22.963773,8.34113475 23.0349787,8.32808511 C23.2108652,8.29574468 23.3839149,8.26737589 23.554695,8.24269504 C23.6173901,8.23390071 23.6803688,8.22425532 23.7422128,8.21631206 C23.9481702,8.18992908 24.1504397,8.16893617 24.3487376,8.15390071 C24.3688794,8.15219858 24.390156,8.14964539 24.4105816,8.14794326 C24.6403688,8.13177305 24.8650496,8.12326241 25.0849078,8.12156028 C25.0996596,8.1212766 25.113844,8.12212766 25.1285957,8.12212766 C25.3257589,8.12156028 25.5186667,8.12751773 25.7078865,8.13829787 C25.7487376,8.14085106 25.7890213,8.14397163 25.8298723,8.14680851 C25.9972482,8.1587234 26.1615035,8.1751773 26.322922,8.19588652 C26.359234,8.20070922 26.3958298,8.20496454 26.4321418,8.21007092 C26.616539,8.2364539 26.7975319,8.26737589 26.9737021,8.3048227 C26.9788085,8.30595745 26.9844823,8.30680851 26.9898723,8.30794326 C27.3722837,8.39021277 27.7334184,8.49886525 28.0755461,8.63078014 C28.0894468,8.6364539 28.1033475,8.64241135 28.1175319,8.64808511 C28.2712908,8.70879433 28.4207943,8.77404255 28.5666099,8.84411348 C28.5841986,8.85262411 28.6020709,8.86113475 28.6196596,8.86992908 C28.7737021,8.94595745 28.9243404,9.02652482 29.069305,9.11248227 C31.1963972,7.13631206 32.8877447,4.70056738 33.9972482,1.96638298 C30.554695,-0.0821276596 25.1297305,-0.942836879 18.3180993,2.65205674" id="Fill-97" fill="#27899D" mask="url(#mask-44)"></path>
            </g>
            <path d="M6.08487943,5.92487943 C6.69197163,5.33679433 7.3328227,4.78360284 8.0102695,4.27523404" id="Fill-99" fill="#FFFFFF"></path>
            <path d="M8.0670922,8.30601418 C9.18113475,8.30601418 10.0838298,7.40303546 10.0838298,6.2892766 C10.0838298,5.17551773 9.18113475,4.27225532 8.0670922,4.27225532 C8.04808511,4.27225532 8.0293617,4.27480851 8.01035461,4.2750922 C7.3329078,4.78346099 6.69177305,5.33665248 6.08496454,5.92473759 C6.06340426,6.04303546 6.0506383,6.16473759 6.0506383,6.2892766 C6.0506383,7.40303546 6.95333333,8.30601418 8.0670922,8.30601418" id="Fill-101" fill="#FFFFFF"></path>
            <path d="M15.798156,8.97838298 C16.5408511,8.97838298 17.1428369,8.37639716 17.1428369,7.63398582 C17.1428369,6.89129078 16.5408511,6.28930496 15.798156,6.28930496 C15.0557447,6.28930496 14.4537589,6.89129078 14.4537589,7.63398582 C14.4537589,8.37639716 15.0557447,8.97838298 15.798156,8.97838298" id="Fill-103" fill="#FFFFFF"></path>
            <path d="M13.1020142,14.2847943 C13.0657021,13.947773 12.7837163,13.684227 12.436766,13.684227 C12.0657021,13.684227 11.7647092,13.9852199 11.7647092,14.3565674 C11.7647092,14.5653617 11.8620142,14.7497589 12.011234,14.8728794 C12.1275461,14.968766 12.2744965,15.0286241 12.436766,15.0286241 C12.8083972,15.0286241 13.1091064,14.7279149 13.1091064,14.3565674 C13.1091064,14.3318865 13.1045674,14.3086241 13.1020142,14.2847943" id="Fill-105" fill="#FFFFFF"></path>
            <path d="M17.9609929,17.1817872 C19.2157447,19.0643404 20.8285106,20.2186667 20.8285106,20.2186667 C20.8293617,20.2166809 20.8296454,20.214695 20.8310638,20.2135603 C23.8699291,17.1534184 25.38,12.6067518 25.5916312,9.40504965 C25.8038298,6.20221277 25.5314894,4.98405674 24.7306383,6.53526241 C23.6075177,8.712 21.7255319,10.5939858 18.9019858,12.4762553 C16.5348936,14.054695 16.7059574,15.2995177 17.9609929,17.1817872" id="Fill-107" fill="#005279"></path>
            <path d="M23.44,35.480227 C24.3211348,29.4311489 25.4107801,24.0240567 17.0198582,23.7698723 C11.288227,23.5959716 8.19035461,22.8569645 5.34893617,21.0260426 C3.84425532,20.9466099 3.53900709,20.8640567 5.09900709,22.201078 C7.29503546,24.0833475 11.027234,25.6124255 16.4419858,25.3885957 C17.8862411,25.3287376 20.8130496,25.5548369 22.3097872,28.1372482 C23.3310638,29.8995177 23.0851064,33.2725674 21.3495035,36.4617872 C21.6411348,36.3349787 21.9333333,36.1996596 22.2260993,36.0524255 C22.6405674,35.8430638 23.0436879,35.6558298 23.44,35.480227" id="Fill-109" fill="#005279"></path>
            <path d="M19.0084823,20.9641986 C18.969617,20.9571064 18.933305,20.9505816 18.9020993,20.9466099 C18.938695,20.9514326 18.9721702,20.9585248 19.0084823,20.9641986" id="Fill-111" fill="#9FC3F8"></path>
            <path d="M25.4898156,23.4561702 C25.0049929,22.5940426 25.0634326,21.2970213 25.5927943,20.2436879 C28.5247092,14.4104965 28.4750638,9.55687943 27.8918014,6.68198582 C27.7057021,5.76595745 27.4600284,4.55943262 27.0478298,4.4377305 C26.8132199,4.36879433 26.5249929,4.64907801 26.1624397,5.5364539 C25.9079716,6.15971631 25.6316596,6.73617021 25.335773,7.27460993 C25.0787518,7.74269504 24.8069787,8.18212766 24.5187518,8.59460993 C23.4747801,10.0887943 22.2296738,11.2422695 20.7882553,12.2394326 C20.2430071,12.6164539 19.2444255,13.5038298 19.2432908,15.0737589 C19.2427234,15.964539 19.562156,17.0740426 20.4708085,18.4368794 C19.5683972,17.444539 18.8027234,16.7807092 18.1153475,16.3602837 C16.4123688,15.3188652 15.1956312,15.7804255 13.6092482,16.5021277 C11.8035745,17.3242553 9.37265248,18.6714894 6.06570213,18.9687943 C5.53974468,19.0158865 4.98541844,18.995461 4.58768794,19.0164539 C3.84811348,19.0547518 2.08868085,18.511773 3.53038298,19.6913475 C4.14031206,20.1906383 4.7391773,20.6329078 5.34910638,21.0260993 C8.19052482,22.8570213 11.2881135,23.5960284 17.0200284,23.7696454 C25.4109504,24.0241135 24.321305,29.4312057 23.4398865,35.4802837 C23.4668369,35.4683688 23.4940709,35.4558865 23.5207376,35.4442553 C25.5017305,34.5747518 27.2577589,34.1140426 28.7942128,33.9843972 C29.1681135,33.9529078 29.5238582,33.9475177 29.8713759,33.9540426 C29.0180426,30.2765957 27.606695,27.2190071 25.4898156,23.4561702" id="Fill-113" fill="#FFFFFF"></path>
        </g>
    </g>
</svg>