<?xml version="1.0" encoding="UTF-8"?>
<svg width="40px" height="40px" viewBox="0 0 40 40" version="1.1" xmlns="http://www.w3.org/2000/svg" xmlns:xlink="http://www.w3.org/1999/xlink">
    <!-- Generator: Sketch 63.1 (92452) - https://sketch.com -->
    <title>减号@1x</title>
    <desc>Created with Sketch.</desc>
    <g id="新版定稿（20202-8-22）" stroke="none" stroke-width="1" fill="none" fill-rule="evenodd">
        <g id="减号" fill="#EA3836" fill-rule="nonzero">
            <path d="M19.6374163,39.2740386 C8.91766244,39.2740386 0.141490129,30.6180878 0.00123166795,19.878297 C-0.118989871,9.03832164 8.57703474,0.121890872 19.3969732,0.00166933389 C30.2369486,-0.138589128 39.1333424,8.57747241 39.2736009,19.3974109 C39.3337117,24.6470847 37.3500563,29.5962047 33.6832994,33.3431093 C30.0165424,37.0900139 25.1074963,39.1938909 19.8778594,39.2540016 C19.7977117,39.2740386 19.717564,39.2740386 19.6374163,39.2740386 Z M19.6374163,2.60646933 L19.4370471,2.60646933 C10.0397301,2.72669087 2.50584705,10.4609432 2.60603167,19.8382232 C2.72625321,29.1553924 10.340284,36.6692386 19.6374163,36.6692386 L19.8377855,36.6692386 C24.3861671,36.6091278 28.6339947,34.7857678 31.8198655,31.5397863 C35.0057363,28.2938047 36.7088747,23.9858663 36.6688009,19.4374847 C36.5485794,10.1002786 28.9345486,2.60646933 19.6374163,2.60646933 Z" id="形状"></path>
            <path d="M30.1568009,20.9402539 L9.11803167,20.9402539 C8.39670244,20.9402539 7.81563167,20.3591832 7.81563167,19.6378539 C7.81563167,18.9165247 8.41673936,18.3354539 9.11803167,18.3354539 L30.136764,18.3354539 C30.8580932,18.3354539 31.439164,18.9165247 31.439164,19.6378539 C31.439164,20.3591832 30.8580932,20.9402539 30.1568009,20.9402539 L30.1568009,20.9402539 Z" id="路径"></path>
        </g>
    </g>
</svg>