<?xml version="1.0" encoding="UTF-8"?>
<svg width="123px" height="133px" viewBox="0 0 123 133" version="1.1" xmlns="http://www.w3.org/2000/svg" xmlns:xlink="http://www.w3.org/1999/xlink">
    <!-- Generator: Sketch 63.1 (92452) - https://sketch.com -->
    <title>定稿了@1x</title>
    <desc>Created with Sketch.</desc>
    <g id="新版定稿（20202-8-22）" stroke="none" stroke-width="1" fill="none" fill-rule="evenodd">
        <g id="画板" transform="translate(-445.000000, -1151.000000)">
            <g id="定稿了" transform="translate(444.000000, 1131.000000)">
                <g id="星星-拖尾" transform="translate(51.000000, 100.500000) scale(-1, -1) translate(-51.000000, -100.500000) translate(0.000000, 46.000000)">
                    <path d="M53.6464466,39.9099026 L53.7007274,39.9099026 C54.5076498,39.9099026 55.1699808,40.5482657 55.199709,41.3546404 L55.7982912,57.5911157 C55.8277072,58.3890224 55.2047225,59.0596999 54.4068158,59.089116 C54.3890692,59.0897702 54.3713121,59.0900974 54.3535534,59.0900974 L54.2992726,59.0900974 C53.4923502,59.0900974 52.8300192,58.4517343 52.800291,57.6453596 L52.2017088,41.4088843 C52.1722928,40.6109776 52.7952775,39.9403001 53.5931842,39.910884 C53.6109308,39.9102298 53.6286879,39.9099026 53.6464466,39.9099026 Z" id="矩形" fill="#FED44A" transform="translate(54.000000, 49.500000) rotate(45.000000) translate(-54.000000, -49.500000) "></path>
                    <path d="M62.6464466,-3.23223305 L62.6686266,-3.23223305 C63.4883409,-3.23223305 64.1562497,-2.57420038 64.1684601,-1.75457697 L64.8312095,42.7323995 C64.8433672,43.5484864 64.1916538,44.2199113 63.3755669,44.2320691 C63.3682296,44.2321784 63.3608915,44.232233 63.3535534,44.232233 L63.3313734,44.232233 C62.5116591,44.232233 61.8437503,43.5742004 61.8315399,42.754577 L61.1687905,-1.73239947 C61.1566328,-2.54848639 61.8083462,-3.21991134 62.6244331,-3.23206908 C62.6317704,-3.23217839 62.6391085,-3.23223305 62.6464466,-3.23223305 Z" id="矩形" fill="#FCA635" transform="translate(63.000000, 20.500000) rotate(45.000000) translate(-63.000000, -20.500000) "></path>
                    <path d="M84.6464466,25.9099026 L84.7007274,25.9099026 C85.5076498,25.9099026 86.1699808,26.5482657 86.199709,27.3546404 L86.7982912,43.5911157 C86.8277072,44.3890224 86.2047225,45.0596999 85.4068158,45.089116 C85.3890692,45.0897702 85.3713121,45.0900974 85.3535534,45.0900974 L85.2992726,45.0900974 C84.4923502,45.0900974 83.8300192,44.4517343 83.800291,43.6453596 L83.2017088,27.4088843 C83.1722928,26.6109776 83.7952775,25.9403001 84.5931842,25.910884 C84.6109308,25.9102298 84.6286879,25.9099026 84.6464466,25.9099026 Z" id="矩形" fill="#FCA635" transform="translate(85.000000, 35.500000) rotate(45.000000) translate(-85.000000, -35.500000) "></path>
                    <path d="M73.5,65.7989899 C74.3284271,65.7989899 75,66.4705627 75,67.2989899 L75,75.7010101 C75,76.5294373 74.3284271,77.2010101 73.5,77.2010101 C72.6715729,77.2010101 72,76.5294373 72,75.7010101 L72,67.2989899 C72,66.4705627 72.6715729,65.7989899 73.5,65.7989899 Z" id="矩形" fill="#FED44A" transform="translate(73.500000, 71.500000) rotate(45.000000) translate(-73.500000, -71.500000) "></path>
                    <circle id="椭圆形" fill="#FED44A" cx="54.3372583" cy="106.943146" r="1.6"></circle>
                    <rect id="矩形" fill="#FED44A" transform="translate(82.500000, 19.500000) rotate(45.000000) translate(-82.500000, -19.500000) " x="81" y="-6" width="3" height="51" rx="1.5"></rect>
                    <g id="编组-4" transform="translate(61.000000, 62.000000) rotate(45.000000) translate(-61.000000, -62.000000) translate(57.000000, 58.000000)" fill="#FED44A">
                        <circle id="椭圆形" cx="1.6" cy="1.6" r="1.6"></circle>
                        <circle id="椭圆形" cx="6.4" cy="1.6" r="1.6"></circle>
                        <circle id="椭圆形" cx="1.6" cy="5.6" r="1.6"></circle>
                        <circle id="椭圆形" cx="6.4" cy="5.6" r="1.6"></circle>
                    </g>
                    <g id="编组-4" transform="translate(71.000000, 52.000000) rotate(45.000000) translate(-71.000000, -52.000000) translate(67.000000, 48.000000)" fill="#FED44A">
                        <circle id="椭圆形" cx="1.6" cy="1.6" r="1.6"></circle>
                        <circle id="椭圆形" cx="6.4" cy="1.6" r="1.6"></circle>
                        <circle id="椭圆形" cx="1.6" cy="5.6" r="1.6"></circle>
                        <circle id="椭圆形" cx="6.4" cy="5.6" r="1.6"></circle>
                    </g>
                    <circle id="椭圆形" fill="#FCA635" cx="82.3372583" cy="57.9431458" r="1.6"></circle>
                    <circle id="椭圆形" fill="#FCA635" cx="2.3372583" cy="47.9431458" r="1.6"></circle>
                    <circle id="椭圆形" fill="#FCA635" cx="5.3372583" cy="43.9431458" r="1.6"></circle>
                    <circle id="椭圆形" fill="#FED44A" cx="10.3372583" cy="48.9431458" r="1.6"></circle>
                    <circle id="椭圆形" fill="#FED44A" cx="40.3372583" cy="28.9431458" r="1.6"></circle>
                    <circle id="椭圆形" fill="#FED44A" cx="67.3372583" cy="80.9431458" r="1.6"></circle>
                    <g id="编组-4" transform="translate(40.000000, 45.000000) rotate(45.000000) translate(-40.000000, -45.000000) translate(36.000000, 41.000000)" fill="#FED44A">
                        <circle id="椭圆形" cx="1.6" cy="1.6" r="1.6"></circle>
                        <circle id="椭圆形" cx="6.4" cy="1.6" r="1.6"></circle>
                        <circle id="椭圆形" cx="1.6" cy="5.6" r="1.6"></circle>
                        <circle id="椭圆形" cx="6.4" cy="5.6" r="1.6"></circle>
                    </g>
                </g>
                <g id="星星备份" transform="translate(85.000000, 56.500000) rotate(39.000000) translate(-85.000000, -56.500000) translate(44.000000, 17.000000)" fill-rule="nonzero">
                    <path d="M50.0138449,5.6361607 L54.9118041,15.7586097 C56.2179265,18.6973852 59.156702,20.6565689 62.4220081,21.1463648 L73.3607837,22.7790179 C81.524049,23.921875 84.6260898,33.8810587 78.9118041,39.7586097 L70.9118041,47.4320791 C68.6260898,49.7177934 67.4832327,52.9830995 67.9730286,56.0851403 L69.768947,67.0239158 C71.0750694,75.1871811 62.7485388,81.2279974 55.4016,77.4728954 L45.6056816,72.4116709 C42.6669061,70.9422832 39.4016,70.9422832 36.4628245,72.4116709 L26.5036408,77.6361607 C19.156702,81.3912627 10.8301714,75.3504464 12.1362939,67.1871811 L13.9322123,56.2484056 C14.5852735,52.9830995 13.4424163,49.7177934 10.9934367,47.5953444 L2.99343672,39.7586097 C-2.8841143,33.8810587 0.381191875,24.0851403 8.54445711,22.7790179 L19.4832327,21.1463648 C22.7485388,20.6565688 25.524049,18.6973852 26.9934367,15.7586097 L31.8913959,5.6361607 C35.9730286,-1.71077805 46.2587429,-1.71077805 50.0138449,5.6361607" id="路径" fill="#FED44A"></path>
                    <path d="M32.2179266,5.6361607 L27.3199673,15.7586097 C26.0138449,18.6973852 23.0750694,20.6565689 19.8097633,21.1463648 L8.87098773,22.7790179 C3.80976328,23.5953445 0.544457109,27.6769771 0.381191875,31.921875 C1.85057961,23.921875 18.3403755,30.1259566 25.8505796,30.7790179 C33.524049,31.5953445 35.646498,24.7382016 35.646498,24.7382016 C35.646498,24.7382016 37.279151,16.5749363 39.2383347,6.28922195 C40.7077224,-2.03730867 46.2587428,1.55452805 48.2179266,3.02391578 C43.646498,-1.71077812 35.4832327,-0.73118625 32.2179266,5.6361607" id="路径" fill="#FFDE73"></path>
                    <path d="M46.0954776,62.289222 C40.0546612,58.2075893 34.6669062,62.289222 34.6669061,62.289222 C34.666906,62.289222 28.7893551,67.5137117 21.9322123,74.044324 C14.9118041,80.5749362 12.2995592,71.2688137 12.2995592,71.2688137 C13.768947,77.1463648 20.6260898,80.7382015 26.5036408,77.4728954 L36.4628245,72.4116709 C39.4016,70.9422832 42.6669061,70.9422832 45.6056816,72.4116709 L55.5648653,77.6361607 C60.1362939,80.0851403 65.1975184,78.6157526 67.9730286,75.0239158 C68.1362939,74.3708545 68.2995592,73.8810587 68.6260898,73.3912627 C63.0750694,78.7790178 52.2995592,66.3708546 46.0954776,62.289222" id="路径" fill="#FEC54A"></path>
                    <path d="M33.5395935,14.5770835 L33.4489309,23.8518353 C33.2666238,25.1579577 32.6285494,25.9742843 31.8081679,25.6477537 C31.0789399,25.3212231 30.6231724,24.1783659 30.8054794,22.7089782 L31.5193042,14.4242055 C31.7016112,13.1180831 32.2269815,12.6888678 32.8166116,12.7745246 C33.2169544,12.7954354 33.4579484,13.3962884 33.5395935,14.5770835 Z" id="路径" fill="#FFFFFF" transform="translate(32.152437, 19.241896) rotate(12.000000) translate(-32.152437, -19.241896) "></path>
                    <path d="M22.3692582,23.5306737 L21.1213683,31.8467725 C20.8934845,33.1528949 21.0806992,34.1428697 20.0552223,33.8163391 C19.1436873,33.4898084 19.7833414,28.279889 19.9849038,26.9102802 C20.1993047,25.4534343 21.1891703,20.4390158 22.1007053,20.7655464 C23.0122403,21.0920771 22.5971419,22.061286 22.3692582,23.5306737 Z" id="路径" fill="#FFFFFF" opacity="0.833031064" transform="translate(21.121249, 27.314724) rotate(91.000000) translate(-21.121249, -27.314724) "></path>
                    <path d="M11.182142,24.6625701 C12.2884126,27.2275292 12.1402019,28.3427349 10.7375099,28.0081872 C8.63347187,27.5063658 9.04385003,26.4624891 9.10917638,25.9408855 C9.17866369,25.3860584 9.80873935,23.807171 10.1041677,23.9315274 C10.3995961,24.0558837 11.2559991,24.1029666 11.182142,24.6625701 Z" id="路径" fill="#FFFFFF" opacity="0.899669829" transform="translate(10.473962, 25.995333) scale(-1, 1) rotate(91.000000) translate(-10.473962, -25.995333) "></path>
                    <circle id="椭圆形" fill="#FFFFFF" cx="35" cy="9" r="1"></circle>
                </g>
            </g>
        </g>
    </g>
</svg>