<?xml version="1.0" encoding="UTF-8"?>
<svg width="132px" height="93px" viewBox="0 0 132 93" version="1.1" xmlns="http://www.w3.org/2000/svg" xmlns:xlink="http://www.w3.org/1999/xlink">
    <!-- Generator: Sketch 63.1 (92452) - https://sketch.com -->
    <title>今天无所事事@1x</title>
    <desc>Created with Sketch.</desc>
    <g id="新版定稿（20202-8-22）" stroke="none" stroke-width="1" fill="none" fill-rule="evenodd">
        <g id="切图" transform="translate(-826.000000, -390.000000)" fill="#FFFFFF">
            <g id="今天无所事事" transform="translate(755.000000, 390.000000)">
                <g transform="translate(71.000000, 0.000000)">
                    <path d="M34.5088481,6.98393358 C36.6656511,6.98393358 38.4116346,8.72991694 38.4116346,10.8867199 C38.4116346,13.0435229 36.6656512,14.7895063 34.5088481,14.7895063 C32.3520451,14.7895063 30.6060618,13.043523 30.6060618,10.8867199 C30.6060618,8.72991687 32.3520452,6.98393358 34.5088481,6.98393358 M34.5088481,5.7514747 C31.6741928,5.7514747 29.3736029,8.05206457 29.3736029,10.8867199 C29.3736029,13.7213753 31.6741928,16.0219652 34.5088481,16.0219652 C37.3435035,16.0219652 39.6440934,13.7213754 39.6440934,10.8867199 C39.6440934,8.0520645 37.3435036,5.7514747 34.5088481,5.7514747 Z M33.8926187,2.91322522e-13 L35.1250776,2.91322522e-13 L35.1250776,3.08114716 L33.8926187,3.08114716 L33.8926187,2.91322522e-13 Z M33.8926187,19.1031124 L35.1250776,19.1031124 L35.1250776,22.1842596 L33.8926187,22.1842596 L33.8926187,19.1031124 Z M39.7431009,4.987761 L41.9218828,2.80918457 L42.7932312,3.68073842 L40.6146548,5.85931484 L39.7431009,4.987761 Z M26.2205623,18.492429 L28.3993441,16.3138526 L29.270898,17.185201 L27.0921161,19.3639829 L26.2205623,18.492429 Z M42.5198308,10.4759004 L45.6009779,10.4759004 L45.6009779,11.7083592 L42.5198308,11.7083592 L42.5198308,10.4759004 Z M23.4167184,10.4759004 L26.4978655,10.4759004 L26.4978655,11.7083592 L23.4167184,11.7083592 L23.4167184,10.4759004 Z M39.7342683,17.1796549 L40.6056168,16.3081011 L42.7843986,18.4868829 L41.9128448,19.3582314 L39.7342683,17.1796549 Z M26.2296004,3.68628444 L27.1011542,2.81473067 L29.2797306,4.99351253 L28.4083822,5.86486094 L26.2296004,3.68628444 Z" id="形状" fill-rule="nonzero"></path>
                    <path d="M10.6813102,53.1545676 L120.780969,53.1545676 L120.780969,54.3870265 L10.6813102,54.3870265 L10.6813102,53.1545676 Z M-3.55271368e-14,53.1545676 L5.95688455,53.1545676 L5.95688455,54.3870265 L-3.55271368e-14,54.3870265 L-3.55271368e-14,53.1545676 Z" id="形状" fill-rule="nonzero"></path>
                    <polygon id="路径" fill-rule="nonzero" points="125.299984 53.1545676 131.051459 53.1545676 131.051459 54.3870265 125.299984 54.3870265"></polygon>
                    <path d="M45.3369134,40.2135494 L38.9190134,42.2854694 C38.4900534,39.2365494 39.1384534,36.7736894 40.5336134,36.3237894 C41.7680734,35.9262894 43.8182134,37.1673694 45.3369134,40.2135294 L45.3369134,40.2135494 Z M47.9687334,50.9591894 L47.9720334,52.7615294 L49.0124334,52.7598894 L49.0091134,50.9570094 L47.9687334,50.9592094 L47.9687334,50.9591894 Z M37.3030134,52.5647094 C38.5663534,50.9100494 39.7962134,50.4040094 42.5760534,50.4040094 L47.1293134,50.4040094 C50.9931334,50.4040094 52.3670934,47.5943694 52.4236134,47.4747094 C52.5928734,47.1169094 52.4407134,46.6917894 52.0842534,46.5203494 C51.7281134,46.3483294 51.2985734,46.4988294 51.1240934,46.8538894 C51.0816534,46.9398894 50.0542134,48.9633294 47.1293334,48.9633294 L42.5760534,48.9633294 C39.7609134,48.9633294 37.9039934,49.3983294 36.1573534,51.6924694 C35.9163934,52.0084094 35.9911934,52.4433094 36.2937934,52.7014294 C36.4935934,52.8718894 37.0007934,52.9605694 37.3030134,52.5647094 Z M38.1493334,42.5341294 L34.9482334,43.5673294 C35.1119734,41.0333694 36.4440334,38.6863294 38.5711134,37.2594694 C37.9899934,38.5313894 37.8240534,40.3844694 38.1493334,42.5341294 Z M39.9166734,35.7200894 C40.0357534,35.6578094 40.1589934,35.6037494 40.2880134,35.5624094 C40.4159134,35.5210694 40.5457534,35.4918494 40.6772534,35.4720094 L40.5975734,35.2305094 C40.5286734,35.0204494 40.3020734,34.9063094 40.0925734,34.9757894 C39.8824934,35.0447294 39.7686334,35.2707694 39.8378534,35.4808294 L39.9166534,35.7200894 L39.9166734,35.7200894 Z M46.1051934,39.9654294 L49.5072534,38.8671494 C47.8430534,36.8453894 45.2842534,35.7151294 42.6350534,35.8844094 C43.8959734,36.5636694 45.1453134,38.0010094 46.1051934,39.9654294 Z M35.6878334,44.9815894 L42.2687134,42.8572294 L44.0947734,48.3976494 L44.9372134,48.3976494 L43.0301134,42.6113294 L49.7545734,40.4395894 C49.9648934,40.3717894 50.0801334,40.1457294 50.0123334,39.9356694 C49.9447934,39.7256094 49.7203734,39.6098094 49.5086734,39.6781894 L35.4670734,44.2129894 C35.2567334,44.2807894 35.1414934,44.5062694 35.2093134,44.7163494 C35.2093134,44.7163494 35.3310934,45.0708694 35.6878334,44.9815894 Z M45.9149734,52.6424694 C46.1262134,52.5771894 46.2388734,52.3469494 46.1697334,52.1374294 L45.7862334,50.9735494 L44.9438334,50.9735494 L45.4099534,52.3877494 C45.5334534,52.7158494 45.8762534,52.6544494 45.9149734,52.6424694 L45.9149734,52.6424694 Z" id="形状" fill-rule="nonzero"></path>
                    <path d="M52.2337887,57.8373951 C51.7014101,58.1931473 51.3147351,58.4533243 50.4405134,58.4533243 C49.5662918,58.4533243 49.1796168,58.198457 48.6472382,57.8373951 C48.0532158,57.4444747 47.3190938,56.9506694 45.9405134,56.9506694 C44.5675371,56.9506694 43.8278111,57.4444747 43.2337887,57.8373951 C42.7014101,58.1931473 42.3147351,58.4533243 41.4405134,58.4533243 C40.5662917,58.4533243 40.1796168,58.198457 39.6472382,57.8373951 C39.0532158,57.4444747 38.3190938,56.9506694 36.9405134,56.9506694 C35.5675371,56.9506694 34.8278111,57.4444747 34.2337886,57.8373951 C33.7014101,58.1931473 33.3147351,58.4533243 32.4405134,58.4533243 C31.5662918,58.4533243 31.1796168,58.198457 30.6472382,57.8373951 C30.0532158,57.4444747 29.3190938,56.9506694 27.9405134,56.9506694 L27.9405134,58.4480146 C28.8147351,58.4480146 29.2014101,58.7028818 29.7337887,59.0639438 C30.3278111,59.4568641 31.0619331,59.9506694 32.4405134,59.9506694 C33.8134898,59.9506694 34.5532158,59.4568641 35.1472382,59.0639438 C35.6796168,58.7081916 36.0662918,58.4480145 36.9405134,58.4480146 C37.8147351,58.4480146 38.2014101,58.7028818 38.7337887,59.0639438 C39.3278111,59.4568641 40.0619331,59.9506694 41.4405134,59.9506694 C42.8190937,59.9506694 43.5532158,59.4568641 44.1472382,59.0639438 C44.6796168,58.7081916 45.0662918,58.4480145 45.9405134,58.4480146 C46.8147351,58.4480146 47.2014101,58.7028818 47.7337886,59.0639438 C48.327811,59.4568641 49.0619331,59.9506694 50.4405134,59.9506694 C51.8190938,59.9506694 52.5532158,59.4568641 53.1472382,59.0639438 C53.6796168,58.7081916 54.0662918,58.4480145 54.9405134,58.4480146 L54.9405134,56.9506694 C53.5619331,56.9506694 52.8222071,57.439165 52.2337887,57.8373951 Z" id="路径"></path>
                    <path d="M92.2337887,57.8373951 C91.7014101,58.1931473 91.3147351,58.4533243 90.4405134,58.4533243 C89.5662918,58.4533243 89.1796168,58.198457 88.6472382,57.8373951 C88.0532158,57.4444747 87.3190938,56.9506694 85.9405134,56.9506694 C84.5675371,56.9506694 83.8278111,57.4444747 83.2337887,57.8373951 C82.7014101,58.1931473 82.3147351,58.4533243 81.4405134,58.4533243 C80.5662917,58.4533243 80.1796168,58.198457 79.6472382,57.8373951 C79.0532158,57.4444747 78.3190938,56.9506694 76.9405134,56.9506694 C75.5675371,56.9506694 74.8278111,57.4444747 74.2337886,57.8373951 C73.7014101,58.1931473 73.3147351,58.4533243 72.4405134,58.4533243 C71.5662918,58.4533243 71.1796168,58.198457 70.6472382,57.8373951 C70.0532158,57.4444747 69.3190938,56.9506694 67.9405134,56.9506694 L67.9405134,58.4480146 C68.8147351,58.4480146 69.2014101,58.7028818 69.7337887,59.0639438 C70.3278111,59.4568641 71.0619331,59.9506694 72.4405134,59.9506694 C73.8134898,59.9506694 74.5532158,59.4568641 75.1472382,59.0639438 C75.6796168,58.7081916 76.0662918,58.4480145 76.9405134,58.4480146 C77.8147351,58.4480146 78.2014101,58.7028818 78.7337887,59.0639438 C79.3278111,59.4568641 80.0619331,59.9506694 81.4405134,59.9506694 C82.8190937,59.9506694 83.5532158,59.4568641 84.1472382,59.0639438 C84.6796168,58.7081916 85.0662918,58.4480145 85.9405134,58.4480146 C86.8147351,58.4480146 87.2014101,58.7028818 87.7337886,59.0639438 C88.327811,59.4568641 89.0619331,59.9506694 90.4405134,59.9506694 C91.8190938,59.9506694 92.5532158,59.4568641 93.1472382,59.0639438 C93.6796168,58.7081916 94.0662918,58.4480145 94.9405134,58.4480146 L94.9405134,56.9506694 C93.5619331,56.9506694 92.8222071,57.439165 92.2337887,57.8373951 Z" id="路径"></path>
                    <path d="M72.2337887,63.8373951 C71.7014101,64.1931473 71.3147351,64.4533243 70.4405134,64.4533243 C69.5662918,64.4533243 69.1796168,64.198457 68.6472382,63.8373951 C68.0532158,63.4444747 67.3190938,62.9506694 65.9405134,62.9506694 C64.5675371,62.9506694 63.8278111,63.4444747 63.2337887,63.8373951 C62.7014101,64.1931473 62.3147351,64.4533243 61.4405134,64.4533243 C60.5662917,64.4533243 60.1796168,64.198457 59.6472382,63.8373951 C59.0532158,63.4444747 58.3190938,62.9506694 56.9405134,62.9506694 C55.5675371,62.9506694 54.8278111,63.4444747 54.2337886,63.8373951 C53.7014101,64.1931473 53.3147351,64.4533243 52.4405134,64.4533243 C51.5662918,64.4533243 51.1796168,64.198457 50.6472382,63.8373951 C50.0532158,63.4444747 49.3190938,62.9506694 47.9405134,62.9506694 L47.9405134,64.4480146 C48.8147351,64.4480146 49.2014101,64.7028818 49.7337887,65.0639438 C50.3278111,65.4568641 51.0619331,65.9506694 52.4405134,65.9506694 C53.8134898,65.9506694 54.5532158,65.4568641 55.1472382,65.0639438 C55.6796168,64.7081916 56.0662918,64.4480145 56.9405134,64.4480146 C57.8147351,64.4480146 58.2014101,64.7028818 58.7337887,65.0639438 C59.3278111,65.4568641 60.0619331,65.9506694 61.4405134,65.9506694 C62.8190937,65.9506694 63.5532158,65.4568641 64.1472382,65.0639438 C64.6796168,64.7081916 65.0662918,64.4480145 65.9405134,64.4480146 C66.8147351,64.4480146 67.2014101,64.7028818 67.7337886,65.0639438 C68.327811,65.4568641 69.0619331,65.9506694 70.4405134,65.9506694 C71.8190938,65.9506694 72.5532158,65.4568641 73.1472382,65.0639438 C73.6796168,64.7081916 74.0662918,64.4480145 74.9405134,64.4480146 L74.9405134,62.9506694 C73.5619331,62.9506694 72.8222071,63.439165 72.2337887,63.8373951 Z" id="路径"></path>
                    <path d="M94.1148023,41.3386505 C92.7180141,39.7294584 90.9072294,36.6255537 91.8540214,32.8758121 C96.8961388,35.0955612 96.394303,41.5877693 96.9407784,51.4942005 L95.810388,51.4942005 L95.810388,49.2377316 L91.8540214,49.2377316 C91.8540214,49.2377316 87.8969348,49.5235702 87.8969348,50.9304433 C87.8969348,52.3373164 91.0274684,53.7506694 99.2015593,53.7506694 C107.37637,53.7506694 108.810598,51.6094 108.810598,50.9297233 C108.810598,50.2493267 107.997725,49.2370116 104.854232,49.2370116 L102.592731,49.2370116 C102.592731,49.2370116 102.173694,42.852083 106.549817,36.2605155 C107.102773,37.0287517 107.865246,38.7689831 105.419427,41.9031277 C108.332522,41.6288091 108.914277,39.8619377 108.810598,37.3887499 C109.629951,37.8121078 110.254186,38.6667436 109.940989,41.9031277 C111.643054,40.8792927 112.574006,37.8387477 109.940989,35.6960382 C111.130419,35.7680379 111.771213,35.8105177 112.20177,37.9525071 C113.793676,36.551394 111.674734,32.5762936 108.245403,33.4388493 C107.573649,29.3679893 101.46234,29.9324666 101.46234,32.3106149 C102.828889,32.0406162 104.387676,32.091736 104.854232,32.8750921 C103.315605,32.9362918 101.46234,33.1602107 101.46234,37.3887499 C102.850488,35.8227576 103.407044,35.0005217 105.984622,35.131561 C104.319276,36.148196 100.897145,40.7972131 100.897145,51.4934805 C99.9654729,51.5078805 99.2022793,51.4934805 99.2022793,51.4934805 C99.2022793,51.4934805 99.9309132,36.2777954 93.5496071,31.7468577 C96.1466251,31.5085388 98.2029278,31.467499 100.33195,35.6960382 C100.652347,33.3826896 100.659547,28.421194 95.2451927,28.9259115 C95.8391877,27.7616773 95.7801482,26.9437613 100.33195,27.2331999 C97.3763747,22.8887412 90.8942695,25.366969 90.7229109,29.4903888 C90.7229109,29.4903888 83.9182484,28.0921556 83.9405134,35.132281 C85.746313,33.3517298 86.5930258,32.5971735 87.3317396,32.3113349 C86.3691077,33.6411683 83.9787279,37.170591 87.3317396,40.210416 C87.4476586,36.1273161 88.3670908,35.4699593 89.0273253,34.5685238 C89.0662049,36.6075538 89.2044438,41.2083311 94.1148023,41.3386505 Z" id="路径" fill-rule="nonzero"></path>
                </g>
                <text font-family="PingFangSC-Regular, PingFang SC" font-size="16" font-weight="normal">
                    <tspan x="88.5" y="91">今天无所事事</tspan>
                </text>
            </g>
        </g>
    </g>
</svg>