<?xml version="1.0" encoding="UTF-8"?>
<svg width="26px" height="26px" viewBox="0 0 26 26" version="1.1" xmlns="http://www.w3.org/2000/svg" xmlns:xlink="http://www.w3.org/1999/xlink">
    <!-- Generator: Sketch 63.1 (92452) - https://sketch.com -->
    <title>非企业项目@1x</title>
    <desc>Created with Sketch.</desc>
    <g id="2021.3.8" stroke="none" stroke-width="1" fill="none" fill-rule="evenodd">
        <g id="企业首页中台" transform="translate(-59.000000, -642.000000)">
            <g id="主菜单">
                <g id="非企业项目" transform="translate(59.000000, 642.000000)">
                    <rect id="矩形备份-6" fill="#F9F8FF" x="0" y="0" width="26" height="26"></rect>
                    <g id="项目备份" transform="translate(4.000000, 4.000000)" fill="#4A90E2" fill-rule="nonzero">
                        <path d="M17.5007813,7.3640625 C17.7726563,7.659375 17.859375,8.0109375 17.7421875,8.3296875 C17.6226562,8.65078125 17.3273438,8.86171875 16.9289063,8.90859375 L8.18203125,9.93984375 L8.728125,14.5804687 C8.76796875,14.915625 8.52890625,15.2203125 8.19140625,15.2601562 C7.85625,15.3 7.5515625,15.0609375 7.51171875,14.7234375 L6.075,2.5453125 C5.99765625,1.875 6.478125,1.26796875 7.1484375,1.18828125 L15.8953125,0.15703125 C16.2914063,0.11015625 16.6265625,0.2484375 16.8164062,0.53203125 C17.00625,0.81796875 17.00625,1.18125 16.8117188,1.52578125 L15.046875,4.69453125 L17.5007813,7.3640625 Z M12.6796875,12.5179687 L11.1773438,12.5179687 C10.81875,12.5179687 10.528125,12.2273437 10.528125,11.86875 C10.528125,11.5101562 10.81875,11.2195312 11.1773438,11.2195312 L14.3132813,11.2195312 C14.55,11.2195312 14.765625,11.371875 14.8617188,11.6085937 L16.9523438,16.8023437 C17.034375,17.0039062 17.0179688,17.23125 16.9078125,17.41875 C16.8046875,17.5992187 16.6125,17.7117187 16.40625,17.7140625 L0.73359375,17.7140625 C0.52265625,17.709375 0.328125,17.5921875 0.22734375,17.4070312 C0.1171875,17.2148438 0.10546875,16.9828125 0.19453125,16.7789062 L2.5078125,11.5851562 C2.59921875,11.3671875 2.81015625,11.221875 3.046875,11.2171875 L4.3921875,11.2171875 C4.72265625,11.2171875 4.9921875,11.5078125 4.9921875,11.8664062 C4.9921875,12.225 4.725,12.5179687 4.3921875,12.5179687 L3.421875,12.5179687 L1.68984375,16.4085937 L15.4851563,16.4085937 L13.921875,12.5179687 L12.7570313,12.5179687 C12.73125,12.5203125 12.7054688,12.5179687 12.6796875,12.5179687 L12.6796875,12.5179687 Z" id="形状"></path>
                    </g>
                </g>
            </g>
        </g>
    </g>
</svg>