<?xml version="1.0" encoding="UTF-8"?>
<svg width="24px" height="20px" viewBox="0 0 24 20" version="1.1" xmlns="http://www.w3.org/2000/svg" xmlns:xlink="http://www.w3.org/1999/xlink">
    <!-- Generator: Sketch 63.1 (92452) - https://sketch.com -->
    <title>workfly@1x</title>
    <desc>Created with Sketch.</desc>
    <defs>
        <polygon id="path-1" points="0.0109110033 0 10.5961142 0 10.5961142 8.58107749 0.0109110033 8.58107749"></polygon>
    </defs>
    <g id="新版定稿（20202-8-22）" stroke="none" stroke-width="1" fill="none" fill-rule="evenodd">
        <g id="画板" transform="translate(-488.000000, -1952.000000)">
            <g id="workfly" transform="translate(488.000000, 1952.000000)">
                <g id="logo">
                    <g id="编组-2">
                        <g id="编组" transform="translate(0.107683, 0.160622)">
                            <path d="M14.2446485,9.04194182 C14.236209,9.06584177 14.2277694,9.08985551 14.2185315,9.11375546 C14.2277694,9.08985551 14.236209,9.06584177 14.2446485,9.04194182" id="Fill-1" fill="#000000" fill-rule="nonzero"></path>
                            <path d="M13.5688225,10.1797045 C13.546241,10.2065635 13.5236595,10.2335363 13.5001656,10.2601676 C13.5236595,10.2335363 13.546241,10.2065635 13.5688225,10.1797045" id="Fill-3" fill="#000000" fill-rule="nonzero"></path>
                            <path d="M12.4544019,11.2093256 C12.4153975,11.238347 12.376393,11.2673683 12.3367043,11.2960483 C12.376393,11.2673683 12.4153975,11.238347 12.4544019,11.2093256" id="Fill-5" fill="#000000" fill-rule="nonzero"></path>
                            <path d="M14.3864331,8.39077068 C14.3854067,8.40374494 14.3834678,8.41660539 14.3822133,8.42946583 C14.3834678,8.41660539 14.3854067,8.40374494 14.3864331,8.39077068" id="Fill-7" fill="#000000" fill-rule="nonzero"></path>
                            <path d="M7.72998375,13.331914 C7.57122885,13.3711782 7.41270204,13.4074834 7.25463144,13.4411709 C7.41281609,13.4074834 7.57122885,13.3711782 7.72998375,13.331914" id="Fill-9" fill="#000000" fill-rule="nonzero"></path>
                            <path d="M14.3835363,7.99554523 C14.3854751,8.01705518 14.387642,8.03856512 14.3890106,8.05996127 C14.387642,8.03856512 14.3854751,8.01705518 14.3835363,7.99554523" id="Fill-11" fill="#000000" fill-rule="nonzero"></path>
                            <path d="M13.7984811,9.88373209 C13.7798913,9.90990823 13.7607312,9.93597055 13.741343,9.96203288 C13.7607312,9.93597055 13.7798913,9.90990823 13.7984811,9.88373209" id="Fill-13" fill="#000000" fill-rule="nonzero"></path>
                            <path d="M10.5924418,12.3135145 C9.69374312,12.741665 8.71087692,13.0888971 7.73143217,13.3314247 C8.71099097,13.0888971 9.69362907,12.741665 10.5924418,12.3135145" id="Fill-15" fill="#000000" fill-rule="nonzero"></path>
                            <path d="M14.3925575,8.17470378 C14.3927856,8.19200279 14.393812,8.20952942 14.393698,8.22682843 C14.393812,8.20952942 14.3927856,8.19200279 14.3925575,8.17470378" id="Fill-17" fill="#000000" fill-rule="nonzero"></path>
                            <path d="M12.6216876,11.081404 C12.5855344,11.1097425 12.549153,11.1379672 12.5122015,11.1660781 C12.549153,11.1379672 12.5855344,11.1097425 12.6216876,11.081404" id="Fill-19" fill="#000000" fill-rule="nonzero"></path>
                            <path d="M7.23325882,13.4458371 C7.08009228,13.478159 6.92749598,13.5076356 6.77558396,13.5346084 C6.92749598,13.5077494 7.08009228,13.478159 7.23325882,13.4458371" id="Fill-21" fill="#000000" fill-rule="nonzero"></path>
                            <path d="M14.3371986,8.71813168 C14.3321804,8.74157638 14.326364,8.76479347 14.3205475,8.78812438 C14.326364,8.76479347 14.3321804,8.74157638 14.3371986,8.71813168" id="Fill-23" fill="#000000" fill-rule="nonzero"></path>
                            <path d="M13.0960363,10.6762885 C13.0634186,10.7069032 13.0296603,10.7369488 12.9959021,10.7672221 C13.0296603,10.7369488 13.0634186,10.7069032 13.0960363,10.6762885" id="Fill-25" fill="#000000" fill-rule="nonzero"></path>
                            <path d="M13.443746,10.3230245 C13.4186555,10.3506802 13.393907,10.3784496 13.3680181,10.4058777 C13.393907,10.3784496 13.4186555,10.3506802 13.443746,10.3230245" id="Fill-27" fill="#000000" fill-rule="nonzero"></path>
                            <path d="M14.2962097,8.88051474 C14.2893668,8.90441469 14.2822958,8.92831464 14.2747686,8.95210077 C14.2822958,8.92831464 14.2893668,8.90441469 14.2962097,8.88051474" id="Fill-29" fill="#000000" fill-rule="nonzero"></path>
                            <path d="M12.9436795,10.8142139 C12.9106056,10.8433491 12.8767333,10.8721429 12.842861,10.9008228 C12.8767333,10.8721429 12.9106056,10.8433491 12.9436795,10.8142139" id="Fill-31" fill="#000000" fill-rule="nonzero"></path>
                            <path d="M14.3673871,8.55503161 C14.3641937,8.57631394 14.3599739,8.59748247 14.3562104,8.61876479 C14.3599739,8.59748247 14.3641937,8.57631394 14.3673871,8.55503161" id="Fill-33" fill="#000000" fill-rule="nonzero"></path>
                            <path d="M14.1069925,9.36842647 C14.0967282,9.38913975 14.0873763,9.40996685 14.0766558,9.43056633 C14.0873763,9.40996685 14.0967282,9.38913975 14.1069925,9.36842647" id="Fill-35" fill="#000000" fill-rule="nonzero"></path>
                            <path d="M12.7855176,10.9491462 C12.7511892,10.9777123 12.7162905,11.0060508 12.6810496,11.0342756 C12.7162905,11.0060508 12.7511892,10.9777123 12.7855176,10.9491462" id="Fill-37" fill="#000000" fill-rule="nonzero"></path>
                            <path d="M13.6875466,10.0328905 C13.6669039,10.0594081 13.6460331,10.0859256 13.624592,10.1123294 C13.6460331,10.0859256 13.6669039,10.0595219 13.6875466,10.0328905" id="Fill-39" fill="#000000" fill-rule="nonzero"></path>
                            <path d="M4.42871434,13.7132434 C4.29995408,13.7075529 4.17336073,13.6992448 4.04984667,13.6872949 C4.17336073,13.6992448 4.29995408,13.7075529 4.42871434,13.7132434" id="Fill-41" fill="#000000" fill-rule="nonzero"></path>
                            <path d="M4.01708068,13.6837895 C3.89105756,13.6711567 3.76754351,13.6555648 3.64779305,13.6362173 C3.76754351,13.6555648 3.89105756,13.6711567 4.01708068,13.6837895" id="Fill-43" fill="#000000" fill-rule="nonzero"></path>
                            <path d="M13.9952825,9.57915572 C13.9817107,9.60282805 13.9667704,9.62615894 13.9524004,9.64960367 C13.9667704,9.62615894 13.9817107,9.60282805 13.9952825,9.57915572" id="Fill-45" fill="#000000" fill-rule="nonzero"></path>
                            <path d="M14.2815089,7.48301654 C14.2883518,7.50486793 14.2941682,7.5266055 14.3004409,7.54845687 C14.2941682,7.5266055 14.2883518,7.50486793 14.2815089,7.48301654" id="Fill-47" fill="#000000" fill-rule="nonzero"></path>
                            <path d="M14.1821616,9.20320955 C14.1723535,9.22654045 14.1628875,9.24987135 14.1525091,9.27308845 C14.1628875,9.24987135 14.1723535,9.22654045 14.1821616,9.20320955" id="Fill-49" fill="#000000" fill-rule="nonzero"></path>
                            <path d="M3.6289295,13.6328827 C3.50507331,13.6122832 3.38441046,13.5886109 3.26808142,13.5608414 C3.38441046,13.5886109 3.50507331,13.6122832 3.6289295,13.6328827" id="Fill-51" fill="#000000" fill-rule="nonzero"></path>
                            <path d="M14.2221469,7.31268958 C14.2293319,7.33124051 14.2352624,7.34979141 14.2421053,7.36822851 C14.2352624,7.34979141 14.2293319,7.33124051 14.2221469,7.31268958" id="Fill-53" fill="#000000" fill-rule="nonzero"></path>
                            <path d="M13.1136339,10.6594447 C13.1847999,10.5924111 13.2533428,10.5243531 13.3194907,10.4558399 C13.2533428,10.5243531 13.1847999,10.5924111 13.1136339,10.6594447" id="Fill-55" fill="#000000" fill-rule="nonzero"></path>
                            <path d="M4.86152674,13.7209028 C4.72945909,13.7218132 4.59933024,13.7202199 4.47171046,13.7152123 C4.59933024,13.7202199 4.72945909,13.7218132 4.86152674,13.7209028" id="Fill-57" fill="#000000" fill-rule="nonzero"></path>
                            <path d="M5.77702475,13.6721127 C5.63754397,13.6855422 5.49943176,13.6963541 5.36314433,13.7043207 C5.49943176,13.6963541 5.63754397,13.6855422 5.77702475,13.6721127" id="Fill-59" fill="#000000" fill-rule="nonzero"></path>
                            <path d="M6.25404216,13.616551 C6.11034161,13.6361262 5.96789558,13.65297 5.82670407,13.6671962 C5.96789558,13.65297 6.11034161,13.6361262 6.25404216,13.616551" id="Fill-61" fill="#000000" fill-rule="nonzero"></path>
                            <path d="M14.3619242,7.82361355 C14.3656877,7.84637541 14.3692232,7.86902346 14.3723025,7.8917853 C14.3692232,7.86902346 14.3656877,7.84637541 14.3619242,7.82361355" id="Fill-63" fill="#000000" fill-rule="nonzero"></path>
                            <path d="M6.74052558,13.5408565 C6.5922631,13.566805 6.44502705,13.5899083 6.29870339,13.6102801 C6.44502705,13.5899083 6.5922631,13.566805 6.74052558,13.5408565" id="Fill-65" fill="#000000" fill-rule="nonzero"></path>
                            <path d="M14.3280633,7.6532866 C14.3334236,7.67604846 14.3383276,7.69869649 14.3431176,7.72145835 C14.3383276,7.69869649 14.3334236,7.67604846 14.3280633,7.6532866" id="Fill-67" fill="#000000" fill-rule="nonzero"></path>
                            <path d="M5.3115832,13.7071318 C5.1760941,13.7143018 5.04220168,13.718968 4.91024807,13.7205613 C5.04220168,13.718968 5.1760941,13.7143018 5.3115832,13.7071318" id="Fill-69" fill="#000000" fill-rule="nonzero"></path>
                            <path d="M13.9012726,9.73235437 C13.8847357,9.75796146 13.8672863,9.78334093 13.8501791,9.8087204 C13.8672863,9.78334093 13.8847357,9.75796146 13.9012726,9.73235437" id="Fill-71" fill="#000000" fill-rule="nonzero"></path>
                            <path d="M14.1525433,9.27306569 C14.1381733,9.30504608 14.1224346,9.33668506 14.1070382,9.36843784 C14.1224346,9.33668506 14.1381733,9.30504608 14.1525433,9.27306569" id="Fill-73" fill="#000000" fill-rule="nonzero"></path>
                            <path d="M14.274723,8.95214629 C14.265257,8.98219194 14.2551067,9.01200998 14.2446143,9.04194182 C14.2551067,9.01200998 14.265257,8.98219194 14.274723,8.95214629" id="Fill-75" fill="#000000" fill-rule="nonzero"></path>
                            <path d="M14.2185886,9.11374408 C14.2070697,9.14367591 14.1946385,9.17338015 14.1822072,9.20319817 C14.1946385,9.17338015 14.2070697,9.14367591 14.2185886,9.11374408" id="Fill-77" fill="#000000" fill-rule="nonzero"></path>
                            <path d="M14.3562446,8.61877617 C14.3504281,8.65200848 14.3443836,8.68512699 14.3371986,8.71813168 C14.3443836,8.68512699 14.3504281,8.65200848 14.3562446,8.61877617" id="Fill-79" fill="#000000" fill-rule="nonzero"></path>
                            <path d="M14.2420825,7.36826266 C14.2559963,7.40650256 14.2695681,7.44485629 14.2815431,7.4829824 C14.2695681,7.44485629 14.2559963,7.40650256 14.2420825,7.36826266" id="Fill-81" fill="#000000" fill-rule="nonzero"></path>
                            <path d="M14.3206045,8.78810161 C14.3130774,8.81894393 14.30498,8.84978623 14.2961983,8.88051474 C14.30498,8.84978623 14.3130774,8.81894393 14.3206045,8.78810161" id="Fill-83" fill="#000000" fill-rule="nonzero"></path>
                            <path d="M14.1496465,7.14208949 C14.1761057,7.19910794 14.2000557,7.25589876 14.2221811,7.31268958 C14.2000557,7.25589876 14.1761057,7.19910794 14.1496465,7.14208949" id="Fill-85" fill="#000000" fill-rule="nonzero"></path>
                            <path d="M14.3431062,7.72146973 C14.3501772,7.75561252 14.3564499,7.78964148 14.3619242,7.82355665 C14.3564499,7.78964148 14.3501772,7.75561252 14.3431062,7.72146973" id="Fill-87" fill="#000000" fill-rule="nonzero"></path>
                            <path d="M14.3004409,7.54847963 C14.310363,7.58341908 14.319715,7.61835853 14.3280405,7.65329798 C14.319715,7.61835853 14.310363,7.58341908 14.3004409,7.54847963" id="Fill-89" fill="#000000" fill-rule="nonzero"></path>
                            <path d="M14.3936637,8.22688533 C14.3930935,8.28162759 14.3908125,8.33625604 14.3864787,8.39077068 C14.3908125,8.33625604 14.3930935,8.28162759 14.3936637,8.22688533" id="Fill-91" fill="#000000" fill-rule="nonzero"></path>
                            <path d="M14.3821905,8.42944307 C14.3781988,8.4714387 14.3736369,8.5133205 14.3673643,8.55508851 C14.3736369,8.5133205 14.3781988,8.4714387 14.3821905,8.42944307" id="Fill-93" fill="#000000" fill-rule="nonzero"></path>
                            <path d="M14.3889878,8.06000679 C14.3913828,8.09836052 14.3920671,8.13648662 14.3925233,8.17472654 C14.3920671,8.13648662 14.3913828,8.09836052 14.3889878,8.06000679" id="Fill-95" fill="#000000" fill-rule="nonzero"></path>
                            <path d="M14.3722797,7.89173979 C14.3769557,7.92645161 14.3803772,7.96093582 14.3835705,7.99553383 C14.3803772,7.96093582 14.3769557,7.92645161 14.3722797,7.89173979" id="Fill-97" fill="#000000" fill-rule="nonzero"></path>
                            <path d="M10.5925445,12.3134121 L10.5925445,12.3134121 C10.5925445,12.3135259 10.5925445,12.3135259 10.5924304,12.3135259 C10.5925445,12.3135259 10.5925445,12.3135259 10.5925445,12.3134121" id="Fill-99" fill="#000000" fill-rule="nonzero"></path>
                            <path d="M6.29870339,13.6103257 C6.28376309,13.612488 6.26893684,13.6145366 6.25399654,13.6165852 C6.26893684,13.6145366 6.28376309,13.612488 6.29870339,13.6103257" id="Fill-101" fill="#000000" fill-rule="nonzero"></path>
                            <path d="M12.3366815,11.2960141 C12.3213991,11.3070536 12.3057745,11.3177517 12.290378,11.3287912 C12.3057745,11.3177517 12.3213991,11.3070536 12.3366815,11.2960141" id="Fill-103" fill="#000000" fill-rule="nonzero"></path>
                            <path d="M6.77561816,13.5346311 C6.76387121,13.5366797 6.75223831,13.5388421 6.74049137,13.5408906 C6.75223831,13.5388421 6.76387121,13.5366797 6.77561816,13.5346311" id="Fill-105" fill="#000000" fill-rule="nonzero"></path>
                            <path d="M7.73143217,13.3314702 C7.73097597,13.3316978 7.73051978,13.3318116 7.72994955,13.3319254 C7.73051978,13.3318116 7.73097597,13.3316978 7.73143217,13.3314702" id="Fill-107" fill="#000000" fill-rule="nonzero"></path>
                            <path d="M7.25464283,13.4411596 L7.23331585,13.4458257 L7.25464283,13.4411596 Z" id="Fill-109" fill="#000000" fill-rule="nonzero"></path>
                            <path d="M5.36315572,13.7043435 C5.34593447,13.7053678 5.32871321,13.7061645 5.31160601,13.7070749 C5.32871321,13.7061645 5.34593447,13.7053678 5.36315572,13.7043435" id="Fill-111" fill="#000000" fill-rule="nonzero"></path>
                            <path d="M5.82669267,13.6672303 C5.81004165,13.6689374 5.79361873,13.6705308 5.77696771,13.6721241 C5.79361873,13.6705308 5.81004165,13.6689374 5.82669267,13.6672303" id="Fill-113" fill="#000000" fill-rule="nonzero"></path>
                            <path d="M3.64775883,13.6362173 C3.64125809,13.6350792 3.63532759,13.6338273 3.6289409,13.6329168 C3.63532759,13.6338273 3.64125809,13.6350792 3.64775883,13.6362173" id="Fill-115" fill="#000000" fill-rule="nonzero"></path>
                            <path d="M4.91030509,13.7205727 C4.89388217,13.7208003 4.87780138,13.7208003 4.86149252,13.7209141 C4.87780138,13.7208003 4.89388217,13.7208003 4.91030509,13.7205727" id="Fill-117" fill="#000000" fill-rule="nonzero"></path>
                            <path d="M4.47171046,13.7152351 C4.4573404,13.714666 4.44319844,13.7138693 4.42871434,13.7131865 C4.44319844,13.7138693 4.4573404,13.714666 4.47171046,13.7152351" id="Fill-119" fill="#000000" fill-rule="nonzero"></path>
                            <path d="M4.04982386,13.6873404 C4.03876121,13.6863161 4.02804069,13.6849504 4.01709207,13.6838123 C4.02804069,13.6849504 4.03876121,13.6863161 4.04982386,13.6873404" id="Fill-121" fill="#000000" fill-rule="nonzero"></path>
                            <path d="M12.5122129,11.1660895 C12.4931668,11.1805432 12.4736646,11.1948832 12.4543905,11.209337 C12.4736646,11.1948832 12.4931668,11.1805432 12.5122129,11.1660895" id="Fill-123" fill="#000000" fill-rule="nonzero"></path>
                            <path d="M13.6246263,10.1123522 C13.6063786,10.1348864 13.5876747,10.1573068 13.5688568,10.1797272 C13.5876747,10.1573068 13.6063786,10.1348864 13.6246263,10.1123522" id="Fill-125" fill="#000000" fill-rule="nonzero"></path>
                            <path d="M13.5002112,10.2601676 C13.4817354,10.2812224 13.4626894,10.3020495 13.4437574,10.3229904 C13.4626894,10.3020495 13.4817354,10.2812224 13.5002112,10.2601676" id="Fill-127" fill="#000000" fill-rule="nonzero"></path>
                            <path d="M13.741343,9.96203288 C13.7236656,9.98570521 13.70576,10.0093775 13.6875124,10.0329361 C13.70576,10.0093775 13.7236656,9.98570521 13.741343,9.96203288" id="Fill-129" fill="#000000" fill-rule="nonzero"></path>
                            <path d="M14.07669,9.43061187 C14.0510291,9.48034651 14.0238857,9.52985354 13.9952597,9.57913296 C14.0238857,9.52985354 14.0510291,9.48034651 14.07669,9.43061187" id="Fill-131" fill="#000000" fill-rule="nonzero"></path>
                            <path d="M13.9524004,9.64961505 C13.9356353,9.67727069 13.9189843,9.70492635 13.9013069,9.73235437 C13.9189843,9.70492635 13.9356353,9.67727069 13.9524004,9.64961505" id="Fill-133" fill="#000000" fill-rule="nonzero"></path>
                            <path d="M13.8501563,9.80870902 C13.8331631,9.83374705 13.81617,9.85878511 13.7984925,9.88370933 C13.81617,9.85878511 13.8331631,9.83374705 13.8501563,9.80870902" id="Fill-135" fill="#000000" fill-rule="nonzero"></path>
                            <path d="M13.3680181,10.4058777 C13.3521654,10.4226076 13.3356285,10.43911 13.3194336,10.4558399 C13.3356285,10.43911 13.3521654,10.4226076 13.3680181,10.4058777" id="Fill-137" fill="#000000" fill-rule="nonzero"></path>
                            <path d="M12.8428838,10.9007887 C12.8238378,10.9170634 12.8049058,10.9331105 12.7855176,10.9491576 C12.8049058,10.9331105 12.8238378,10.9170634 12.8428838,10.9007887" id="Fill-139" fill="#000000" fill-rule="nonzero"></path>
                            <path d="M12.6810496,11.0342756 C12.6613193,11.050095 12.6414749,11.0656869 12.6216306,11.0813926 C12.6414749,11.0656869 12.6613193,11.050095 12.6810496,11.0342756" id="Fill-141" fill="#000000" fill-rule="nonzero"></path>
                            <path d="M12.9959135,10.7671993 C12.9785782,10.782905 12.9613569,10.7986107 12.9436795,10.8142026 C12.9613569,10.7986107 12.9785782,10.782905 12.9959135,10.7671993" id="Fill-143" fill="#000000" fill-rule="nonzero"></path>
                            <path d="M13.1136339,10.6594447 C13.1075894,10.6650214 13.102001,10.6707118 13.0960705,10.6762885 C13.102001,10.6707118 13.1077034,10.6650214 13.1136339,10.6594447" id="Fill-145" fill="#000000" fill-rule="nonzero"></path>
                            <path d="M3.6289295,13.6328827 C3.63531619,13.6339069 3.64124669,13.6351589 3.64774743,13.6361831 C3.76749789,13.6555307 3.89101194,13.6711226 4.01703506,13.6837554 C4.02798366,13.6848935 4.03881822,13.686373 4.04976684,13.6873973 C4.17328089,13.6992335 4.29998829,13.7075415 4.42874855,13.713232 C4.44323266,13.7139149 4.45737461,13.7147115 4.47174467,13.7152806 C4.59936446,13.7202882 4.72937924,13.7217677 4.86156095,13.7208572 C4.87775576,13.7207434 4.8939506,13.7207434 4.91025947,13.7206296 C5.04221307,13.7190363 5.17599145,13.7143701 5.3115946,13.7070863 C5.3287018,13.7061758 5.34592307,13.7053792 5.36314433,13.7043549 C5.49943176,13.6963882 5.63754397,13.6855764 5.77702475,13.6721469 C5.79356172,13.6705535 5.81009869,13.6688464 5.82674969,13.6672531 C5.96794119,13.6530269 6.11038723,13.6360693 6.25408778,13.6164941 C6.26891403,13.6145594 6.28374028,13.612397 6.29868058,13.6103484 C6.44500424,13.5898628 6.59224029,13.5667595 6.74050277,13.540811 C6.75224972,13.5388762 6.76388262,13.5366 6.77562958,13.5346653 C6.9275416,13.5075786 7.0801379,13.4782159 7.23330444,13.4457802 L7.25463144,13.441114 C7.41270204,13.4075403 7.57122885,13.3711213 7.72998375,13.3318571 C7.73055399,13.3317433 7.73101019,13.3317433 7.73146637,13.3315157 C8.71091113,13.0889881 9.69377733,12.7416422 10.5924761,12.3134918 C10.5925901,12.3134918 10.5925901,12.3134918 10.5925901,12.313378 C10.6901012,12.2109496 10.8260465,12.1187641 10.9486482,12.0637942 C11.2360493,11.9347345 11.5234504,11.798391 11.8037805,11.6532842 C11.9718874,11.5482382 12.1340637,11.439778 12.2903095,11.3288139 C12.305706,11.3177745 12.3214447,11.3069626 12.3367271,11.2960369 C12.3764158,11.2673569 12.4154203,11.2383356 12.4544247,11.2093142 C12.4736988,11.1948604 12.4932011,11.1805205 12.5122471,11.1660667 C12.5491987,11.1379558 12.5854659,11.1097311 12.6217332,11.0813926 C12.6414635,11.0656869 12.6613079,11.050095 12.6810382,11.0342756 C12.7162791,11.0060508 12.7511778,10.9777123 12.7855062,10.9491462 C12.8048944,10.9330991 12.8238264,10.917052 12.8428724,10.9007773 C12.8767447,10.8720973 12.910617,10.8433036 12.9436909,10.8141684 C12.9613684,10.7986904 12.9784756,10.7828709 12.9959249,10.7671652 C13.0296831,10.7370057 13.0634414,10.7068463 13.0960591,10.6762316 C13.1021037,10.6707687 13.107578,10.6650783 13.1136225,10.6595016 C13.1847885,10.5923541 13.2533314,10.52441 13.3194793,10.4558968 C13.33556,10.4391669 13.3522111,10.4225507 13.3680637,10.4059346 C13.3938386,10.3783927 13.4187011,10.3507371 13.4437917,10.3229676 C13.4627236,10.3020267 13.4817697,10.2811996 13.5002454,10.2601449 C13.5236253,10.2335135 13.5462068,10.2066545 13.5687883,10.1796817 C13.5876062,10.1572613 13.6063101,10.1348409 13.6246719,10.1123066 C13.6459989,10.0859029 13.6669837,10.0594991 13.6875124,10.0328678 C13.70576,10.0093092 13.7236656,9.98575072 13.741343,9.9620784 C13.7607312,9.93601607 13.7798913,9.90995375 13.7984811,9.88377761 C13.8161586,9.85885338 13.8331517,9.83381535 13.8501449,9.8086635 C13.8672521,9.78328403 13.8848155,9.75790457 13.9012384,9.73241129 C13.9190299,9.70486944 13.9355669,9.67721379 13.952446,9.64955813 C13.9668161,9.62611343 13.9816423,9.60278253 13.9953281,9.5791102 C14.0239541,9.52983079 14.0510976,9.48032375 14.0766443,9.43058909 C14.0873649,9.40998961 14.0967168,9.38916251 14.1069811,9.36844924 C14.1224917,9.33669645 14.1381163,9.30505748 14.1524863,9.27307707 C14.1628647,9.24985997 14.1723307,9.22652907 14.1821388,9.20319817 C14.1946841,9.17338015 14.2071153,9.14367591 14.2186342,9.11374408 C14.227758,9.08984413 14.2361976,9.06594418 14.2446371,9.04193044 C14.2551296,9.01199859 14.2652798,8.98218056 14.2747458,8.95213491 C14.282273,8.92834877 14.289458,8.90444883 14.2961869,8.88054888 C14.3049686,8.84982038 14.313066,8.81897806 14.3205932,8.78813576 C14.3264096,8.76480485 14.3322261,8.74147395 14.3372442,8.71814306 C14.3444292,8.68513837 14.3504737,8.65190606 14.3562902,8.61878757 C14.3599397,8.59750523 14.3641595,8.57633669 14.3673528,8.55505437 C14.3736255,8.51328636 14.3781874,8.47140454 14.3821791,8.42940893 C14.3834336,8.41654848 14.3853725,8.40368803 14.3863989,8.39071377 C14.3907327,8.33631295 14.3931277,8.28168449 14.3937068,8.22694224 C14.3937068,8.20952942 14.3927856,8.19200279 14.3925575,8.17470378 C14.3921013,8.13657768 14.3913029,8.09833776 14.389022,8.05998403 C14.3876534,8.0385879 14.3853725,8.01707793 14.3835477,7.99556799 C14.3803543,7.96096997 14.3769329,7.92637194 14.3722569,7.89177392 C14.3692917,7.86901208 14.3657562,7.84636403 14.3618785,7.82360217 C14.3565183,7.78968702 14.3501316,7.75554423 14.3430606,7.72151526 C14.3382706,7.6987534 14.3333665,7.67599154 14.3281203,7.6532297 C14.3196808,7.61840406 14.3103288,7.58346461 14.3004066,7.54852517 C14.2942481,7.52667379 14.2883175,7.5048224 14.2814747,7.48297102 C14.2696137,7.44484491 14.2560419,7.406605 14.2421281,7.36825127 C14.2352852,7.34970036 14.2293547,7.33126327 14.2221697,7.31271236 C14.2000444,7.25592152 14.1760943,7.19913069 14.1496351,7.14211225 C14.1300188,7.10011664 14.1088059,7.05880387 14.0863384,7.01806014 C12.3774423,9.02417619 11.1327217,9.79978637 9.12387916,10.3566551 C6.23321698,11.1579862 3.53552414,13.3156962 3.53552414,13.3156962 C3.4438295,13.396956 3.35498605,13.4787849 3.26785334,13.5606138 L3.26808142,13.5608414 C3.38441046,13.5886109 3.50507331,13.6122832 3.6289295,13.6328827" id="Fill-147" fill="#000000" fill-rule="nonzero"></path>
                            <path d="M9.12384495,10.3566438 C11.1326875,9.79977499 12.3774081,9.02416481 14.0864183,7.01816257 C14.1087717,7.05879249 14.1300987,7.10010526 14.1496009,7.14210087 C13.5937306,5.94994874 11.9256637,5.27107643 10.8780182,5.00043799 C10.8216784,4.98587039 10.766137,4.97084758 10.7101394,4.95605237 C7.9939708,7.35833849 4.21190897,10.2618406 0.337582264,7.37893797 C0.72910926,9.6438563 1.36857674,11.6084319 3.26781911,13.5606024 C3.35495184,13.4787735 3.44379527,13.3969447 3.53548991,13.3156848 C3.53548991,13.3156848 6.23318278,11.1579748 9.12384495,10.3566438" id="Fill-149" fill="#00A2AE" fill-rule="nonzero"></path>
                            <path d="M9.69408525,15.9332981 C6.94769389,16.1482838 4.81191583,15.1196756 3.26804721,13.56083 L3.26781911,13.5606024 C0.429847145,16.2339822 0,19.2337671 0,19.2337671 C1.4826248,18.2094835 5.88282713,18.1318656 7.86931627,17.9818651 C15.5463475,17.401893 18.53281,12.9870037 18.9058612,6.4883804 C17.8354062,9.08254896 15.8883776,15.4484706 9.69408525,15.9332981" id="Fill-151" fill="#FF658F" fill-rule="nonzero"></path>
                            <path d="M14.3925575,8.17470378 C14.3921013,8.13657768 14.3913029,8.09833776 14.389022,8.05998403 C14.3876534,8.0385879 14.3854865,8.01707793 14.3835477,7.99556799 C14.3804684,7.96096997 14.3769329,7.92637194 14.3722569,7.89177392 C14.3692917,7.86901208 14.3657562,7.84636403 14.3618785,7.82360217 C14.3565183,7.78968702 14.3501316,7.75554423 14.3430606,7.72151526 C14.3382706,7.6987534 14.3333665,7.67599154 14.3281203,7.6532297 C14.3196808,7.61840406 14.3103288,7.58346461 14.3004066,7.54852517 C14.2942481,7.52667379 14.2883175,7.5048224 14.2814747,7.48297102 C14.2696137,7.44484491 14.2560419,7.40649119 14.2421281,7.36825127 C14.2352852,7.34970036 14.2293547,7.33126327 14.2221697,7.31271236 C14.2001584,7.25592152 14.1762083,7.19913069 14.1496351,7.14211225 C14.1300188,7.10011664 14.1088059,7.05880387 14.0863384,7.01806014 C12.3774423,9.02417619 11.1327217,9.79978637 9.12387916,10.3566551 C6.23321698,11.1579862 3.53552414,13.3156962 3.53552414,13.3156962 C3.4438295,13.396956 3.35498605,13.4786711 3.26785334,13.5606138 L3.26808142,13.5608414 C3.38452449,13.5886109 3.50507331,13.6122832 3.6289295,13.6328827 C3.63531619,13.6339069 3.64124669,13.6351589 3.64774743,13.6361831 C3.76749789,13.6555307 3.89101194,13.6711226 4.01703506,13.6837554 C4.02798366,13.6848935 4.03881822,13.686373 4.04976684,13.6873973 C4.17339494,13.6992335 4.29998829,13.7075415 4.42874855,13.713232 C4.44323266,13.7139149 4.45737461,13.7147115 4.47174467,13.7152806 C4.59936446,13.7202882 4.72937924,13.7217677 4.86156095,13.7208572 C4.87775576,13.7207434 4.8939506,13.7207434 4.91025947,13.7205158 C5.04221307,13.7190363 5.17599145,13.7143701 5.3115946,13.7070863 C5.3287018,13.7061758 5.34592307,13.7053792 5.36314433,13.7043549 C5.49943176,13.6963882 5.63754397,13.6855764 5.77702475,13.6721469 C5.79367575,13.6705535 5.81009869,13.6688464 5.82674969,13.6672531 C5.96794119,13.6530269 6.11038723,13.6360693 6.25408778,13.6164941 C6.26902808,13.6145594 6.28374028,13.612397 6.29868058,13.6103484 C6.44500424,13.5898628 6.59224029,13.5667595 6.74050277,13.540811 C6.75224972,13.5388762 6.76388262,13.5366 6.77562958,13.5346653 C6.9275416,13.5075786 7.0801379,13.4782159 7.23330444,13.4457802 L7.25463144,13.441114 C7.41270204,13.4075403 7.57122885,13.3711213 7.72998375,13.3318571 C7.73055399,13.3317433 7.73101019,13.3317433 7.73146637,13.3315157 C8.71091113,13.0889881 9.69377733,12.7416422 10.5924761,12.3134918 C10.5925901,12.3134918 10.5925901,12.3134918 10.5925901,12.313378 C11.0103482,12.1144393 11.4074635,11.8967222 11.7799445,11.6651204 C11.7878138,11.661137 11.7957972,11.6573813 11.8037805,11.6532842 C11.8277306,11.6383752 11.8506543,11.6227833 11.8743763,11.6076467 C11.8922818,11.5962657 11.9098452,11.584771 11.9277508,11.5731625 C12.051607,11.4931545 12.1731822,11.4120085 12.2903095,11.3288139 C12.305706,11.3177745 12.3214447,11.3069626 12.3367271,11.2960369 C12.3764158,11.2673569 12.4154203,11.2383356 12.4544247,11.2093142 C12.4736988,11.1948604 12.4932011,11.1805205 12.5122471,11.1660667 C12.5491987,11.1379558 12.5854659,11.1097311 12.6217332,11.0813926 C12.6414635,11.0656869 12.6613079,11.050095 12.6810382,11.0342756 C12.7162791,11.0060508 12.7511778,10.9777123 12.7855062,10.9491462 C12.8048944,10.9330991 12.8238264,10.917052 12.8428724,10.9007773 C12.8767447,10.8720973 12.910617,10.8433036 12.9436909,10.8141684 C12.9613684,10.7986904 12.9785896,10.7828709 12.9959249,10.7671652 C13.0296831,10.7370057 13.0634414,10.7068463 13.0960591,10.6762316 C13.1021037,10.6707687 13.107578,10.6650783 13.1136225,10.6595016 C13.1847885,10.5923541 13.2533314,10.52441 13.3194793,10.4558968 C13.33556,10.4391669 13.3522111,10.4225507 13.3680637,10.4058207 C13.3938386,10.3783927 13.4187011,10.3507371 13.4437917,10.3229676 C13.4627236,10.3020267 13.4817697,10.2811996 13.5002454,10.2601449 C13.5236253,10.2335135 13.5462068,10.2066545 13.5687883,10.1796817 C13.5876062,10.1572613 13.6063101,10.1348409 13.6246719,10.1123066 C13.6459989,10.0859029 13.6669837,10.0594991 13.6875124,10.0328678 C13.7058741,10.0093092 13.7236656,9.98575072 13.741343,9.9620784 C13.7607312,9.93601607 13.7798913,9.90995375 13.7984811,9.88377761 C13.8161586,9.85885338 13.8331517,9.83381535 13.8501449,9.8086635 C13.8673662,9.78328403 13.8848155,9.75790457 13.9012384,9.73241129 C13.9190299,9.70486944 13.9355669,9.67721379 13.952446,9.64955813 C13.9668161,9.62611343 13.9816423,9.60278253 13.9953281,9.5791102 C14.0239541,9.52983079 14.0510976,9.48032375 14.0766443,9.43058909 C14.0873649,9.40998961 14.0967168,9.38916251 14.1069811,9.36844924 C14.1224917,9.33669645 14.1382303,9.30505748 14.1526003,9.27307707 C14.1628647,9.24985997 14.1723307,9.22652907 14.1821388,9.20319817 C14.1946841,9.17338015 14.2071153,9.14367591 14.2186342,9.11374408 C14.227758,9.08984413 14.2361976,9.06594418 14.2446371,9.04193044 C14.2551296,9.01199859 14.2652798,8.98218056 14.2747458,8.95213491 C14.282273,8.92834877 14.289458,8.90444883 14.2961869,8.88054888 C14.3049686,8.84982038 14.313066,8.81897806 14.3205932,8.78813576 C14.3264096,8.76480485 14.3322261,8.74147395 14.3372442,8.71814306 C14.3444292,8.68513837 14.3504737,8.65190606 14.3562902,8.61878757 C14.3599397,8.59750523 14.3641595,8.57633669 14.3673528,8.55505437 C14.3736255,8.51328636 14.3781874,8.47140454 14.3821791,8.42940893 C14.3834336,8.41654848 14.3854865,8.40368803 14.3863989,8.39071377 C14.3907327,8.33631295 14.3931277,8.28168449 14.3937068,8.22682843 C14.3937068,8.20952942 14.3927856,8.19200279 14.3925575,8.17470378" id="Fill-153" fill="#004163" fill-rule="nonzero"></path>
                            <path d="M12.3171907,3.52808743 C11.8384169,3.93768701 11.2991977,4.43514734 10.7101394,4.95605237 C10.766137,4.97084758 10.8216784,4.98587039 10.8780182,5.00043799 C11.8888262,5.26163026 13.4766033,5.9027179 14.0864183,7.01816257 C14.1087717,7.05879249 14.1300987,7.10010526 14.1496009,7.14210087 C14.9356201,8.82795761 13.7383436,10.4443907 11.8037463,11.6533866 C11.4252208,11.8898823 11.0182973,12.1106723 10.5925559,12.3133666 C8.19515158,13.4555564 5.19842471,14.0225542 3.26804721,13.56083 C4.81191583,15.1196756 6.94769389,16.1482838 9.69408525,15.9332981 C15.8883776,15.4484706 17.8354062,9.08254896 18.9058612,6.4883804 C18.9961873,6.26952519 19.0802408,6.07741513 19.1600744,5.91808215 C19.5074648,5.22475607 20.6997233,2.61761327 23.1517566,2.8452318 C21.6691317,0.682855633 17.9055457,-1.25190199 12.3171907,3.52808743" id="Fill-155" fill="#00CDD3" fill-rule="nonzero"></path>
                            <path d="M11.4048062,12.8604477 C10.3462121,12.8957286 10.348493,12.5698927 10.5925559,12.3133666 C8.19515158,13.4555564 5.19842471,14.0225542 3.26804721,13.56083 C4.81191583,15.1196756 6.94769389,16.1482838 9.69408525,15.9332981 C15.8883776,15.4484706 17.8354062,9.08254896 18.9058612,6.4883804 C16.3088728,10.3566438 14.826248,12.7466385 11.4048062,12.8604477" id="Fill-157" fill="#005279" fill-rule="nonzero"></path>
                            <g transform="translate(0.114048, 0.000000)" id="Fill-159-Clipped">
                                <g>
                                    <mask id="mask-2" fill="white">
                                        <use xlink:href="#path-1"></use>
                                    </mask>
                                    <g id="path-1"></g>
                                    <path d="M10.5961142,4.95604099 C6.30528397,3.82500445 3.15949626,2.13448151 0.570263119,-1.13809272e-05 C-0.0579136059,2.92500073 -0.132158894,5.32159638 0.223557011,7.37892659 C4.09776967,10.2618293 7.87994555,7.35832712 10.5961142,4.95604099" id="Fill-159" fill="#00CDD3" fill-rule="nonzero" mask="url(#mask-2)"></path>
                                </g>
                            </g>
                        </g>
                    </g>
                </g>
            </g>
        </g>
    </g>
</svg>