<?xml version="1.0" encoding="UTF-8"?>
<svg width="56px" height="56px" viewBox="0 0 56 56" version="1.1" xmlns="http://www.w3.org/2000/svg" xmlns:xlink="http://www.w3.org/1999/xlink">
    <!-- Generator: Sketch 63.1 (92452) - https://sketch.com -->
    <title>沟通@1x</title>
    <desc>Created with Sketch.</desc>
    <g id="页面-1" stroke="none" stroke-width="1" fill="none" fill-rule="evenodd">
        <g id="首页" transform="translate(-1356.000000, -1766.000000)" fill-rule="nonzero">
            <g id="沟通" transform="translate(1356.000000, 1766.000000)">
                <rect id="矩形" fill="#000000" opacity="0" x="0" y="0" width="55.3472" height="55.3472"></rect>
                <path d="M51.5735273,12.5789091 C53.6576692,12.5789091 55.3472,14.2684399 55.3472,16.3525818 L55.3472,37.7367273 C55.3472,41.9050111 51.9681383,45.2840727 47.7998545,45.2840727 L40.2525091,55.3472 L32.7051636,45.2840727 L22.6420364,45.2840727 L22.6420364,41.5104 L33.8750022,41.5104 C34.715974,41.5102741 35.5013933,41.9303601 35.9681327,42.6299229 L40.2525091,49.0577455 L44.5368855,42.6299229 C45.0036249,41.9303602 45.7890441,41.5102742 46.630016,41.5104 L48.4288,41.5104 C50.1646895,41.5104 51.5735273,40.1015622 51.5735273,38.3656727 L51.5735273,12.5789091 Z M40.2525091,0 C44.4207929,0 47.7998545,3.37906169 47.7998545,7.54734547 L47.7998545,27.6736 C47.7998545,31.8418838 44.4207929,35.2209454 40.2525091,35.2209455 L22.6420364,35.2209455 L15.0946909,45.2840727 L7.54734547,35.2209455 C3.37906167,35.2209455 3.07238679e-15,31.8418838 3.07238679e-15,27.6736 L3.07238679e-15,7.54734547 C3.07238679e-15,3.37906167 3.37906167,0 7.54734547,0 L40.2525091,0 L40.2525091,0 Z M40.2525091,3.77367274 L7.54734547,3.77367274 C5.60359732,3.77367274 3.97788304,5.25030223 3.7912832,7.18507286 L3.77367274,7.54734547 L3.77367274,28.3025455 C3.77367274,29.9302563 5.01143741,31.271168 6.59637994,31.432178 L6.9184,31.4472727 L8.717184,31.4472727 C9.44832758,31.4469033 10.143463,31.764627 10.6216308,32.3177332 L10.8103145,32.5693114 L15.0946909,38.9946182 L19.3790673,32.5667956 C19.7849206,31.9590105 20.4350128,31.557753 21.1602409,31.467399 L21.4721978,31.4472727 L40.2525091,31.4472727 C42.1962573,31.4471794 43.8219715,29.9706432 44.0085713,28.0358726 L44.0261818,27.6736 L44.0261818,7.54734547 C44.0261818,5.46320357 42.336651,3.77367274 40.2525091,3.77367274 Z M12.5789091,13.8368 C13.9271125,13.8368 15.1729039,14.5560579 15.8470056,15.7236363 C16.5211074,16.8912148 16.5211074,18.3297307 15.8470056,19.4973091 C15.1729039,20.6648875 13.9271125,21.3841455 12.5789091,21.3841455 C10.4947672,21.3841455 8.80523637,19.6946146 8.80523637,17.6104727 C8.80523637,15.5263308 10.4947672,13.8368 12.5789091,13.8368 L12.5789091,13.8368 Z M23.8999273,13.8368 C25.2481307,13.8368 26.4939221,14.5560579 27.1680238,15.7236363 C27.8421255,16.8912148 27.8421255,18.3297307 27.1680238,19.4973091 C26.4939221,20.6648875 25.2481307,21.3841455 23.8999273,21.3841455 C21.8157854,21.3841455 20.1262545,19.6946146 20.1262545,17.6104727 C20.1262545,15.5263308 21.8157854,13.8368 23.8999273,13.8368 L23.8999273,13.8368 Z M35.2209455,13.8368 C36.5691489,13.8368 37.8149403,14.5560579 38.489042,15.7236363 C39.1631437,16.8912148 39.1631437,18.3297307 38.489042,19.4973091 C37.8149403,20.6648875 36.5691489,21.3841455 35.2209455,21.3841455 C33.1368036,21.3841455 31.4472727,19.6946146 31.4472727,17.6104727 C31.4472727,15.5263308 33.1368036,13.8368 35.2209455,13.8368 L35.2209455,13.8368 Z" id="形状" fill="#4B5C6E"></path>
            </g>
        </g>
    </g>
</svg>