<?xml version="1.0" encoding="UTF-8"?>
<svg width="49px" height="49px" viewBox="0 0 49 49" version="1.1" xmlns="http://www.w3.org/2000/svg" xmlns:xlink="http://www.w3.org/1999/xlink">
    <!-- Generator: Sketch 63.1 (92452) - https://sketch.com -->
    <title>矩阵@1x</title>
    <desc>Created with Sketch.</desc>
    <g id="页面-1" stroke="none" stroke-width="1" fill="none" fill-rule="evenodd">
        <g id="首页" transform="translate(-938.000000, -1765.000000)" fill="#4B5C6E" fill-rule="nonzero">
            <g id="矩阵" transform="translate(938.000000, 1765.000000)">
                <path d="M46.68336,48.66624 L1.989,48.66624 C0.918,48.66624 0.04896,47.7972 0.04896,46.7262 L0.04896,2.03796 C0.04896,0.96696 0.918,0.09792 1.989,0.09792 L46.68336,0.09792 C47.75436,0.09792 48.6234,0.96696 48.6234,2.03796 L48.6234,46.73232 C48.6234,47.80332 47.75436,48.66624 46.68336,48.66624 Z M3.92904,44.79228 L44.74332,44.79228 L44.74332,3.978 L3.92904,3.978 L3.92904,44.79228 L3.92904,44.79228 Z" id="形状"></path>
                <path d="M24.33924,41.616 C24.00264,41.616 23.67216,41.53032 23.37228,41.35896 L10.12248,33.70896 C9.52272,33.36012 9.15552,32.72364 9.15552,32.03208 L9.15552,16.7382 C9.15552,16.04664 9.52272,15.40404 10.12248,15.06132 L23.36616,7.41744 C23.96592,7.0686 24.70644,7.0686 25.3062,7.41744 L38.54988,15.06132 C39.14964,15.41016 39.51684,16.04664 39.51684,16.7382 L39.51684,32.02596 C39.51684,32.71752 39.14964,33.36012 38.54988,33.70284 L25.3062,41.35284 C25.00632,41.53032 24.66972,41.616 24.33924,41.616 L24.33924,41.616 Z M13.0356,30.91212 L24.33924,37.43604 L35.64288,30.91212 L35.64288,17.85816 L24.33924,11.32812 L13.0356,17.85816 L13.0356,30.91212 Z" id="形状"></path>
                <path d="M24.35148,26.57304 C24.01488,26.57304 23.6844,26.48736 23.38452,26.316 L10.14084,18.666 C9.2106,18.12744 8.89848,16.94628 9.43092,16.01604 C9.96336,15.0858 11.15064,14.76756 12.08088,15.30612 L24.35148,22.3992 L36.6282,15.31224 C37.55844,14.77368 38.7396,15.09192 39.27816,16.02216 C39.8106,16.9524 39.49236,18.13356 38.56824,18.67212 L25.31844,26.316 C25.01856,26.48736 24.68808,26.57304 24.35148,26.57304 L24.35148,26.57304 Z" id="路径"></path>
                <path d="M24.35148,41.01012 C23.28048,41.01012 22.41144,40.14108 22.41144,39.07008 L22.41144,24.633 C22.41144,23.562 23.28048,22.69296 24.35148,22.69296 C25.42248,22.69296 26.29152,23.562 26.29152,24.633 L26.29152,39.07008 C26.29152,40.1472 25.42248,41.01012 24.35148,41.01012 Z M7.35012,8.58636 C6.81768,8.58636 6.29136,8.37216 5.91192,7.94376 L2.58876,4.25952 C1.87272,3.46392 1.93392,2.23992 2.72952,1.52388 C3.52512,0.80784 4.74912,0.86904 5.46516,1.66464 L8.78832,5.34888 C9.50436,6.14448 9.44316,7.36848 8.64756,8.08452 C8.27424,8.42112 7.80912,8.58636 7.35012,8.58636 L7.35012,8.58636 Z M45.51444,47.14848 C44.982,47.14848 44.45568,46.93428 44.07624,46.50588 L40.75308,42.82164 C40.03704,42.02604 40.09824,40.80204 40.89384,40.086 C41.68944,39.36996 42.91344,39.43116 43.62948,40.22676 L46.95264,43.911 C47.66868,44.7066 47.60748,45.9306 46.81188,46.64664 C46.44468,46.98324 45.97956,47.14848 45.51444,47.14848 Z M3.16404,47.25864 C2.6316,47.25864 2.10528,47.04444 1.72584,46.61604 C1.0098,45.82044 1.071,44.59644 1.8666,43.8804 L5.55084,40.55724 C6.34644,39.8412 7.57044,39.9024 8.28648,40.698 C9.00252,41.4936 8.94132,42.7176 8.14572,43.43364 L4.46148,46.7568 C4.08816,47.0934 3.62304,47.25864 3.16404,47.25864 L3.16404,47.25864 Z M41.72004,9.09432 C41.1876,9.09432 40.66128,8.88012 40.28184,8.45172 C39.5658,7.65612 39.627,6.43212 40.4226,5.71608 L44.10684,2.39292 C44.90244,1.67688 46.12644,1.73808 46.84248,2.53368 C47.55852,3.32928 47.49732,4.55328 46.70172,5.26932 L43.01748,8.59248 C42.64416,8.92908 42.17904,9.09432 41.72004,9.09432 Z" id="形状"></path>
            </g>
        </g>
    </g>
</svg>