<?xml version="1.0" encoding="UTF-8"?>
<svg width="52px" height="54px" viewBox="0 0 52 54" version="1.1" xmlns="http://www.w3.org/2000/svg" xmlns:xlink="http://www.w3.org/1999/xlink">
    <!-- Generator: Sketch 63.1 (92452) - https://sketch.com -->
    <title>敏捷协同@1x</title>
    <desc>Created with Sketch.</desc>
    <g id="页面-1" stroke="none" stroke-width="1" fill="none" fill-rule="evenodd">
        <g id="首页" transform="translate(-1358.000000, -1608.000000)" fill="#4B5C6E" fill-rule="nonzero">
            <g id="敏捷协同" transform="translate(1358.000000, 1608.000000)">
                <path d="M49.8331808,19.8610882 L48.2273461,24.699515 L47.1079696,28.0837984 C47.0556623,28.2354896 46.8621252,28.2773355 46.7522798,28.1570287 L45.0679842,26.2687345 L40.9932442,21.6866136 C40.8886296,21.5663067 40.9513984,21.3727697 41.1083203,21.3413853 L42.5833867,21.0380028 C43.122152,20.9281575 43.4098423,20.3318541 43.1587671,19.8401653 C42.2329276,17.993717 41.0246286,16.3198829 39.5495623,14.8448165 C38.0117272,13.3069814 36.2489706,12.0516058 34.3083691,11.1153048 C34.1723701,11.0473053 33.8899106,10.9217678 33.6022204,10.8014609 C33.2046847,10.6288468 32.7443804,10.7909995 32.5351511,11.1676122 C31.2588526,13.490057 28.7847165,15.0645073 25.9444292,15.0645073 C22.8321438,15.0645073 20.1644707,13.1814438 19.0137097,10.487617 C18.6266355,9.57746972 18.4121755,8.57839997 18.4121755,7.53225363 C18.4121755,7.40148534 18.4174063,7.27071704 18.422637,7.13994875 C18.6266355,3.16459267 21.9167658,0 25.9444292,0 C29.8047091,0 32.984994,2.90305609 33.4243755,6.64302924 C33.4609906,6.95164241 33.6702199,7.213179 33.9631408,7.32302436 C39.6803306,9.49377801 44.2886052,13.9137463 46.6999725,19.5053985 C46.8568944,19.8715497 47.2491993,20.0755482 47.6362735,19.9918565 L49.5925671,19.5890902 C49.7547198,19.5577058 49.8854881,19.709397 49.8331808,19.8610882 L49.8331808,19.8610882 Z M51.889203,38.5714155 C51.8470125,42.7821545 48.3162686,46.1612071 44.1055296,46.0252081 C43.1901515,45.9938237 42.3113886,45.8002866 41.5058559,45.4707505 C41.212935,45.3504437 40.8833989,45.4079818 40.6427852,45.6119803 C36.6935828,49.0067252 31.5570043,51.0519413 25.9444292,51.0519413 C24.9087443,51.0519413 23.8939823,50.9839417 22.8949126,50.8479427 C22.5078384,50.7956354 22.1416872,51.0153261 22.0004575,51.3762466 L21.3204624,53.1390032 C21.2629243,53.2906944 21.0641565,53.3220788 20.9647726,53.1965413 L18.1035624,49.6553359 L15.5195809,46.4593588 C15.420197,46.3338213 15.4934273,46.1455149 15.6503492,46.1193613 L17.6066429,45.8107481 L24.2078262,44.7698325 C24.3647482,44.7436788 24.4955165,44.9006008 24.4379784,45.052292 L23.8730594,46.5221276 C23.6690609,47.0504315 24.0352121,47.6205813 24.6001311,47.6571964 C25.0447433,47.6885808 25.4945862,47.704273 25.9444292,47.704273 C28.5441028,47.704273 31.0653155,47.196892 33.4348369,46.1925915 C35.0040564,45.5282886 36.4634306,44.6704486 37.7920364,43.629533 C38.132034,43.3627657 38.210495,42.8815384 37.9803428,42.5153871 C37.2480403,41.3541647 36.8191203,39.9732515 36.8191203,38.4981852 C36.8191203,34.3397535 40.1929423,30.9659316 44.351374,30.9659316 C44.5762954,30.9659316 44.8012169,30.976393 45.0209076,30.997316 C46.1925915,31.1019306 47.2910452,31.4733126 48.2482691,32.0539238 C50.4504071,33.3825296 51.915012,35.8095891 51.889203,38.5714155 L51.889203,38.5714155 Z M8.20701802,20.9647726 C7.20271753,23.3342941 6.69533656,25.8555067 6.69533656,28.4551804 C6.69533656,29.0462531 6.72149022,29.6373257 6.77379753,30.217937 C6.81041266,30.646857 7.16610241,30.9816238 7.60025314,30.9816238 C7.91409704,30.9868545 8.23317167,30.9920852 8.3691707,31.0077774 C12.1352975,31.426236 15.0645073,34.6169823 15.0645073,38.4929545 C15.0645073,40.2347881 14.4734346,41.8406228 13.4795956,43.1169213 C12.7786775,44.0166071 11.8789917,44.7541403 10.8485375,45.2615213 C9.91746728,45.7165949 8.8817824,45.988593 7.78855948,46.0199774 C3.57782047,46.1559764 0.0470765852,42.7769237 0.00523073169,38.5661847 C-0.0261536584,35.987434 1.25014487,33.7016043 3.21166926,32.3259218 C3.46797511,32.1480769 3.5987434,31.8394638 3.55689755,31.5256199 C3.42089852,30.5213194 3.34766828,29.496096 3.34766828,28.4499496 C3.34766828,23.1826028 5.14703998,18.3389453 8.17040289,14.4943575 C8.41101655,14.1857443 8.40578582,13.7515936 8.16517216,13.4482112 L6.86271997,11.8423765 C6.76333607,11.716839 6.83133558,11.5285326 6.99348826,11.502379 L11.9365297,10.7177692 L15.5457346,10.1423887 C15.7026565,10.1162351 15.8334248,10.273157 15.7758868,10.4248483 L14.9180468,12.6688321 L12.6792936,18.5167902 C12.6217556,18.6684814 12.4229878,18.6998658 12.3236039,18.5743282 L11.4343795,17.4758746 C11.0839204,17.0417238 10.4143868,17.0626468 10.1005429,17.5229511 C9.34731752,18.6057126 8.71962972,19.7512428 8.20701802,20.9647726 Z" id="形状"></path>
            </g>
        </g>
    </g>
</svg>