<?xml version="1.0" encoding="UTF-8"?>
<svg width="53px" height="51px" viewBox="0 0 53 51" version="1.1" xmlns="http://www.w3.org/2000/svg" xmlns:xlink="http://www.w3.org/1999/xlink">
    <!-- Generator: Sketch 63.1 (92452) - https://sketch.com -->
    <title>企业@1x</title>
    <desc>Created with Sketch.</desc>
    <g id="页面-1" stroke="none" stroke-width="1" fill="none" fill-rule="evenodd">
        <g id="首页" transform="translate(-514.000000, -1762.000000)" fill="#4B5C6E">
            <g id="企业" transform="translate(514.000000, 1762.000000)">
                <polygon id="路径" points="51 10.4297266 51 13 2 13 2 10.4297266 26.4998089 5.84746114e-05"></polygon>
                <path d="M4,15 L49,15 L49,17.1433958 C49,17.6164853 48.6164853,18 48.1433958,18 L4.85660416,18 C4.38351475,18 4,17.6164853 4,17.1433958 L4,15 L4,15 Z" id="矩形"></path>
                <rect id="矩形" x="9" y="20" width="7" height="21"></rect>
                <path d="M4.54524054,41 L47.4547595,41 C47.8590871,41 48.2083572,41.282721 48.2925755,41.6781804 L48.7795774,43.9649721 C48.8781181,44.4276851 48.5828982,44.8826711 48.1201852,44.9812118 C48.0615322,44.9937027 48.0017297,45 47.9417614,45 L4.05823861,45 C3.5851492,45 3.20163445,44.6164853 3.20163445,44.1433958 C3.20163445,44.0834276 3.2079317,44.023625 3.22042262,43.9649721 L3.70742455,41.6781804 C3.79164276,41.282721 4.14091289,41 4.54524054,41 Z" id="矩形"></path>
                <path d="M1.57742028,46 L51.4225797,46 C51.8399673,46 52.1965934,46.300829 52.2669326,46.7122471 L52.8288679,49.9990387 C52.9085941,50.4653619 52.5951954,50.9080225 52.1288722,50.9877487 C52.0811854,50.9959016 52.0328937,51 51.9845151,51 L1.01548492,51 C0.54239551,51 0.158880764,50.6164853 0.158880764,50.1433958 C0.158880764,50.0950172 0.162979192,50.0467255 0.171132086,49.9990387 L0.733067438,46.7122471 C0.80340665,46.300829 1.16003268,46 1.57742028,46 Z" id="矩形备份-3"></path>
                <rect id="矩形备份" x="23" y="20" width="7" height="21"></rect>
                <rect id="矩形备份-2" x="37" y="20" width="7" height="21"></rect>
            </g>
        </g>
    </g>
</svg>