<?xml version="1.0" encoding="UTF-8"?>
<svg width="41px" height="48px" viewBox="0 0 41 48" version="1.1" xmlns="http://www.w3.org/2000/svg" xmlns:xlink="http://www.w3.org/1999/xlink">
    <!-- Generator: Sketch 63.1 (92452) - https://sketch.com -->
    <title>日志@1x</title>
    <desc>Created with Sketch.</desc>
    <g id="页面-1" stroke="none" stroke-width="1" fill="none" fill-rule="evenodd">
        <g id="首页" transform="translate(-519.000000, -1895.000000)" fill="#4B5C6E" fill-rule="nonzero">
            <g id="日志" transform="translate(519.000000, 1895.000000)">
                <path d="M15.1531807,7.0904999 L26.2448893,7.0904999 C27.2248158,7.0904999 28.0140539,6.3277463 28.0140539,5.390195 L28.0140539,2.5351659 C28.0140539,1.5976146 27.2195189,0.834861 26.2448893,0.834861 L15.1531807,0.834861 C14.1732542,0.834861 13.3840161,1.5976146 13.3840161,2.5351659 L13.3840161,5.390195 C13.3840161,6.3277463 14.1785511,7.0904999 15.1531807,7.0904999 Z M35.1436813,4.2142832 L29.4812952,4.2142832 L29.4812952,6.1105734 C29.4812952,7.2758914 28.5013687,8.2187396 27.2883786,8.2187396 L14.1149883,8.2187396 C12.9019982,8.2187396 11.9220717,7.2758914 11.9220717,6.1105734 L11.9220717,4.2142832 L6.2596856,4.2142832 C3.1504053,4.2142832 0.6343778,6.6349665 0.6343778,9.6171212 L0.6343778,41.9599926 C0.6343778,44.9421473 3.1557022,47.3628306 6.2596856,47.3628306 L35.1383844,47.3628306 C38.2476647,47.3628306 40.7637005,44.9421473 40.7637005,41.9599926 L40.7637005,9.6171212 C40.7689891,6.6349665 38.2476647,4.2142832 35.1436813,4.2142832 Z M33.6870338,35.5878219 L8.8551666,35.5878219 C8.0712254,35.5878219 7.4355974,34.9786784 7.4355974,34.2265186 C7.4355974,33.4743588 8.0712254,32.8652153 8.8551666,32.8652153 L33.6923307,32.8652153 C34.4762719,32.8652153 35.1118999,33.4743588 35.1118999,34.2265186 C35.1118999,34.9786784 34.470975,35.5878219 33.6870338,35.5878219 Z M33.6870338,26.6572485 L8.8551666,26.6572485 C8.0712254,26.6572485 7.4355974,26.048105 7.4355974,25.2959452 C7.4355974,24.5437854 8.0712254,23.9346419 8.8551666,23.9346419 L33.6923307,23.9346419 C34.4762719,23.9346419 35.1118999,24.5437854 35.1118999,25.2959452 C35.1118999,26.048105 34.470975,26.6572485 33.6870338,26.6572485 Z M33.6870338,17.7266751 L8.8551666,17.7266751 C8.0712254,17.7266751 7.4355974,17.1175316 7.4355974,16.3653718 C7.4355974,15.613212 8.0712254,15.0040685 8.8551666,15.0040685 L33.6923307,15.0040685 C34.4762719,15.0040685 35.1118999,15.613212 35.1118999,16.3653718 C35.1118999,17.1175316 34.470975,17.7266751 33.6870338,17.7266751 Z" id="形状"></path>
            </g>
        </g>
    </g>
</svg>