<?xml version="1.0" encoding="UTF-8"?>
<svg width="52px" height="52px" viewBox="0 0 52 52" version="1.1" xmlns="http://www.w3.org/2000/svg" xmlns:xlink="http://www.w3.org/1999/xlink">
    <!-- Generator: Sketch 63.1 (92452) - https://sketch.com -->
    <title>安全保障@1x</title>
    <desc>Created with Sketch.</desc>
    <g id="页面-1" stroke="none" stroke-width="1" fill="none" fill-rule="evenodd">
        <g id="首页" transform="translate(-1358.000000, -1893.000000)" fill="#4B5C6E" fill-rule="nonzero">
            <g id="安全保障" transform="translate(1358.000000, 1893.000000)">
                <path d="M50.6,0.6 C50.6,0.6 43.4,2.4 37.8,2.4 C32,2.4 26,0 26,0 C26,0 20.2,2.4 14.4,2.4 C8.6,2.4 1.6,0.6 1.6,0.6 C1.6,0.6 0.4,4.6 0.4,11 C0.4,27 6.4,37.2 13.4,43 C17.2,46.4 26,52 26,52 C26,52 35.6,46.2 39.8,42.8 C46.8,37 52,27 52,10.8 C51.8,4.8 50.6,0.6 50.6,0.6 Z M37.4,40 C34.6,42.4 29,45.8 26,47.6 C23.2,45.8 18.2,42.4 15.4,40 C10.2,35.6 4,27 4,11 C4,8.6 4.2,6.6 4.4,5.2 C7.2,5.8 11,6.4 14.4,6.4 C19.2,6.4 23.8,5 26,4.2 C28.4,5 33,6.4 37.6,6.4 C41,6.4 44.8,5.8 47.6,5.2 C47.8,6.6 48,8.6 48,11 C48,24 44.4,34.2 37.4,40 Z" id="形状"></path>
                <path d="M26,26 L3.2,26 L2,4 L26,4 L26,26 Z M41,41.2 L26,48 L26,26 L48.2,26 L41,41.2 Z" id="形状"></path>
            </g>
        </g>
    </g>
</svg>