<?xml version="1.0" encoding="UTF-8"?>
<svg width="43px" height="49px" viewBox="0 0 43 49" version="1.1" xmlns="http://www.w3.org/2000/svg" xmlns:xlink="http://www.w3.org/1999/xlink">
    <!-- Generator: Sketch 63.1 (92452) - https://sketch.com -->
    <title>任务魔法@1x</title>
    <desc>Created with Sketch.</desc>
    <g id="页面-1" stroke="none" stroke-width="1" fill="none" fill-rule="evenodd">
        <g id="首页" transform="translate(-943.000000, -1895.000000)" fill="#4B5C6E" fill-rule="nonzero">
            <g id="任务魔法" transform="translate(943.000000, 1895.000000)">
                <path d="M41.6013576,11.0685755 L38.3730231,7.840241 C37.7787053,7.24592316 36.8135331,7.24592316 36.2192152,7.840241 L0.736062651,43.3281481 L6.11345053,48.705536 L41.5966031,13.2176289 C42.1956755,12.6280656 42.1956755,11.6628934 41.6013576,11.0685755 Z M38.2398959,12.2809839 L32.4726356,18.0482443 L31.3981089,16.9737176 L37.1653693,11.2064573 C37.2414419,11.1303846 37.3603055,11.1303846 37.4363782,11.2064573 L38.2446504,12.0147296 C38.3159686,12.0860477 38.3159686,12.2049113 38.2398959,12.2809839 L38.2398959,12.2809839 Z M25.5500213,10.9211847 L19.2502521,14.3634737 L15.8079632,20.6584883 L12.3656742,14.3634737 L6.07065962,10.9211847 L12.3656742,7.47889577 L15.8079632,1.17912659 L19.2502521,7.47889577 L25.5500213,10.9211847 Z M25.6974121,2.50564403 L28.2506016,1.75918084 L27.5041384,4.31237027 L28.2506016,6.86555975 L25.6974121,6.11434197 L23.1442226,6.86555975 L23.8954404,4.31237027 L23.1442226,1.75918084 L25.6974121,2.50564403 Z M9.6032849,0.561036025 L11.5146111,0 L10.953575,1.91132619 L11.5146111,3.82265238 L9.6032849,3.26161635 L7.69195871,3.82265238 L8.25299473,1.91132619 L7.69195871,0 L9.6032849,0.561036025 Z M38.8912683,29.354547 L40.4222311,28.90762 L39.975304,30.4385828 L40.4222311,31.9695455 L38.8912683,31.5178639 L37.3603055,31.9695455 L37.8119871,30.4385828 L37.3603055,28.90762 L38.8912683,29.354547 Z" id="形状"></path>
            </g>
        </g>
    </g>
</svg>