<?xml version="1.0" encoding="UTF-8"?>
<svg width="61px" height="50px" viewBox="0 0 61 50" version="1.1" xmlns="http://www.w3.org/2000/svg" xmlns:xlink="http://www.w3.org/1999/xlink">
    <!-- Generator: Sketch 63.1 (92452) - https://sketch.com -->
    <title>树@1x</title>
    <desc>Created with Sketch.</desc>
    <g id="页面-1" stroke="none" stroke-width="1" fill="none" fill-rule="evenodd">
        <g id="首页" transform="translate(-933.000000, -1611.000000)" fill="#4B5C6E" fill-rule="nonzero">
            <g id="树" transform="translate(933.000000, 1611.000000)">
                <polygon id="路径" points="27.3601536 28.684032 11.4736128 28.684032 11.4736128 39.2750592 15.0039552 39.2750592 15.0039552 49.8660864 0.882585628 49.8660864 0.882585628 39.2750592 4.41292797 39.2750592 4.41292797 21.6233472 27.3601536 21.6233472 27.3601536 11.03232 22.06464 11.03232 22.06464 0.441292772 39.716352 0.441292772 39.716352 11.03232 34.4208384 11.03232 34.4208384 21.6233472 57.368064 21.6233472 57.368064 39.2715289 60.8984064 39.2750592 60.8984064 49.8660864 46.7770368 49.8660864 46.7770368 39.2750592 50.3073792 39.2715289 50.3073792 28.684032 34.4208384 28.684032 34.4208384 39.2750592 39.716352 39.2750592 39.716352 49.8660864 22.06464 49.8660864 22.06464 39.2750592 27.3601536 39.2750592"></polygon>
            </g>
        </g>
    </g>
</svg>