<?xml version="1.0" encoding="UTF-8"?>
<svg width="15px" height="15px" viewBox="0 0 15 15" version="1.1" xmlns="http://www.w3.org/2000/svg" xmlns:xlink="http://www.w3.org/1999/xlink">
    <!-- Generator: Sketch 63.1 (92452) - https://sketch.com -->
    <title>日志@1x</title>
    <desc>Created with Sketch.</desc>
    <g id="新版定稿（20202-8-22）" stroke="none" stroke-width="1" fill="none" fill-rule="evenodd">
        <g id="日志" fill="#17B881" fill-rule="nonzero">
            <path d="M12.2417841,14.0800001 C12.2048913,14.0800001 12.1675149,14.0789982 12.1307257,14.077012 L11.6075938,14.0769601 C10.919705,14.0769601 5.65334118,14.0672879 5.55812108,14.0597228 C5.5495786,14.0584273 5.54109132,14.0567909 5.53267956,14.0548175 L5.52860338,14.0538158 L2.51410065,14.0538158 C1.12885814,14.052624 0.00101904,12.9248022 -7.9722895e-14,11.5397151 L-7.9722895e-14,2.51392794 C0.00103631,1.12877178 1.12885814,0.00103631 2.51413519,0 L11.7587231,0 C13.1439829,0.00103631 14.2718047,1.12878905 14.2728237,2.51396248 L14.2728237,11.5397151 C14.2728237,12.4795666 14.0551284,13.1420829 13.6072848,13.5651241 C13.229899,13.897087 12.7444658,14.0800001 12.2418532,14.0800001 L12.2417841,14.0800001 Z M6.37964269,13.3536121 L6.56773389,13.3536121 L8.20968896,12.7329457 L6.49881893,11.3935601 L6.37964269,13.3536121 Z M10.4467135,5.73068476 C10.3383794,5.7306104 10.2370079,5.78407612 10.1758898,5.87352362 L6.76554919,10.8682692 L8.6743036,12.3523589 L12.2844803,7.27994151 C12.3361005,7.20739472 12.355984,7.11696856 12.3395579,7.0294593 C12.3231318,6.94195003 12.2718099,6.86488962 12.1973953,6.81600047 L10.6263414,5.78452142 C10.5730237,5.7493849 10.5105676,5.73068476 10.4467135,5.73068476 L10.4467135,5.73068476 Z M2.24949484,9.84223082 C2.07586824,9.84242119 1.93516355,9.98312588 1.93497318,10.1567525 C1.93509688,10.3304347 2.07581271,10.4712278 2.24949484,10.4714469 L6.51324099,10.4714469 C6.68699421,10.4714469 6.82784902,10.3305921 6.82784902,10.1568388 C6.82784902,9.98308563 6.68699421,9.84223082 6.51324099,9.84223082 L2.24949484,9.84223082 Z M2.24949484,6.81307997 C2.16606451,6.81281892 2.08599629,6.8459433 2.02713615,6.90507176 C1.96798966,6.96400447 1.93481397,7.04410858 1.93497261,7.12760317 C1.93516355,7.30122978 2.07586824,7.44193447 2.24949484,7.44212485 L6.51324099,7.44212485 C6.62562442,7.44214834 6.72948105,7.38220599 6.78567955,7.284883 C6.84187805,7.18756001 6.84187805,7.06764636 6.78567955,6.97032337 C6.72948105,6.87300037 6.62562442,6.81305802 6.51324099,6.81307997 L2.24949484,6.81307997 Z M2.24949484,3.78375948 C2.07586824,3.78394986 1.93516355,3.92465455 1.93497318,4.09828115 C1.93509688,4.27196338 2.07581271,4.41275649 2.24949484,4.41297553 L8.45719557,4.41297553 C8.63094879,4.41297553 8.7718036,4.27212072 8.7718036,4.09836751 C8.7718036,3.92461429 8.63094879,3.78375948 8.45719557,3.78375948 L2.24949484,3.78375948 Z" id="形状"></path>
        </g>
    </g>
</svg>