<?xml version="1.0" encoding="UTF-8"?>
<svg width="20px" height="19px" viewBox="0 0 20 19" version="1.1" xmlns="http://www.w3.org/2000/svg" xmlns:xlink="http://www.w3.org/1999/xlink">
    <!-- Generator: Sketch 63.1 (92452) - https://sketch.com -->
    <title>日历 @1x</title>
    <desc>Created with Sketch.</desc>
    <g id="新版定稿（20202-8-22）" stroke="none" stroke-width="1" fill="none" fill-rule="evenodd">
        <g id="日报-项目" transform="translate(-660.000000, -107.000000)" fill="#555555">
            <g id="编组-9" transform="translate(324.000000, 95.000000)">
                <g id="编组-20" transform="translate(312.000000, 0.000000)">
                    <g id="样">
                        <g id="日历-" transform="translate(24.000000, 12.000000)">
                            <path d="M3.90568499,3.76487473 L5.31501274,3.76487473 C5.52687027,3.76487473 5.70078925,3.59720618 5.70078925,3.3920566 L5.70078925,0.391743967 C5.70078925,0.186594386 5.52687027,0.0189258365 5.31501274,0.0189258365 L3.90568499,0.0189258365 C3.69129024,0.0189258365 3.52045901,0.186594386 3.52045901,0.391743967 L3.52045901,3.3920566 C3.52045901,3.59720618 3.69129024,3.76487473 3.90568499,3.76487473 Z M13.8351037,3.76487473 L15.244982,3.76487473 C15.4576055,3.76487473 15.630208,3.59720618 15.630208,3.3920566 L15.630208,0.391743967 C15.630208,0.186594386 15.4575098,0.0189258365 15.244982,0.0189258365 L13.8351037,0.0189258365 C13.6224803,0.0189258365 13.4473645,0.186594386 13.4473645,0.391743967 L13.4473645,3.3920566 C13.4473645,3.59720618 13.6224803,3.76487473 13.8351037,3.76487473 Z" id="Fill-1"></path>
                            <path d="M16.903675,1.45335135 L16.4086785,1.45335135 L16.4086785,3.3920566 C16.4086785,4.01218468 15.886395,4.52007815 15.244982,4.52007815 L13.8351037,4.52007815 C13.194337,4.52007815 12.6694445,4.01225417 12.6694445,3.3920566 L12.6694445,1.45335135 L6.47870925,1.45335135 L6.47870925,3.3920566 C6.47870925,4.01218468 5.95642573,4.52007815 5.31501274,4.52007815 L3.90568499,4.52007815 C3.26362573,4.52007815 2.740672,4.01225417 2.740672,3.3920566 L2.740672,1.45335135 L2.24081651,1.45335135 C1.00540774,1.45335135 0,2.42572701 0,3.62252557 L0,15.8496815 C0,17.0500243 1.00540774,18.0224 2.24081651,18.0224 L16.903675,18.0224 C18.1421715,18.0224 19.1488,17.0500243 19.1488,15.8496815 L19.1488,3.62252557 C19.1488,2.42572701 18.1421715,1.45335135 16.903675,1.45335135 Z M17.7289165,15.8496815 C17.7289165,16.291184 17.359201,16.6482499 16.903675,16.6482499 L2.24081651,16.6482499 C1.78892877,16.6482499 1.42055373,16.291184 1.42055373,15.8496815 L1.42055373,7.64953587 L17.7289165,7.64953587 L17.7289165,15.8496815 Z" id="Fill-3"></path>
                            <rect id="矩形" x="4.8" y="10.4" width="3.2" height="3.2"></rect>
                        </g>
                    </g>
                </g>
            </g>
        </g>
    </g>
</svg>