<?xml version="1.0" encoding="UTF-8"?>
<svg width="77px" height="77px" viewBox="0 0 77 77" version="1.1" xmlns="http://www.w3.org/2000/svg" xmlns:xlink="http://www.w3.org/1999/xlink">
    <!-- Generator: Sketch 63.1 (92452) - https://sketch.com -->
    <title>right@1x</title>
    <desc>Created with Sketch.</desc>
    <defs>
        <circle id="path-1" cx="31.2" cy="31.2" r="31.2"></circle>
        <filter x="-16.8%" y="-16.8%" width="133.7%" height="133.7%" filterUnits="objectBoundingBox" id="filter-2">
            <feOffset dx="0" dy="0" in="SourceAlpha" result="shadowOffsetOuter1"></feOffset>
            <feGaussianBlur stdDeviation="3.5" in="shadowOffsetOuter1" result="shadowBlurOuter1"></feGaussianBlur>
            <feColorMatrix values="0 0 0 0 0.438780923   0 0 0 0 0.558385027   0 0 0 0 0.67798913  0 0 0 1 0" type="matrix" in="shadowBlurOuter1"></feColorMatrix>
        </filter>
    </defs>
    <g id="页面-1" stroke="none" stroke-width="1" fill="none" fill-rule="evenodd">
        <g id="首页" transform="translate(-1602.000000, -2923.000000)">
            <g id="编组" transform="translate(248.000000, 2623.000000)">
                <g id="right" transform="translate(1361.400000, 307.200000)">
                    <g id="Oval-Copy" transform="translate(31.200000, 31.200000) scale(-1, -1) translate(-31.200000, -31.200000) ">
                        <use fill="black" fill-opacity="1" filter="url(#filter-2)" xlink:href="#path-1"></use>
                        <use fill="#6F8397" fill-rule="evenodd" xlink:href="#path-1"></use>
                    </g>
                    <path d="M20.2593269,33.977111 L28.2613223,42.1211316 C28.8886787,42.7596228 29.9001309,42.7596228 30.5274873,42.1211316 L38.5294827,33.977111 C39.1568391,33.3386198 39.1568391,32.3092156 38.5294827,31.6707244 C37.9021262,31.0322332 36.890674,31.0322332 36.2633176,31.6707244 L31.0012055,37.0262323 L31.0012055,21.4288041 C31.0012055,20.5297042 30.2842267,19.8 29.4008064,19.8 C28.5173861,19.8 27.8004073,20.5297042 27.8004073,21.4288041 L27.8004073,37.0392628 L22.5382952,31.6837548 C22.2182154,31.357994 21.8085132,31.2016288 21.398811,31.2016288 C20.9891089,31.2016288 20.5794067,31.357994 20.2721301,31.6837548 C19.6447737,32.3092156 19.6447737,33.3386198 20.2593269,33.977111 L20.2593269,33.977111 Z" id="Path-Copy" fill="#FFFFFF" transform="translate(29.400000, 31.200000) scale(-1, -1) rotate(-270.000000) translate(-29.400000, -31.200000) "></path>
                </g>
            </g>
        </g>
    </g>
</svg>