<?xml version="1.0" encoding="UTF-8"?>
<svg width="21px" height="16px" viewBox="0 0 21 16" version="1.1" xmlns="http://www.w3.org/2000/svg" xmlns:xlink="http://www.w3.org/1999/xlink">
    <!-- Generator: Sketch 63.1 (92452) - https://sketch.com -->
    <title>打卡@1x</title>
    <desc>Created with Sketch.</desc>
    <g id="新版定稿（20202-8-22）" stroke="none" stroke-width="1" fill="none" fill-rule="evenodd">
        <g id="首页-个人主页" transform="translate(-1383.000000, -614.000000)" fill="#8F6DAE" fill-rule="nonzero">
            <path d="M1385.30835,625.542296 C1385.30835,625.542296 1392.793,616.885305 1399.22841,615.851635 C1391.6738,618.629624 1383,630 1383,630 L1391.46395,630 C1391.46395,630 1391.32405,629.612374 1390.8344,629.612374 L1384.04925,629.612374 C1384.04925,629.612374 1385.30835,628.191077 1386.42755,627.351219 C1390.76445,627.157406 1394.54175,626.76978 1397.12991,623.345746 C1397.54961,622.570493 1396.78016,622.635097 1396.5703,622.635097 C1398.59886,621.859845 1403.07566,618.823437 1402.37616,617.337536 C1402.09636,617.079118 1401.88651,617.208327 1401.88651,617.208327 C1401.88651,617.208327 1405.24411,615.20559 1403.49536,614.301129 C1401.74661,613.396667 1397.40971,614.817964 1397.40971,614.817964 C1397.40971,614.817964 1397.68951,614.17192 1396.78016,614.17192 C1393.2127,614.494942 1390.48465,616.820701 1390.48465,616.820701 C1390.48465,616.820701 1390.48465,616.045448 1389.92505,616.36847 C1382.4404,620.632361 1385.30835,625.542296 1385.30835,625.542296 Z" id="打卡"></path>
        </g>
    </g>
</svg>