<?xml version="1.0" encoding="UTF-8"?>
<svg width="26px" height="19px" viewBox="0 0 26 19" version="1.1" xmlns="http://www.w3.org/2000/svg" xmlns:xlink="http://www.w3.org/1999/xlink">
    <!-- Generator: Sketch 63.1 (92452) - https://sketch.com -->
    <title>开启@1x</title>
    <desc>Created with Sketch.</desc>
    <g id="新版定稿（20202-8-22）" stroke="none" stroke-width="1" fill="none" fill-rule="evenodd">
        <g id="首页-个人主页" transform="translate(-1381.000000, -351.000000)" fill="#176F6A" fill-rule="nonzero">
            <g id="开启" transform="translate(1381.000000, 351.000000)">
                <path d="M10.9502496,16.5072384 C8.87354512,14.8486958 7.66539965,12.3345167 7.668,9.6768 C7.66539965,7.01908326 8.87354512,4.50490419 10.9502496,2.8463616 C8.14912782,2.22135981 5.25034111,3.36992447 3.63746298,5.74385257 C2.02458485,8.11778066 2.02458485,11.2358193 3.63746298,13.6097474 C5.25034111,15.9836755 8.14912782,17.1322402 10.9502496,16.5072384 L10.9502496,16.5072384 Z M12.9168,1.6566336 C16.5827959,0.0597714174 20.8649273,1.15194472 23.3182744,4.30956774 C25.7716214,7.46719077 25.7716214,11.8864092 23.3182744,15.0440323 C20.8649273,18.2016553 16.5827959,19.2938286 12.9168,17.6969664 C9.25080408,19.2938286 4.96867269,18.2016553 2.51532565,15.0440323 C0.0619786007,11.8864092 0.0619786007,7.46719077 2.51532565,4.30956774 C4.96867269,1.15194472 9.25080408,0.0597714174 12.9168,1.6566336 L12.9168,1.6566336 Z M14.6436552,11.9617776 L11.762064,9.28314 L10.572336,10.5638472 L14.6891448,14.3902224 L22.2824088,6.7969584 L21.0454416,5.5582416 L14.6436552,11.9617776 L14.6436552,11.9617776 Z" id="形状"></path>
            </g>
        </g>
    </g>
</svg>