<?xml version="1.0" encoding="UTF-8"?>
<svg width="14px" height="20px" viewBox="0 0 14 20" version="1.1" xmlns="http://www.w3.org/2000/svg" xmlns:xlink="http://www.w3.org/1999/xlink">
    <!-- Generator: Sketch 63.1 (92452) - https://sketch.com -->
    <title>语音@1x</title>
    <desc>Created with Sketch.</desc>
    <g id="新版定稿（20202-8-22）" stroke="none" stroke-width="1" fill="none" fill-rule="evenodd">
        <g id="首页-个人主页" transform="translate(-1387.000000, -439.000000)" fill="#6DAE7E" fill-rule="nonzero">
            <g id="语音" transform="translate(1387.000000, 439.000000)">
                <path d="M6.30798,12.5994 L7.14702,12.5994 C9.00137892,12.5971207 10.504279,11.0948378 10.50732,9.24048 L10.50732,3.3603 C10.5050389,1.50540323 9.00191677,0.0022810808 7.14702,-7.8443918e-16 L6.30798,-7.8443918e-16 C4.45254433,0.00152069308 2.94858252,1.50486511 2.9463,3.3603 L2.9463,9.2391 C2.94858108,11.0939968 4.45170323,12.5971189 6.3066,12.5994 L6.30798,12.5994 Z M4.62714,3.3603 C4.62714,2.43432 5.38062,1.67946 6.30798,1.67946 L7.14702,1.67946 C8.07438,1.67946 8.82786,2.43432 8.82786,3.3603 L8.82786,9.2391 C8.82786,10.16646 8.07438,10.91994 7.14702,10.91994 L6.30798,10.91994 C5.38053111,10.9191804 4.62866134,10.1679279 4.62714,9.24048 L4.62714,3.3603 L4.62714,3.3603 Z" id="形状"></path>
                <path d="M13.4481,9.66 C13.4481,9.19584885 13.0718311,8.81958 12.60768,8.81958 C12.1435289,8.81958 11.76726,9.19584885 11.76726,9.66 C11.76726,11.97564 9.50682,13.85934 6.7275,13.85934 C3.94818,13.85934 1.68774,11.97564 1.68774,9.66 C1.68773998,9.19584886 1.31147114,8.81958 0.84732,8.81958 C0.383168864,8.81958 0.0069,9.19584886 0.0069,9.66 C0.0069,12.65322 2.57784,15.1248 5.88708,15.48912 L5.88708,17.64054 L2.52816,17.64054 C2.07762435,17.6588079 1.72178855,18.0293641 1.72178855,18.48027 C1.72178855,18.9311759 2.07762435,19.3017321 2.52816,19.32 L10.92684,19.32 C11.3773757,19.3017321 11.7332115,18.9311759 11.7332115,18.48027 C11.7332115,18.0293641 11.3773757,17.6588079 10.92684,17.64054 L7.5693,17.64054 L7.5693,15.48774 C10.87854,15.1248 13.4481,12.65322 13.4481,9.66 L13.4481,9.66 Z" id="路径"></path>
            </g>
        </g>
    </g>
</svg>