<?xml version="1.0" encoding="UTF-8"?>
<svg width="21px" height="22px" viewBox="0 0 21 22" version="1.1" xmlns="http://www.w3.org/2000/svg" xmlns:xlink="http://www.w3.org/1999/xlink">
    <!-- Generator: Sketch 63.1 (92452) - https://sketch.com -->
    <title>创建项目@1x</title>
    <desc>Created with Sketch.</desc>
    <g id="新版定稿（20202-8-22）" stroke="none" stroke-width="1" fill="none" fill-rule="evenodd">
        <g id="创建项目" transform="translate(1.000000, 1.000000)" fill="#87B940" fill-rule="nonzero" stroke="#87B940" stroke-width="0.5">
            <path d="M16.70706,5.09763494 L16.70706,8.814258 C16.7070245,8.98859366 16.8000111,9.14970164 16.9509842,9.23687973 C17.1019574,9.32405781 17.2879743,9.32405781 17.4389475,9.23687973 C17.5899207,9.14970164 17.6829073,8.98859366 17.6828718,8.814258 L17.6828718,5.0988547 C17.6829073,4.92451905 17.5899207,4.76341106 17.4389475,4.67623298 C17.2879743,4.58905489 17.1019574,4.58905489 16.9509842,4.67623298 C16.8000111,4.76341106 16.7070245,4.92451905 16.70706,5.0988547 L16.70706,5.09763494 Z" id="路径"></path>
            <path d="M17.5218628,5.1476453 C17.6324415,5.07454003 17.7058672,4.95705886 17.723124,4.82562741 C17.7457508,4.62523505 17.6430699,4.4314976 17.4645339,4.33772154 L9.08109106,0.056347407 C8.94649916,-0.0135210045 8.78632579,-0.0135210045 8.65173389,0.056347407 L0.268291055,4.33772154 C-0.0439687035,4.5463013 0.00482186925,5.00859213 0.0048218895,5.05982224 L0.0048218895,14.1958599 C0.0048218895,14.3654072 0.0926449447,14.5251964 0.234137648,14.6142392 C0.234137648,14.6142392 8.43827506,19.6762627 8.578548,19.74213 C8.86641246,19.8860622 9.04693765,19.84581 9.1835513,19.7762834 L11.9133847,18.1637545 C12.1487052,18.0222814 12.2269164,17.7181266 12.0890308,17.4806862 C12.026255,17.3674276 11.9205315,17.2842058 11.7956976,17.2497847 C11.6708637,17.2153636 11.537429,17.2326411 11.4254788,17.2977215 L9.53972259,18.4174655 L9.53972259,18.4125865 L9.34456024,18.5223653 L9.34456024,9.91936481 L16.7631692,5.6172547 L17.5218628,5.1476453 Z M8.38948446,9.91936481 L8.38948446,18.4967502 L0.956238352,13.9226326 L0.956238352,5.60627681 L8.38948446,9.91814506 L8.38948446,9.91936481 Z M8.86641246,9.07284811 L1.49171506,4.80123211 L8.86641246,1.03703824 L16.2411099,4.80123211 L8.86641246,9.07284811 Z" id="形状"></path>
            <path d="M15.1896727,17.0318394 C14.9932906,17.0305931 14.695668,16.8671446 14.6968878,16.673202 L14.6968878,13.645746 L11.5169612,13.645746 C11.3193593,13.6469658 11.1571306,13.3822768 11.1558842,13.1883342 C11.1534713,12.9931719 11.3193593,12.7419004 11.5169612,12.7406806 L14.6981075,12.7406806 L14.6981075,9.69126881 C14.7005471,9.49610646 14.9335221,9.27898835 15.1908925,9.27898835 C15.4482628,9.27898835 15.6397659,9.49732624 15.6373264,9.69126881 L15.6373264,12.7406806 L18.6525847,12.7406806 C18.8489668,12.7382411 18.9916793,12.9931719 18.9941264,13.1883342 C18.9953386,13.3834966 18.8489668,13.6433065 18.6525847,13.645746 L15.6373264,13.645746 L15.6373264,16.673202 C15.6361066,16.8683644 15.3884944,17.0342524 15.1908925,17.0318394 L15.1896727,17.0318394 Z" id="路径"></path>
        </g>
    </g>
</svg>