<?xml version="1.0" encoding="UTF-8"?>
<svg width="18px" height="17px" viewBox="0 0 18 17" version="1.1" xmlns="http://www.w3.org/2000/svg" xmlns:xlink="http://www.w3.org/1999/xlink">
    <!-- Generator: Sketch 63.1 (92452) - https://sketch.com -->
    <title>工作台@1x</title>
    <desc>Created with Sketch.</desc>
    <g id="新版定稿（20202-8-22）" stroke="none" stroke-width="1" fill="none" fill-rule="evenodd">
        <g id="首页-个人主页" transform="translate(-1386.000000, -724.000000)" fill="#8F6DAE" fill-rule="nonzero" stroke="#8F6DAE" stroke-width="0.2">
            <g id="个人资料" transform="translate(1357.000000, 94.000000)">
                <g id="编组-19" transform="translate(0.000000, 177.000000)">
                    <path d="M44.8959752,455.18576 C44.8955004,455.18576 44.8965517,465.039641 44.8965517,465.039641 C44.8965517,465.040638 31.1040248,465.040362 31.1040248,465.040362 C31.1044996,465.040362 31.1034483,455.186481 31.1034483,455.186481 C31.1034483,455.185484 44.8959752,455.18576 44.8959752,455.18576 Z M30,465.039641 C30,465.693543 30.4945765,466.226122 31.1040248,466.226122 L44.8959752,466.226122 C45.506648,466.226122 46,465.695141 46,465.039641 L46,455.186481 C46,454.532579 45.5054235,454 44.8959752,454 L31.1040248,454 C30.493352,454 30,454.530981 30,455.186481 L30,465.039641 Z M43.1367421,469 C43.4414508,469 43.6884662,468.734547 43.6884662,468.407094 L43.6884662,468.379493 C43.6884662,468.052041 43.4414508,467.786588 43.1367421,467.786588 L32.8632579,467.786588 C32.5585492,467.786588 32.3115338,468.052041 32.3115338,468.379493 L32.3115338,468.407094 C32.3115338,468.734547 32.5585492,469 32.8632579,469 C33.1679669,469 43.1367421,469 43.1367421,469 Z M37.4354339,467.800388 L38.5388822,467.800388 L38.5388822,466.226122 L37.4611178,466.226122 L37.4354339,467.800388 Z" id="工作台"></path>
                </g>
            </g>
        </g>
    </g>
</svg>