<?xml version="1.0" encoding="UTF-8"?>
<svg width="32px" height="32px" viewBox="0 0 32 32" version="1.1" xmlns="http://www.w3.org/2000/svg" xmlns:xlink="http://www.w3.org/1999/xlink">
    <!-- Generator: Sketch 63.1 (92452) - https://sketch.com -->
    <title>加号@1x</title>
    <desc>Created with Sketch.</desc>
    <g id="新版定稿（20202-8-22）" stroke="none" stroke-width="1" fill="none" fill-rule="evenodd">
        <g id="画板" transform="translate(-379.000000, -502.000000)" fill="#FFFFFF" fill-rule="nonzero" stroke="#FFFFFF" stroke-width="1.68">
            <g id="加号" transform="translate(380.000000, 503.000000)">
                <path d="M1.505,16.4383333 L28.385,16.4383333 C29.2097452,16.4383333 29.8783333,15.7697452 29.8783333,14.945 C29.8783333,14.1202548 29.2097452,13.4516667 28.385,13.4516667 L1.505,13.4516667 C0.680254767,13.4516667 0.011666655,14.1202548 0.011666655,14.945 C0.011666655,15.7697452 0.680254767,16.4383333 1.505,16.4383333 L1.505,16.4383333 Z" id="路径"></path>
                <path d="M13.4516667,1.505 L13.4516667,28.385 C13.4516667,29.2097452 14.1202548,29.8783333 14.945,29.8783333 C15.7697452,29.8783333 16.4383333,29.2097452 16.4383333,28.385 L16.4383333,1.505 C16.4383333,0.680254767 15.7697452,0.011666655 14.945,0.011666655 C14.1202548,0.011666655 13.4516667,0.680254767 13.4516667,1.505 L13.4516667,1.505 Z" id="路径"></path>
            </g>
        </g>
    </g>
</svg>