<?xml version="1.0" encoding="UTF-8"?>
<svg width="24px" height="23px" viewBox="0 0 24 23" version="1.1" xmlns="http://www.w3.org/2000/svg" xmlns:xlink="http://www.w3.org/1999/xlink">
    <!-- Generator: Sketch 63.1 (92452) - https://sketch.com -->
    <title>日程-黑色@1x</title>
    <desc>Created with Sketch.</desc>
    <g id="新版定稿（20202-8-22）" stroke="none" stroke-width="1" fill="none" fill-rule="evenodd">
        <g id="切图" transform="translate(-723.000000, -1005.000000)" fill="#333333">
            <g id="日程-黑色" transform="translate(723.000000, 1005.000000)">
                <path d="M4.88210624,4.70609341 L6.64376592,4.70609341 C6.90858784,4.70609341 7.12598656,4.49650772 7.12598656,4.24007075 L7.12598656,0.489679959 C7.12598656,0.233242982 6.90858784,0.0236572956 6.64376592,0.0236572956 L4.88210624,0.0236572956 C4.6141128,0.0236572956 4.40057376,0.233242982 4.40057376,0.489679959 L4.40057376,4.24007075 C4.40057376,4.49650772 4.6141128,4.70609341 4.88210624,4.70609341 Z M17.2938797,4.70609341 L19.0562275,4.70609341 C19.3220069,4.70609341 19.53776,4.49650772 19.53776,4.24007075 L19.53776,0.489679959 C19.53776,0.233242982 19.3218872,0.0236572956 19.0562275,0.0236572956 L17.2938797,0.0236572956 C17.0281003,0.0236572956 16.8092056,0.233242982 16.8092056,0.489679959 L16.8092056,4.24007075 C16.8092056,4.49650772 17.0281003,4.70609341 17.2938797,4.70609341 Z" id="Fill-1"></path>
                <path d="M21.1295938,1.81668919 L20.5108482,1.81668919 L20.5108482,4.24007075 C20.5108482,5.01523085 19.8579938,5.65009769 19.0562275,5.65009769 L17.2938797,5.65009769 C16.4929213,5.65009769 15.8368056,5.01531772 15.8368056,4.24007075 L15.8368056,1.81668919 L8.09838656,1.81668919 L8.09838656,4.24007075 C8.09838656,5.01523085 7.44553216,5.65009769 6.64376592,5.65009769 L4.88210624,5.65009769 C4.07953216,5.65009769 3.42584,5.01531772 3.42584,4.24007075 L3.42584,1.81668919 L2.80102064,1.81668919 C1.25675968,1.81668919 0,3.03215877 0,4.52815696 L0,19.8121019 C0,21.3125304 1.25675968,22.528 2.80102064,22.528 L21.1295938,22.528 C22.6777144,22.528 23.936,21.3125304 23.936,19.8121019 L23.936,4.52815696 C23.936,3.03215877 22.6777144,1.81668919 21.1295938,1.81668919 Z M22.1611456,19.8121019 C22.1611456,20.36398 21.6990013,20.8103124 21.1295938,20.8103124 L2.80102064,20.8103124 C2.23616096,20.8103124 1.77569216,20.36398 1.77569216,19.8121019 L1.77569216,9.56191984 L22.1611456,9.56191984 L22.1611456,19.8121019 Z" id="Fill-3"></path>
                <rect id="矩形" x="6" y="13" width="4" height="4"></rect>
                <rect id="矩形" x="14" y="13" width="4" height="4"></rect>
            </g>
        </g>
    </g>
</svg>