<?xml version="1.0" encoding="UTF-8"?>
<svg width="19px" height="19px" viewBox="0 0 19 19" version="1.1" xmlns="http://www.w3.org/2000/svg" xmlns:xlink="http://www.w3.org/1999/xlink">
    <!-- Generator: Sketch 63.1 (92452) - https://sketch.com -->
    <title>任务@1x</title>
    <desc>Created with Sketch.</desc>
    <g id="新版定稿（20202-8-22）" stroke="none" stroke-width="1" fill="none" fill-rule="evenodd">
        <g id="画板" transform="translate(-340.000000, -1795.000000)" fill="#FFFFFF" fill-rule="nonzero">
            <g id="任务" transform="translate(340.000000, 1795.000000)">
                <path d="M15.7104,0 L2.7216,0 C1.224,0 0,1.224 0,2.7216 L0,15.696 C0,17.208 1.224,18.432 2.7216,18.432 L15.696,18.432 C17.1936,18.432 18.4177258,17.208 18.4177258,15.7104 L18.4177258,2.7216 C18.432,1.224 17.208,0 15.7104,0 Z M15.7104,16.8768 L2.7216,16.8768 C2.4048,16.8768 2.1168,16.7616 1.9008,16.5312 C1.6848,16.3152 1.5552,16.0128 1.5552,15.7104 L1.5552,2.7216 C1.5552,2.0736 2.088,1.5552 2.7216,1.5552 L15.696,1.5552 C16.344,1.5552 16.8624,2.0736 16.8624,2.7216 L16.8624,15.696 C16.8768,16.344 16.3584,16.8768 15.7104,16.8768 Z" id="形状"></path>
                <path d="M5.7024,9.7056 C4.3776,9.7056 3.2976,10.7856 3.2976,12.1104 C3.2976,13.4352 4.3776,14.5152 5.7024,14.5152 C7.0272,14.5152 8.0928,13.4208 8.0928,12.096 C8.0928,10.7712 7.0272,9.7056 5.7024,9.7056 Z M6.5376,12.096 C6.5376,12.3264 6.4512,12.528 6.2928,12.7008 C6.1344,12.8592 5.9184,12.9456 5.7024,12.9456 C5.472,12.9456 5.2704,12.8592 5.112,12.7008 C4.9536,12.5424 4.8672,12.3264 4.8672,12.1104 C4.8672,11.8944 4.9536,11.6784 5.112,11.52 C5.2704,11.3616 5.5008,11.2752 5.7168,11.2752 C5.9328,11.2752 6.1488,11.3616 6.3072,11.52 C6.4512,11.664 6.5376,11.88 6.5376,12.096 L6.5376,12.096 Z M14.904,5.4576 L9.7056,5.4576 C9.2736,5.4576 8.928,5.8032 8.928,6.2352 C8.928,6.6672 9.2736,7.0128 9.7056,7.0128 L14.904,7.0128 C15.336,7.0128 15.6816,6.6672 15.6816,6.2352 C15.6816,5.8032 15.3216,5.4576 14.904,5.4576 Z M7.2144,4.3776 L5.1552,6.4368 L4.4064,5.688 C4.104,5.3856 3.6,5.4 3.2976,5.688 C2.9952,5.9904 2.9952,6.48 3.2976,6.7824 L4.5936,8.0784 C4.7376,8.2368 4.9392,8.3088 5.1408,8.3088 C5.3424,8.3088 5.544,8.2368 5.688,8.0784 L8.28,5.4864 C8.5824,5.184 8.5824,4.6944 8.2656,4.392 C8.0064,4.0896 7.5024,4.0896 7.2144,4.3776 L7.2144,4.3776 Z M14.904,11.3184 L9.7056,11.3184 C9.2736,11.3184 8.928,11.664 8.928,12.096 C8.928,12.528 9.2736,12.8736 9.7056,12.8736 L14.904,12.8736 C15.336,12.8736 15.6816,12.528 15.6816,12.096 C15.6816,11.664 15.3216,11.3184 14.904,11.3184 Z" id="形状"></path>
            </g>
        </g>
    </g>
</svg>