<?xml version="1.0" encoding="UTF-8"?>
<svg width="17px" height="19px" viewBox="0 0 17 19" version="1.1" xmlns="http://www.w3.org/2000/svg" xmlns:xlink="http://www.w3.org/1999/xlink">
    <!-- Generator: Sketch 63.1 (92452) - https://sketch.com -->
    <title>文档@1x</title>
    <desc>Created with Sketch.</desc>
    <g id="新版定稿（20202-8-22）" stroke="none" stroke-width="1" fill="none" fill-rule="evenodd">
        <g id="画板" transform="translate(-341.000000, -1902.000000)" fill="#FFFFFF" fill-rule="nonzero">
            <g id="文档" transform="translate(341.000000, 1902.000000)">
                <path d="M12.2414976,0.01728 L1.5693696,0.01728 C0.7178112,0.01728 0.0210816,0.7140096 0.0210816,1.565568 L0.0210816,17.269632 C0.0210816,18.1211904 0.7178112,18.81792 1.5693696,18.81792 L15.1168896,18.81792 C15.968448,18.81792 16.6651776,18.1211904 16.6651776,17.269632 L16.6651776,4.44096 L12.2414976,0.01728 Z M15.5592576,17.048448 C15.5592576,17.4134016 15.2606592,17.712 14.8957056,17.712 L1.7905536,17.712 C1.4256,17.712 1.1270016,17.4134016 1.1270016,17.048448 L1.1270016,1.786752 C1.1270016,1.4217984 1.4256,1.1232 1.7905536,1.1232 L11.5779456,1.1232 L11.5779456,3.998592 C11.5779456,4.606848 12.0756096,5.104512 12.6838656,5.104512 L15.5592576,5.104512 L15.5592576,17.048448 Z M12.6838656,4.4630784 C12.4405632,4.4630784 12.2414976,4.2640128 12.2414976,4.0207104 L12.2414976,1.484352 L15.2091648,4.4630784 L14.4792576,4.4630784 L12.6838656,4.4630784 Z" id="形状"></path>
                <path d="M4.1904,7.8803712 L6.5017728,7.8803712 C6.8224896,7.8803712 7.0879104,7.6149504 7.0879104,7.2942336 L7.0879104,4.8943872 C7.0879104,4.5736704 6.8224896,4.3082496 6.5017728,4.3082496 L4.1019264,4.3082496 C3.7812096,4.3082496 3.5157888,4.5736704 3.5157888,4.8943872 L3.5157888,7.20576 C3.526848,7.5707136 3.8254464,7.8803712 4.1904,7.8803712 Z M12.595392,13.9186944 L4.079808,13.9186944 C3.7701504,13.9186944 3.526848,14.1619968 3.526848,14.4716544 C3.526848,14.781312 3.7701504,15.0246144 4.079808,15.0246144 L12.595392,15.0246144 C12.9050496,15.0246144 13.148352,14.781312 13.148352,14.4716544 C13.148352,14.1619968 12.9050496,13.9186944 12.595392,13.9186944 Z M4.079808,10.4792832 C3.7701504,10.4792832 3.526848,10.7225856 3.526848,11.0322432 C3.526848,11.3419008 3.7701504,11.5852032 4.079808,11.5852032 L12.595392,11.5852032 C12.9050496,11.5852032 13.148352,11.3419008 13.148352,11.0322432 C13.148352,10.7225856 12.9050496,10.4792832 12.595392,10.4792832 L4.079808,10.4792832 Z" id="形状"></path>
            </g>
        </g>
    </g>
</svg>