<?xml version="1.0" encoding="UTF-8"?>
<svg width="20px" height="20px" viewBox="0 0 20 20" version="1.1" xmlns="http://www.w3.org/2000/svg" xmlns:xlink="http://www.w3.org/1999/xlink">
    <!-- Generator: Sketch 63.1 (92452) - https://sketch.com -->
    <title>日报@1x</title>
    <desc>Created with Sketch.</desc>
    <g id="新版定稿（20202-8-22）" stroke="none" stroke-width="1" fill="none" fill-rule="evenodd">
        <g id="画板" transform="translate(-339.000000, -1821.000000)" fill="#FFFFFF" fill-rule="nonzero">
            <g id="日报" transform="translate(339.000000, 1821.000000)">
                <polygon id="路径" points="11.0888115 18.467977 0.01937152 18.467977 0.01937152 1.24946304 16.0077939 1.24946304 16.0077939 9.85872 14.7790861 9.85872 14.7790861 2.47955456 1.24946304 2.47955456 1.24946304 17.2378854 9.85872 17.2378854"></polygon>
                <path d="M14.1633485,9.85872 C16.500384,9.85872 18.467977,11.826313 18.467977,14.1633485 C18.467977,16.500384 16.500384,18.467977 14.1647322,18.467977 C11.8249293,18.467977 9.85872,16.500384 9.85872,14.1647322 C9.85872,11.8249293 11.826313,9.85872 14.1633485,9.85872 Z M14.1633485,8.62862848 C11.0888115,8.62862848 8.62862848,11.0888115 8.62862848,14.1633485 C8.62862848,17.2378854 11.0888115,19.6980685 14.1633485,19.6980685 C17.2378854,19.6980685 19.6980685,17.2378854 19.6980685,14.1633485 C19.6980685,11.0888115 17.2378854,8.62862848 14.1633485,8.62862848 Z M3.70964608,0.0207552 L4.93835392,0.0207552 L4.93835392,3.71102976 L3.70964608,3.71102976 L3.70964608,0.01937152 L3.70964608,0.0207552 Z M11.0888115,0.0207552 L12.318903,0.0207552 L12.318903,3.71102976 L11.0874278,3.71102976 L11.0874278,0.01937152 L11.0888115,0.0207552 Z M2.47955456,6.16844544 L13.5489946,6.16844544 L13.5489946,7.39992064 L2.47955456,7.39992064 L2.47955456,6.16844544 Z M2.47955456,9.85872 L8.6272448,9.85872 L8.6272448,11.0888115 L2.47955456,11.0888115 L2.47955456,9.85872 Z M2.47955456,13.5489946 L7.39853696,13.5489946 L7.39853696,14.7790861 L2.47955456,14.7790861 L2.47955456,13.5476109 L2.47955456,13.5489946 Z" id="形状"></path>
                <polygon id="路径" points="17.2378854 16.0077939 13.5489946 16.0077939 13.5489946 11.0901952 14.7790861 11.0901952 14.7790861 14.7804698 17.2378854 14.7804698"></polygon>
            </g>
        </g>
    </g>
</svg>