<?xml version="1.0" encoding="UTF-8"?>
<svg width="21px" height="15px" viewBox="0 0 21 15" version="1.1" xmlns="http://www.w3.org/2000/svg" xmlns:xlink="http://www.w3.org/1999/xlink">
    <!-- Generator: Sketch 63.1 (92452) - https://sketch.com -->
    <title>活力@1x</title>
    <desc>Created with Sketch.</desc>
    <g id="新版定稿（20202-8-22）" stroke="none" stroke-width="1" fill="none" fill-rule="evenodd">
        <g id="画板" transform="translate(-339.000000, -1875.000000)" fill-rule="nonzero">
            <g id="活力" transform="translate(340.000000, 1876.000000)">
                <path d="M17.549568,4.32000002 L17.549568,2.16000002 C17.549568,0.972000027 16.6537728,0 15.558912,0 L1.99065599,0 C0.8957952,0 0,0.972000002 0,2.16 L0,10.8 C0,11.988 0.8957952,12.96 1.99065599,12.96 L15.558912,12.96 C16.6537728,12.96 17.549568,11.988 17.549568,10.8 L17.549568,8.64000001 C18.0969984,8.64000001 18.544896,8.15400001 18.544896,7.56 L18.544896,5.4 C18.544896,4.80600002 18.0969984,4.32000002 17.549568,4.32000002 Z" id="路径" stroke="#FFFFFF" stroke-width="1.296"></path>
                <path d="M8.33956472,11.202624 C8.31389272,11.2021068 8.28852847,11.1964922 8.26474098,11.1860611 C8.18474918,11.149473 8.13752577,11.0594437 8.14962753,10.9666025 L8.55060606,7.83207118 L6.67425676,7.83207118 C6.60836959,7.83296087 6.54666912,7.79730121 6.51084074,7.73762523 C6.47501235,7.67794924 6.47006952,7.60260738 6.49774946,7.53807947 L8.16689454,3.36422537 C8.19750573,3.28853519 8.26687318,3.23971594 8.34340184,3.24 L11.0888577,3.24 C11.1562082,3.23958028 11.218832,3.27729877 11.2538537,3.33938101 C11.2881254,3.40343829 11.2881254,3.48236013 11.2538537,3.54641742 L10.1027191,5.95632127 L11.6912848,5.95632127 C11.763957,5.95694973 11.830062,6.00183504 11.8620364,6.07226167 C11.8911297,6.13961662 11.8845398,6.21863126 11.8447694,6.27929808 L8.49304933,11.1198094 C8.45681653,11.1719424 8.39995272,11.202624 8.33956472,11.202624 L8.33956472,11.202624 Z" id="路径" fill="#FFFFFF"></path>
            </g>
        </g>
    </g>
</svg>