<?xml version="1.0" encoding="UTF-8"?>
<svg width="19px" height="18px" viewBox="0 0 19 18" version="1.1" xmlns="http://www.w3.org/2000/svg" xmlns:xlink="http://www.w3.org/1999/xlink">
    <!-- Generator: Sketch 63.1 (92452) - https://sketch.com -->
    <title>8@1x</title>
    <desc>Created with Sketch.</desc>
    <g id="新版定稿（20202-8-22）" stroke="none" stroke-width="1" fill="none" fill-rule="evenodd">
        <g id="画板" transform="translate(-326.000000, -1188.000000)">
            <g id="8" transform="translate(326.500000, 1188.000000)">
                <path d="M9,0 L9.01470588,0 C13.9852686,-9.13077564e-16 18.0147059,4.02943725 18.0147059,9 C18.0147059,13.9705627 13.9852686,18 9.01470588,18 L9,18 C4.02943725,18 6.08718376e-16,13.9705627 0,9 C-6.08718376e-16,4.02943725 4.02943725,9.13077564e-16 9,0 Z" id="Rectangle-4-Copy-5" fill="#939393"></path>
                <path d="M9.45772059,13.1764 C10.5287206,13.1764 11.3603206,12.9244 11.9525206,12.433 C12.5321206,11.929 12.8345206,11.2864 12.8345206,10.48 C12.8345206,9.9256 12.6581206,9.4342 12.3179206,9.0058 C12.0155206,8.6152 11.6501206,8.3632 11.2343206,8.2498 L11.2343206,8.2246 C11.6753206,8.0482 12.0029206,7.7836 12.2297206,7.456 C12.4313206,7.141 12.5321206,6.7504 12.5321206,6.2968 C12.5321206,5.6164 12.2675206,5.0494 11.7635206,4.5958 C11.1839206,4.0792 10.4153206,3.8272 9.45772059,3.8272 C8.48752059,3.8272 7.71892059,4.0792 7.15192059,4.5958 C6.63532059,5.0494 6.38332059,5.6164 6.38332059,6.2968 C6.38332059,6.7504 6.48412059,7.141 6.68572059,7.456 C6.89992059,7.7836 7.22752059,8.0482 7.68112059,8.2246 L7.68112059,8.2498 C7.25272059,8.3632 6.89992059,8.6152 6.59752059,9.0058 C6.24472059,9.4342 6.08092059,9.9256 6.08092059,10.48 C6.08092059,11.2864 6.37072059,11.929 6.96292059,12.433 C7.54252059,12.9244 8.37412059,13.1764 9.45772059,13.1764 Z M9.45772059,7.771 C8.82772059,7.771 8.38672059,7.6198 8.10952059,7.33 C7.88272059,7.0906 7.76932059,6.763 7.76932059,6.3472 C7.76932059,5.9818 7.90792059,5.6794 8.18512059,5.4274 C8.50012059,5.1376 8.92852059,4.999 9.45772059,4.999 C9.98692059,4.999 10.4027206,5.1376 10.7303206,5.4274 C11.0075206,5.6794 11.1461206,5.9818 11.1461206,6.3472 C11.1461206,6.763 11.0327206,7.0906 10.8059206,7.33 C10.5287206,7.6198 10.0751206,7.771 9.45772059,7.771 Z M9.45772059,11.992 C8.84032059,11.992 8.37412059,11.8534 8.04652059,11.5762 C7.70632059,11.299 7.54252059,10.9336 7.54252059,10.48 C7.54252059,10.0012 7.69372059,9.6106 8.02132059,9.3208 C8.34892059,9.0184 8.82772059,8.8672 9.45772059,8.8672 C10.0877206,8.8672 10.5665206,9.0184 10.9067206,9.3334 C11.2091206,9.6106 11.3729206,10.0012 11.3729206,10.48 C11.3729206,10.9336 11.2091206,11.2864 10.8941206,11.5636 C10.5413206,11.8408 10.0625206,11.992 9.45772059,11.992 Z" fill="#FFFFFF" fill-rule="nonzero"></path>
            </g>
        </g>
    </g>
</svg>