<?xml version="1.0" encoding="UTF-8"?>
<svg width="18px" height="18px" viewBox="0 0 18 18" version="1.1" xmlns="http://www.w3.org/2000/svg" xmlns:xlink="http://www.w3.org/1999/xlink">
    <!-- Generator: Sketch 52.2 (67145) - http://www.bohemiancoding.com/sketch -->
    <title>分组 17</title>
    <desc>Created with Sketch.</desc>
    <g id="切图" stroke="none" stroke-width="1" fill="none" fill-rule="evenodd">
        <g id="分组-17">
            <circle id="椭圆形-copy-11" fill="#555555" cx="9" cy="9" r="8.30769231"></circle>
            <path d="M9,17.6538462 C4.22061274,17.6538462 0.346153846,13.7793873 0.346153846,9 C0.346153846,4.22061274 4.22061274,0.346153846 9,0.346153846 C13.7793873,0.346153846 17.6538462,4.22061274 17.6538462,9 C17.6538462,13.7793873 13.7793873,17.6538462 9,17.6538462 Z M9,16.9615385 C13.3970363,16.9615385 16.9615385,13.3970363 16.9615385,9 C16.9615385,4.60296372 13.3970363,1.03846154 9,1.03846154 C4.60296372,1.03846154 1.03846154,4.60296372 1.03846154,9 C1.03846154,13.3970363 4.60296372,16.9615385 9,16.9615385 Z" id="椭圆形-copy-6" fill="#555555" fill-rule="nonzero" transform="translate(9.000000, 9.000000) rotate(-270.000000) translate(-9.000000, -9.000000) "></path>
            <path d="M12.9327943,5.68820532 L7.97207035,10.6489293 L5.75914372,8.43600264 C5.54441261,8.2296099 5.20302481,8.23636926 4.99663207,8.45110002 C4.79599699,8.65984059 4.79599418,8.98976286 4.99662519,9.19850903 L7.20900468,11.4114357 L7.97206347,12.1745015 L8.73512227,11.4119968 L13.6958462,6.45127289 C13.9021408,6.23644708 13.8952243,5.89506209 13.6803988,5.68876825 C13.4717045,5.48836185 13.1420467,5.48835904 12.9333475,5.68876137 L12.9327943,5.68820532 Z" id="路径" fill="#FFFFFF"></path>
        </g>
    </g>
</svg>