<?xml version="1.0" encoding="UTF-8"?>
<svg width="19px" height="18px" viewBox="0 0 19 18" version="1.1" xmlns="http://www.w3.org/2000/svg" xmlns:xlink="http://www.w3.org/1999/xlink">
    <!-- Generator: Sketch 63.1 (92452) - https://sketch.com -->
    <title>3@1x</title>
    <desc>Created with Sketch.</desc>
    <g id="新版定稿（20202-8-22）" stroke="none" stroke-width="1" fill="none" fill-rule="evenodd">
        <g id="画板" transform="translate(-326.000000, -1165.000000)">
            <g id="3" transform="translate(326.500000, 1165.000000)">
                <path d="M9,0 L9.01470588,0 C13.9852686,-9.13077564e-16 18.0147059,4.02943725 18.0147059,9 C18.0147059,13.9705627 13.9852686,18 9.01470588,18 L9,18 C4.02943725,18 6.08718376e-16,13.9705627 0,9 C-6.08718376e-16,4.02943725 4.02943725,9.13077564e-16 9,0 Z" id="Rectangle-4-Copy-3" fill="#00A200"></path>
                <path d="M9.44106797,13.1764 C10.423868,13.1764 11.217668,12.8992 11.822468,12.3574 C12.402068,11.8282 12.691868,11.1478 12.691868,10.3162 C12.691868,9.787 12.540668,9.346 12.238268,9.0058 C11.961068,8.6782 11.545268,8.4388 11.016068,8.275 C12.011468,7.9474 12.515468,7.2922 12.515468,6.3094 C12.515468,5.5282 12.238268,4.9234 11.696468,4.4824 C11.142068,4.0414 10.398668,3.8272 9.49146797,3.8272 C8.60946797,3.8272 7.87866797,4.0666 7.31166797,4.5706 C6.70686797,5.0746 6.37926797,5.7802 6.30366797,6.6874 L7.75266797,6.6874 C7.80306797,6.1456 7.97946797,5.7424 8.28186797,5.4778 C8.57166797,5.2132 8.97486797,5.0872 9.50406797,5.0872 C10.020668,5.0872 10.411268,5.2006 10.675868,5.4274 C10.915268,5.6542 11.041268,5.9818 11.041268,6.4228 C11.041268,6.8638 10.902668,7.204 10.638068,7.4308 C10.360868,7.6576 9.95766797,7.771 9.42846797,7.771 L8.79846797,7.771 L8.79846797,8.8798 L9.42846797,8.8798 C10.008068,8.8798 10.449068,8.9932 10.751468,9.2452 C11.053868,9.4846 11.217668,9.8626 11.217668,10.3792 C11.217668,10.8076 11.066468,11.1604 10.776668,11.4502 C10.449068,11.7652 9.99546797,11.929 9.42846797,11.929 C8.91186797,11.929 8.49606797,11.7778 8.18106797,11.488 C7.82826797,11.173 7.65186797,10.7194 7.62666797,10.1398 L6.12726797,10.1398 C6.20286797,11.1478 6.55566797,11.929 7.18566797,12.4582 C7.75266797,12.937 8.50866797,13.1764 9.44106797,13.1764 Z" fill="#FFFFFF" fill-rule="nonzero"></path>
            </g>
        </g>
    </g>
</svg>