<?xml version="1.0" encoding="UTF-8"?>
<svg width="19px" height="18px" viewBox="0 0 19 18" version="1.1" xmlns="http://www.w3.org/2000/svg" xmlns:xlink="http://www.w3.org/1999/xlink">
    <!-- Generator: Sketch 63.1 (92452) - https://sketch.com -->
    <title>6@1x</title>
    <desc>Created with Sketch.</desc>
    <g id="新版定稿（20202-8-22）" stroke="none" stroke-width="1" fill="none" fill-rule="evenodd">
        <g id="画板" transform="translate(-276.000000, -1188.000000)">
            <g id="6" transform="translate(276.500000, 1188.000000)">
                <path d="M9,0 L9.01470588,0 C13.9852686,-9.13077564e-16 18.0147059,4.02943725 18.0147059,9 C18.0147059,13.9705627 13.9852686,18 9.01470588,18 L9,18 C4.02943725,18 6.08718376e-16,13.9705627 0,9 C-6.08718376e-16,4.02943725 4.02943725,9.13077564e-16 9,0 Z" id="Rectangle-4-Copy-5" fill="#939393"></path>
                <path d="M8.57112059,13.5764 C9.46572059,13.5764 10.2217206,13.274 10.8265206,12.6944 C11.4313206,12.1148 11.7463206,11.3714 11.7463206,10.4642 C11.7463206,9.5822 11.4817206,8.8514 10.9525206,8.2844 C10.4233206,7.7174 9.71772059,7.4402 8.83572059,7.4402 C8.38212059,7.4402 7.97892059,7.5158 7.62612059,7.6922 C7.24812059,7.8686 6.93312059,8.1332 6.68112059,8.5112 L6.61812059,8.5112 L6.61812059,8.3978 C6.61812059,7.5662 6.78192059,6.8732 7.13472059,6.3188 C7.48752059,5.7266 7.96632059,5.4368 8.57112059,5.4368 C9.42792059,5.4368 9.95712059,5.8526 10.1335206,6.6842 L11.5699206,6.6842 C11.3431206,5.0462 10.3477206,4.2272 8.58372059,4.2272 C7.53792059,4.2272 6.70632059,4.6808 6.10152059,5.588 C5.48412059,6.4952 5.18172059,7.6796 5.18172059,9.1538 C5.18172059,10.5272 5.45892059,11.5982 6.03852059,12.3794 C6.61812059,13.1732 7.46232059,13.5764 8.57112059,13.5764 Z M8.52072059,12.3542 C8.00412059,12.3542 7.58832059,12.1904 7.26072059,11.8628 C6.93312059,11.5352 6.76932059,11.0816 6.76932059,10.5146 C6.76932059,9.935 6.92052059,9.4688 7.23552059,9.1412 C7.53792059,8.801 7.96632059,8.6372 8.52072059,8.6372 C9.06252059,8.6372 9.49092059,8.801 9.81852059,9.1412 C10.1209206,9.4688 10.2847206,9.9098 10.2847206,10.4642 C10.2847206,11.0186 10.1209206,11.4722 9.79332059,11.825 C9.46572059,12.1778 9.04992059,12.3542 8.52072059,12.3542 Z" fill="#FFFFFF" fill-rule="nonzero"></path>
            </g>
        </g>
    </g>
</svg>