<?xml version="1.0" encoding="UTF-8"?>
<svg width="19px" height="18px" viewBox="0 0 19 18" version="1.1" xmlns="http://www.w3.org/2000/svg" xmlns:xlink="http://www.w3.org/1999/xlink">
    <!-- Generator: Sketch 63.1 (92452) - https://sketch.com -->
    <title>9@1x</title>
    <desc>Created with Sketch.</desc>
    <g id="新版定稿（20202-8-22）" stroke="none" stroke-width="1" fill="none" fill-rule="evenodd">
        <g id="画板" transform="translate(-351.000000, -1188.000000)">
            <g id="9" transform="translate(351.500000, 1188.000000)">
                <path d="M9,0 L9.01470588,0 C13.9852686,-9.13077564e-16 18.0147059,4.02943725 18.0147059,9 C18.0147059,13.9705627 13.9852686,18 9.01470588,18 L9,18 C4.02943725,18 6.08718376e-16,13.9705627 0,9 C-6.08718376e-16,4.02943725 4.02943725,9.13077564e-16 9,0 Z" id="Rectangle-4-Copy-5" fill="#939393"></path>
                <path d="M9.34432059,13.1764 C10.3775206,13.1764 11.2091206,12.7228 11.8265206,11.8156 C12.4313206,10.9084 12.7463206,9.7114 12.7463206,8.2498 C12.7463206,6.8638 12.4565206,5.7928 11.8769206,5.0116 C11.2973206,4.2178 10.4531206,3.8272 9.35692059,3.8272 C8.44972059,3.8272 7.69372059,4.117 7.08892059,4.7092 C6.48412059,5.2888 6.18172059,6.0322 6.18172059,6.9394 C6.18172059,7.8214 6.43372059,8.5396 6.96292059,9.094 C7.49212059,9.6736 8.21032059,9.9634 9.09232059,9.9634 C9.54592059,9.9634 9.94912059,9.8752 10.3019206,9.7114 C10.6673206,9.535 10.9823206,9.2578 11.2469206,8.8924 L11.3099206,8.8924 L11.3099206,9.0058 C11.3099206,9.8374 11.1335206,10.5304 10.7933206,11.0848 C10.4279206,11.6644 9.94912059,11.9668 9.35692059,11.9668 C8.48752059,11.9668 7.97092059,11.551 7.79452059,10.7194 L6.35812059,10.7194 C6.57232059,12.3574 7.56772059,13.1764 9.34432059,13.1764 Z M9.40732059,8.7664 C8.85292059,8.7664 8.42452059,8.59 8.12212059,8.2624 C7.79452059,7.9348 7.64332059,7.4938 7.64332059,6.9394 C7.64332059,6.385 7.79452059,5.9314 8.12212059,5.5786 C8.44972059,5.2258 8.87812059,5.0494 9.40732059,5.0494 C9.91132059,5.0494 10.3397206,5.2132 10.6673206,5.5408 C10.9949206,5.8684 11.1587206,6.3094 11.1587206,6.889 C11.1587206,7.4686 10.9949206,7.9222 10.6925206,8.2624 C10.3775206,8.59 9.94912059,8.7664 9.40732059,8.7664 Z" fill="#FFFFFF" fill-rule="nonzero"></path>
            </g>
        </g>
    </g>
</svg>