<?xml version="1.0" encoding="UTF-8"?>
<svg width="19px" height="18px" viewBox="0 0 19 18" version="1.1" xmlns="http://www.w3.org/2000/svg" xmlns:xlink="http://www.w3.org/1999/xlink">
    <!-- Generator: Sketch 63.1 (92452) - https://sketch.com -->
    <title>5@1x</title>
    <desc>Created with Sketch.</desc>
    <g id="新版定稿（20202-8-22）" stroke="none" stroke-width="1" fill="none" fill-rule="evenodd">
        <g id="画板" transform="translate(-250.000000, -1188.000000)">
            <g id="5" transform="translate(250.500000, 1188.000000)">
                <path d="M9,0 L9.01470588,0 C13.9852686,-9.13077564e-16 18.0147059,4.02943725 18.0147059,9 C18.0147059,13.9705627 13.9852686,18 9.01470588,18 L9,18 C4.02943725,18 6.08718376e-16,13.9705627 0,9 C-6.08718376e-16,4.02943725 4.02943725,9.13077564e-16 9,0 Z" id="Rectangle-4-Copy-5" fill="#924FF7"></path>
                <path d="M8.79246797,13.7764 C9.68706797,13.7764 10.455668,13.5118 11.110868,12.9826 C11.816468,12.3904 12.169268,11.6344 12.169268,10.702 C12.169268,9.7318 11.892068,8.9632 11.362868,8.4088 C10.833668,7.8544 10.140668,7.5772 9.29646797,7.5772 C8.89326797,7.5772 8.52786797,7.6402 8.20026797,7.7662 C7.83486797,7.8922 7.51986797,8.0938 7.24266797,8.371 L7.20486797,8.371 L7.45686797,5.9014 L11.753468,5.9014 L11.753468,4.6036 L6.27246797,4.6036 L5.78106797,9.6688 L7.15446797,9.6688 C7.33086797,9.3538 7.57026797,9.127 7.88526797,8.9758 C8.16246797,8.8372 8.50266797,8.7742 8.89326797,8.7742 C9.47286797,8.7742 9.92646797,8.938 10.228868,9.2908 C10.531268,9.631 10.695068,10.1098 10.695068,10.7146 C10.695068,11.269 10.506068,11.71 10.153268,12.0376 C9.78786797,12.3652 9.33426797,12.529 8.80506797,12.529 C8.31366797,12.529 7.92306797,12.4156 7.64586797,12.214 C7.31826797,11.9746 7.12926797,11.6092 7.06626797,11.1178 L5.61726797,11.1178 C5.68026797,11.9494 6.03306797,12.6172 6.68826797,13.1086 C7.26786797,13.5496 7.97346797,13.7764 8.79246797,13.7764 Z" fill="#FFFFFF" fill-rule="nonzero"></path>
            </g>
        </g>
    </g>
</svg>