<?xml version="1.0" encoding="UTF-8"?>
<svg width="19px" height="18px" viewBox="0 0 19 18" version="1.1" xmlns="http://www.w3.org/2000/svg" xmlns:xlink="http://www.w3.org/1999/xlink">
    <!-- Generator: Sketch 63.1 (92452) - https://sketch.com -->
    <title>0@1x</title>
    <desc>Created with Sketch.</desc>
    <g id="新版定稿（20202-8-22）" stroke="none" stroke-width="1" fill="none" fill-rule="evenodd">
        <g id="画板" transform="translate(-250.000000, -1165.000000)">
            <g id="0" transform="translate(250.500000, 1165.000000)">
                <path d="M9,0.5445 C6.66507815,0.5445 4.55120315,1.49091407 3.02105861,3.02105861 C1.49091407,4.55120315 0.5445,6.66507815 0.5445,9 C0.5445,11.3349219 1.49091407,13.4487969 3.02105861,14.9789414 C4.55143032,16.5093131 6.66572112,17.4555 9.01470588,17.4555 C11.3496277,17.4555 13.4635027,16.5090859 14.9936473,14.9789414 C16.5237918,13.4487969 17.4702059,11.3349219 17.4702059,9 C17.4702059,6.66439559 16.5232163,4.54996747 14.9905071,3.01975867 C13.4585005,1.49025124 11.3413914,0.5445 9,0.5445 Z" id="Rectangle-4" stroke="#C4C2C2" stroke-width="1.089" fill="#D8D8D8"></path>
                <g id="加-copy-2" transform="translate(9.358307, 9.350954) rotate(45.000000) translate(-9.358307, -9.350954) translate(4.358307, 3.850954)" fill="#555555">
                    <polygon id="减-copy" transform="translate(4.503676, 5.500000) scale(1, -1) translate(-4.503676, -5.500000) " points="0 6.4 9.00735294 6.4 9.00735294 4.6 0 4.6"></polygon>
                    <polygon id="减-copy" transform="translate(4.503676, 5.500000) scale(1, -1) rotate(90.000000) translate(-4.503676, -5.500000) " points="0 6.4 9.00735294 6.4 9.00735294 4.6 0 4.6"></polygon>
                </g>
            </g>
        </g>
    </g>
</svg>