<?xml version="1.0" encoding="UTF-8"?>
<svg width="30px" height="30px" viewBox="0 0 30 30" version="1.1" xmlns="http://www.w3.org/2000/svg" xmlns:xlink="http://www.w3.org/1999/xlink">
    <!-- Generator: Sketch 63.1 (92452) - https://sketch.com -->
    <title>中划线@1x</title>
    <desc>Created with Sketch.</desc>
    <g id="新版定稿（20202-8-22）" stroke="none" stroke-width="1" fill="none" fill-rule="evenodd">
        <g id="画板" transform="translate(-200.000000, -1175.000000)" fill="#555555" stroke="#FFFFFF" stroke-width="0.4">
            <g id="中划线" transform="translate(205.000000, 1180.000000)">
                <path d="M13.7241703,9.25398699 C13.7241703,9.25398699 7.00255955,8.3829749 7.00255955,4.89802934 C7.00255955,3.15548573 8.34701866,2.2839306 10.5314023,2.2839306 C12.7163339,2.2839306 13.5562813,3.32961259 13.7241703,3.67803159 C13.8922648,4.02637977 14.0602451,4.37491682 14.2281342,4.89802934 L16.7490492,4.37491682 C16.5810689,3.67803159 16.413157,2.98069777 16.0766485,2.45822273 C15.7404823,1.93558242 14.2280429,0.0188883379 10.531311,0.0188883379 C6.83448789,0.0188883379 4.31375546,2.2839306 4.31375546,5.0721562 C4.31375546,7.85986238 6.49859567,9.07976568 6.49859567,9.07976568 L0,9.07976568 L0,10.8222149 L11.3718063,10.8222149 C11.3718063,10.8222149 14.3962287,11.3447843 14.3962287,13.9588122 C14.3962287,16.3981466 12.547897,17.0954096 10.3633307,17.0954096 C7.33845177,17.0954096 6.16263497,14.8299188 5.82610361,13.9588122 L3.3057364,14.4813817 C3.80970028,16.2239489 4.98617904,19.3605227 10.1954188,19.3605227 C16.4130657,19.3605227 16.7489579,14.6556975 16.7489579,13.7846854 C16.7489579,11.5191001 15.7404823,10.6479227 15.7404823,10.6479227 L20.8942993,10.6479227 L20.8942993,9.25389255 L13.7241703,9.25389255 L13.7241703,9.25398699 Z" id="Fill-1"></path>
            </g>
        </g>
    </g>
</svg>