<?xml version="1.0" encoding="UTF-8"?>
<svg width="35px" height="35px" viewBox="0 0 35 35" version="1.1" xmlns="http://www.w3.org/2000/svg" xmlns:xlink="http://www.w3.org/1999/xlink">
    <!-- Generator: Sketch 63.1 (92452) - https://sketch.com -->
    <title>关闭右上角@1x</title>
    <desc>Created with Sketch.</desc>
    <g id="新版定稿（20202-8-22）" stroke="none" stroke-width="1" fill="none" fill-rule="evenodd">
        <g id="画板" transform="translate(-513.000000, -1174.000000)">
            <g id="关闭右上角" transform="translate(513.000000, 1174.000000)">
                <circle id="椭圆形" fill="#999999" cx="17.5" cy="17.5" r="17.5"></circle>
                <path d="M18.9756121,17.7997249 L24.3560638,12.4207047 C24.6805577,12.0962101 24.6805536,11.5701047 24.3560545,11.2456152 C24.0315555,10.9211258 23.5054428,10.92113 23.1809489,11.2456245 L17.7991398,16.6232502 L12.4173307,11.2428911 C12.0928317,10.9187714 11.5670187,10.9190753 11.2428945,11.2435698 C10.9187703,11.5680644 10.9190742,12.0938702 11.2435732,12.4179899 L16.6213101,17.7997249 L11.2435732,23.1801025 C11.0336591,23.3900137 10.9516784,23.6959659 11.0285122,23.9827099 C11.1053461,24.2694539 11.3293218,24.4934264 11.6160697,24.5702592 C11.9028176,24.6470921 12.208774,24.5651124 12.4186881,24.3552012 L17.7991398,18.974805 L23.1809489,24.3565586 C23.3441552,24.5197627 23.5549827,24.6 23.7685064,24.6 C24.1046325,24.6007379 24.4079905,24.3985964 24.5367205,24.0881013 C24.6654506,23.7776061 24.5941116,23.420121 24.3560638,23.1828173 L18.9756121,17.7997249 Z" id="关闭" stroke="#FFFFFF" stroke-width="0.6" fill="#FFFFFF" fill-rule="nonzero"></path>
            </g>
        </g>
    </g>
</svg>