<?xml version="1.0" encoding="UTF-8"?>
<svg width="200px" height="150px" viewBox="0 0 200 150" version="1.1" xmlns="http://www.w3.org/2000/svg" xmlns:xlink="http://www.w3.org/1999/xlink">
    <!-- Generator: Sketch 63.1 (92452) - https://sketch.com -->
    <title>隐藏@1x</title>
    <desc>Created with Sketch.</desc>
    <g id="谱目" stroke="none" stroke-width="1" fill="none" fill-rule="evenodd">
        <g id="画板" transform="translate(-27.000000, -59.000000)" fill="#FFFFFF" fill-rule="nonzero">
            <g id="隐藏" transform="translate(27.000000, 59.000000)">
                <path d="M173.175,1.7875 C174.342869,2.91573039 175.002408,4.46992073 175.002408,6.09375 C175.002408,7.71757927 174.342869,9.27176961 173.175,10.4 L31.75,148.2125 C29.2821173,150.585652 25.3803827,150.585652 22.9125,148.2125 C21.7446311,147.08427 21.0850922,145.530079 21.0850922,143.90625 C21.0850922,142.282421 21.7446311,140.72823 22.9125,139.6 L45.7,117.425 C33.975,109.15 18.75,94.375 0,73.0875 C29.85,32.5 63.175,12.1875 100,12.1875 C115,12.1875 129.425,15.5625 143.275,22.3 L164.325,1.7875 C166.794491,-0.593676584 170.705509,-0.593676584 173.175,1.7875 Z M162.775,35.075 C169.525,40.725 181.925,53.4 200,73.0875 C170.15,113.7 136.825,134 100,134 C87.675,134 75.75,131.725 64.2125,127.175 L74.25,117.8 C82.6125,120.475 91.175,121.8125 100,121.8125 C130.025,121.8125 157.8625,106.175 183.85,73.8125 C169.8125,58.7125 159.975,48.8 154.625,44.3125 L162.775,35.0625 L162.775,35.075 Z M135.325,60.8125 C136.7375,64.65 137.5,68.775 137.5,73.0875 C137.5,93.275 120.7125,109.6375 100,109.6375 C95.6,109.6375 91.375,108.8875 87.45,107.5375 L97.875,97.3625 C98.575,97.425 99.2875,97.45 100,97.45 C113.8125,97.45 125,86.55 125,73.0875 C125,72.375 124.975,71.675 124.9125,70.975 L135.325,60.8125 Z M100,24.3625 C69.9375,24.3625 42.0625,40.05 16.05,72.5 C32.2,90.275 45.2,102.3875 54.675,108.6875 L69.425,94.2625 C64.9201518,88.1219553 62.4939693,80.7032672 62.5,73.0875 C62.5,52.9 79.2875,36.55 100,36.55 C108.1,36.55 115.6,39.05 121.725,43.3 L133.875,31.4375 C123.19285,26.7672724 111.658439,24.3625 100,24.375 L100,24.3625 Z M100,48.7375 C86.1875,48.7375 75,59.6375 75,73.0875 C75,77.5375 76.225,81.7875 78.4625,85.4625 L112.6875,52.0875 C108.826198,49.8738894 104.450799,48.7143006 100,48.7249266 L100,48.7375 Z" id="形状"></path>
            </g>
        </g>
    </g>
</svg>