<?xml version="1.0" encoding="UTF-8"?>
<svg width="12px" height="12px" viewBox="0 0 12 12" version="1.1" xmlns="http://www.w3.org/2000/svg" xmlns:xlink="http://www.w3.org/1999/xlink">
    <!-- Generator: Sketch 63.1 (92452) - https://sketch.com -->
    <title>联系人@1x</title>
    <desc>Created with Sketch.</desc>
    <g id="新版定稿（20202-8-22）" stroke="none" stroke-width="1" fill="none" fill-rule="evenodd">
        <g id="画板" transform="translate(-497.000000, -1220.000000)" fill="#666666" fill-rule="nonzero">
            <g id="联系人" transform="translate(497.000000, 1220.000000)">
                <path d="M3.92502857,6.84703311 L4.73718857,7.39422881 L3.77773715,7.59171298 C1.89504,7.97845279 0.822857138,8.94777089 0.822857138,9.87430075 C0.822857138,10.7251283 0.702719998,10.6971514 5.76,10.6971514 C10.81728,10.6971514 10.6971429,10.7251284 10.6971429,9.87430075 C10.6971429,8.94777089 9.62496,7.97845279 7.74226286,7.59171298 L6.78281143,7.39422881 L7.59497143,6.84703311 C8.79737902,6.03957035 9.33063948,4.54099388 8.90858902,3.15548545 C8.48653856,1.76997702 7.20837508,0.823183767 5.76,0.823183767 C4.31162492,0.823183767 3.03346144,1.76997702 2.61141098,3.15548545 C2.18936052,4.54099388 2.72262098,6.03957035 3.92502857,6.84703311 L3.92502857,6.84703311 Z M1.64571429,4.11434601 C1.64583813,2.25767547 2.8894906,0.631143472 4.68121449,0.144315527 C6.47293838,-0.342512418 8.36871727,0.431007057 9.30842133,2.03231767 C10.2481254,3.63362828 9.99888164,5.66590091 8.70006857,6.99267768 C10.4585143,7.55797609 11.52,8.66800166 11.52,9.87430075 C11.52,11.4920252 11.3998629,11.5200021 5.76,11.5200021 C0.12013714,11.5200021 0,11.4920252 0,9.87430075 C0,8.66800166 1.06148571,7.55797609 2.81993143,6.99267768 C2.06642089,6.22420217 1.64476231,5.19060012 1.64571429,4.11434601 Z M5.76,8.22859939 C4.29010727,8.22859939 2.93187037,7.44442715 2.196924,6.17147272 C1.46197763,4.89851828 1.46197763,3.33017373 2.196924,2.0572193 C2.93187037,0.784264861 4.29010727,9.2622925e-05 5.76,9.2622925e-05 C8.03225726,9.2622925e-05 9.87428571,1.84210661 9.87428571,4.11434601 C9.87428571,6.38658541 8.03225726,8.22859939 5.76,8.22859939 Z M5.76,7.40574872 C7.57780581,7.40574872 9.05142857,5.93213753 9.05142857,4.11434601 C9.05142857,2.29655448 7.57780581,0.822943295 5.76,0.822943295 C3.94219419,0.822943295 2.46857143,2.29655448 2.46857143,4.11434601 C2.46857143,5.93213753 3.94219419,7.40574872 5.76,7.40574872 L5.76,7.40574872 Z" id="形状"></path>
            </g>
        </g>
    </g>
</svg>