<?xml version="1.0" encoding="UTF-8"?>
<svg width="614px" height="144px" viewBox="0 0 614 144" version="1.1" xmlns="http://www.w3.org/2000/svg" xmlns:xlink="http://www.w3.org/1999/xlink">
    <!-- Generator: Sketch 63.1 (92452) - https://sketch.com -->
    <title>686x146 登录页备份@1x</title>
    <desc>Created with Sketch.</desc>
    <defs>
        <polygon id="path-1" points="0.0815733044 0 79.2191172 0 79.2191172 64.1542146 0.0815733044 64.1542146"></polygon>
        <polygon id="path-3" points="0 0.202777764 104.770284 0.202777764 104.770284 82.5384071 0 82.5384071"></polygon>
    </defs>
    <g id="新版定稿（20202-8-22）" stroke="none" stroke-width="1" fill="none" fill-rule="evenodd">
        <g id="切图" transform="translate(-822.000000, -132.000000)">
            <g id="686x146-登录页备份" transform="translate(822.000000, 131.000000)">
                <text id="The-future-of-work" font-family="Futura-Medium, Futura" font-size="16" font-weight="400" letter-spacing="13" fill="#708397">
                    <tspan x="197.525292" y="143.77821">THE FUTURE OF WORK</tspan>
                </text>
                <g id="logo">
                    <g id="编组-2">
                        <g id="编组" transform="translate(0.805061, 1.200847)">
                            <path d="M106.496444,67.599748 C106.433348,67.7784298 106.370252,67.9579623 106.301187,68.1366441 C106.370252,67.9579623 106.433348,67.7784298 106.496444,67.599748" id="Fill-1" fill="#000000" fill-rule="nonzero"></path>
                            <path d="M101.443805,76.1059374 C101.27498,76.3067417 101.106155,76.5083969 100.930509,76.7074994 C101.106155,76.5083969 101.27498,76.3067417 101.443805,76.1059374" id="Fill-3" fill="#000000" fill-rule="nonzero"></path>
                            <path d="M93.1121265,83.8036342 C92.8205199,84.020605 92.5289132,84.2375758 92.2321907,84.451994 C92.5289132,84.2375758 92.8205199,84.020605 93.1121265,83.8036342" id="Fill-5" fill="#000000" fill-rule="nonzero"></path>
                            <path d="M107.55646,62.7314348 C107.548786,62.8284335 107.534291,62.9245813 107.524912,63.0207291 C107.534291,62.9245813 107.548786,62.8284335 107.55646,62.7314348" id="Fill-7" fill="#000000" fill-rule="nonzero"></path>
                            <path d="M57.7912316,99.6726197 C56.6043414,99.9661685 55.4191566,100.237595 54.2373825,100.489451 C55.4200093,100.237595 56.6043414,99.9661685 57.7912316,99.6726197" id="Fill-9" fill="#000000" fill-rule="nonzero"></path>
                            <path d="M107.534802,59.7766335 C107.549298,59.9374471 107.565498,60.0982607 107.57573,60.2582235 C107.565498,60.0982607 107.549298,59.9374471 107.534802,59.7766335" id="Fill-11" fill="#000000" fill-rule="nonzero"></path>
                            <path d="M103.160788,73.893176 C103.021806,74.0888752 102.878561,74.2837234 102.73361,74.4785717 C102.878561,74.2837234 103.021806,74.0888752 103.160788,73.893176" id="Fill-13" fill="#000000" fill-rule="nonzero"></path>
                            <path d="M79.1916619,92.0588183 C72.4727724,95.2597751 65.1246266,97.8557663 57.8020603,99.6689611 C65.1254793,97.8557663 72.4719198,95.2597751 79.1916619,92.0588183" id="Fill-15" fill="#000000" fill-rule="nonzero"></path>
                            <path d="M107.602247,61.1160663 C107.603953,61.2453979 107.611626,61.3764312 107.610774,61.5057628 C107.611626,61.3764312 107.603953,61.2453979 107.602247,61.1160663" id="Fill-17" fill="#000000" fill-rule="nonzero"></path>
                            <path d="M94.3627949,82.8472612 C94.0925045,83.0591267 93.8205089,83.2701414 93.54425,83.4803053 C93.8205089,83.2701414 94.0925045,83.0591267 94.3627949,82.8472612" id="Fill-19" fill="#000000" fill-rule="nonzero"></path>
                            <path d="M54.0775956,100.524336 C52.9324854,100.765982 51.7916385,100.986356 50.6559075,101.188012 C51.7916385,100.987207 52.9324854,100.765982 54.0775956,100.524336" id="Fill-21" fill="#000000" fill-rule="nonzero"></path>
                            <path d="M107.18837,65.1788649 C107.150854,65.3541432 107.107369,65.5277198 107.063883,65.7021473 C107.107369,65.5277198 107.150854,65.3541432 107.18837,65.1788649" id="Fill-23" fill="#000000" fill-rule="nonzero"></path>
                            <path d="M97.9091407,79.8185197 C97.6652825,80.0474026 97.4128978,80.2720311 97.1605131,80.4983614 C97.4128978,80.2720311 97.6652825,80.0474026 97.9091407,79.8185197" id="Fill-25" fill="#000000" fill-rule="nonzero"></path>
                            <path d="M100.508703,77.1774326 C100.32112,77.3841929 100.136094,77.5918042 99.9425426,77.7968628 C100.136094,77.5918042 100.32112,77.3841929 100.508703,77.1774326" id="Fill-27" fill="#000000" fill-rule="nonzero"></path>
                            <path d="M106.881928,66.39288 C106.830769,66.5715618 106.777904,66.7502436 106.721629,66.9280746 C106.777904,66.7502436 106.830769,66.5715618 106.881928,66.39288" id="Fill-29" fill="#000000" fill-rule="nonzero"></path>
                            <path d="M96.7700843,80.8496838 C96.5228155,81.0675054 96.2695782,81.2827744 96.0163409,81.4971926 C96.2695782,81.2827744 96.5228155,81.0675054 96.7700843,80.8496838" id="Fill-31" fill="#000000" fill-rule="nonzero"></path>
                            <path d="M107.414067,63.9594893 C107.390193,64.1186011 107.358645,64.2768622 107.330507,64.435974 C107.358645,64.2768622 107.390193,64.1186011 107.414067,63.9594893" id="Fill-33" fill="#000000" fill-rule="nonzero"></path>
                            <path d="M105.467294,70.0406263 C105.390556,70.1954839 105.320638,70.3511923 105.240489,70.505199 C105.320638,70.3511923 105.390556,70.1954839 105.467294,70.0406263" id="Fill-35" fill="#000000" fill-rule="nonzero"></path>
                            <path d="M95.5876279,81.8584701 C95.33098,82.0720374 95.0700688,82.283903 94.8065997,82.4949178 C95.0700688,82.283903 95.33098,82.0720374 95.5876279,81.8584701" id="Fill-37" fill="#000000" fill-rule="nonzero"></path>
                            <path d="M102.331415,75.0083207 C102.177085,75.2065724 102.02105,75.404824 101.860751,75.6022248 C102.02105,75.404824 102.177085,75.2074232 102.331415,75.0083207" id="Fill-39" fill="#000000" fill-rule="nonzero"></path>
                            <path d="M33.1101416,102.52353 C32.1474986,102.480987 31.2010561,102.418874 30.277635,102.329533 C31.2010561,102.418874 32.1474986,102.480987 33.1101416,102.52353" id="Fill-41" fill="#000000" fill-rule="nonzero"></path>
                            <path d="M30.0326685,102.303326 C29.0904891,102.20888 28.1670682,102.092312 27.2717847,101.947664 C28.1670682,102.092312 29.0904891,102.20888 30.0326685,102.303326" id="Fill-43" fill="#000000" fill-rule="nonzero"></path>
                            <path d="M104.632123,71.6160893 C104.530657,71.7930693 104.41896,71.9674968 104.311526,72.1427752 C104.41896,71.9674968 104.530657,71.7930693 104.632123,71.6160893" id="Fill-45" fill="#000000" fill-rule="nonzero"></path>
                            <path d="M106.772021,55.9448448 C106.82318,56.1082112 106.866665,56.2707265 106.913561,56.4340927 C106.866665,56.2707265 106.82318,56.1082112 106.772021,55.9448448" id="Fill-47" fill="#000000" fill-rule="nonzero"></path>
                            <path d="M106.029277,68.8054246 C105.955949,68.9798521 105.885179,69.1542795 105.807587,69.3278562 C105.885179,69.1542795 105.955949,68.9798521 106.029277,68.8054246" id="Fill-49" fill="#000000" fill-rule="nonzero"></path>
                            <path d="M27.1307563,101.922734 C26.2047774,101.768727 25.3026726,101.591747 24.4329686,101.384136 C25.3026726,101.591747 26.2047774,101.768727 27.1307563,101.922734" id="Fill-51" fill="#000000" fill-rule="nonzero"></path>
                            <path d="M106.328216,54.6714393 C106.381933,54.8101305 106.426271,54.9488215 106.47743,55.0866617 C106.426271,54.9488215 106.381933,54.8101305 106.328216,54.6714393" id="Fill-53" fill="#000000" fill-rule="nonzero"></path>
                            <path d="M98.0407047,79.6925916 C98.5727589,79.1914317 99.0852022,78.682614 99.5797397,78.1703928 C99.0852022,78.682614 98.5727589,79.1914317 98.0407047,79.6925916" id="Fill-55" fill="#000000" fill-rule="nonzero"></path>
                            <path d="M36.3459519,102.580794 C35.3585821,102.587601 34.3857073,102.575688 33.431591,102.53825 C34.3857073,102.575688 35.3585821,102.587601 36.3459519,102.580794" id="Fill-57" fill="#000000" fill-rule="nonzero"></path>
                            <path d="M43.1904368,102.216028 C42.1476447,102.31643 41.1150844,102.397262 40.0961665,102.456823 C41.1150844,102.397262 42.1476447,102.31643 43.1904368,102.216028" id="Fill-59" fill="#000000" fill-rule="nonzero"></path>
                            <path d="M46.7567346,101.800635 C45.6823944,101.946984 44.6174335,102.072912 43.5618515,102.17927 C44.6174335,102.072912 45.6823944,101.946984 46.7567346,101.800635" id="Fill-61" fill="#000000" fill-rule="nonzero"></path>
                            <path d="M107.373225,58.4912306 C107.401363,58.6614038 107.427795,58.8307261 107.450816,59.0008992 C107.427795,58.8307261 107.401363,58.6614038 107.373225,58.4912306" id="Fill-63" fill="#000000" fill-rule="nonzero"></path>
                            <path d="M50.3938025,101.234724 C49.2853563,101.428721 48.1845839,101.601447 47.0906327,101.753752 C48.1845839,101.601447 49.2853563,101.428721 50.3938025,101.234724" id="Fill-65" fill="#000000" fill-rule="nonzero"></path>
                            <path d="M107.120073,57.217825 C107.160148,57.3879982 107.196812,57.5573204 107.232623,57.7274936 C107.196812,57.5573204 107.160148,57.3879982 107.120073,57.217825" id="Fill-67" fill="#000000" fill-rule="nonzero"></path>
                            <path d="M39.710683,102.477839 C38.6977337,102.531443 37.6967215,102.566329 36.7102044,102.578241 C37.6967215,102.566329 38.6977337,102.531443 39.710683,102.477839" id="Fill-69" fill="#000000" fill-rule="nonzero"></path>
                            <path d="M103.929283,72.7614395 C103.805648,72.9528843 103.675193,73.1426274 103.547295,73.3323704 C103.675193,73.1426274 103.805648,72.9528843 103.929283,72.7614395" id="Fill-71" fill="#000000" fill-rule="nonzero"></path>
                            <path d="M105.807843,69.327686 C105.700409,69.5667792 105.582743,69.8033198 105.467635,70.0407114 C105.582743,69.8033198 105.700409,69.5667792 105.807843,69.327686" id="Fill-73" fill="#000000" fill-rule="nonzero"></path>
                            <path d="M106.721288,66.9284149 C106.650518,67.1530434 106.574632,67.3759703 106.496188,67.599748 C106.574632,67.3759703 106.650518,67.1530434 106.721288,66.9284149" id="Fill-75" fill="#000000" fill-rule="nonzero"></path>
                            <path d="M106.301613,68.1365591 C106.215496,68.3603367 106.122557,68.5824128 106.029618,68.8053396 C106.122557,68.5824128 106.215496,68.3603367 106.301613,68.1365591" id="Fill-77" fill="#000000" fill-rule="nonzero"></path>
                            <path d="M107.330763,64.4360591 C107.287278,64.6845118 107.242087,64.9321139 107.18837,65.1788649 C107.242087,64.9321139 107.287278,64.6845118 107.330763,64.4360591" id="Fill-79" fill="#000000" fill-rule="nonzero"></path>
                            <path d="M106.477259,55.0869171 C106.581283,55.3728078 106.682748,55.6595496 106.772277,55.9445896 C106.682748,55.6595496 106.581283,55.3728078 106.477259,55.0869171" id="Fill-81" fill="#000000" fill-rule="nonzero"></path>
                            <path d="M107.06431,65.701977 C107.008035,65.9325617 106.947496,66.1631462 106.881842,66.39288 C106.947496,66.1631462 107.008035,65.9325617 107.06431,65.701977" id="Fill-83" fill="#000000" fill-rule="nonzero"></path>
                            <path d="M105.786186,53.3959916 C105.984001,53.8222753 106.163058,54.2468573 106.328472,54.6714393 C106.163058,54.2468573 105.984001,53.8222753 105.786186,53.3959916" id="Fill-85" fill="#000000" fill-rule="nonzero"></path>
                            <path d="M107.232538,57.7275787 C107.285402,57.9828385 107.332298,58.2372472 107.373225,58.4908053 C107.332298,58.2372472 107.285402,57.9828385 107.232538,57.7275787" id="Fill-87" fill="#000000" fill-rule="nonzero"></path>
                            <path d="M106.913561,56.4342628 C106.987742,56.6954786 107.057659,56.9566943 107.119902,57.2179101 C107.057659,56.9566943 106.987742,56.6954786 106.913561,56.4342628" id="Fill-89" fill="#000000" fill-rule="nonzero"></path>
                            <path d="M107.610518,61.5061881 C107.606255,61.9154546 107.589202,62.3238701 107.556801,62.7314348 C107.589202,62.3238701 107.606255,61.9154546 107.610518,61.5061881" id="Fill-91" fill="#000000" fill-rule="nonzero"></path>
                            <path d="M107.524741,63.0205589 C107.494898,63.3345284 107.460792,63.6476469 107.413897,63.9599147 C107.460792,63.6476469 107.494898,63.3345284 107.524741,63.0205589" id="Fill-93" fill="#000000" fill-rule="nonzero"></path>
                            <path d="M107.575559,60.2585638 C107.593465,60.5453055 107.598581,60.8303456 107.601991,61.1162364 C107.598581,60.8303456 107.593465,60.5453055 107.575559,60.2585638" id="Fill-95" fill="#000000" fill-rule="nonzero"></path>
                            <path d="M107.450646,59.0005589 C107.485605,59.2600729 107.511184,59.5178852 107.535058,59.7765483 C107.511184,59.5178852 107.485605,59.2600729 107.450646,59.0005589" id="Fill-97" fill="#000000" fill-rule="nonzero"></path>
                            <path d="M79.1924292,92.0580525 L79.1924292,92.0580525 C79.1924292,92.0589034 79.1924292,92.0589034 79.1915766,92.0589034 C79.1924292,92.0589034 79.1924292,92.0589034 79.1924292,92.0580525" id="Fill-99" fill="#000000" fill-rule="nonzero"></path>
                            <path d="M47.0906327,101.754093 C46.9789355,101.770259 46.8680908,101.785575 46.7563936,101.80089 C46.8680908,101.785575 46.9789355,101.770259 47.0906327,101.754093" id="Fill-101" fill="#000000" fill-rule="nonzero"></path>
                            <path d="M92.2320201,84.4517386 C92.117765,84.5342726 92.0009518,84.614254 91.8858438,84.696788 C92.0009518,84.614254 92.117765,84.5342726 92.2320201,84.4517386" id="Fill-103" fill="#000000" fill-rule="nonzero"></path>
                            <path d="M50.6561632,101.188182 C50.5683401,101.203497 50.4813697,101.219664 50.3935468,101.234979 C50.4813697,101.219664 50.5683401,101.203497 50.6561632,101.188182" id="Fill-105" fill="#000000" fill-rule="nonzero"></path>
                            <path d="M57.8020603,99.6693014 C57.7986496,99.6710032 57.7952391,99.6718541 57.7909758,99.6727049 C57.7952391,99.6718541 57.7986496,99.6710032 57.8020603,99.6693014" id="Fill-107" fill="#000000" fill-rule="nonzero"></path>
                            <path d="M54.2374677,100.489366 L54.078022,100.524251 L54.2374677,100.489366 Z" id="Fill-109" fill="#000000" fill-rule="nonzero"></path>
                            <path d="M40.0962517,102.456993 C39.9675015,102.46465 39.8387512,102.470607 39.7108536,102.477413 C39.8387512,102.470607 39.9675015,102.46465 40.0962517,102.456993" id="Fill-111" fill="#000000" fill-rule="nonzero"></path>
                            <path d="M43.5617663,102.179525 C43.4372792,102.192288 43.3144975,102.2042 43.1900104,102.216113 C43.3144975,102.2042 43.4372792,102.192288 43.5617663,102.179525" id="Fill-113" fill="#000000" fill-rule="nonzero"></path>
                            <path d="M27.2715289,101.947664 C27.2229278,101.939156 27.1785899,101.929796 27.1308415,101.922989 C27.1785899,101.929796 27.2229278,101.939156 27.2715289,101.947664" id="Fill-115" fill="#000000" fill-rule="nonzero"></path>
                            <path d="M36.7106306,102.578326 C36.5878489,102.580028 36.4676251,102.580028 36.345696,102.580879 C36.4676251,102.580028 36.5878489,102.580028 36.7106306,102.578326" id="Fill-117" fill="#000000" fill-rule="nonzero"></path>
                            <path d="M33.431591,102.538421 C33.3241569,102.534166 33.2184282,102.52821 33.1101416,102.523105 C33.2184282,102.52821 33.3241569,102.534166 33.431591,102.538421" id="Fill-119" fill="#000000" fill-rule="nonzero"></path>
                            <path d="M30.2774645,102.329873 C30.1947574,102.322216 30.1146082,102.312005 30.0327537,102.303496 C30.1146082,102.312005 30.1947574,102.322216 30.2774645,102.329873" id="Fill-121" fill="#000000" fill-rule="nonzero"></path>
                            <path d="M93.5443352,83.4803904 C93.4019425,83.5884502 93.2561392,83.6956593 93.1120412,83.8037193 C93.2561392,83.6956593 93.4019425,83.5884502 93.5443352,83.4803904" id="Fill-123" fill="#000000" fill-rule="nonzero"></path>
                            <path d="M101.861007,75.6023951 C101.724583,75.7708664 101.584748,75.938487 101.444061,76.1061075 C101.584748,75.938487 101.724583,75.7708664 101.861007,75.6023951" id="Fill-125" fill="#000000" fill-rule="nonzero"></path>
                            <path d="M100.93085,76.7074994 C100.792721,76.8649096 100.650328,77.020618 100.508788,77.1771773 C100.650328,77.020618 100.792721,76.8649096 100.93085,76.7074994" id="Fill-127" fill="#000000" fill-rule="nonzero"></path>
                            <path d="M102.73361,74.4785717 C102.601449,74.6555517 102.467583,74.8325318 102.331159,75.008661 C102.467583,74.8325318 102.601449,74.6555517 102.73361,74.4785717" id="Fill-129" fill="#000000" fill-rule="nonzero"></path>
                            <path d="M105.240745,70.5055394 C105.048899,70.8773677 104.845968,71.2474943 104.631952,71.6159191 C104.845968,71.2474943 105.048899,70.8773677 105.240745,70.5055394" id="Fill-131" fill="#000000" fill-rule="nonzero"></path>
                            <path d="M104.311526,72.1428603 C104.186186,72.3496206 104.061699,72.556381 103.929539,72.7614395 C104.061699,72.556381 104.186186,72.3496206 104.311526,72.1428603" id="Fill-133" fill="#000000" fill-rule="nonzero"></path>
                            <path d="M103.547125,73.3322854 C103.42008,73.5194758 103.293035,73.7066663 103.160874,73.8930059 C103.293035,73.7066663 103.42008,73.5194758 103.547125,73.3322854" id="Fill-135" fill="#000000" fill-rule="nonzero"></path>
                            <path d="M99.9425426,77.7968628 C99.8240242,77.92194 99.7003898,78.0453156 99.5793133,78.1703928 C99.7003898,78.0453156 99.8240242,77.92194 99.9425426,77.7968628" id="Fill-137" fill="#000000" fill-rule="nonzero"></path>
                            <path d="M96.0165114,81.4969373 C95.8741187,81.6186112 95.7325786,81.7385833 95.5876279,81.8585552 C95.7325786,81.7385833 95.8741187,81.6186112 96.0165114,81.4969373" id="Fill-139" fill="#000000" fill-rule="nonzero"></path>
                            <path d="M94.8065997,82.4949178 C94.6590911,82.6131881 94.5107299,82.7297567 94.3623686,82.8471761 C94.5107299,82.7297567 94.6590911,82.6131881 94.8065997,82.4949178" id="Fill-141" fill="#000000" fill-rule="nonzero"></path>
                            <path d="M97.1605984,80.4981911 C97.0309954,80.6156106 96.9022451,80.7330302 96.7700843,80.8495988 C96.9022451,80.7330302 97.0309954,80.6156106 97.1605984,80.4981911" id="Fill-143" fill="#000000" fill-rule="nonzero"></path>
                            <path d="M98.0407047,79.6925916 C97.9955142,79.734284 97.9537343,79.7768272 97.9093964,79.8185197 C97.9537343,79.7768272 97.9963669,79.734284 98.0407047,79.6925916" id="Fill-145" fill="#000000" fill-rule="nonzero"></path>
                            <path d="M27.1307563,101.922734 C27.1785047,101.930392 27.2228426,101.939751 27.2714437,101.947409 C28.1667272,102.092056 29.0901481,102.208625 30.0323274,102.303071 C30.1141818,102.31158 30.1951837,102.322641 30.2770382,102.330299 C31.2004591,102.418789 32.1477544,102.480902 33.1103973,102.523445 C33.218684,102.528551 33.3244126,102.534507 33.4318467,102.538761 C34.3859632,102.576199 35.3579852,102.58726 36.3462076,102.580453 C36.467284,102.579602 36.5883605,102.579602 36.7102896,102.578752 C37.6968067,102.566839 38.6969663,102.531954 39.7107683,102.477499 C39.8386659,102.470692 39.9674163,102.464736 40.0961665,102.457078 C41.1150844,102.397517 42.1476447,102.316685 43.1904368,102.216283 C43.3140712,102.204371 43.4377056,102.191608 43.5621925,102.179696 C44.6177744,102.073337 45.6827355,101.946558 46.7570757,101.800209 C46.8679203,101.785745 46.9787649,101.769578 47.0904622,101.754263 C48.1844134,101.601107 49.2851858,101.428381 50.393632,101.234384 C50.481455,101.219919 50.5684254,101.202902 50.6562485,101.188437 C51.7919796,100.985931 52.9328265,100.766408 54.0779367,100.523911 L54.2373825,100.489025 C55.4191566,100.23802 56.6043414,99.965743 57.7912316,99.6721944 C57.7954948,99.6713435 57.7989055,99.6713435 57.802316,99.6696417 C65.1248823,97.8564469 72.4730282,95.2596048 79.1919176,92.0586482 C79.1927703,92.0586482 79.1927703,92.0586482 79.1927703,92.0577973 C79.9217869,91.2920181 80.9381468,90.6028169 81.8547466,90.1918488 C84.003427,89.226967 86.1521073,88.2076299 88.2479233,87.1227762 C89.5047309,86.3374271 90.7172004,85.5265522 91.8853322,84.6969582 C92.0004402,84.6144242 92.118106,84.533592 92.2323612,84.4519088 C92.5290837,84.2374907 92.8206904,84.0205199 93.112297,83.8035491 C93.256395,83.6954892 93.4021984,83.5882801 93.5445911,83.4802201 C93.8208499,83.2700563 94.0919929,83.0590417 94.3631359,82.8471761 C94.5106445,82.7297567 94.6590058,82.6131881 94.8065144,82.4949178 C95.0699836,82.283903 95.3308947,82.0720374 95.5875427,81.8584701 C95.7324933,81.7384981 95.8740334,81.6185261 96.0164261,81.4968523 C96.2696634,81.2824341 96.5229007,81.0671651 96.7701695,80.8493434 C96.9023305,80.7336257 97.0302281,80.6153554 97.1606837,80.4979359 C97.4130683,80.2724565 97.665453,80.0469771 97.9093112,79.8180942 C97.9545017,79.7772527 97.995429,79.7347095 98.0406194,79.693017 C98.5726736,79.1910062 99.0851168,78.6830394 99.5796544,78.1708182 C99.6998782,78.045741 99.8243653,77.9215147 99.9428837,77.7972882 C100.135583,77.5913787 100.321461,77.3846184 100.509044,77.1770071 C100.650584,77.0204479 100.792977,76.8647394 100.931106,76.7073293 C101.1059,76.5082267 101.274725,76.3074224 101.443549,76.1057672 C101.584237,75.9381467 101.724072,75.7705261 101.861348,75.6020547 C102.020794,75.4046539 102.177682,75.2072531 102.331159,75.0081504 C102.467583,74.8320212 102.601449,74.655892 102.73361,74.478912 C102.878561,74.2840637 103.021806,74.0892155 103.160788,73.8935163 C103.292949,73.7071768 103.419994,73.5199864 103.547039,73.3319451 C103.674937,73.142202 103.806245,72.952459 103.929027,72.761865 C104.06204,72.5559555 104.185675,72.3491952 104.311867,72.1424348 C104.419301,71.9671565 104.530146,71.792729 104.632464,71.615749 C104.846479,71.2473241 105.04941,70.8771975 105.240404,70.5053692 C105.320553,70.3513625 105.390471,70.195654 105.467209,70.0407966 C105.58317,69.8034051 105.699983,69.5668644 105.807417,69.3277711 C105.885008,69.1541944 105.955778,68.979767 106.029106,68.8053396 C106.122898,68.5824128 106.215837,68.3603367 106.301954,68.1365591 C106.370166,67.9578773 106.433263,67.7791955 106.496359,67.5996629 C106.574803,67.3758851 106.650689,67.1529583 106.721459,66.9283298 C106.777734,66.7504989 106.831451,66.5718171 106.881757,66.3931352 C106.947411,66.1634016 107.007949,65.9328169 107.064224,65.7022324 C107.10771,65.5278048 107.151195,65.3533774 107.188711,65.17895 C107.242428,64.9321989 107.287619,64.6837462 107.331104,64.4361443 C107.358389,64.2770323 107.389937,64.1187713 107.413811,63.9596594 C107.460707,63.6473917 107.494813,63.3342731 107.524656,63.0203037 C107.534035,62.9241558 107.54853,62.828008 107.556204,62.7310093 C107.588605,62.3242956 107.60651,61.91588 107.61084,61.5066136 C107.61084,61.3764312 107.603953,61.2453979 107.602247,61.1160663 C107.598836,60.8310263 107.592868,60.5451354 107.575815,60.2583936 C107.565583,60.0984309 107.54853,59.9376172 107.534888,59.7768037 C107.511014,59.5181405 107.485434,59.2594773 107.450475,59.0008141 C107.428306,58.8306411 107.401874,58.6613187 107.372884,58.4911456 C107.332809,58.2375877 107.285061,57.9823279 107.232197,57.7279191 C107.196385,57.5577459 107.159721,57.3875727 107.120499,57.2173997 C107.057403,56.9570348 106.987486,56.695819 106.913305,56.4346032 C106.867262,56.271237 106.822924,56.1078707 106.771765,55.9445045 C106.683089,55.6594645 106.581624,55.3735736 106.477601,55.0868319 C106.426441,54.9481408 106.382104,54.8103006 106.328387,54.6716095 C106.162972,54.2470274 105.983916,53.8224455 105.786101,53.3961618 C105.639445,53.0821924 105.480852,52.7733281 105.312879,52.4687181 C92.5367576,67.4669278 83.2309252,73.2655775 68.2123314,77.4288633 C46.6010405,83.4198088 26.4324351,99.5513714 26.4324351,99.5513714 C25.7469038,100.15889 25.0826886,100.770662 24.4312634,101.382434 L24.4329686,101.384136 C25.3026726,101.591747 26.2047774,101.768727 27.1307563,101.922734" id="Fill-147" fill="#000000" fill-rule="nonzero"></path>
                            <path d="M68.2120757,77.4287783 C83.2306693,73.2654924 92.5365018,67.4668428 105.313476,52.4694839 C105.480596,52.7732431 105.640042,53.0821073 105.785845,53.3960767 C101.630024,44.4832585 89.1591514,39.4078446 81.3266998,37.384486 C80.9054903,37.2755752 80.4902492,37.163261 80.0715976,37.0526484 C59.7648627,55.0127216 31.489252,76.7200072 2.5238468,55.1667283 C5.4509975,72.0998065 10.2318113,86.78745 24.4310075,101.382349 C25.0824329,100.770577 25.7466479,100.158804 26.4321793,99.5512863 C26.4321793,99.5512863 46.6007848,83.4197236 68.2120757,77.4287783" id="Fill-149" fill="#00A2AE" fill-rule="nonzero"></path>
                            <path d="M72.4753303,119.121197 C51.942643,120.728483 35.9750487,113.038358 24.4327128,101.384051 L24.4310075,101.382349 C3.21364141,121.369185 0,143.796303 0,143.796303 C11.0844623,136.138511 43.9814411,135.558221 58.8329153,134.43678 C116.228261,130.100769 138.555779,97.0939863 141.344799,48.5087041 C133.341818,67.9033368 118.785361,115.49651 72.4753303,119.121197" id="Fill-151" fill="#FF658F" fill-rule="nonzero"></path>
                            <path d="M107.602247,61.1160663 C107.598836,60.8310263 107.592868,60.5451354 107.575815,60.2583936 C107.565583,60.0984309 107.549383,59.9376172 107.534888,59.7768037 C107.511866,59.5181405 107.485434,59.2594773 107.450475,59.0008141 C107.428306,58.8306411 107.401874,58.6613187 107.372884,58.4911456 C107.332809,58.2375877 107.285061,57.9823279 107.232197,57.7279191 C107.196385,57.5577459 107.159721,57.3875727 107.120499,57.2173997 C107.057403,56.9570348 106.987486,56.695819 106.913305,56.4346032 C106.867262,56.271237 106.822924,56.1078707 106.771765,55.9445045 C106.683089,55.6594645 106.581624,55.3727228 106.477601,55.0868319 C106.426441,54.9481408 106.382104,54.8103006 106.328387,54.6716095 C106.163825,54.2470274 105.984768,53.8224455 105.786101,53.3961618 C105.639445,53.0821924 105.480852,52.7733281 105.312879,52.4687181 C92.5367576,67.4669278 83.2309252,73.2655775 68.2123314,77.4288633 C46.6010405,83.4198088 26.4324351,99.5513714 26.4324351,99.5513714 C25.7469038,100.15889 25.0826886,100.769811 24.4312634,101.382434 L24.4329686,101.384136 C25.3035252,101.591747 26.2047774,101.768727 27.1307563,101.922734 C27.1785047,101.930392 27.2228426,101.939751 27.2714437,101.947409 C28.1667272,102.092056 29.0901481,102.208625 30.0323274,102.303071 C30.1141818,102.31158 30.1951837,102.322641 30.2770382,102.330299 C31.2013118,102.418789 32.1477544,102.480902 33.1103973,102.523445 C33.218684,102.528551 33.3244126,102.534507 33.4318467,102.538761 C34.3859632,102.576199 35.3579852,102.58726 36.3462076,102.580453 C36.467284,102.579602 36.5883605,102.579602 36.7102896,102.577901 C37.6968067,102.566839 38.6969663,102.531954 39.7107683,102.477499 C39.8386659,102.470692 39.9674163,102.464736 40.0961665,102.457078 C41.1150844,102.397517 42.1476447,102.316685 43.1904368,102.216283 C43.3149238,102.204371 43.4377056,102.191608 43.5621925,102.179696 C44.6177744,102.073337 45.6827355,101.946558 46.7570757,101.800209 C46.868773,101.785745 46.9787649,101.769578 47.0904622,101.754263 C48.1844134,101.601107 49.2851858,101.428381 50.393632,101.234384 C50.481455,101.219919 50.5684254,101.202902 50.6562485,101.188437 C51.7919796,100.985931 52.9328265,100.766408 54.0779367,100.523911 L54.2373825,100.489025 C55.4191566,100.23802 56.6043414,99.965743 57.7912316,99.6721944 C57.7954948,99.6713435 57.7989055,99.6713435 57.802316,99.6696417 C65.1248823,97.8564469 72.4730282,95.2596048 79.1919176,92.0586482 C79.1927703,92.0586482 79.1927703,92.0586482 79.1927703,92.0577973 C82.3160307,90.570484 85.2849613,88.9427779 88.0697193,87.2112663 C88.1285522,87.1814859 88.1882378,87.1534073 88.2479233,87.1227762 C88.42698,87.0113128 88.5983629,86.8947442 88.7757143,86.7815791 C88.9095804,86.6964925 89.0408887,86.610555 89.1747549,86.5237668 C90.1007338,85.9256082 91.0096597,85.3189409 91.8853322,84.6969582 C92.0004402,84.6144242 92.118106,84.533592 92.2323612,84.4519088 C92.5290837,84.2374907 92.8206904,84.0205199 93.112297,83.8035491 C93.256395,83.6954892 93.4021984,83.5882801 93.5445911,83.4802201 C93.8208499,83.2700563 94.0919929,83.0590417 94.3631359,82.8471761 C94.5106445,82.7297567 94.6590058,82.6131881 94.8065144,82.4949178 C95.0699836,82.283903 95.3308947,82.0720374 95.5875427,81.8584701 C95.7324933,81.7384981 95.8740334,81.6185261 96.0164261,81.4968523 C96.2696634,81.2824341 96.5229007,81.0671651 96.7701695,80.8493434 C96.9023305,80.7336257 97.0310807,80.6153554 97.1606837,80.4979359 C97.4130683,80.2724565 97.665453,80.0469771 97.9093112,79.8180942 C97.9545017,79.7772527 97.995429,79.7347095 98.0406194,79.693017 C98.5726736,79.1910062 99.0851168,78.6830394 99.5796544,78.1708182 C99.6998782,78.045741 99.8243653,77.9215147 99.9428837,77.7964373 C100.135583,77.5913787 100.321461,77.3846184 100.509044,77.1770071 C100.650584,77.0204479 100.792977,76.8647394 100.931106,76.7073293 C101.1059,76.5082267 101.274725,76.3074224 101.443549,76.1057672 C101.584237,75.9381467 101.724072,75.7705261 101.861348,75.6020547 C102.020794,75.4046539 102.177682,75.2072531 102.331159,75.0081504 C102.468436,74.8320212 102.601449,74.655892 102.73361,74.478912 C102.878561,74.2840637 103.021806,74.0892155 103.160788,73.8935163 C103.292949,73.7071768 103.419994,73.5199864 103.547039,73.3319451 C103.67579,73.142202 103.806245,72.952459 103.929027,72.761865 C104.06204,72.5559555 104.185675,72.3491952 104.311867,72.1424348 C104.419301,71.9671565 104.530146,71.792729 104.632464,71.615749 C104.846479,71.2473241 105.04941,70.8771975 105.240404,70.5053692 C105.320553,70.3513625 105.390471,70.195654 105.467209,70.0407966 C105.58317,69.8034051 105.700836,69.5668644 105.80827,69.3277711 C105.885008,69.1541944 105.955778,68.979767 106.029106,68.8053396 C106.122898,68.5824128 106.215837,68.3603367 106.301954,68.1365591 C106.370166,67.9578773 106.433263,67.7791955 106.496359,67.5996629 C106.574803,67.3758851 106.650689,67.1529583 106.721459,66.9283298 C106.777734,66.7504989 106.831451,66.5718171 106.881757,66.3931352 C106.947411,66.1634016 107.007949,65.9328169 107.064224,65.7022324 C107.10771,65.5278048 107.151195,65.3533774 107.188711,65.17895 C107.242428,64.9321989 107.287619,64.6837462 107.331104,64.4361443 C107.358389,64.2770323 107.389937,64.1187713 107.413811,63.9596594 C107.460707,63.6473917 107.494813,63.3342731 107.524656,63.0203037 C107.534035,62.9241558 107.549383,62.828008 107.556204,62.7310093 C107.588605,62.3242956 107.60651,61.91588 107.61084,61.5057628 C107.61084,61.3764312 107.603953,61.2453979 107.602247,61.1160663" id="Fill-153" fill="#004163" fill-rule="nonzero"></path>
                            <path d="M92.0863021,26.3768365 C88.5068734,29.4391022 84.4755398,33.1582362 80.0715976,37.0526484 C80.4902492,37.163261 80.9054903,37.2755752 81.3266998,37.384486 C88.8837452,39.3372228 100.754352,44.1301493 105.313476,52.4694839 C105.480596,52.7732431 105.640042,53.0821073 105.785845,53.3960767 C111.662315,65.9999502 102.711185,78.0847958 88.2476676,87.123542 C85.417719,88.891641 82.3754605,90.5423203 79.1925144,92.0577121 C61.268939,100.597 38.8646828,104.836013 24.4327128,101.384051 C35.9750487,113.038358 51.942643,120.728483 72.4753303,119.121197 C118.785361,115.49651 133.341818,67.9033368 141.344799,48.5087041 C142.020099,46.8724895 142.648503,45.4362282 143.245359,44.2450161 C145.842534,39.0615424 154.756147,19.5699111 173.088142,21.2716424 C162.003679,5.10519417 133.866198,-9.35952265 92.0863021,26.3768365" id="Fill-155" fill="#00CDD3" fill-rule="nonzero"></path>
                            <path d="M85.2650945,96.1478235 C77.3507885,96.4115919 77.3678415,93.9755635 79.1925144,92.0577121 C61.268939,100.597 38.8646828,104.836013 24.4327128,101.384051 C35.9750487,113.038358 51.942643,120.728483 72.4753303,119.121197 C118.785361,115.49651 133.341818,67.9033368 141.344799,48.5087041 C121.929085,77.4287783 110.844623,95.2969579 85.2650945,96.1478235" id="Fill-157" fill="#005279" fill-rule="nonzero"></path>
                            <g transform="translate(0.852651, 0.000000)" id="Fill-159-Clipped">
                                <g>
                                    <mask id="mask-2" fill="white">
                                        <use xlink:href="#path-1"></use>
                                    </mask>
                                    <g id="path-1"></g>
                                    <path d="M79.2191172,37.0525633 C47.1398308,28.5966601 23.6211596,15.957901 4.26342525,-8.50865696e-05 C-0.43297615,21.8680142 -0.988051915,39.785544 1.67136638,55.1666432 C30.6359189,76.7199221 58.9123823,55.0126365 79.2191172,37.0525633" id="Fill-159" fill="#00CDD3" fill-rule="nonzero" mask="url(#mask-2)"></path>
                                </g>
                            </g>
                        </g>
                    </g>
                </g>
                <g id="编组" transform="translate(195.133416, 19.191139)">
                    <g transform="translate(0.000000, 1.462949)" id="Fill-5-Clipped">
                        <g>
                            <mask id="mask-4" fill="white">
                                <use xlink:href="#path-3"></use>
                            </mask>
                            <g id="path-5"></g>
                            <polygon id="Fill-5" fill="#333333" fill-rule="nonzero" mask="url(#mask-4)" points="70.6492235 82.5384071 54.1133164 82.5384071 46.5183675 41.9490077 27.5158848 82.5384071 11.0942102 82.5384071 -0.000241761865 0.202777764 21.162383 0.202777764 25.806024 43.6836491 45.215271 0.202777764 59.5553759 0.202777764 66.7429561 43.6836491 83.6082639 0.202777764 104.770284 0.202777764"></polygon>
                        </g>
                    </g>
                    <path d="M129.212167,21.0938915 C139.272482,21.0938915 144.948446,25.1409852 148.096186,29.0726375 C152.503505,34.7389312 153.277143,40.7521532 151.570909,52.8940384 C149.84896,65.1519693 147.400517,71.04975 141.400591,76.7160437 C137.148001,80.647696 130.333942,84.6947897 120.273626,84.6947897 C110.212102,84.6947897 104.537347,80.647696 101.389003,76.7160437 C96.981684,71.04975 96.1911228,65.1519693 97.9142804,52.8940384 C99.6205148,40.7521532 102.084673,34.7389312 108.084598,29.0726375 C112.337794,25.1409852 119.150643,21.0938915 129.212167,21.0938915 Z M122.48756,39.3675224 C121.640185,38.3811341 120.025216,38.8543829 119.843895,40.1423693 L119.843895,40.1423693 L116.311149,65.277746 C116.116532,66.6654591 117.751446,67.5490987 118.804923,66.6249639 L118.804923,66.6249639 L133.138985,54.0575778 C133.762126,53.5105916 133.829818,52.5640939 133.288876,51.935513 L133.288876,51.935513 L122.48756,39.3675224 Z" id="形状结合" fill="#333333" fill-rule="nonzero"></path>
                    <path d="M198.739374,41.4457075 C197.149186,39.5956249 195.609162,38.2085161 192.371366,38.2085161 C189.827427,38.2085161 184.527403,39.7116705 183.536179,46.7656773 L178.302639,84.0012353 L159.338839,84.0012353 L168.081551,21.7874458 L186.584796,21.7874458 L185.869181,26.8759287 C189.034448,24.1005025 194.892338,21.0935893 201.368534,21.0935893 C207.497197,21.0935893 211.448795,22.5967437 215.125993,26.8759287 L198.739374,41.4457075 Z" id="Fill-9" fill="#333333" fill-rule="nonzero"></path>
                    <polygon id="Fill-11" fill="#333333" fill-rule="nonzero" points="249.882343 84.0013562 240.132088 61.22074 235.862573 65.2678337 233.229182 84.0013562 214.264777 84.0013562 225.836104 1.66572676 244.801114 1.66572676 238.917234 43.527398 258.741102 21.7869624 281.522928 21.7869624 255.001651 47.5744916 273.357421 84.0013562"></polygon>
                    <path d="M307.809574,38.7861456 L301.454863,84.0016583 L282.490459,84.0016583 L288.844564,38.7861456 L283.178271,38.7861456 L285.225994,24.2163669 L290.892288,24.2163669 L291.656255,18.7803513 C292.85902,10.2231902 299.790333,0.393757144 313.552627,0.393757144 L323.612338,0.393757144 L321.370602,16.3524579 L314.778359,16.3524579 C312.23442,16.3524579 310.76753,17.740171 310.426042,20.1680645 L309.857902,24.2163669 L320.264541,24.2163669 L318.217422,38.7861456 L307.809574,38.7861456 Z" id="Fill-13" fill="#333333" fill-rule="nonzero"></path>
                    <path d="M340.65522,84.0013562 C326.892926,84.0013562 322.724347,74.1719231 323.926508,65.6147619 L332.914005,1.66572676 L351.879015,1.66572676 L343.08674,64.2264445 C342.745855,66.6555468 343.822301,68.0432599 346.36624,68.0432599 L352.957877,68.0432599 L350.715535,84.0013562 L340.65522,84.0013562 Z" id="Fill-15" fill="#333333" fill-rule="nonzero"></path>
                    <path d="M383.093977,91.4018077 C381.318236,94.9871361 379.325514,97.6465166 377.083173,99.6126451 C372.829977,103.544297 367.910123,104.815965 362.358666,104.815965 L355.189218,104.815965 L357.594749,87.7016424 L361.641842,87.7016424 C364.995684,87.7016424 366.843953,86.8917402 368.652332,83.0761335 L371.118907,77.8722094 L358.300693,21.7870832 L378.191651,21.7870832 L384.180092,54.0508084 L398.775256,21.7870832 L418.665609,21.7870832 L383.093977,91.4018077 Z" id="Fill-17" fill="#333333" fill-rule="nonzero"></path>
                </g>
            </g>
        </g>
    </g>
</svg>