<?xml version="1.0" encoding="UTF-8"?>
<svg width="400px" height="396px" viewBox="0 0 400 396" version="1.1" xmlns="http://www.w3.org/2000/svg" xmlns:xlink="http://www.w3.org/1999/xlink">
    <!-- Generator: Sketch 59 (86127) - https://sketch.com -->
    <title>编组 3备份</title>
    <desc>Created with Sketch.</desc>
    <defs>
        <polygon id="path-1" points="0.159012664 0 154.423594 0 154.423594 125.101111 0.159012664 125.101111"></polygon>
        <polygon id="path-3" points="0.237652919 0.458072411 25.4870994 0.458072411 25.4870994 25.2185936 0.237652919 25.2185936"></polygon>
        <polygon id="path-5" points="0 0.166144101 85.8425717 0.166144101 85.8425717 67.627087 0 67.627087"></polygon>
    </defs>
    <g id="11.16" stroke="none" stroke-width="1" fill="none" fill-rule="evenodd">
        <g id="编组-3备份" transform="translate(0.000000, -1.000000)">
            <g id="logo备份" transform="translate(31.000000, 0.000000)">
                <g id="编组-2" transform="translate(0.000000, 0.500000)">
                    <g id="编组" transform="translate(0.569324, 0.341659)">
                        <path d="M207.595897,131.819922 C207.472902,132.168353 207.349907,132.518442 207.215278,132.866873 C207.349907,132.518442 207.472902,132.168353 207.595897,131.819922" id="Fill-1" fill="#000000"></path>
                        <path d="M197.746675,148.407044 C197.417581,148.798613 197.088486,149.191842 196.746096,149.580093 C197.088486,149.191842 197.417581,148.798613 197.746675,148.407044" id="Fill-3" fill="#000000"></path>
                        <path d="M181.505547,163.4176 C180.937112,163.840694 180.368677,164.263788 179.790269,164.681905 C180.368677,164.263788 180.937112,163.840694 181.505547,163.4176" id="Fill-5" fill="#000000"></path>
                        <path d="M209.662209,122.326682 C209.64725,122.51583 209.618994,122.703319 209.600711,122.890807 C209.618994,122.703319 209.64725,122.51583 209.662209,122.326682" id="Fill-7" fill="#000000"></path>
                        <path d="M112.653738,194.362218 C110.340107,194.93464 108.0298,195.463923 105.726141,195.955044 C108.031462,195.463923 110.340107,194.93464 112.653738,194.362218" id="Fill-9" fill="#000000"></path>
                        <path d="M209.619992,116.564801 C209.648247,116.878389 209.679827,117.191976 209.699772,117.503904 C209.679827,117.191976 209.648247,116.878389 209.619992,116.564801" id="Fill-11" fill="#000000"></path>
                        <path d="M201.093628,144.092145 C200.822707,144.47376 200.543476,144.853715 200.260921,145.23367 C200.543476,144.853715 200.822707,144.47376 201.093628,144.092145" id="Fill-13" fill="#000000"></path>
                        <path d="M154.370075,179.515259 C141.272794,185.757144 126.948889,190.819343 112.674847,194.355084 C126.950551,190.819343 141.271132,185.757144 154.370075,179.515259" id="Fill-15" fill="#000000"></path>
                        <path d="M209.751463,119.176703 C209.754787,119.428901 209.769746,119.684416 209.768084,119.936614 C209.769746,119.684416 209.754787,119.428901 209.751463,119.176703" id="Fill-17" fill="#000000"></path>
                        <path d="M183.943503,161.552666 C183.41662,161.965805 182.886413,162.377285 182.347895,162.787106 C182.886413,162.377285 183.41662,161.965805 183.943503,161.552666" id="Fill-19" fill="#000000"></path>
                        <path d="M105.414665,196.023071 C103.182476,196.494282 100.958597,196.924013 98.7446915,197.317242 C100.958597,196.925672 103.182476,196.494282 105.414665,196.023071" id="Fill-21" fill="#000000"></path>
                        <path d="M208.944684,127.099185 C208.871552,127.440979 208.786785,127.779455 208.702019,128.119589 C208.786785,127.779455 208.871552,127.440979 208.944684,127.099185" id="Fill-23" fill="#000000"></path>
                        <path d="M190.856474,155.646602 C190.381116,156.092925 189.889137,156.530952 189.397158,156.972297 C189.889137,156.530952 190.381116,156.092925 190.856474,155.646602" id="Fill-25" fill="#000000"></path>
                        <path d="M195.923859,150.496466 C195.558199,150.89965 195.197525,151.304493 194.82023,151.704358 C195.197525,151.304493 195.558199,150.89965 195.923859,150.496466" id="Fill-27" fill="#000000"></path>
                        <path d="M208.347328,129.466522 C208.247603,129.814953 208.144553,130.163383 208.034855,130.510155 C208.144553,130.163383 208.247603,129.814953 208.347328,129.466522" id="Fill-29" fill="#000000"></path>
                        <path d="M188.636086,157.657378 C188.15408,158.082132 187.660438,158.501907 187.166797,158.920024 C187.660438,158.501907 188.15408,158.082132 188.636086,157.657378" id="Fill-31" fill="#000000"></path>
                        <path d="M209.38464,124.721395 C209.338101,125.031664 209.276604,125.340274 209.221755,125.650544 C209.276604,125.340274 209.338101,125.031664 209.38464,124.721395" id="Fill-33" fill="#000000"></path>
                        <path d="M205.589752,136.57965 C205.440164,136.881623 205.303872,137.185256 205.147636,137.485569 C205.303872,137.185256 205.440164,136.881623 205.589752,136.57965" id="Fill-35" fill="#000000"></path>
                        <path d="M186.331098,159.624518 C185.830808,160.040975 185.322208,160.454114 184.808622,160.865594 C185.322208,160.454114 185.830808,160.040975 186.331098,159.624518" id="Fill-37" fill="#000000"></path>
                        <path d="M199.476912,146.266684 C199.176073,146.653276 198.871911,147.039868 198.559437,147.424801 C198.871911,147.039868 199.176073,146.654935 199.476912,146.266684" id="Fill-39" fill="#000000"></path>
                        <path d="M64.5423382,199.921512 C62.6658369,199.838552 60.8209153,199.717431 59.0208702,199.543216 C60.8209153,199.717431 62.6658369,199.838552 64.5423382,199.921512" id="Fill-41" fill="#000000"></path>
                        <path d="M58.5433513,199.492112 C56.7067401,199.307942 54.906695,199.080632 53.1614989,198.79857 C54.906695,199.080632 56.7067401,199.307942 58.5433513,199.492112" id="Fill-43" fill="#000000"></path>
                        <path d="M203.961734,139.651812 C203.763945,139.996924 203.546211,140.337059 203.336787,140.678853 C203.546211,140.337059 203.763945,139.996924 203.961734,139.651812" id="Fill-45" fill="#000000"></path>
                        <path d="M208.133085,109.09279 C208.23281,109.411355 208.317577,109.728261 208.408992,110.046826 C208.317577,109.728261 208.23281,109.411355 208.133085,109.09279" id="Fill-47" fill="#000000"></path>
                        <path d="M206.685237,134.170999 C206.542297,134.511134 206.404343,134.851268 206.253093,135.189744 C206.404343,134.851268 206.542297,134.511134 206.685237,134.170999" id="Fill-49" fill="#000000"></path>
                        <path d="M52.886589,198.749955 C51.0815576,198.449641 49.3230647,198.104529 47.6277314,197.699686 C49.3230647,198.104529 51.0815576,198.449641 52.886589,198.749955" id="Fill-51" fill="#000000"></path>
                        <path d="M207.267966,106.609641 C207.372678,106.88009 207.459107,107.150538 207.558832,107.419327 C207.459107,107.150538 207.372678,106.88009 207.267966,106.609641" id="Fill-53" fill="#000000"></path>
                        <path d="M191.112935,155.401041 C192.15008,154.423776 193.148997,153.431579 194.11301,152.432744 C193.148997,153.431579 192.15008,154.423776 191.112935,155.401041" id="Fill-55" fill="#000000"></path>
                        <path d="M70.8499756,200.033175 C68.9252736,200.046449 67.0288271,200.02322 65.1689467,199.950216 C67.0288271,200.02322 68.9252736,200.046449 70.8499756,200.033175" id="Fill-57" fill="#000000"></path>
                        <path d="M84.1920829,199.321879 C82.1593449,199.517664 80.1465521,199.675287 78.1603527,199.791431 C80.1465521,199.675287 82.1593449,199.517664 84.1920829,199.321879" id="Fill-59" fill="#000000"></path>
                        <path d="M91.1439469,198.511861 C89.0497116,198.797242 86.9737593,199.042803 84.9160899,199.250202 C86.9737593,199.042803 89.0497116,198.797242 91.1439469,198.511861" id="Fill-61" fill="#000000"></path>
                        <path d="M209.305025,114.058258 C209.359874,114.390096 209.411399,114.720276 209.456276,115.052114 C209.411399,114.720276 209.359874,114.390096 209.305025,114.058258" id="Fill-63" fill="#000000"></path>
                        <path d="M98.2337645,197.408331 C96.0730455,197.786628 93.9272854,198.123444 91.7948219,198.420439 C93.9272854,198.123444 96.0730455,197.786628 98.2337645,197.408331" id="Fill-65" fill="#000000"></path>
                        <path d="M208.81155,111.575109 C208.889669,111.906948 208.961139,112.237127 209.030946,112.568966 C208.961139,112.237127 208.889669,111.906948 208.81155,111.575109" id="Fill-67" fill="#000000"></path>
                        <path d="M77.4089211,199.832413 C75.4343564,199.936942 73.483061,200.004969 71.5600211,200.028198 C73.483061,200.004969 75.4343564,199.936942 77.4089211,199.832413" id="Fill-69" fill="#000000"></path>
                        <path d="M202.591671,141.885252 C202.350668,142.258571 202.096368,142.628571 201.847054,142.998571 C202.096368,142.628571 202.350668,142.258571 202.591671,141.885252" id="Fill-71" fill="#000000"></path>
                        <path d="M206.253592,135.189412 C206.044168,135.655645 205.814799,136.116901 205.590417,136.579816 C205.814799,136.116901 206.044168,135.655645 206.253592,135.189412" id="Fill-73" fill="#000000"></path>
                        <path d="M208.03419,130.510819 C207.896237,130.948846 207.74831,131.383554 207.595398,131.819922 C207.74831,131.383554 207.896237,130.948846 208.03419,130.510819" id="Fill-75" fill="#000000"></path>
                        <path d="M207.216109,132.866707 C207.048238,133.303075 206.86707,133.736124 206.685902,134.170833 C206.86707,133.736124 207.048238,133.303075 207.216109,132.866707" id="Fill-77" fill="#000000"></path>
                        <path d="M209.222253,125.65071 C209.137487,126.135194 209.049396,126.618019 208.944684,127.099185 C209.049396,126.618019 209.137487,126.135194 209.222253,125.65071" id="Fill-79" fill="#000000"></path>
                        <path d="M207.5585,107.419825 C207.761275,107.977314 207.959064,108.536462 208.133583,109.092292 C207.959064,108.536462 207.761275,107.977314 207.5585,107.419825" id="Fill-81" fill="#000000"></path>
                        <path d="M208.70285,128.119257 C208.593152,128.568899 208.475143,129.01854 208.347162,129.466522 C208.475143,129.01854 208.593152,128.568899 208.70285,128.119257" id="Fill-83" fill="#000000"></path>
                        <path d="M206.211374,104.12251 C206.59698,104.953766 206.946019,105.781704 207.268465,106.609641 C206.946019,105.781704 206.59698,104.953766 206.211374,104.12251" id="Fill-85" fill="#000000"></path>
                        <path d="M209.03078,112.569132 C209.13383,113.06689 209.225245,113.562988 209.305025,114.057428 C209.225245,113.562988 209.13383,113.06689 209.03078,112.569132" id="Fill-87" fill="#000000"></path>
                        <path d="M208.408992,110.047158 C208.553594,110.55653 208.689885,111.065903 208.811218,111.575275 C208.689885,111.065903 208.553594,110.55653 208.408992,110.047158" id="Fill-89" fill="#000000"></path>
                        <path d="M209.767585,119.937443 C209.759275,120.735515 209.726033,121.531928 209.662874,122.326682 C209.726033,121.531928 209.759275,120.735515 209.767585,119.937443" id="Fill-91" fill="#000000"></path>
                        <path d="M209.600379,122.890476 C209.542206,123.502718 209.475722,124.113301 209.384307,124.722225 C209.475722,124.113301 209.542206,123.502718 209.600379,122.890476" id="Fill-93" fill="#000000"></path>
                        <path d="M209.69944,117.504568 C209.734344,118.063716 209.744316,118.619546 209.750965,119.177035 C209.744316,118.619546 209.734344,118.063716 209.69944,117.504568" id="Fill-95" fill="#000000"></path>
                        <path d="M209.455943,115.051451 C209.524089,115.557505 209.573952,116.06024 209.62049,116.564635 C209.573952,116.06024 209.524089,115.557505 209.455943,115.051451" id="Fill-97" fill="#000000"></path>
                        <path d="M154.371571,179.513766 L154.371571,179.513766 C154.371571,179.515425 154.371571,179.515425 154.369909,179.515425 C154.371571,179.515425 154.371571,179.515425 154.371571,179.513766" id="Fill-99" fill="#000000"></path>
                        <path d="M91.7948219,198.421103 C91.577088,198.452628 91.3610161,198.482493 91.1432821,198.512359 C91.3610161,198.482493 91.577088,198.452628 91.7948219,198.421103" id="Fill-101" fill="#000000"></path>
                        <path d="M179.789936,164.681407 C179.567216,164.842349 179.33951,164.998313 179.115127,165.159255 C179.33951,164.998313 179.567216,164.842349 179.789936,164.681407" id="Fill-103" fill="#000000"></path>
                        <path d="M98.7451901,197.317574 C98.5739947,197.347439 98.4044613,197.378964 98.2332659,197.408829 C98.4044613,197.378964 98.5739947,197.347439 98.7451901,197.317574" id="Fill-105" fill="#000000"></path>
                        <path d="M112.674847,194.355748 C112.668198,194.359066 112.66155,194.360725 112.65324,194.362384 C112.66155,194.360725 112.668198,194.359066 112.674847,194.355748" id="Fill-107" fill="#000000"></path>
                        <path d="M105.726307,195.954878 L105.415496,196.022905 L105.726307,195.954878 Z" id="Fill-109" fill="#000000"></path>
                        <path d="M78.1605189,199.791763 C77.9095431,199.806695 77.6585673,199.81831 77.4092536,199.831583 C77.6585673,199.81831 77.9095431,199.806695 78.1605189,199.791763" id="Fill-111" fill="#000000"></path>
                        <path d="M84.9159237,199.2507 C84.6732584,199.275588 84.4339172,199.298816 84.1912518,199.322045 C84.4339172,199.298816 84.6732584,199.275588 84.9159237,199.2507" id="Fill-113" fill="#000000"></path>
                        <path d="M53.1610003,198.79857 C53.066261,198.781978 52.9798323,198.763726 52.8867552,198.750453 C52.9798323,198.763726 53.066261,198.781978 53.1610003,198.79857" id="Fill-115" fill="#000000"></path>
                        <path d="M71.5608521,200.028364 C71.3215109,200.031682 71.087156,200.031682 70.8494769,200.033341 C71.087156,200.031682 71.3215109,200.031682 71.5608521,200.028364" id="Fill-117" fill="#000000"></path>
                        <path d="M65.1689467,199.950547 C64.9595232,199.942251 64.7534238,199.930637 64.5423382,199.920682 C64.7534238,199.930637 64.9595232,199.942251 65.1689467,199.950547" id="Fill-119" fill="#000000"></path>
                        <path d="M59.0205377,199.543879 C58.8593149,199.528946 58.7030783,199.509036 58.5435175,199.492444 C58.7030783,199.509036 58.8593149,199.528946 59.0205377,199.543879" id="Fill-121" fill="#000000"></path>
                        <path d="M182.348062,162.787272 C182.070492,162.99799 181.786275,163.207048 181.505381,163.417765 C181.786275,163.207048 182.070492,162.99799 182.348062,162.787272" id="Fill-123" fill="#000000"></path>
                        <path d="M198.559936,147.425133 C198.294001,147.753653 198.021418,148.080514 197.747173,148.407375 C198.021418,148.080514 198.294001,147.753653 198.559936,147.425133" id="Fill-125" fill="#000000"></path>
                        <path d="M196.74676,149.580093 C196.477502,149.887044 196.199932,150.190676 195.924025,150.495968 C196.199932,150.190676 196.477502,149.887044 196.74676,149.580093" id="Fill-127" fill="#000000"></path>
                        <path d="M200.260921,145.23367 C200.003296,145.578783 199.742348,145.923895 199.476413,146.267348 C199.742348,145.923895 200.003296,145.578783 200.260921,145.23367" id="Fill-129" fill="#000000"></path>
                        <path d="M205.148134,137.486233 C204.774164,138.211301 204.378586,138.93305 203.961401,139.65148 C204.378586,138.93305 204.774164,138.211301 205.148134,137.486233" id="Fill-131" fill="#000000"></path>
                        <path d="M203.336787,140.679019 C203.09246,141.082203 202.849794,141.485387 202.59217,141.885252 C202.849794,141.485387 203.09246,141.082203 203.336787,140.679019" id="Fill-133" fill="#000000"></path>
                        <path d="M201.846722,142.998405 C201.59907,143.363428 201.351419,143.72845 201.093795,144.091814 C201.351419,143.72845 201.59907,143.363428 201.846722,142.998405" id="Fill-135" fill="#000000"></path>
                        <path d="M194.82023,151.704358 C194.589199,151.94826 194.348196,152.188843 194.112179,152.432744 C194.348196,152.188843 194.589199,151.94826 194.82023,151.704358" id="Fill-137" fill="#000000"></path>
                        <path d="M187.16713,158.919526 C186.88956,159.156791 186.613653,159.390737 186.331098,159.624684 C186.613653,159.390737 186.88956,159.156791 187.16713,158.919526" id="Fill-139" fill="#000000"></path>
                        <path d="M184.808622,160.865594 C184.52108,161.096222 184.231876,161.323532 183.942672,161.5525 C184.231876,161.323532 184.52108,161.096222 184.808622,160.865594" id="Fill-141" fill="#000000"></path>
                        <path d="M189.397324,156.971965 C189.144686,157.200934 188.89371,157.429903 188.636086,157.657212 C188.89371,157.429903 189.144686,157.200934 189.397324,156.971965" id="Fill-143" fill="#000000"></path>
                        <path d="M191.112935,155.401041 C191.024844,155.482342 190.943402,155.565301 190.856973,155.646602 C190.943402,155.565301 191.026506,155.482342 191.112935,155.401041" id="Fill-145" fill="#000000"></path>
                        <path d="M52.886589,198.749955 C52.9796661,198.764888 53.0660948,198.783139 53.1608341,198.798072 C54.9060302,199.080135 56.7060753,199.307444 58.5426864,199.491615 C58.7022472,199.508207 58.8601459,199.529776 59.0197067,199.544709 C60.8197518,199.717265 62.6663355,199.838386 64.5428368,199.921346 C64.7539225,199.931301 64.9600218,199.942915 65.1694453,199.951211 C67.0293258,200.024216 68.9241101,200.045785 70.8504742,200.032512 C71.0864912,200.030852 71.3225082,200.030852 71.5601873,200.029193 C73.4832272,200.005965 75.4328605,199.937938 77.4090874,199.831749 C77.6584011,199.818476 77.9093769,199.806861 78.1603527,199.791929 C80.1465521,199.675785 82.1593449,199.518162 84.1920829,199.322377 C84.4330862,199.299148 84.6740894,199.27426 84.9167548,199.251032 C86.9744241,199.043632 89.0503764,198.796413 91.1446117,198.511031 C91.3606836,198.482825 91.5767555,198.4513 91.7944895,198.421435 C93.926953,198.12278 96.0727131,197.785964 98.2334321,197.407668 C98.4046275,197.379462 98.5741609,197.346278 98.7453563,197.318071 C100.959262,196.923183 103.183141,196.495111 105.41533,196.022241 L105.726141,195.954214 C108.0298,195.464752 110.340107,194.933811 112.653738,194.361389 C112.662049,194.35973 112.668697,194.35973 112.675345,194.356411 C126.949387,190.82067 141.273292,185.756812 154.370573,179.514927 C154.372236,179.514927 154.372236,179.514927 154.372236,179.513268 C155.793324,178.019994 157.774537,176.676047 159.561285,175.874657 C163.749756,173.993132 167.938227,172.005418 172.023648,169.889947 C174.47357,168.358511 176.837065,166.7773 179.11413,165.159587 C179.338512,164.998645 179.567881,164.841021 179.790601,164.681739 C180.369009,164.263622 180.937444,163.840528 181.50588,163.417434 C181.786773,163.206716 182.070991,162.997658 182.34856,162.78694 C182.887078,162.377119 183.415623,161.965639 183.944168,161.5525 C184.23171,161.323532 184.520914,161.096222 184.808456,160.865594 C185.322042,160.454114 185.830642,160.040975 186.330931,159.624518 C186.613487,159.390571 186.889394,159.156625 187.166963,158.919361 C187.660605,158.501244 188.154246,158.081468 188.636252,157.656714 C188.893877,157.431064 189.14319,157.200436 189.39749,156.971468 C189.889469,156.531781 190.381449,156.092095 190.856807,155.645772 C190.944898,155.566131 191.024678,155.483171 191.112769,155.401871 C192.149914,154.422947 193.148831,153.432408 194.112844,152.433574 C194.347199,152.189672 194.589864,151.94743 194.820895,151.705188 C195.196528,151.303663 195.558864,150.900479 195.924524,150.495636 C196.200431,150.190345 196.478,149.886712 196.747259,149.579761 C197.087988,149.19151 197.417082,148.799941 197.746176,148.406712 C198.020421,148.079851 198.293004,147.75299 198.560601,147.424469 C198.871412,147.039536 199.177237,146.654604 199.476413,146.266352 C199.742348,145.922899 200.003296,145.579446 200.260921,145.234334 C200.543476,144.854379 200.822707,144.474424 201.093628,144.092809 C201.351253,143.729446 201.598904,143.364423 201.846556,142.997742 C202.09587,142.627741 202.351832,142.257741 202.591173,141.886082 C202.850459,141.484557 203.091462,141.081373 203.337452,140.678189 C203.546875,140.336395 203.762947,139.996261 203.962398,139.651149 C204.379583,138.932718 204.775161,138.210969 205.14747,137.485901 C205.303706,137.185587 205.439998,136.881955 205.589586,136.579982 C205.81563,136.117067 206.043337,135.655811 206.252761,135.189578 C206.404011,134.851102 206.541964,134.510968 206.684904,134.170833 C206.867734,133.736124 207.048902,133.303075 207.216774,132.866707 C207.349741,132.518277 207.472736,132.169846 207.59573,131.819756 C207.748643,131.383388 207.896569,130.94868 208.034523,130.510653 C208.144221,130.163881 208.248932,129.815451 208.346996,129.46702 C208.474977,129.019038 208.592985,128.569396 208.702683,128.119755 C208.78745,127.77962 208.872217,127.439486 208.945349,127.099351 C209.050061,126.618185 209.138151,126.133701 209.222918,125.650875 C209.276105,125.340606 209.337602,125.031996 209.384141,124.721727 C209.475556,124.112803 209.54204,123.50222 209.600213,122.889978 C209.618496,122.702489 209.646751,122.515 209.66171,122.325852 C209.72487,121.532758 209.759774,120.736345 209.768213,119.938273 C209.768213,119.684416 209.754787,119.428901 209.751463,119.176703 C209.744815,118.620873 209.73318,118.063384 209.699938,117.504236 C209.679993,117.192308 209.646751,116.87872 209.620158,116.565133 C209.573619,116.060738 209.523757,115.556343 209.455611,115.051949 C209.412396,114.72011 209.360872,114.38993 209.304361,114.058092 C209.226242,113.563652 209.133165,113.065894 209.030115,112.569795 C208.960308,112.237957 208.888838,111.906118 208.812381,111.574279 C208.689387,111.066566 208.553095,110.557194 208.408493,110.047822 C208.31874,109.729256 208.232312,109.410691 208.132586,109.092126 C207.959728,108.536296 207.76194,107.978807 207.559164,107.419659 C207.459439,107.149211 207.37301,106.880421 207.268298,106.609973 C206.945853,105.782036 206.596813,104.954098 206.211208,104.122842 C205.925328,103.5106 205.616179,102.908313 205.288747,102.314322 C180.383968,131.560922 162.243901,142.868324 132.967821,150.986757 C90.840449,162.669137 51.525336,194.125783 51.525336,194.125783 C50.1890144,195.310447 48.8942451,196.503407 47.6244072,197.696367 L47.6277314,197.699686 C49.3230647,198.104529 51.0815576,198.449641 52.886589,198.749955" id="Fill-147" fill="#000000"></path>
                        <path d="M132.967322,150.986591 C162.243402,142.868159 180.383469,131.560756 205.289911,102.315815 C205.615681,102.908147 205.926492,103.510434 206.21071,104.122676 C198.109675,86.7426264 173.799925,76.8455382 158.531952,72.8999765 C157.710879,72.6875998 156.90144,72.4685863 156.085353,72.2528912 C116.500981,107.275144 61.3827022,149.604483 4.91979092,107.575458 C10.6257511,140.595064 19.9450983,169.236059 47.6239085,197.696202 C48.8937465,196.503242 50.1885158,195.310282 51.5248374,194.125618 C51.5248374,194.125618 90.8399504,162.668971 132.967322,150.986591" id="Fill-149" fill="#00A2AE"></path>
                        <path d="M141.27778,232.287064 C101.252954,235.42128 70.1269657,220.425491 47.6272327,197.69952 L47.6239085,197.696202 C6.26442297,236.670652 0,280.40367 0,280.40367 C21.6071899,265.47093 85.7340052,264.33936 114.684315,262.152543 C226.566345,253.697294 270.089873,189.333867 275.526575,94.5922699 C259.926184,132.411922 231.550957,225.2189 141.27778,232.287064" id="Fill-151" fill="#FF658F"></path>
                        <path d="M209.751463,119.176703 C209.744815,118.620873 209.73318,118.063384 209.699938,117.504236 C209.679993,117.192308 209.648413,116.87872 209.620158,116.565133 C209.575281,116.060738 209.523757,115.556343 209.455611,115.051949 C209.412396,114.72011 209.360872,114.38993 209.304361,114.058092 C209.226242,113.563652 209.133165,113.065894 209.030115,112.569795 C208.960308,112.237957 208.888838,111.906118 208.812381,111.574279 C208.689387,111.066566 208.553095,110.557194 208.408493,110.047822 C208.31874,109.729256 208.232312,109.410691 208.132586,109.092126 C207.959728,108.536296 207.76194,107.977148 207.559164,107.419659 C207.459439,107.149211 207.37301,106.880421 207.268298,106.609973 C206.947515,105.782036 206.598476,104.954098 206.211208,104.122842 C205.925328,103.5106 205.616179,102.908313 205.288747,102.314322 C180.383968,131.560922 162.243901,142.868324 132.967821,150.986757 C90.840449,162.669137 51.525336,194.125783 51.525336,194.125783 C50.1890144,195.310447 48.8942451,196.501748 47.6244072,197.696367 L47.6277314,197.699686 C49.3247268,198.104529 51.0815576,198.449641 52.886589,198.749955 C52.9796661,198.764888 53.0660948,198.783139 53.1608341,198.798072 C54.9060302,199.080135 56.7060753,199.307444 58.5426864,199.491615 C58.7022472,199.508207 58.8601459,199.529776 59.0197067,199.544709 C60.8214139,199.717265 62.6663355,199.838386 64.5428368,199.921346 C64.7539225,199.931301 64.9600218,199.942915 65.1694453,199.951211 C67.0293258,200.024216 68.9241101,200.045785 70.8504742,200.032512 C71.0864912,200.030852 71.3225082,200.030852 71.5601873,200.027534 C73.4832272,200.005965 75.4328605,199.937938 77.4090874,199.831749 C77.6584011,199.818476 77.9093769,199.806861 78.1603527,199.791929 C80.1465521,199.675785 82.1593449,199.518162 84.1920829,199.322377 C84.4347482,199.299148 84.6740894,199.27426 84.9167548,199.251032 C86.9744241,199.043632 89.0503764,198.796413 91.1446117,198.511031 C91.3623457,198.482825 91.5767555,198.4513 91.7944895,198.421435 C93.926953,198.12278 96.0727131,197.785964 98.2334321,197.407668 C98.4046275,197.379462 98.5741609,197.346278 98.7453563,197.318071 C100.959262,196.923183 103.183141,196.495111 105.41533,196.022241 L105.726141,195.954214 C108.0298,195.464752 110.340107,194.933811 112.653738,194.361389 C112.662049,194.35973 112.668697,194.35973 112.675345,194.356411 C126.949387,190.82067 141.273292,185.756812 154.370573,179.514927 C154.372236,179.514927 154.372236,179.514927 154.372236,179.513268 C160.460477,176.612998 166.24788,173.438961 171.67627,170.062503 C171.790955,170.004431 171.907301,169.949678 172.023648,169.889947 C172.372687,169.672592 172.706767,169.445283 173.052482,169.22461 C173.313431,169.058691 173.569393,168.891112 173.830341,168.721875 C175.635372,167.555462 177.407162,166.372457 179.11413,165.159587 C179.338512,164.998645 179.567881,164.841021 179.790601,164.681739 C180.369009,164.263622 180.937444,163.840528 181.50588,163.417434 C181.786773,163.206716 182.070991,162.997658 182.34856,162.78694 C182.887078,162.377119 183.415623,161.965639 183.944168,161.5525 C184.23171,161.323532 184.520914,161.096222 184.808456,160.865594 C185.322042,160.454114 185.830642,160.040975 186.330931,159.624518 C186.613487,159.390571 186.889394,159.156625 187.166963,158.919361 C187.660605,158.501244 188.154246,158.081468 188.636252,157.656714 C188.893877,157.431064 189.144852,157.200436 189.39749,156.971468 C189.889469,156.531781 190.381449,156.092095 190.856807,155.645772 C190.944898,155.566131 191.024678,155.483171 191.112769,155.401871 C192.149914,154.422947 193.148831,153.432408 194.112844,152.433574 C194.347199,152.189672 194.589864,151.94743 194.820895,151.703529 C195.196528,151.303663 195.558864,150.900479 195.924524,150.495636 C196.200431,150.190345 196.478,149.886712 196.747259,149.579761 C197.087988,149.19151 197.417082,148.799941 197.746176,148.406712 C198.020421,148.079851 198.293004,147.75299 198.560601,147.424469 C198.871412,147.039536 199.177237,146.654604 199.476413,146.266352 C199.74401,145.922899 200.003296,145.579446 200.260921,145.234334 C200.543476,144.854379 200.822707,144.474424 201.093628,144.092809 C201.351253,143.729446 201.598904,143.364423 201.846556,142.997742 C202.097532,142.627741 202.351832,142.257741 202.591173,141.886082 C202.850459,141.484557 203.091462,141.081373 203.337452,140.678189 C203.546875,140.336395 203.762947,139.996261 203.962398,139.651149 C204.379583,138.932718 204.775161,138.210969 205.14747,137.485901 C205.303706,137.185587 205.439998,136.881955 205.589586,136.579982 C205.81563,136.117067 206.044999,135.655811 206.254423,135.189578 C206.404011,134.851102 206.541964,134.510968 206.684904,134.170833 C206.867734,133.736124 207.048902,133.303075 207.216774,132.866707 C207.349741,132.518277 207.472736,132.169846 207.59573,131.819756 C207.748643,131.383388 207.896569,130.94868 208.034523,130.510653 C208.144221,130.163881 208.248932,129.815451 208.346996,129.46702 C208.474977,129.019038 208.592985,128.569396 208.702683,128.119755 C208.78745,127.77962 208.872217,127.439486 208.945349,127.099351 C209.050061,126.618185 209.138151,126.133701 209.222918,125.650875 C209.276105,125.340606 209.337602,125.031996 209.384141,124.721727 C209.475556,124.112803 209.54204,123.50222 209.600213,122.889978 C209.618496,122.702489 209.648413,122.515 209.66171,122.325852 C209.72487,121.532758 209.759774,120.736345 209.768213,119.936614 C209.768213,119.684416 209.754787,119.428901 209.751463,119.176703" id="Fill-153" fill="#004163"></path>
                        <path d="M179.505885,51.4349927 C172.528425,57.4064294 164.670056,64.6587634 156.085353,72.2528912 C156.90144,72.4685863 157.710879,72.6875998 158.531952,72.8999765 C173.263069,76.7078252 196.402707,86.0540611 205.289911,102.315815 C205.615681,102.908147 205.926492,103.510434 206.21071,104.122676 C217.665844,128.700307 200.217208,152.265829 172.023149,169.89144 C166.506667,173.339244 160.576325,176.558079 154.371737,179.513102 C119.432911,196.164766 75.7597939,204.430867 47.6272327,197.69952 C70.1269657,220.425491 101.252954,235.42128 141.27778,232.287064 C231.550957,225.2189 259.926184,132.411922 275.526575,94.5922699 C276.842951,91.4016412 278.067913,88.6009229 279.231377,86.2780522 C284.294107,76.1702466 301.669612,38.1614462 337.40458,41.4798328 C315.79739,9.95515987 260.94837,-18.2511264 179.505885,51.4349927" id="Fill-155" fill="#00CDD3"></path>
                        <path d="M166.209153,187.488844 C150.781619,188.003194 150.814861,183.252924 154.371737,179.513102 C119.432911,196.164766 75.7597939,204.430867 47.6272327,197.69952 C70.1269657,220.425491 101.252954,235.42128 141.27778,232.287064 C231.550957,225.2189 259.926184,132.411922 275.526575,94.5922699 C237.679088,150.986591 216.071899,185.829651 166.209153,187.488844" id="Fill-157" fill="#005279"></path>
                        <g transform="translate(1.662092, 0.000000)">
                            <mask id="mask-2" fill="white">
                                <use xlink:href="#path-1"></use>
                            </mask>
                            <g id="Clip-160"></g>
                            <path d="M154.423594,72.2527252 C91.8907246,55.7636621 46.045254,31.1180046 8.31079006,-0.000165919331 C-0.844010078,42.6427614 -1.92603166,77.5820542 3.25803181,107.575292 C59.719281,149.604317 114.839222,107.274978 154.423594,72.2527252" id="Fill-159" fill="#00CDD3" mask="url(#mask-2)"></path>
                        </g>
                    </g>
                </g>
            </g>
            <g id="编组备份" transform="translate(0.000000, 310.000000)">
                <path d="M369.305855,16.2882626 C368.323847,15.3562709 366.445997,14.1652827 364.601823,13.1035451 C364.402747,18.2042433 365.115854,21.0517204 367.112555,21.0259693 C367.604301,21.0259693 368.070792,19.3694805 368.530351,16.6507588 C369.257324,17.5569994 370.150689,18.5667395 370.961848,19.0589816 C369.966469,23.5634429 368.72695,25.0134278 366.423217,25.0134278 C360.44302,25.0134278 360.051802,17.4792508 361.481978,5.82886 L348.693587,5.82886 L349.24674,1.89339898 L365.866598,1.89339898 C365.557584,3.91287929 365.288188,5.82886 365.069799,7.56309739 C366.660425,6.19086101 368.247088,4.66312762 369.420249,3.31763276 L372.53118,5.12961866 C370.67512,6.91585345 368.530351,8.72833456 366.558906,10.2298216 C368.469439,11.1880596 370.506252,12.3532968 371.621473,13.2595373 L369.305855,16.2882626 Z" id="Fill-1" fill="#333333"></path>
                <g id="编组" transform="translate(374.212033, 0.037141)">
                    <mask id="mask-4" fill="white">
                        <use xlink:href="#path-3"></use>
                    </mask>
                    <g id="Clip-4"></g>
                    <path d="M19.7490615,9.93378306 C20.0858067,9.93378306 20.32549,9.88228086 20.5656685,9.64903534 C20.8682439,9.33853653 21.1648767,8.32879637 21.6298821,5.94681984 L18.4714109,5.94681984 C19.4301441,6.49006896 20.578544,7.34480731 21.1277357,8.04404866 L19.3865653,9.93378306 L19.7490615,9.93378306 Z M17.0021127,7.1893103 L18.1866632,5.94681984 L17.1769231,5.94681984 L17.0021127,7.1893103 Z M24.6204759,13.4032483 C24.6204759,13.4032483 24.4669598,14.3094888 24.3827735,14.7234872 C23.2571534,20.5229315 22.5420652,23.0341588 21.6595949,23.9666456 C20.9628296,24.6916381 20.304691,24.9501395 19.4583713,25.0798854 C18.7413022,25.2096313 17.6241008,25.2353824 16.4375694,25.2096313 C16.5049184,24.1736449 16.3132709,22.7761526 15.8967964,21.869912 C16.8139316,21.9734116 17.6944211,21.9734116 18.1604169,21.9734116 C18.5224179,21.9734116 18.7635868,21.9214142 19.0582388,21.6624176 C19.5049213,21.2484192 19.9714124,19.7726832 20.6513404,16.4062224 L12.2119133,16.4062224 L14.1224467,2.81409976 L16.6851761,2.81409976 C17.1011554,2.06286101 17.5245629,1.26061527 17.8003967,0.587125027 L21.72942,1.00161866 C21.2758045,1.64935781 20.7741533,2.26986022 20.3096431,2.81409976 L25.4870994,2.81409976 C25.4870994,2.81409976 25.3444779,3.64259181 25.2642534,4.03083913 C24.3991155,8.8982918 23.864285,11.0470228 23.1036372,11.8497638 C22.4658023,12.523254 21.8636228,12.7560043 21.0683101,12.8857502 C20.406705,12.9887546 19.3677472,13.0150009 18.2287564,13.0150009 C18.31839,12.0052608 18.142094,10.6850218 17.7701887,9.83077867 C18.3065049,9.88228086 18.8205364,9.90803196 19.2310683,9.93378306 C18.7521969,9.28653912 17.8038632,8.48379817 16.9035652,7.88855164 L16.1285563,13.4032483 L24.6204759,13.4032483 Z M19.3558621,20.6531727 L10.8901887,20.6531727 L11.3343952,17.4942063 L19.8000685,17.4942063 L19.3558621,20.6531727 Z M10.4563818,9.00179141 C9.85519269,7.94054905 8.87566055,6.62031008 7.87433902,5.45507291 C6.87153185,6.69756338 5.74244526,7.91479796 4.60593047,9.00179141 L10.4563818,9.00179141 Z M4.84908026,16.6657142 L4.34693385,20.238679 L6.85816109,20.238679 L7.36030749,16.6657142 L4.84908026,16.6657142 Z M3.35848787,10.1407823 C2.94845116,10.4775274 2.54287137,10.7885214 2.13679637,11.0995154 C1.9976414,10.2442819 1.38308155,8.17329936 0.966607068,7.26705881 C3.31490909,5.66157691 5.82366026,3.09835226 7.438056,0.457874325 L10.5841468,1.64935781 C10.4142886,1.93361031 10.2191745,2.21835802 10.0493163,2.50310574 C11.417591,3.82383992 12.8339014,5.53232621 13.5212576,6.72380969 L11.1813742,9.00179141 L11.3368712,9.00179141 L10.8783036,12.2637622 L3.06036939,12.2637622 L3.35848787,10.1407823 Z M9.83488894,23.3709039 L3.90668912,23.3709039 L3.73187879,24.6138896 L0.237652919,24.6138896 L1.7946039,13.532499 L11.2175248,13.532499 L9.83488894,23.3709039 Z" id="Fill-3" fill="#333333" mask="url(#mask-4)"></path>
                </g>
                <g id="编组" transform="translate(0.000000, 2.017995)">
                    <mask id="mask-6" fill="white">
                        <use xlink:href="#path-5"></use>
                    </mask>
                    <g id="Clip-6"></g>
                    <polygon id="Fill-5" fill="#333333" mask="url(#mask-6)" points="57.8857934 67.627087 44.3372496 67.627087 38.1143978 34.3705348 22.5448879 67.627087 9.08993939 67.627087 -0.000198085367 0.166144101 17.3392045 0.166144101 21.1439292 35.7917973 37.0467176 0.166144101 48.7961512 0.166144101 54.6852291 35.7917973 68.5036643 0.166144101 85.8425717 0.166144101"></polygon>
                </g>
                <path d="M105.868804,18.1024274 C114.111631,18.1024274 118.762181,21.4183764 121.341252,24.6397397 C124.952348,29.2823655 125.586222,34.2092438 124.188234,44.1575861 C122.777371,54.2010094 120.771261,59.033302 115.855278,63.6759277 C112.370956,66.897291 106.78792,70.21324 98.5450929,70.21324 C90.3012752,70.21324 85.6517164,66.897291 83.0721497,63.6759277 C79.4610535,59.033302 78.8133143,54.2010094 80.2251678,44.1575861 C81.6231553,34.2092438 83.6421404,29.2823655 88.5581239,24.6397397 C92.0429408,21.4183764 97.6249864,18.1024274 105.868804,18.1024274 Z M100.35906,33.0747594 C99.6647705,32.2665711 98.3415602,32.6543232 98.1929962,33.709623 L98.1929962,33.709623 L95.2984738,54.3040633 C95.139015,55.4410733 96.4785673,56.1650754 97.3417243,55.407894 L97.3417243,55.407894 L109.086206,45.1109215 C109.596771,44.6627533 109.652235,43.8872491 109.209019,43.3722272 L109.209019,43.3722272 Z" id="形状结合" fill="#333333"></path>
                <path d="M162.835283,34.7775012 C161.532377,33.2616529 160.270573,32.1251381 157.617715,32.1251381 C155.533362,32.1251381 151.190835,33.3567339 150.378685,39.1363697 L146.090632,69.6449827 L130.552816,69.6449827 L137.716078,18.6706848 L152.876542,18.6706848 L152.290209,22.8398866 C154.883642,20.5658666 159.68325,18.1021798 164.989462,18.1021798 C170.010926,18.1021798 173.248631,19.3337756 176.26151,22.8398866 L162.835283,34.7775012 Z" id="Fill-9" fill="#333333"></path>
                <polygon id="Fill-11" fill="#333333" points="204.738807 69.6450817 196.750024 50.9799928 193.251836 54.2959418 191.094191 69.6450817 175.55588 69.6450817 185.036741 2.18413877 200.575547 2.18413877 195.754645 36.4831152 211.99715 18.6702886 230.663229 18.6702886 208.933264 39.7990643 223.972896 69.6450817"></polygon>
                <path d="M252.200952,32.5984136 L246.994278,69.6453293 L231.455967,69.6453293 L236.662145,32.5984136 L232.019519,32.5984136 L233.697303,20.660799 L238.339928,20.660799 L238.965878,16.2068495 C239.951353,9.19561794 245.63046,1.14196214 256.90647,1.14196214 L265.148802,1.14196214 L263.312055,14.2175772 L257.910763,14.2175772 C255.826409,14.2175772 254.624526,15.3545872 254.344731,17.3438595 L253.87923,20.660799 L262.405815,20.660799 L260.728527,32.5984136 L252.200952,32.5984136 Z" id="Fill-13" fill="#333333"></path>
                <path d="M279.112731,69.6450817 C267.836721,69.6450817 264.421234,61.5914259 265.406214,54.5801943 L272.770037,2.18413877 L288.308844,2.18413877 L281.104974,53.4426891 C280.825674,55.4329518 281.707649,56.5699619 283.792002,56.5699619 L289.1928,56.5699619 L287.355558,69.6450817 L279.112731,69.6450817 Z" id="Fill-15" fill="#333333"></path>
                <path d="M313.884537,75.7085738 C312.4296,78.6461798 310.796881,80.8251188 308.95964,82.4360481 C305.474823,85.6574114 301.443786,86.6993404 296.89525,86.6993404 L291.021029,86.6993404 L292.991978,72.6768773 L296.307927,72.6768773 C299.055866,72.6768773 300.570229,72.0132913 302.051908,68.887009 L304.072874,64.6232215 L293.570387,18.6703877 L309.867861,18.6703877 L314.774435,45.1053751 L326.732849,18.6703877 L343.029827,18.6703877 L313.884537,75.7085738 Z" id="Fill-17" fill="#333333"></path>
            </g>
        </g>
    </g>
</svg>