<?xml version="1.0" encoding="UTF-8"?>
<svg width="38px" height="36px" viewBox="0 0 38 36" version="1.1" xmlns="http://www.w3.org/2000/svg" xmlns:xlink="http://www.w3.org/1999/xlink">
    <!-- Generator: Sketch 59 (86127) - https://sketch.com -->
    <title>编组 13</title>
    <desc>Created with Sketch.</desc>
    <g id="页面-2" stroke="none" stroke-width="1" fill="none" fill-rule="evenodd">
        <g id="首页3" transform="translate(-513.000000, -765.000000)">
            <g id="编组-13" transform="translate(513.000000, 765.000000)">
                <path d="M3.46948279,36 C3.08117597,36 2.69567788,35.861178 2.3895264,35.5898761 C1.85657002,35.1191497 1.68102445,34.3545716 1.95557773,33.6942862 L4.6400207,27.2401198 C1.63819133,24.2487521 0,20.4618005 0,16.458512 C0,7.38293499 8.52308886,0 18.9996489,0 C29.476209,0 38,7.38293499 38,16.458512 C38,25.5333842 29.476209,32.9163192 18.9996489,32.9163192 C16.3917438,32.9261847 13.8049042,32.4568677 11.3648207,31.5323272 L4.30507973,35.7667508 C4.05299629,35.9189618 3.76369717,36 3.46948279,36" id="Fill-1" fill="#6F8397"></path>
                <path d="M19.0009681,24 L19.0009678,24 C22.7580518,23.9986045 26.3253223,22.3547914 28.759409,19.5032611 L28.7594091,19.503261 C29.1201677,19.0814638 29.069433,18.4481444 28.6460903,18.0887042 C28.2227477,17.7292626 27.5871079,17.7798121 27.2263508,18.2016093 L27.2263508,18.2016093 C25.174299,20.6045799 22.1676083,21.9897736 19.0009717,21.9910663 L19.0009713,21.9910663 C15.8339188,21.9899757 12.8267473,20.6047814 10.7742948,18.2016093 L10.7742949,18.2016093 C10.4147516,17.7799071 9.7801761,17.7284542 9.35692885,18.0866865 C9.35613568,18.0873578 9.35534356,18.0880304 9.35455249,18.0887041 L9.35455247,18.0887042 C8.93130522,18.4469349 8.87966382,19.0791939 9.23920858,19.5008961 C9.23988236,19.5016864 9.24055738,19.5024756 9.24123363,19.5032638 L9.24123274,19.5032627 C11.6757239,22.3549946 15.2434714,23.9988214 19.0009713,24 L19.0009681,24 Z M12.9572881,12.4715073 L12.713718,12.4715073 C11.8188906,12.4715073 11.0920875,11.3917725 11.0920875,10.8856462 L11.0920875,10.5832681 C11.0920875,10.0771418 11.8188906,9 12.713718,9 L12.9572881,9 C13.8508143,9 14.5776174,10.0784383 14.5776174,10.5832681 L14.5776174,10.8856462 C14.5776174,11.3917725 13.8508143,12.4715073 12.9572881,12.4715073 Z M25.2855879,12.4715088 L25.0420178,12.4715088 C24.1484916,12.4715088 23.4216885,11.3904722 23.4216885,10.8856462 L23.4216885,10.5845661 C23.4216885,10.0784398 24.1484916,9.00000152 25.0420178,9.00000152 L25.2855879,9.00000152 C26.1791141,9.00000152 26.9059172,10.0797363 26.9059172,10.5832696 L26.9059172,10.8856477 C26.9059172,11.391774 26.1791141,12.4715088 25.2855879,12.4715088 L25.2855879,12.4715088 Z" id="形状" fill="#FFFFFF" fill-rule="nonzero"></path>
            </g>
        </g>
    </g>
</svg>