<?xml version="1.0" encoding="UTF-8"?>
<svg width="32px" height="38px" viewBox="0 0 32 38" version="1.1" xmlns="http://www.w3.org/2000/svg" xmlns:xlink="http://www.w3.org/1999/xlink">
    <!-- Generator: Sketch 59 (86127) - https://sketch.com -->
    <title>形状</title>
    <desc>Created with Sketch.</desc>
    <g id="页面-2" stroke="none" stroke-width="1" fill="none" fill-rule="evenodd">
        <g id="首页3" transform="translate(-404.000000, -762.000000)" fill="#6F8397" fill-rule="nonzero">
            <path d="M409.832559,774.036176 L430.189983,774.036176 L430.189983,774.508179 C430.189983,779.631622 430.190901,784.755065 430.189543,789.878508 C430.188992,791.610745 429.27552,792.526357 427.555296,792.5271 C427.127387,792.527211 426.699625,792.5271 426.301038,792.5271 C426.301038,794.362407 426.320746,796.146049 426.293809,797.928875 C426.277111,799.034484 425.332225,799.952286 424.249314,799.992371 C423.085996,800.035574 422.02404,799.220212 421.98279,798.0907 C421.916219,796.264449 421.964918,794.434041 421.964918,792.566294 L418.062285,792.566294 C418.062285,793.291724 418.063606,794.017897 418.061991,794.743996 C418.059569,795.813676 418.082286,796.884322 418.043862,797.952592 C418.006282,798.99837 417.193328,799.853372 416.190678,799.981459 C415.126887,800.117452 414.131724,799.494275 413.81582,798.476149 C413.746018,798.251189 413.704989,798.007523 413.703521,797.772134 C413.693612,796.252089 413.696108,794.731859 413.700732,793.211814 C413.701356,793.003334 413.735963,792.794817 413.760184,792.527025 C413.254106,792.527025 412.757681,792.530069 412.261218,792.526432 C410.791721,792.515668 409.835421,791.552324 409.83421,790.061378 C409.830173,784.853571 409.832596,779.645689 409.832559,774.437808 L409.832559,774.036176 L409.832559,774.036176 Z M430.198901,772.516577 L409.812558,772.516577 C410.001961,768.952559 412.004142,766.73685 414.980275,765.163544 C414.676996,764.698741 414.382561,764.246336 414.086878,763.794709 C413.871969,763.466382 413.654014,763.140096 413.44006,762.811138 C413.289227,762.579237 413.047455,762.317682 413.382699,762.08619 C413.744697,761.836251 413.892557,762.185883 414.052271,762.424501 C414.434306,762.995047 414.81124,763.569193 415.189386,764.142448 C415.655094,764.84869 415.654654,764.848467 416.45513,764.612484 C419.001116,763.862 421.53022,763.904498 424.041818,764.777724 C424.131767,764.809087 424.223845,764.834289 424.341648,764.870514 C424.862259,764.082023 425.378355,763.300177 425.894562,762.518479 C425.956326,762.424835 426.016732,762.330412 426.080552,762.238179 C426.225879,762.027881 426.410548,761.914566 426.642889,762.087934 C426.853173,762.244749 426.817429,762.444989 426.684689,762.645564 C426.236045,763.323374 425.79041,764.003189 425.344042,764.682373 C425.244367,764.834066 425.146345,764.986835 425.032321,765.162727 C427.992123,766.721818 430.012214,768.941906 430.198901,772.516577 L430.198901,772.516577 Z M425.459606,768.507613 C425.465698,767.911383 424.972172,767.404083 424.379375,767.397439 C423.781036,767.390647 423.293565,767.877905 423.288684,768.487422 C423.283986,769.104177 423.751163,769.584049 424.360108,769.587909 C424.96663,769.591695 425.453368,769.113419 425.459606,768.507613 L425.459606,768.507613 Z M416.72072,768.481224 C416.71294,767.872449 416.221505,767.385822 415.625772,767.397179 C415.034259,767.408388 414.540953,767.920885 414.551375,768.513626 C414.561945,769.118096 415.052682,769.595072 415.657223,769.58854 C416.26503,769.581933 416.728684,769.099278 416.720757,768.481224 L416.72072,768.481224 Z M435.99861,780.939921 C435.998536,782.472437 436.0025,784.005064 435.997362,785.537654 C435.992738,786.886669 435.075743,787.860739 433.823246,787.859923 C432.571704,787.859143 431.646929,786.878504 431.645681,785.537877 C431.642819,782.430459 431.639406,779.323041 431.648177,776.215697 C431.65137,775.071636 432.480141,774.153425 433.573694,774.038329 C434.711837,773.91863 435.709166,774.632666 435.950277,775.755831 C435.996812,775.972699 435.996188,776.202483 435.996738,776.426478 C436.000481,777.930897 435.998683,779.43539 435.998573,780.939921 L435.99861,780.939921 Z M408.358291,780.939995 C408.358291,782.543031 408.373338,784.146105 408.352713,785.748732 C408.340088,786.731376 407.656021,787.559098 406.725044,787.799461 C405.814765,788.034293 404.816445,787.652482 404.350552,786.815592 C404.160636,786.474497 404.023051,786.05145 404.019859,785.664331 C403.993766,782.514749 403.996885,779.364982 404.009289,776.215326 C404.014244,774.973947 404.982911,774.021627 406.187809,774.021627 C407.397771,774.021627 408.343758,774.959583 408.35752,776.215548 C408.374806,777.790191 408.361704,779.365241 408.361704,780.940032 L408.358291,780.939995 L408.358291,780.939995 Z" id="形状"></path>
        </g>
    </g>
</svg>